<svg width="42" height="42" viewBox="0 0 42 42" fill="none" xmlns="http://www.w3.org/2000/svg">
<circle cx="21" cy="21" r="21" fill="white" fill-opacity="0.08"/>
<g clip-path="url(#clip0_709_27939)">
<path d="M27.5286 25.469C27.2867 26.028 27.0002 26.5426 26.6684 27.0157C26.2161 27.6606 25.8457 28.107 25.5603 28.3549C25.1178 28.7618 24.6438 28.9702 24.1361 28.982C23.7717 28.982 23.3322 28.8783 22.8206 28.668C22.3074 28.4586 21.8357 28.3549 21.4044 28.3549C20.952 28.3549 20.4669 28.4586 19.948 28.668C19.4283 28.8783 19.0097 28.988 18.6896 28.9988C18.2028 29.0196 17.7176 28.8052 17.2332 28.3549C16.9241 28.0853 16.5375 27.6231 16.0743 26.9683C15.5773 26.269 15.1687 25.4582 14.8486 24.5338C14.5058 23.5353 14.334 22.5684 14.334 21.6323C14.334 20.5601 14.5657 19.6352 15.0298 18.8603C15.3945 18.2378 15.8797 17.7467 16.487 17.3862C17.0943 17.0257 17.7505 16.842 18.4571 16.8303C18.8438 16.8303 19.3508 16.9499 19.9809 17.1849C20.6092 17.4208 21.0127 17.5404 21.1896 17.5404C21.3218 17.5404 21.77 17.4005 22.5298 17.1217C23.2483 16.8632 23.8547 16.7561 24.3514 16.7983C25.6976 16.9069 26.7089 17.4376 27.3815 18.3936C26.1776 19.1231 25.582 20.1448 25.5939 21.4554C25.6047 22.4763 25.9751 23.3259 26.703 24.0004C27.0328 24.3135 27.4012 24.5555 27.8111 24.7273C27.7222 24.9851 27.6284 25.232 27.5286 25.469ZM24.4413 13.3203C24.4413 14.1205 24.149 14.8676 23.5663 15.5591C22.8631 16.3812 22.0126 16.8563 21.0902 16.7813C21.0785 16.6853 21.0716 16.5843 21.0716 16.4781C21.0716 15.7099 21.4061 14.8878 21.9999 14.2157C22.2964 13.8753 22.6735 13.5923 23.1307 13.3666C23.587 13.1442 24.0186 13.0212 24.4245 13.0002C24.4364 13.1072 24.4413 13.2141 24.4413 13.3203V13.3203Z" fill="white"/>
</g>
<defs>
<clipPath id="clip0_709_27939">
<rect width="16" height="16" fill="white" transform="translate(13 13)"/>
</clipPath>
</defs>
</svg>
