<svg width="25" height="22" viewBox="0 0 25 22" fill="none" xmlns="http://www.w3.org/2000/svg">
<path opacity="0.99" fill-rule="evenodd" clip-rule="evenodd" d="M24.0823 8.49219C24.0823 8.83592 24.0823 9.1797 24.0823 9.52344C23.9623 10.0914 23.7045 10.5913 23.3088 11.0234C21.3609 13.0027 19.3843 14.948 17.3792 16.8594C16.8395 17.1803 16.2926 17.196 15.7385 16.9062C15.402 16.616 15.2066 16.2488 15.1526 15.8047C15.137 15.0391 15.1213 14.2734 15.1057 13.5078C9.34782 13.8745 4.73063 16.3354 1.25415 20.8906C0.763374 21.1565 0.37275 21.0549 0.0822754 20.5859C0.0822754 20.0859 0.0822754 19.586 0.0822754 19.0859C0.696549 13.4095 3.4778 9.16728 8.42603 6.35937C10.5237 5.25294 12.7581 4.65134 15.1292 4.55469C15.1213 3.78889 15.1292 3.02328 15.1526 2.25781C15.3425 1.16101 15.9753 0.746946 17.051 1.01562C17.2666 1.12204 17.4697 1.24704 17.6604 1.39062C19.5901 3.32031 21.5198 5.24998 23.4495 7.17969C23.7503 7.57808 23.9612 8.01556 24.0823 8.49219Z" fill="#67707B"/>
</svg>
