<svg width="20" height="20" viewBox="0 0 20 20" fill="none" xmlns="http://www.w3.org/2000/svg">
<g clip-path="url(#clip0_184_9471)">
<path opacity="0.962" fill-rule="evenodd" clip-rule="evenodd" d="M9.08203 -0.0195312C9.68098 -0.0195312 10.28 -0.0195312 10.8789 -0.0195312C14.8191 0.482285 17.6121 2.53958 19.2578 6.15234C19.6288 7.1023 19.8696 8.07887 19.9805 9.08203C19.9805 9.68098 19.9805 10.28 19.9805 10.8789C19.7305 13.3123 18.7409 15.3892 17.0117 17.1094C16.3385 17.2821 16.0455 17.0282 16.1328 16.3477C16.436 15.9629 16.7485 15.5852 17.0703 15.2148C18.9152 12.5392 19.2667 9.67465 18.125 6.62109C16.8014 3.68337 14.5553 1.90603 11.3867 1.28906C8.00813 0.865438 5.2282 1.95268 3.04688 4.55078C1.11396 7.18246 0.68427 10.047 1.75781 13.1445C2.20714 14.3044 2.8712 15.32 3.75 16.1914C3.94246 16.5089 3.90992 16.8019 3.65234 17.0703C3.4248 17.1845 3.19042 17.1975 2.94922 17.1094C1.22005 15.3892 0.230466 13.3123 -0.0195312 10.8789C-0.0195312 10.28 -0.0195312 9.68098 -0.0195312 9.08203C0.464867 5.2675 2.43102 2.5136 5.87891 0.820312C6.90984 0.380348 7.97754 0.100401 9.08203 -0.0195312Z" fill="#67707B"/>
<path opacity="0.96" fill-rule="evenodd" clip-rule="evenodd" d="M9.35548 2.48048C12.5277 2.36374 14.9301 3.6528 16.5625 6.34766C17.6372 8.43786 17.7674 10.5863 16.9531 12.793C16.6562 13.5373 16.2461 14.2078 15.7227 14.8047C15.3204 14.9961 15.0145 14.8984 14.8047 14.5117C14.763 14.3059 14.789 14.1106 14.8828 13.9258C16.3791 11.9298 16.6656 9.76833 15.7422 7.44141C14.6873 5.27583 12.962 4.03235 10.5664 3.71094C7.90739 3.58517 5.88266 4.64637 4.49219 6.89454C3.23364 9.42969 3.455 11.8256 5.15626 14.082C5.22145 14.72 4.94149 14.974 4.31641 14.8438C4.22032 14.7868 4.13567 14.7152 4.06251 14.6289C2.3917 12.3343 2.04014 9.84727 3.00782 7.16798C4.24317 4.41176 6.35907 2.84926 9.35548 2.48048Z" fill="#67707B"/>
<path opacity="0.96" fill-rule="evenodd" clip-rule="evenodd" d="M9.5508 4.98045C11.5098 4.90861 13.0528 5.66381 14.1797 7.24607C15.1387 8.85268 15.2299 10.5063 14.4531 12.207C14.1744 12.4803 13.8685 12.5129 13.5352 12.3047C13.4224 12.1767 13.3573 12.0269 13.3399 11.8554C13.4909 11.4609 13.6146 11.0572 13.711 10.6445C13.9086 8.85885 13.238 7.51119 11.6992 6.60154C10.2452 5.94627 8.87806 6.08947 7.59767 7.03123C6.50736 7.99475 6.05814 9.19916 6.25001 10.6445C6.3463 11.0571 6.47001 11.4607 6.62111 11.8554C6.53447 12.313 6.26103 12.5019 5.8008 12.4219C5.68119 12.3804 5.58353 12.3088 5.50783 12.207C4.59357 10.1219 4.88001 8.22084 6.3672 6.50389C7.25564 5.63322 8.31685 5.12541 9.5508 4.98045Z" fill="#67707B"/>
<path opacity="0.991" fill-rule="evenodd" clip-rule="evenodd" d="M14.2773 19.9805C11.4128 19.9805 8.54815 19.9805 5.68358 19.9805C4.6564 19.6577 4.32436 18.9807 4.68749 17.9492C6.07085 15.534 7.46409 13.1251 8.86718 10.7227C9.60936 9.99349 10.3516 9.99349 11.0937 10.7227C12.4968 13.1251 13.8901 15.534 15.2734 17.9492C15.6366 18.9807 15.3045 19.6577 14.2773 19.9805Z" fill="#67707B"/>
</g>
<defs>
<clipPath id="clip0_184_9471">
<rect width="20" height="20" fill="white"/>
</clipPath>
</defs>
</svg>
