<svg width="22" height="23" viewBox="0 0 22 23" fill="none" xmlns="http://www.w3.org/2000/svg">
<path opacity="0.985" fill-rule="evenodd" clip-rule="evenodd" d="M16.3926 19.2988C14.8905 19.969 13.3294 20.1552 11.709 19.8574C10.3808 19.5727 9.16332 19.0427 8.05662 18.2676C7.3167 17.7426 6.65786 17.1268 6.08006 16.4199C5.06784 15.1835 4.33737 13.7942 3.88865 12.252C3.73358 11.6601 3.63332 11.0586 3.58787 10.4473C3.50504 9.47906 3.56233 8.5194 3.75974 7.56837C4.15669 5.79187 5.05903 4.33809 6.46677 3.20704C6.52362 3.17198 6.55224 3.12185 6.55271 3.05665C8.95333 1.49321 11.4885 1.25688 14.1582 2.34767C17.5898 3.97598 19.6737 6.66152 20.4101 10.4043C20.8104 12.6725 20.4237 14.7923 19.25 16.7637C18.5303 17.8776 17.5778 18.7227 16.3926 19.2988Z" fill="#FED374"/>
<path fill-rule="evenodd" clip-rule="evenodd" d="M4.57619 6.45118C5.04133 6.69086 5.51398 6.92005 5.99416 7.13868C6.05144 7.19595 6.05144 7.25327 5.99416 7.31055C5.72071 7.44728 5.44854 7.58336 5.17775 7.71876C5.34997 7.69749 5.52185 7.66165 5.69338 7.61133C5.02302 10.2004 5.47419 12.6066 7.04689 14.8301C8.33299 16.5583 10.0446 17.5968 12.1817 17.9453C14.9333 18.1273 16.917 16.9887 18.1328 14.5293C19.0385 12.0702 18.8093 9.72119 17.4453 7.48243C16.4127 5.81945 14.9733 4.66645 13.127 4.02344C11.0451 3.39139 9.15447 3.74231 7.4551 5.07618C7.4615 5.03097 7.45437 4.98801 7.43361 4.94727C7.32851 5.11459 7.23544 5.28647 7.15431 5.4629C7.02996 5.52228 6.92254 5.60822 6.83205 5.72071C6.6423 5.95996 6.46325 6.20346 6.29494 6.45118C6.19899 6.24497 6.09157 6.04448 5.97267 5.84961C6.03842 6.14735 6.13153 6.44099 6.25197 6.73047C6.24574 6.76365 6.23143 6.79231 6.209 6.81641C6.13737 6.84507 6.06579 6.84507 5.99416 6.81641C5.53938 6.63904 5.08103 6.47429 4.61916 6.32227C5.71387 3.88349 7.59019 2.48701 10.2481 2.13282C12.8313 2.07156 15.0514 2.93093 16.9082 4.71094C19.5493 7.36379 20.5304 10.5363 19.8516 14.2285C19.0511 17.1776 17.1534 18.9322 14.1582 19.4922C12.5079 19.6882 10.9467 19.4017 9.47463 18.6328C6.46737 16.9398 4.66982 14.3832 4.08205 10.9629C3.87568 9.63959 3.96162 8.33622 4.33986 7.05274C4.39877 6.83944 4.47753 6.63891 4.57619 6.45118Z" fill="#FFB961"/>
<path opacity="0.989" fill-rule="evenodd" clip-rule="evenodd" d="M6.55273 3.05664C6.55226 3.12184 6.52364 3.17197 6.4668 3.20703C5.05905 4.33808 4.15672 5.79186 3.75977 7.56836C3.06494 7.98026 2.36311 8.38133 1.6543 8.77148C2.08649 6.83858 3.10342 5.29888 4.70508 4.15234C5.32215 3.78662 5.93802 3.42138 6.55273 3.05664Z" fill="#F3A250"/>
<path fill-rule="evenodd" clip-rule="evenodd" d="M5.69333 7.61133C5.83509 7.52612 5.99265 7.48315 6.16599 7.48242C5.97929 8.1071 5.77876 8.73015 5.56443 9.35156C5.5848 9.42065 5.61346 9.42779 5.65037 9.37304C5.71228 9.23451 5.78391 9.10561 5.86521 8.98633C5.65097 12.0592 6.76815 14.5155 9.21677 16.3555C10.9729 17.5701 12.8635 17.8422 14.8886 17.1719C15.4543 16.9415 15.9556 16.6193 16.3926 16.2051C17.4433 15.2352 18.052 14.0321 18.2187 12.5957C18.3998 9.26936 17.0892 6.72703 14.2871 4.96875C12.6652 4.05855 10.9751 3.901 9.21677 4.49609C8.41575 4.83215 7.72825 5.32629 7.15427 5.97851C7.24708 5.67142 7.34737 5.37064 7.45505 5.07617C9.15442 3.7423 11.045 3.39139 13.1269 4.02344C14.9733 4.66644 16.4127 5.81944 17.4453 7.48242C18.8093 9.72118 19.0384 12.0702 18.1328 14.5293C16.9169 16.9887 14.9332 18.1273 12.1816 17.9453C10.0445 17.5967 8.33295 16.5583 7.04685 14.8301C5.47415 12.6066 5.02298 10.2004 5.69333 7.61133Z" fill="#FED274"/>
<path fill-rule="evenodd" clip-rule="evenodd" d="M16.3926 16.2051C17.4808 14.4673 17.7458 12.6054 17.1875 10.6191C16.4491 8.19101 14.9237 6.46508 12.6113 5.44139C11.5555 5.03938 10.467 4.92482 9.3457 5.09764C8.57398 5.26157 7.87218 5.5767 7.24023 6.04296C7.19997 6.07269 7.17136 6.06551 7.1543 6.02147C7.1543 6.00716 7.1543 5.99281 7.1543 5.9785C7.72827 5.32628 8.41577 4.83214 9.2168 4.49608C10.9751 3.90099 12.6652 4.05854 14.2871 4.96874C17.0893 6.72702 18.3998 9.26935 18.2188 12.5957C18.052 14.0321 17.4433 15.2352 16.3926 16.2051Z" fill="#DD8536"/>
<path fill-rule="evenodd" clip-rule="evenodd" d="M16.3926 16.2051C15.9556 16.6193 15.4543 16.9415 14.8886 17.1719C12.8635 17.8422 10.9729 17.5701 9.21677 16.3555C6.76816 14.5155 5.65097 12.0592 5.86521 8.98633C6.05973 8.56146 6.26027 8.13894 6.46677 7.71875C6.53604 7.68782 6.60049 7.69495 6.66013 7.74024C6.76639 8.01004 6.8953 8.26785 7.04685 8.51368C6.99134 8.2248 6.91257 7.93832 6.81052 7.6543C6.80769 7.57842 6.84352 7.53545 6.91795 7.52539C7.49605 7.7802 8.09048 7.97356 8.70115 8.10547C8.15093 7.78381 7.58516 7.49016 7.00388 7.22461C6.97449 7.16944 6.98167 7.1193 7.02537 7.07422C7.32383 6.95365 7.61026 6.81044 7.88474 6.64453C7.55242 6.72192 7.22302 6.80786 6.89646 6.90235C6.85117 6.84271 6.84404 6.77825 6.87498 6.70899C6.95662 6.47034 7.04969 6.24119 7.15427 6.02149C7.17133 6.06553 7.19995 6.07271 7.24021 6.04297C7.87215 5.57672 8.57396 5.26159 9.34568 5.09766C10.4669 4.92484 11.5555 5.03939 12.6113 5.44141C14.9237 6.4651 16.4491 8.19102 17.1875 10.6191C17.7457 12.6054 17.4807 14.4673 16.3926 16.2051Z" fill="#F2A250"/>
<path fill-rule="evenodd" clip-rule="evenodd" d="M7.45502 5.07617C7.34734 5.37064 7.24706 5.67142 7.15424 5.97852C7.15424 5.99282 7.15424 6.00718 7.15424 6.02148C7.04966 6.24118 6.95659 6.47034 6.87495 6.70898C6.84401 6.77825 6.85114 6.8427 6.89643 6.90234C7.22299 6.80786 7.55239 6.72192 7.88471 6.64453C7.61023 6.81043 7.3238 6.95365 7.02534 7.07422C6.98164 7.11929 6.97446 7.16944 7.00385 7.22461C7.58513 7.49016 8.1509 7.7838 8.70112 8.10547C8.09045 7.97355 7.49602 7.78019 6.91792 7.52539C6.84349 7.53544 6.80766 7.57841 6.81049 7.6543C6.91254 7.93832 6.99131 8.22479 7.04682 8.51367C6.89527 8.26785 6.76636 8.01003 6.6601 7.74023C6.60046 7.69495 6.53601 7.68781 6.46674 7.71875C6.26024 8.13894 6.0597 8.56145 5.86518 8.98633C5.78388 9.10561 5.71225 9.23452 5.65034 9.37305C5.61343 9.42779 5.58477 9.42066 5.5644 9.35156C5.77873 8.73015 5.97926 8.1071 6.16596 7.48242C5.99263 7.48315 5.83506 7.52612 5.69331 7.61133C5.52177 7.66164 5.3499 7.69748 5.17768 7.71875C5.44847 7.58336 5.72063 7.44727 5.99409 7.31055C6.05136 7.25327 6.05136 7.19595 5.99409 7.13867C5.51391 6.92005 5.04125 6.69085 4.57612 6.45117C4.16424 6.24041 4.17856 6.19744 4.61909 6.32227C5.08096 6.47429 5.53931 6.63903 5.99409 6.81641C6.06572 6.84507 6.1373 6.84507 6.20893 6.81641C6.23136 6.7923 6.24567 6.76364 6.2519 6.73047C6.13146 6.44099 6.03834 6.14734 5.9726 5.84961C6.0915 6.04447 6.19892 6.24496 6.29487 6.45117C6.33186 6.53221 6.37483 6.61102 6.42377 6.6875C6.47895 6.71689 6.52909 6.70971 6.57417 6.66602C6.7564 6.25859 6.94975 5.85756 7.15424 5.46289C7.23537 5.28646 7.32844 5.11459 7.43354 4.94727C7.45429 4.988 7.46143 5.03097 7.45502 5.07617Z" fill="#FFFBF7"/>
<path fill-rule="evenodd" clip-rule="evenodd" d="M7.1543 5.46289C6.94981 5.85756 6.75645 6.25859 6.57422 6.66602C6.52914 6.70972 6.479 6.71689 6.42383 6.6875C6.37489 6.61102 6.33192 6.53221 6.29492 6.45117C6.46323 6.20346 6.64228 5.95995 6.83203 5.7207C6.92252 5.60821 7.02995 5.52227 7.1543 5.46289Z" fill="#FFD478"/>
<path fill-rule="evenodd" clip-rule="evenodd" d="M15.2324 12.6816C15.1916 12.8702 15.0914 13.0206 14.9316 13.1328C13.7442 13.5585 12.5411 13.9309 11.3222 14.25C10.8038 14.3045 10.4671 14.0825 10.3125 13.584C9.99084 12.1257 9.57546 10.6935 9.06636 9.2871C9.04303 9.14238 9.05021 8.99916 9.08785 8.85741C9.21065 8.68468 9.36822 8.54864 9.5605 8.44921C10.7381 8.16553 11.8982 7.82178 13.041 7.41796C13.4962 7.39961 13.8041 7.60728 13.9648 8.041C14.4638 9.36594 14.8934 10.7123 15.2539 12.0801C15.2847 12.2829 15.2775 12.4834 15.2324 12.6816Z" fill="#F6F5F8"/>
<path fill-rule="evenodd" clip-rule="evenodd" d="M3.75972 7.56836C3.56231 8.51939 3.50502 9.47905 3.58784 10.4473C2.90292 10.8185 2.22974 11.2124 1.56831 11.6289C1.52758 11.6497 1.48461 11.6568 1.4394 11.6504C1.35561 10.6773 1.42722 9.71766 1.65425 8.77148C2.36307 8.38133 3.06489 7.98026 3.75972 7.56836Z" fill="#DD8536"/>
<path fill-rule="evenodd" clip-rule="evenodd" d="M13.4277 7.74022C13.209 8.5302 12.9512 9.30364 12.6543 10.0605C12.4374 10.4195 12.1223 10.5341 11.709 10.4043C10.9295 9.92132 10.1418 9.44866 9.3457 8.98632C9.40702 8.84607 9.50731 8.73864 9.64648 8.66405C10.8038 8.42119 11.9353 8.09175 13.041 7.67577C13.1803 7.64169 13.3092 7.66318 13.4277 7.74022Z" fill="#E3E7F0"/>
<path fill-rule="evenodd" clip-rule="evenodd" d="M13.4277 7.74023C13.5865 7.84203 13.6939 7.98529 13.75 8.16992C14.2346 9.45189 14.65 10.7553 14.9961 12.0801C15.031 12.2601 15.0238 12.4319 14.9746 12.5957C14.3324 12.1825 13.7022 11.7528 13.084 11.3066C12.7176 10.9665 12.5744 10.5512 12.6543 10.0605C12.9512 9.30365 13.209 8.53021 13.4277 7.74023Z" fill="#C9CEE2"/>
<path fill-rule="evenodd" clip-rule="evenodd" d="M9.08791 8.85742C9.05027 8.99918 9.04309 9.14239 9.06643 9.28711C9.57552 10.6935 9.9909 12.1258 10.3125 13.584C10.4672 14.0825 10.8038 14.3045 11.3223 14.25C12.5412 13.9309 13.7443 13.5585 14.9317 13.1328C15.0915 13.0206 15.1917 12.8702 15.2324 12.6816C15.2202 13.1048 15.0054 13.3985 14.5879 13.5625C13.4744 13.9657 12.3429 14.3094 11.1934 14.5937C10.7407 14.6931 10.4041 14.5427 10.1836 14.1426C9.83234 12.6447 9.40266 11.1694 8.89455 9.7168C8.82748 9.39621 8.89193 9.10973 9.08791 8.85742Z" fill="#DE873A"/>
<path fill-rule="evenodd" clip-rule="evenodd" d="M9.34567 8.98633C10.1418 9.44867 10.9295 9.92133 11.709 10.4043C11.8543 10.5427 11.976 10.7002 12.0742 10.877C12.0893 11.1021 12.0965 11.317 12.0957 11.5215C11.7057 12.3443 11.3047 13.1607 10.8925 13.9707C10.6853 13.8433 10.5636 13.6571 10.5273 13.4121C10.2137 12.0128 9.81265 10.6378 9.32419 9.28711C9.28998 9.17801 9.29716 9.07777 9.34567 8.98633Z" fill="#C9CEE2"/>
<path fill-rule="evenodd" clip-rule="evenodd" d="M12.6543 10.0605C12.5744 10.5512 12.7176 10.9665 13.084 11.3066C12.6861 11.0809 12.3567 11.1526 12.0957 11.5215C12.0965 11.317 12.0893 11.1021 12.0742 10.877C11.9761 10.7002 11.8543 10.5427 11.709 10.4043C12.1223 10.5341 12.4374 10.4195 12.6543 10.0605Z" fill="#EFF4F8"/>
<path opacity="0.996" fill-rule="evenodd" clip-rule="evenodd" d="M3.58789 10.4473C3.63334 11.0585 3.7336 11.6601 3.88867 12.252C3.16378 12.6499 2.46196 13.0796 1.7832 13.541C1.60453 12.9278 1.48995 12.2976 1.43945 11.6504C1.48466 11.6568 1.52763 11.6497 1.56836 11.6289C2.22979 11.2124 2.90297 10.8185 3.58789 10.4473Z" fill="#F2A14F"/>
<path fill-rule="evenodd" clip-rule="evenodd" d="M13.084 11.3066C13.7022 11.7528 14.3324 12.1825 14.9746 12.5957C14.965 12.7702 14.879 12.892 14.7168 12.9609C13.5318 13.3789 12.3286 13.7298 11.1074 14.0137C11.0319 14.0097 10.9603 13.9954 10.8926 13.9707C11.3047 13.1607 11.7058 12.3443 12.0957 11.5215C12.3567 11.1526 12.6861 11.0809 13.084 11.3066Z" fill="#B0B8CF"/>
<path fill-rule="evenodd" clip-rule="evenodd" d="M3.88867 12.252C4.33739 13.7941 5.06786 15.1835 6.08008 16.4199C6.0613 16.4876 6.01833 16.5377 5.95117 16.5703C5.29697 16.9618 4.63813 17.3413 3.97461 17.709C2.91915 16.5008 2.18868 15.1115 1.7832 13.541C2.46196 13.0796 3.16378 12.6499 3.88867 12.252Z" fill="#DD8536"/>
<path fill-rule="evenodd" clip-rule="evenodd" d="M7.9707 13.9277C8.32911 13.9067 8.54395 14.0714 8.61523 14.4219C8.56393 14.6861 8.40636 14.772 8.14258 14.6797C7.97066 14.5577 7.87041 14.393 7.8418 14.1856C7.8473 14.0801 7.89027 13.9941 7.9707 13.9277Z" fill="#FAE1C7"/>
<path fill-rule="evenodd" clip-rule="evenodd" d="M8.91596 14.7871C9.07086 14.8 9.21412 14.8501 9.34565 14.9375C10.0185 15.4461 10.7347 15.8901 11.4941 16.2695C11.681 16.4814 11.638 16.639 11.3652 16.7422C10.35 16.7109 9.54077 16.2884 8.93745 15.4746C8.81327 15.2454 8.80613 15.0163 8.91596 14.7871Z" fill="#FAE1C8"/>
<path opacity="0.997" fill-rule="evenodd" clip-rule="evenodd" d="M6.08008 16.4199C6.65788 17.1268 7.31672 17.7426 8.05664 18.2676C7.34048 18.683 6.62436 19.0983 5.9082 19.5137C5.16609 19.0201 4.52156 18.4186 3.97461 17.709C4.63813 17.3413 5.29697 16.9618 5.95117 16.5703C6.01833 16.5377 6.0613 16.4876 6.08008 16.4199Z" fill="#F2A24F"/>
<path fill-rule="evenodd" clip-rule="evenodd" d="M8.05664 18.2676C9.16334 19.0427 10.3808 19.5727 11.709 19.8574C11.0101 20.2701 10.3226 20.6998 9.64648 21.1465C8.26534 20.8923 7.01925 20.3481 5.9082 19.5137C6.62436 19.0983 7.34048 18.683 8.05664 18.2676Z" fill="#DD8536"/>
<path opacity="0.987" fill-rule="evenodd" clip-rule="evenodd" d="M16.3926 19.2988C15.5997 19.8318 14.769 20.3116 13.9004 20.7383C12.521 21.2715 11.103 21.4076 9.64648 21.1465C10.3226 20.6998 11.0101 20.2701 11.709 19.8574C13.3294 20.1552 14.8906 19.969 16.3926 19.2988Z" fill="#F3A250"/>
</svg>
