<svg width="14" height="14" viewBox="0 0 14 14" fill="none" xmlns="http://www.w3.org/2000/svg">
<path fill-rule="evenodd" clip-rule="evenodd" d="M6.60266 0.860231C7.739 0.860231 8.8498 1.19722 9.7946 1.82857C10.7394 2.45992 11.4758 3.35727 11.9105 4.40714C12.3453 5.45701 12.459 6.61223 12.2371 7.7267C12.0153 8.84117 11.468 9.86483 10.6643 10.6682C9.8607 11.4716 8.83687 12.0186 7.72232 12.2401C6.60778 12.4615 5.45259 12.3475 4.40287 11.9124C3.35314 11.4773 2.45602 10.7406 1.82498 9.79563C1.19393 8.85063 0.857301 7.73971 0.857666 6.60338C0.857423 5.84895 1.00587 5.10188 1.29452 4.40486C1.58317 3.70783 2.00636 3.07454 2.53991 2.54116C3.07345 2.00779 3.70689 1.5848 4.404 1.29638C5.10111 1.00795 5.84824 0.859745 6.60266 0.860231Z" fill="url(#paint0_radial_341_14014)"/>
<path fill-rule="evenodd" clip-rule="evenodd" d="M6.60295 0.000366211C7.90889 0.000366211 9.18551 0.387623 10.2714 1.11316C11.3572 1.83871 12.2035 2.86995 12.7033 4.07648C13.203 5.28301 13.3338 6.61065 13.079 7.89149C12.8243 9.17234 12.1954 10.3489 11.2719 11.2723C10.3485 12.1958 9.17197 12.8246 7.89113 13.0794C6.61028 13.3342 5.28265 13.2034 4.07611 12.7037C2.86958 12.2039 1.83834 11.3576 1.1128 10.2717C0.387256 9.18588 0 7.90926 0 6.60332C0 4.85211 0.695663 3.17262 1.93396 1.93433C3.17225 0.696033 4.85174 0.000366211 6.60295 0.000366211ZM6.60295 1.14123C7.68325 1.14123 8.73929 1.46158 9.63753 2.06176C10.5358 2.66194 11.2359 3.515 11.6493 4.51307C12.0627 5.51114 12.1708 6.60938 11.9601 7.66892C11.7493 8.72847 11.2291 9.70172 10.4652 10.4656C9.70135 11.2295 8.7281 11.7497 7.66856 11.9605C6.60901 12.1712 5.51077 12.063 4.5127 11.6496C3.51463 11.2362 2.66157 10.5361 2.06139 9.6379C1.46121 8.73966 1.14086 7.68362 1.14086 6.60332C1.14135 5.15483 1.71698 3.76582 2.74121 2.74158C3.76545 1.71735 5.15447 1.14172 6.60295 1.14123Z" fill="#808080"/>
<path fill-rule="evenodd" clip-rule="evenodd" d="M6.60296 0.571722C7.79634 0.571722 8.96292 0.925625 9.95515 1.58867C10.9474 2.25172 11.7207 3.19412 12.1773 4.2967C12.6339 5.39927 12.7533 6.61249 12.5203 7.78292C12.2874 8.95334 11.7126 10.0284 10.8686 10.8721C10.0246 11.7158 8.94938 12.2903 7.77889 12.5229C6.60839 12.7555 5.39521 12.6358 4.29277 12.1788C3.19034 11.7219 2.24817 10.9483 1.58543 9.95583C0.922688 8.96339 0.569142 7.7967 0.569508 6.60332C0.569265 5.81102 0.725171 5.02643 1.02832 4.29441C1.33146 3.5624 1.7759 2.8973 2.33623 2.33714C2.89656 1.77698 3.5618 1.33275 4.29391 1.02982C5.02602 0.726903 5.81065 0.571236 6.60296 0.571722ZM6.60296 0.000366211C5.29702 0.000366211 4.0204 0.387623 2.93455 1.11316C1.8487 1.83871 1.00239 2.86995 0.502623 4.07648C0.00286101 5.28301 -0.1279 6.61065 0.126877 7.89149C0.381653 9.17234 1.01052 10.3489 1.93396 11.2723C2.8574 12.1958 4.03394 12.8246 5.31478 13.0794C6.59563 13.3342 7.92326 13.2034 9.1298 12.7037C10.3363 12.2039 11.3676 11.3576 12.0931 10.2717C12.8187 9.18588 13.2059 7.90926 13.2059 6.60332C13.2059 4.85211 12.5102 3.17262 11.272 1.93433C10.0337 0.696033 8.35417 0.000366211 6.60296 0.000366211Z" fill="url(#paint1_radial_341_14014)"/>
<path style="mix-blend-mode:multiply" fill-rule="evenodd" clip-rule="evenodd" d="M6.60266 0.860231C7.739 0.860231 8.8498 1.19722 9.7946 1.82857C10.7394 2.45992 11.4758 3.35727 11.9105 4.40714C12.3453 5.45701 12.459 6.61223 12.2371 7.7267C12.0153 8.84117 11.468 9.86483 10.6643 10.6682C9.8607 11.4716 8.83687 12.0186 7.72232 12.2401C6.60778 12.4615 5.45259 12.3475 4.40287 11.9124C3.35314 11.4773 2.45602 10.7406 1.82498 9.79563C1.19393 8.85063 0.857301 7.73971 0.857666 6.60338C0.857423 5.84895 1.00587 5.10188 1.29452 4.40486C1.58317 3.70783 2.00636 3.07454 2.53991 2.54116C3.07345 2.00779 3.70689 1.5848 4.404 1.29638C5.10111 1.00795 5.84824 0.859745 6.60266 0.860231Z" fill="url(#paint2_radial_341_14014)"/>
<path style="mix-blend-mode:screen" fill-rule="evenodd" clip-rule="evenodd" d="M6.47726 1.91595C7.11149 2.55017 6.60485 4.08488 5.34379 5.34593C4.08274 6.60698 2.54618 7.11362 1.91196 6.4794C1.27774 5.84517 1.78622 4.30861 3.04543 3.04941C4.30463 1.79021 5.84304 1.27987 6.47726 1.91595Z" fill="url(#paint3_radial_341_14014)"/>
<path style="mix-blend-mode:screen" fill-rule="evenodd" clip-rule="evenodd" d="M11.2772 7.83294C11.6471 8.20275 11.17 9.2678 10.2177 10.2182C9.26547 11.1686 8.19857 11.6438 7.83061 11.2777C7.46265 10.9116 7.93971 9.84286 8.89012 8.8906C9.84053 7.93834 10.9111 7.46313 11.2772 7.83294Z" fill="url(#paint4_radial_341_14014)"/>
<path style="mix-blend-mode:multiply" fill-rule="evenodd" clip-rule="evenodd" d="M6.60298 1.57386C9.26006 1.57386 11.4771 3.38038 12.004 5.78599C11.8091 4.49305 11.1569 3.31291 10.1658 2.46002C9.1747 1.60712 7.91053 1.13806 6.60298 1.13806C5.29542 1.13806 4.03125 1.60712 3.04015 2.46002C2.04906 3.31291 1.3968 4.49305 1.2019 5.78599C1.72703 3.38223 3.94589 1.57386 6.60298 1.57386Z" fill="url(#paint5_radial_341_14014)"/>
<path style="mix-blend-mode:multiply" fill-rule="evenodd" clip-rule="evenodd" d="M11.8285 9.62097C11.0277 11.0057 9.7104 12.0164 8.16553 12.4315L8.3116 12.9862C10.0029 12.5317 11.4451 11.4253 12.3222 9.90942L11.8285 9.62467V9.62097Z" fill="url(#paint6_radial_341_14014)"/>
<path style="mix-blend-mode:multiply" fill-rule="evenodd" clip-rule="evenodd" d="M12.6345 6.60327C12.6374 7.1304 12.5716 7.65566 12.4385 8.16572L12.9932 8.31364C13.1422 7.75575 13.2175 7.18073 13.2169 6.60327H12.6345Z" fill="url(#paint7_radial_341_14014)"/>
<path fill-rule="evenodd" clip-rule="evenodd" d="M6.60277 2.37085L7.85088 4.88556L10.6263 5.29605L8.62193 7.25974L9.08974 10.0278L6.60277 8.72603L4.1158 10.0278L4.58361 7.25974L2.57739 5.29605L5.35466 4.88556L6.60277 2.37085Z" fill="#B05B00"/>
<path fill-rule="evenodd" clip-rule="evenodd" d="M6.60277 6.6033L2.57739 5.29602L4.58361 7.25971L6.60277 6.6033Z" fill="url(#paint8_radial_341_14014)"/>
<path fill-rule="evenodd" clip-rule="evenodd" d="M2.57739 5.29611L6.60277 6.60339L5.35466 4.88562L2.57739 5.29611Z" fill="url(#paint9_radial_341_14014)"/>
<path fill-rule="evenodd" clip-rule="evenodd" d="M5.35474 4.88556L6.60284 6.60332V2.37085L5.35474 4.88556Z" fill="url(#paint10_radial_341_14014)"/>
<path fill-rule="evenodd" clip-rule="evenodd" d="M6.60278 2.37085V6.60332L7.85089 4.88556L6.60278 2.37085Z" fill="url(#paint11_radial_341_14014)"/>
<path fill-rule="evenodd" clip-rule="evenodd" d="M7.85089 4.88562L6.60278 6.60339L10.6263 5.29611L7.85089 4.88562Z" fill="url(#paint12_radial_341_14014)"/>
<path fill-rule="evenodd" clip-rule="evenodd" d="M10.6263 5.29602L6.60278 6.6033L8.62194 7.25971L10.6263 5.29602Z" fill="url(#paint13_radial_341_14014)"/>
<path fill-rule="evenodd" clip-rule="evenodd" d="M8.62194 7.25968L6.60278 6.60327L9.08976 10.0277L8.62194 7.25968Z" fill="url(#paint14_radial_341_14014)"/>
<path fill-rule="evenodd" clip-rule="evenodd" d="M9.08976 10.0277L6.60278 6.60327V8.72598L9.08976 10.0277Z" fill="url(#paint15_radial_341_14014)"/>
<path fill-rule="evenodd" clip-rule="evenodd" d="M6.60294 8.72598V6.60327L4.11597 10.0277L6.60294 8.72598Z" fill="url(#paint16_radial_341_14014)"/>
<path fill-rule="evenodd" clip-rule="evenodd" d="M4.11597 10.0277L6.60294 6.60327L4.58378 7.25968L4.11597 10.0277Z" fill="url(#paint17_radial_341_14014)"/>
<path style="mix-blend-mode:screen" fill-rule="evenodd" clip-rule="evenodd" d="M3.19312 5.49577L6.40306 6.32969C6.3124 6.14319 6.24472 5.94637 6.20152 5.74354L6.60276 2.56873V6.60335L3.19312 5.49392V5.49577Z" fill="url(#paint18_radial_341_14014)"/>
<path style="mix-blend-mode:screen" fill-rule="evenodd" clip-rule="evenodd" d="M6.60278 6.60334C6.80933 6.34001 7.10308 6.15905 7.43116 6.093L10.2916 5.40515L6.60278 6.60334Z" fill="url(#paint19_radial_341_14014)"/>
<path style="mix-blend-mode:screen" fill-rule="evenodd" clip-rule="evenodd" d="M6.6028 6.60327C6.2109 6.84314 5.86623 7.15272 5.58582 7.5167L4.11768 10.0277L6.60465 6.60327H6.6028Z" fill="url(#paint20_radial_341_14014)"/>
<path style="mix-blend-mode:screen" fill-rule="evenodd" clip-rule="evenodd" d="M10.7891 10.7914C9.97022 11.6195 8.93015 12.1942 7.79327 12.4467C6.65638 12.6992 5.47082 12.6188 4.37842 12.2152C5.47437 12.6807 6.68443 12.8081 7.8533 12.581C9.02216 12.3539 10.0965 11.7828 10.9385 10.9408C11.7804 10.0988 12.3516 9.02448 12.5787 7.85561C12.8057 6.68675 12.6783 5.47669 12.2128 4.38074C12.616 5.47321 12.6961 6.65865 12.4437 7.79543C12.1912 8.93222 11.6168 9.97229 10.7891 10.7914Z" fill="url(#paint21_radial_341_14014)"/>
<g style="mix-blend-mode:screen">
<path d="M11.0607 10.6602C10.9114 10.7774 10.7767 10.9121 10.6594 11.0614C10.82 10.9575 10.9568 10.8208 11.0607 10.6602Z" fill="#FFCC14"/>
</g>
<defs>
<radialGradient id="paint0_radial_341_14014" cx="0" cy="0" r="1" gradientUnits="userSpaceOnUse" gradientTransform="translate(3.71075 3.2566) scale(10.473)">
<stop stop-color="#FF5C5C"/>
<stop offset="0.75" stop-color="#A10500"/>
<stop offset="1" stop-color="#850400"/>
</radialGradient>
<radialGradient id="paint1_radial_341_14014" cx="0" cy="0" r="1" gradientUnits="userSpaceOnUse" gradientTransform="translate(2.79946 1.62013) scale(13.0691 13.0691)">
<stop stop-color="#FFEB68"/>
<stop offset="1" stop-color="#C75600"/>
</radialGradient>
<radialGradient id="paint2_radial_341_14014" cx="0" cy="0" r="1" gradientUnits="userSpaceOnUse" gradientTransform="translate(6.60266 6.60338) scale(5.74315)">
<stop offset="0.78" stop-color="white"/>
<stop offset="0.8" stop-color="#FCF9F9"/>
<stop offset="0.83" stop-color="#F5E8E8"/>
<stop offset="0.86" stop-color="#E9CCCC"/>
<stop offset="0.9" stop-color="#D8A5A5"/>
<stop offset="0.94" stop-color="#C37373"/>
<stop offset="0.98" stop-color="#A93737"/>
<stop offset="1" stop-color="#991313"/>
</radialGradient>
<radialGradient id="paint3_radial_341_14014" cx="0" cy="0" r="1" gradientUnits="userSpaceOnUse" gradientTransform="translate(-0.255127 -0.596913) scale(8.37249)">
<stop stop-color="#FF8C9B"/>
<stop offset="1"/>
</radialGradient>
<radialGradient id="paint4_radial_341_14014" cx="0" cy="0" r="1" gradientUnits="userSpaceOnUse" gradientTransform="translate(12.5586 12.7126) scale(5.42142 5.42141)">
<stop stop-color="#FF8C9B"/>
<stop offset="1"/>
</radialGradient>
<radialGradient id="paint5_radial_341_14014" cx="0" cy="0" r="1" gradientUnits="userSpaceOnUse" gradientTransform="translate(6.60298 6.65875) scale(5.47873 5.47873)">
<stop offset="0.9" stop-color="white"/>
<stop offset="0.91" stop-color="#FBF4F4"/>
<stop offset="0.93" stop-color="#EFD6D6"/>
<stop offset="0.95" stop-color="#DBA6A6"/>
<stop offset="0.98" stop-color="#C16464"/>
<stop offset="1" stop-color="#A82525"/>
</radialGradient>
<radialGradient id="paint6_radial_341_14014" cx="0" cy="0" r="1" gradientUnits="userSpaceOnUse" gradientTransform="translate(9.72427 10.6306) scale(3.19146 3.19146)">
<stop stop-color="#B05B00"/>
<stop offset="1" stop-color="white"/>
</radialGradient>
<radialGradient id="paint7_radial_341_14014" cx="0" cy="0" r="1" gradientUnits="userSpaceOnUse" gradientTransform="translate(11.3734 7.1284) scale(2.20406 2.20407)">
<stop stop-color="#B05B00"/>
<stop offset="1" stop-color="white"/>
</radialGradient>
<radialGradient id="paint8_radial_341_14014" cx="0" cy="0" r="1" gradientUnits="userSpaceOnUse" gradientTransform="translate(3.67758 0.876791) scale(6.43469 6.43469)">
<stop stop-color="#FFC600"/>
<stop offset="1" stop-color="#D64F00"/>
</radialGradient>
<radialGradient id="paint9_radial_341_14014" cx="0" cy="0" r="1" gradientUnits="userSpaceOnUse" gradientTransform="translate(5.70044 3.60238) scale(5.48243 5.48243)">
<stop stop-color="#FFEB68"/>
<stop offset="1" stop-color="#E67D2D"/>
</radialGradient>
<radialGradient id="paint10_radial_341_14014" cx="0" cy="0" r="1" gradientUnits="userSpaceOnUse" gradientTransform="translate(5.75783 3.55609) scale(6.91914)">
<stop stop-color="#FFEB68"/>
<stop offset="1" stop-color="#FFAC6B"/>
</radialGradient>
<radialGradient id="paint11_radial_341_14014" cx="0" cy="0" r="1" gradientUnits="userSpaceOnUse" gradientTransform="translate(2.83997 2.83866) scale(6.79526)">
<stop stop-color="#FFC600"/>
<stop offset="1" stop-color="#D64F00"/>
</radialGradient>
<radialGradient id="paint12_radial_341_14014" cx="0" cy="0" r="1" gradientUnits="userSpaceOnUse" gradientTransform="translate(8.84383 2.18786) scale(6.05934 6.05933)">
<stop stop-color="#FFEB68"/>
<stop offset="1" stop-color="#E67D2D"/>
</radialGradient>
<radialGradient id="paint13_radial_341_14014" cx="0" cy="0" r="1" gradientUnits="userSpaceOnUse" gradientTransform="translate(4.55773 -0.0884119) scale(8.29299 8.29299)">
<stop stop-color="#FFC600"/>
<stop offset="1" stop-color="#D64F00"/>
</radialGradient>
<radialGradient id="paint14_radial_341_14014" cx="0" cy="0" r="1" gradientUnits="userSpaceOnUse" gradientTransform="translate(11.8781 7.88466) scale(6.39957 6.39956)">
<stop stop-color="#FFEB68"/>
<stop offset="1" stop-color="#E67D2D"/>
</radialGradient>
<radialGradient id="paint15_radial_341_14014" cx="0" cy="0" r="1" gradientUnits="userSpaceOnUse" gradientTransform="translate(11.0165 5.98199) scale(7.26677 7.26677)">
<stop stop-color="#FFC600"/>
<stop offset="1" stop-color="#D64F00"/>
</radialGradient>
<radialGradient id="paint16_radial_341_14014" cx="0" cy="0" r="1" gradientUnits="userSpaceOnUse" gradientTransform="translate(0.743298 4.81524) scale(7.4036 7.4036)">
<stop stop-color="#FFC600"/>
<stop offset="1" stop-color="#D64F00"/>
</radialGradient>
<radialGradient id="paint17_radial_341_14014" cx="0" cy="0" r="1" gradientUnits="userSpaceOnUse" gradientTransform="translate(5.40291 9.95005) scale(4.56901 4.569)">
<stop stop-color="#FFC600"/>
<stop offset="1" stop-color="#D64F00"/>
</radialGradient>
<radialGradient id="paint18_radial_341_14014" cx="0" cy="0" r="1" gradientUnits="userSpaceOnUse" gradientTransform="translate(7.12974 5.77683) scale(5.75054 5.75054)">
<stop stop-color="#FFEF8F"/>
<stop offset="1"/>
</radialGradient>
<radialGradient id="paint19_radial_341_14014" cx="0" cy="0" r="1" gradientUnits="userSpaceOnUse" gradientTransform="translate(9.53723 4.30497) scale(6.039 6.03899)">
<stop stop-color="#FFEF8F"/>
<stop offset="1"/>
</radialGradient>
<radialGradient id="paint20_radial_341_14014" cx="0" cy="0" r="1" gradientUnits="userSpaceOnUse" gradientTransform="translate(3.30409 9.25296) scale(5.19029 5.19028)">
<stop stop-color="#FFEF8F"/>
<stop offset="1"/>
</radialGradient>
<radialGradient id="paint21_radial_341_14014" cx="0" cy="0" r="1" gradientUnits="userSpaceOnUse" gradientTransform="translate(12.2165 12.0654) scale(6.77862 6.77861)">
<stop stop-color="#FFEF8F"/>
<stop offset="1"/>
</radialGradient>
</defs>
</svg>
