<svg width="16" height="16" viewBox="0 0 16 16" fill="none" xmlns="http://www.w3.org/2000/svg">
<g clip-path="url(#clip0_200_8451)">
<path opacity="0.99" fill-rule="evenodd" clip-rule="evenodd" d="M15.9844 6.32813C15.9844 6.55729 15.9844 6.78648 15.9844 7.01563C15.9044 7.39426 15.7325 7.72757 15.4688 8.01563C14.1701 9.33513 12.8524 10.632 11.5156 11.9063C11.1558 12.1202 10.7913 12.1307 10.4219 11.9375C10.1975 11.744 10.0673 11.4992 10.0312 11.2031C10.0208 10.6927 10.0104 10.1823 10 9.67188C6.16141 9.91632 3.08328 11.5569 0.765625 14.5938C0.438441 14.771 0.178025 14.7033 -0.015625 14.3906C-0.015625 14.0573 -0.015625 13.724 -0.015625 13.3906C0.393891 9.60632 2.24806 6.7782 5.54688 4.90626C6.94531 4.16863 8.43491 3.76757 10.0156 3.70313C10.0104 3.1926 10.0156 2.68219 10.0312 2.17188C10.1579 1.44068 10.5798 1.16464 11.2969 1.34376C11.4406 1.4147 11.576 1.49803 11.7031 1.59376C12.9896 2.88022 14.276 4.16667 15.5625 5.45313C15.7631 5.71873 15.9037 6.01038 15.9844 6.32813Z" fill="#8D8E95"/>
</g>
<defs>
<clipPath id="clip0_200_8451">
<rect width="16" height="16" fill="white"/>
</clipPath>
</defs>
</svg>
