<svg width="20" height="20" viewBox="0 0 20 20" fill="none" xmlns="http://www.w3.org/2000/svg">
<g clip-path="url(#clip0_1118_58844)">
<path opacity="0.987" fill-rule="evenodd" clip-rule="evenodd" d="M0.546586 0.0027158C1.87982 -0.00452669 3.21297 0.0027158 4.54604 0.024452C4.80553 0.0808747 4.98663 0.233028 5.08944 0.480911C5.44892 1.5521 5.80396 2.62442 6.15452 3.69786C4.35785 3.7486 2.56098 3.75581 0.763947 3.7196C0.476895 2.72778 0.216061 1.72792 -0.0185547 0.720009C0.00364228 0.343456 0.192021 0.104358 0.546586 0.0027158ZM1.11174 5.17592C2.94468 5.13249 4.78502 5.11801 6.63272 5.13244C6.80057 5.70128 6.98172 6.26642 7.17613 6.82787C7.33671 7.09005 7.56134 7.27115 7.84995 7.37127C10.2534 7.42852 12.6589 7.45747 15.0664 7.45821C16.769 7.76978 17.7761 8.77686 18.0877 10.4795C18.1094 11.3489 18.1167 12.2183 18.1094 13.0879C15.8785 13.0384 13.6469 13.0311 11.4147 13.0661C9.80325 13.3445 8.8106 14.2791 8.43682 15.8701C8.38014 16.3174 8.3584 16.7666 8.37162 17.2178C5.90108 17.0573 4.2274 15.8256 3.35056 13.5226C2.61665 10.7315 1.87038 7.94928 1.11174 5.17592ZM17.6746 13.9356C15.6315 13.9139 13.5883 13.9066 11.545 13.9139C10.3614 14.1337 9.61507 14.8293 9.3062 16.0006C9.26542 16.6985 9.27989 17.394 9.34967 18.0872C9.69223 19.1688 10.424 19.7992 11.545 19.9783C13.5882 20.0073 15.6314 20.0073 17.6746 19.9783C18.986 19.7682 19.7468 19.0074 19.9569 17.696C19.9952 17.1145 19.9807 16.5349 19.9134 15.9571C19.6133 14.7891 18.8671 14.1153 17.6746 13.9356Z" fill="white"/>
</g>
<defs>
<clipPath id="clip0_1118_58844">
<rect width="20" height="20" fill="white"/>
</clipPath>
</defs>
</svg>
