<svg width="20" height="20" viewBox="0 0 20 20" fill="none" xmlns="http://www.w3.org/2000/svg">
<g clip-path="url(#clip0_1118_58834)">
<path opacity="0.992" fill-rule="evenodd" clip-rule="evenodd" d="M8.92578 -0.0195312C9.08203 -0.0195312 9.23828 -0.0195312 9.39453 -0.0195312C9.39453 3.11849 9.39453 6.25652 9.39453 9.39453C8.1966 9.39453 6.99871 9.39453 5.80078 9.39453C5.60441 6.88672 4.64086 4.73176 2.91016 2.92969C4.57563 1.27019 6.58082 0.287118 8.92578 -0.0195312Z" fill="#69727D"/>
<path opacity="0.992" fill-rule="evenodd" clip-rule="evenodd" d="M10.5664 -0.0195312C10.7227 -0.0195312 10.8789 -0.0195312 11.0352 -0.0195312C13.3801 0.287118 15.3853 1.27019 17.0508 2.92969C15.3201 4.73176 14.3565 6.88672 14.1602 9.39453C12.9622 9.39453 11.7643 9.39453 10.5664 9.39453C10.5664 6.25652 10.5664 3.11849 10.5664 -0.0195312Z" fill="#69727D"/>
<path opacity="0.984" fill-rule="evenodd" clip-rule="evenodd" d="M-0.0195312 9.39453C-0.0195312 9.26434 -0.0195312 9.1341 -0.0195312 9.00391C0.201457 7.0643 0.917602 5.33254 2.12891 3.80859C3.64891 5.33887 4.49527 7.18781 4.66797 9.35547C3.10569 9.39453 1.54319 9.40754 -0.0195312 9.39453Z" fill="#69727D"/>
<path opacity="0.984" fill-rule="evenodd" clip-rule="evenodd" d="M19.9805 9.00391C19.9805 9.1341 19.9805 9.26434 19.9805 9.39453C18.4177 9.40754 16.8552 9.39453 15.293 9.35547C15.4657 7.18781 16.312 5.33887 17.832 3.80859C19.0433 5.33254 19.7595 7.0643 19.9805 9.00391Z" fill="#69727D"/>
<path opacity="0.984" fill-rule="evenodd" clip-rule="evenodd" d="M-0.0195312 10.5664C1.54319 10.5534 3.10569 10.5664 4.66797 10.6055C4.48562 12.7794 3.63925 14.6414 2.12891 16.1914C0.917629 14.6537 0.201481 12.9089 -0.0195312 10.957C-0.0195312 10.8268 -0.0195312 10.6966 -0.0195312 10.5664Z" fill="#69727D"/>
<path opacity="0.992" fill-rule="evenodd" clip-rule="evenodd" d="M9.39453 19.9805C9.23828 19.9805 9.08203 19.9805 8.92578 19.9805C6.72043 19.7045 4.79336 18.8256 3.14453 17.3438C3.05126 17.2637 2.97313 17.1725 2.91016 17.0703C4.64633 15.2566 5.60988 13.0886 5.80078 10.5664C6.99871 10.5664 8.1966 10.5664 9.39453 10.5664C9.39453 13.7044 9.39453 16.8425 9.39453 19.9805Z" fill="#69727D"/>
<path opacity="0.992" fill-rule="evenodd" clip-rule="evenodd" d="M11.0352 19.9805C10.8789 19.9805 10.7227 19.9805 10.5664 19.9805C10.5664 16.8425 10.5664 13.7044 10.5664 10.5664C11.7643 10.5664 12.9622 10.5664 14.1602 10.5664C14.3511 13.0886 15.3146 15.2566 17.0508 17.0703C15.8274 18.3078 14.369 19.1672 12.6758 19.6484C12.1291 19.7877 11.5822 19.8984 11.0352 19.9805Z" fill="#69727D"/>
<path opacity="0.984" fill-rule="evenodd" clip-rule="evenodd" d="M19.9805 10.5664C19.9805 10.6966 19.9805 10.8268 19.9805 10.957C19.7595 12.9089 19.0433 14.6537 17.832 16.1914C16.3217 14.6414 15.4753 12.7794 15.293 10.6055C16.8552 10.5664 18.4177 10.5534 19.9805 10.5664Z" fill="#69727D"/>
</g>
<defs>
<clipPath id="clip0_1118_58834">
<rect width="20" height="20" fill="white"/>
</clipPath>
</defs>
</svg>
