<svg width="77" height="77" viewBox="0 0 77 77" fill="none" xmlns="http://www.w3.org/2000/svg">
<path d="M34.3608 4.22321C36.6333 1.90465 40.3667 1.90465 42.6392 4.2232L57.5565 19.4435L72.7768 34.3608C75.0953 36.6333 75.0954 40.3667 72.7768 42.6392L57.5565 57.5565L42.6392 72.7768C40.3667 75.0953 36.6333 75.0954 34.3608 72.7768L19.4435 57.5565L4.22321 42.6392C1.90465 40.3667 1.90465 36.6333 4.2232 34.3608L19.4435 19.4435L34.3608 4.22321Z" fill="url(#paint0_linear_116_5683)"/>
<path d="M34.3608 4.22321C36.6333 1.90465 40.3667 1.90465 42.6392 4.2232L57.5565 19.4435L72.7768 34.3608C75.0953 36.6333 75.0954 40.3667 72.7768 42.6392L57.5565 57.5565L42.6392 72.7768C40.3667 75.0953 36.6333 75.0954 34.3608 72.7768L19.4435 57.5565L4.22321 42.6392C1.90465 40.3667 1.90465 36.6333 4.2232 34.3608L19.4435 19.4435L34.3608 4.22321Z" fill="url(#paint1_radial_116_5683)" fill-opacity="0.2"/>
<path d="M56.9652 20.023L56.971 20.029L56.977 20.0348L72.1973 34.9521C74.1846 36.8999 74.1846 40.1001 72.1973 42.0478L56.977 56.9652L56.971 56.971L56.9652 56.977L42.0479 72.1973C40.1001 74.1846 36.8999 74.1846 34.9522 72.1973L20.0348 56.977L20.029 56.971L20.023 56.9652L4.80275 42.0479C2.81541 40.1001 2.81541 36.8999 4.80274 34.9522L20.023 20.0348L20.029 20.029L20.0348 20.023L34.9521 4.80275C36.8999 2.81541 40.1001 2.81541 42.0478 4.80274L56.9652 20.023Z" stroke="url(#paint2_linear_116_5683)" stroke-opacity="0.4" stroke-width="1.65591"/>
<path d="M46.6665 35.2305L38.4998 27.0637L30.333 35.2305" stroke="white" stroke-width="2.01815" stroke-miterlimit="10" stroke-linecap="round" stroke-linejoin="round"/>
<path d="M38.5 49.9361V27.2925" stroke="white" stroke-width="2.01815" stroke-miterlimit="10" stroke-linecap="round" stroke-linejoin="round"/>
<defs>
<linearGradient id="paint0_linear_116_5683" x1="38.5" y1="8.40224e-06" x2="89.8445" y2="20.8884" gradientUnits="userSpaceOnUse">
<stop stop-color="#7E2CFF"/>
<stop offset="1" stop-color="#596BF7"/>
</linearGradient>
<radialGradient id="paint1_radial_116_5683" cx="0" cy="0" r="1" gradientUnits="userSpaceOnUse" gradientTransform="translate(38.5 38.5) scale(38.5)">
<stop/>
<stop offset="0.0625" stop-opacity="0.921223"/>
<stop offset="0.793378" stop-opacity="0"/>
</radialGradient>
<linearGradient id="paint2_linear_116_5683" x1="38.086" y1="2.89785" x2="38.5" y2="77" gradientUnits="userSpaceOnUse">
<stop stop-color="white"/>
<stop offset="1" stop-color="white" stop-opacity="0"/>
</linearGradient>
</defs>
</svg>
