<svg width="20" height="20" viewBox="0 0 20 20" fill="none" xmlns="http://www.w3.org/2000/svg">
<g clip-path="url(#clip0_184_9498)">
<path opacity="0.976" fill-rule="evenodd" clip-rule="evenodd" d="M9.08203 -0.0195312C9.3034 -0.0195312 9.52473 -0.0195312 9.74609 -0.0195312C9.74609 0.944012 9.74609 1.90755 9.74609 2.87109C7.9568 2.93928 6.40734 3.5773 5.09766 4.78516C4.40754 4.12109 3.73047 3.44401 3.06641 2.75391C4.26914 1.57911 5.6884 0.765305 7.32422 0.3125C7.90777 0.158937 8.49371 0.0482598 9.08203 -0.0195312Z" fill="#67707B"/>
<path opacity="0.977" fill-rule="evenodd" clip-rule="evenodd" d="M10.2148 -0.0195312C10.4362 -0.0195312 10.6575 -0.0195312 10.8789 -0.0195312C13.0154 0.202511 14.9034 1.00329 16.543 2.38281C16.6673 2.50061 16.7845 2.6243 16.8945 2.75391C16.2305 3.44401 15.5534 4.12109 14.8633 4.78516C13.5561 3.57873 12.0066 2.94071 10.2148 2.87109C10.2148 1.90755 10.2148 0.944012 10.2148 -0.0195312Z" fill="#67707B"/>
<path opacity="0.977" fill-rule="evenodd" clip-rule="evenodd" d="M-0.0195312 9.74609C-0.0195312 9.52473 -0.0195312 9.3034 -0.0195312 9.08203C0.202511 6.94559 1.00329 5.05758 2.38281 3.41797C2.50061 3.29364 2.6243 3.17645 2.75391 3.06641C3.44401 3.73047 4.12109 4.40754 4.78516 5.09766C3.5773 6.40734 2.93928 7.9568 2.87109 9.74609C1.90755 9.74609 0.944012 9.74609 -0.0195312 9.74609Z" fill="#67707B"/>
<path opacity="0.977" fill-rule="evenodd" clip-rule="evenodd" d="M19.9805 9.08203C19.9805 9.3034 19.9805 9.52473 19.9805 9.74609C19.0169 9.74609 18.0534 9.74609 17.0898 9.74609C17.0216 7.9568 16.3836 6.40734 15.1758 5.09766C15.8398 4.40754 16.5169 3.73047 17.207 3.06641C18.3818 4.26914 19.1956 5.6884 19.6484 7.32422C19.802 7.90777 19.9127 8.49371 19.9805 9.08203Z" fill="#67707B"/>
<path opacity="0.98" fill-rule="evenodd" clip-rule="evenodd" d="M9.82421 6.30861C10.0472 6.27697 10.2425 6.33557 10.4101 6.4844C11.2891 7.3633 12.168 8.24221 13.0469 9.12111C13.6458 9.91537 13.6458 10.7097 13.0469 11.5039C12.3723 12.1472 11.6171 12.2644 10.7812 11.8555C10.8372 12.3049 10.9088 12.7542 10.9961 13.2031C10.987 13.4169 10.8829 13.5601 10.6836 13.6328C10.2148 13.6589 9.74608 13.6589 9.27733 13.6328C9.07804 13.5601 8.9739 13.4169 8.96483 13.2031C9.03296 12.7844 9.11108 12.3678 9.19921 11.9531C9.1862 11.9336 9.17315 11.9141 9.16015 11.8946C8.32417 12.2694 7.5755 12.1392 6.91405 11.5039C6.31511 10.7097 6.31511 9.91537 6.91405 9.12111C7.80597 8.2292 8.69792 7.33725 9.58983 6.44533C9.67683 6.40857 9.75495 6.36299 9.82421 6.30861Z" fill="#67707B"/>
<path opacity="0.977" fill-rule="evenodd" clip-rule="evenodd" d="M-0.0195312 10.2148C0.944012 10.2148 1.90755 10.2148 2.87109 10.2148C2.93928 12.0041 3.5773 13.5536 4.78516 14.8633C4.12109 15.5534 3.44401 16.2305 2.75391 16.8945C1.57911 15.6918 0.765305 14.2725 0.3125 12.6367C0.158937 12.0532 0.0482598 11.4672 -0.0195312 10.8789C-0.0195312 10.6575 -0.0195312 10.4362 -0.0195312 10.2148Z" fill="#67707B"/>
<path opacity="0.977" fill-rule="evenodd" clip-rule="evenodd" d="M19.9805 10.2148C19.9805 10.4362 19.9805 10.6575 19.9805 10.8789C19.7584 13.0154 18.9577 14.9034 17.5781 16.543C17.4604 16.6673 17.3366 16.7845 17.207 16.8945C16.5169 16.2305 15.8398 15.5534 15.1758 14.8633C16.3836 13.5537 17.0216 12.0042 17.0898 10.2148C18.0534 10.2148 19.0169 10.2148 19.9805 10.2148Z" fill="#67707B"/>
<path opacity="0.977" fill-rule="evenodd" clip-rule="evenodd" d="M9.74609 19.9805C9.52473 19.9805 9.3034 19.9805 9.08203 19.9805C6.94559 19.7584 5.05758 18.9577 3.41797 17.5781C3.29364 17.4604 3.17645 17.3366 3.06641 17.207C3.73047 16.5169 4.40754 15.8398 5.09766 15.1758C6.40734 16.3836 7.9568 17.0216 9.74609 17.0898C9.74609 18.0534 9.74609 19.0169 9.74609 19.9805Z" fill="#67707B"/>
<path opacity="0.977" fill-rule="evenodd" clip-rule="evenodd" d="M10.8789 19.9805C10.6575 19.9805 10.4362 19.9805 10.2148 19.9805C10.2148 19.0169 10.2148 18.0534 10.2148 17.0898C12.0041 17.0216 13.5536 16.3836 14.8633 15.1758C15.5534 15.8398 16.2305 16.5169 16.8945 17.207C15.7357 18.347 14.3685 19.1477 12.793 19.6094C12.1586 19.7818 11.5206 19.9055 10.8789 19.9805Z" fill="#67707B"/>
</g>
<defs>
<clipPath id="clip0_184_9498">
<rect width="20" height="20" fill="white"/>
</clipPath>
</defs>
</svg>
