<svg width="20" height="20" viewBox="0 0 20 20" fill="none" xmlns="http://www.w3.org/2000/svg">
<g clip-path="url(#clip0_184_9397)">
<path opacity="0.991" fill-rule="evenodd" clip-rule="evenodd" d="M9.58987 -0.0195312C9.8503 -0.0195312 10.1107 -0.0195312 10.3711 -0.0195312C10.6992 0.0664098 10.9987 0.21615 11.2696 0.429688C11.6193 0.849277 11.9643 1.27246 12.3047 1.69922C12.4769 1.89551 12.6918 1.96713 12.9492 1.91406C13.5379 1.72781 14.1369 1.59109 14.7461 1.50391C15.6754 1.56779 16.2939 2.03654 16.6016 2.91016C16.6673 3.53364 16.7194 4.15863 16.7578 4.78516C16.8284 5.01199 16.9781 5.16176 17.2071 5.23438C17.6237 5.39062 18.0404 5.54688 18.4571 5.70312C19.3217 6.16605 19.6928 6.88871 19.5703 7.87109C19.5392 8.00363 19.5001 8.13383 19.4531 8.26172C19.1691 8.74094 18.8696 9.20969 18.5547 9.66797C18.4245 9.87629 18.4245 10.0846 18.5547 10.293C18.8281 10.7096 19.1016 11.1263 19.375 11.543C19.798 12.5264 19.6092 13.3662 18.8086 14.0625C18.2894 14.3155 17.7555 14.5369 17.2071 14.7266C16.9781 14.7992 16.8284 14.9489 16.7578 15.1758C16.7133 15.7352 16.6742 16.2951 16.6406 16.8555C16.4486 17.7376 15.9082 18.265 15.0196 18.4375C14.7572 18.4653 14.4968 18.4523 14.2383 18.3984C13.8086 18.2812 13.3789 18.1641 12.9492 18.0469C12.6918 17.9938 12.4769 18.0654 12.3047 18.2617C11.9643 18.6885 11.6193 19.1116 11.2696 19.5312C10.9987 19.7448 10.6992 19.8945 10.3711 19.9805C10.1107 19.9805 9.8503 19.9805 9.58987 19.9805C9.26174 19.8945 8.96225 19.7448 8.69143 19.5312C8.3417 19.1116 7.99666 18.6885 7.65627 18.2617C7.48405 18.0654 7.2692 17.9938 7.01174 18.0469C6.42338 18.233 5.8244 18.3698 5.21487 18.457C4.28561 18.3931 3.6671 17.9244 3.3594 17.0508C3.29176 16.4274 3.23967 15.8024 3.20315 15.1758C3.13255 14.9489 2.98282 14.7992 2.75393 14.7266C2.33726 14.5703 1.9206 14.4141 1.50393 14.2578C0.623061 13.8048 0.251966 13.0821 0.390647 12.0898C0.421807 11.9573 0.46087 11.8271 0.507835 11.6992C0.791897 11.22 1.09138 10.7513 1.40627 10.293C1.53648 10.0846 1.53648 9.87629 1.40627 9.66797C1.09138 9.20969 0.791897 8.74094 0.507835 8.26172C0.180312 7.31934 0.395155 6.5316 1.15237 5.89844C1.67163 5.64543 2.20548 5.42406 2.75393 5.23438C2.98282 5.16176 3.13255 5.01199 3.20315 4.78516C3.2461 4.22559 3.28516 3.6657 3.32033 3.10547C3.6118 1.99439 4.33444 1.46704 5.4883 1.52344C5.99811 1.64563 6.50592 1.77583 7.01174 1.91406C7.2692 1.96713 7.48405 1.89551 7.65627 1.69922C7.99666 1.27246 8.3417 0.849277 8.69143 0.429688C8.96225 0.21615 9.26174 0.0664098 9.58987 -0.0195312ZM7.28518 6.46484C8.08987 6.52738 8.53256 6.95707 8.6133 7.75391C8.55088 8.53898 8.12772 8.96867 7.34377 9.04297C6.55561 8.98398 6.13244 8.56082 6.07424 7.77344C6.13428 7.01687 6.53791 6.58066 7.28518 6.46484ZM12.7149 6.46484C13.1891 6.51562 13.417 6.77605 13.3985 7.24609C13.3636 7.38094 13.2985 7.49812 13.2031 7.59766C11.1914 9.60938 9.17971 11.6211 7.16799 13.6328C6.73139 13.9605 6.37334 13.8889 6.09377 13.418C6.04205 13.1897 6.08112 12.9814 6.21096 12.793C8.27475 10.7292 10.3386 8.66535 12.4024 6.60156C12.5062 6.54383 12.6104 6.49824 12.7149 6.46484ZM11.9336 11.2695C12.8074 11.2514 13.3022 11.6746 13.418 12.5391C13.349 13.3307 12.9194 13.7669 12.1289 13.8477C11.3475 13.7693 10.9178 13.3396 10.8399 12.5586C10.8976 11.8632 11.2622 11.4335 11.9336 11.2695Z" fill="#67707B"/>
</g>
<defs>
<clipPath id="clip0_184_9397">
<rect width="20" height="20" fill="white"/>
</clipPath>
</defs>
</svg>
