<?xml version="1.0" encoding="UTF-8"?>
<!DOCTYPE svg PUBLIC "-//W3C//DTD SVG 1.1//EN" "http://www.w3.org/Graphics/SVG/1.1/DTD/svg11.dtd">
<svg xmlns="http://www.w3.org/2000/svg" version="1.1" width="261px" height="56px" style="shape-rendering:geometricPrecision; text-rendering:geometricPrecision; image-rendering:optimizeQuality; fill-rule:evenodd; clip-rule:evenodd" xmlns:xlink="http://www.w3.org/1999/xlink">
<g><path style="opacity:0.999" fill="#41434d" d="M 39.5,-0.5 C 54.5,-0.5 69.5,-0.5 84.5,-0.5C 84.1667,0.166667 83.8333,0.833333 83.5,1.5C 69.5,1.5 55.5,1.5 41.5,1.5C 40.8333,0.833333 40.1667,0.166667 39.5,-0.5 Z"/></g>
<g><path style="opacity:0.999" fill="#3a3c47" d="M 84.5,-0.5 C 106.5,-0.5 128.5,-0.5 150.5,-0.5C 150.167,0.166667 149.833,0.833333 149.5,1.5C 127.5,1.5 105.5,1.5 83.5,1.5C 83.8333,0.833333 84.1667,0.166667 84.5,-0.5 Z"/></g>
<g><path style="opacity:0.999" fill="#343641" d="M 150.5,-0.5 C 163.833,-0.5 177.167,-0.5 190.5,-0.5C 190.5,0.166667 190.5,0.833333 190.5,1.5C 176.833,1.5 163.167,1.5 149.5,1.5C 149.833,0.833333 150.167,0.166667 150.5,-0.5 Z"/></g>
<g><path style="opacity:0.999" fill="#2d2f3b" d="M 190.5,-0.5 C 211.167,-0.5 231.833,-0.5 252.5,-0.5C 232.194,1.48845 211.527,2.15512 190.5,1.5C 190.5,0.833333 190.5,0.166667 190.5,-0.5 Z"/></g>
<g><path style="opacity:0.999" fill="#262733" d="M 252.5,-0.5 C 254.167,-0.5 255.833,-0.5 257.5,-0.5C 258.167,0.833333 259.167,1.83333 260.5,2.5C 260.5,19.1667 260.5,35.8333 260.5,52.5C 259.167,53.1667 258.167,54.1667 257.5,55.5C 248.833,55.5 240.167,55.5 231.5,55.5C 231.217,54.7109 230.717,54.0442 230,53.5C 210.042,53.524 189.875,53.524 169.5,53.5C 154.833,53.5 140.167,53.5 125.5,53.5C 108.167,53.5 90.8333,53.5 73.5,53.5C 58.5,53.5 43.5,53.5 28.5,53.5C 20.4931,53.6664 12.4931,53.4997 4.5,53C 3.66667,52.1667 2.83333,51.3333 2,50.5C 1.33333,35.1667 1.33333,19.8333 2,4.5C 2.83333,3.66667 3.66667,2.83333 4.5,2C 16.8288,1.50012 29.1622,1.33346 41.5,1.5C 55.5,1.5 69.5,1.5 83.5,1.5C 105.5,1.5 127.5,1.5 149.5,1.5C 163.167,1.5 176.833,1.5 190.5,1.5C 211.527,2.15512 232.194,1.48845 252.5,-0.5 Z"/></g>
<g><path style="opacity:0.983" fill="#464852" d="M 2.5,-0.5 C 14.8333,-0.5 27.1667,-0.5 39.5,-0.5C 40.1667,0.166667 40.8333,0.833333 41.5,1.5C 29.1622,1.33346 16.8288,1.50012 4.5,2C 3.66667,2.83333 2.83333,3.66667 2,4.5C 1.33333,19.8333 1.33333,35.1667 2,50.5C 2.83333,51.3333 3.66667,52.1667 4.5,53C 12.4931,53.4997 20.4931,53.6664 28.5,53.5C 28.5,54.1667 28.5,54.8333 28.5,55.5C 19.8333,55.5 11.1667,55.5 2.5,55.5C 1.83333,54.1667 0.833333,53.1667 -0.5,52.5C -0.5,35.8333 -0.5,19.1667 -0.5,2.5C 0.833333,1.83333 1.83333,0.833333 2.5,-0.5 Z"/></g>
<g><path style="opacity:0.999" fill="#40414c" d="M 28.5,53.5 C 43.5,53.5 58.5,53.5 73.5,53.5C 73.8333,54.1667 74.1667,54.8333 74.5,55.5C 59.1667,55.5 43.8333,55.5 28.5,55.5C 28.5,54.8333 28.5,54.1667 28.5,53.5 Z"/></g>
<g><path style="opacity:0.999" fill="#3a3b46" d="M 73.5,53.5 C 90.8333,53.5 108.167,53.5 125.5,53.5C 124.833,54.1667 124.167,54.8333 123.5,55.5C 107.167,55.5 90.8333,55.5 74.5,55.5C 74.1667,54.8333 73.8333,54.1667 73.5,53.5 Z"/></g>
<g><path style="opacity:0.999" fill="#343541" d="M 125.5,53.5 C 140.167,53.5 154.833,53.5 169.5,53.5C 169.167,54.1667 168.833,54.8333 168.5,55.5C 153.5,55.5 138.5,55.5 123.5,55.5C 124.167,54.8333 124.833,54.1667 125.5,53.5 Z"/></g>
<g><path style="opacity:0.999" fill="#2d2f3b" d="M 169.5,53.5 C 189.875,53.524 210.042,53.524 230,53.5C 230.717,54.0442 231.217,54.7109 231.5,55.5C 210.5,55.5 189.5,55.5 168.5,55.5C 168.833,54.8333 169.167,54.1667 169.5,53.5 Z"/></g>
</svg>
