<svg width="16" height="15" viewBox="0 0 16 15" fill="none" xmlns="http://www.w3.org/2000/svg">
<g clip-path="url(#clip0_200_8626)">
<path d="M8.02165 14.3204C11.94 14.3204 15.1165 11.1439 15.1165 7.22551C15.1165 3.30711 11.94 0.130615 8.02165 0.130615C4.10325 0.130615 0.926758 3.30711 0.926758 7.22551C0.926758 11.1439 4.10325 14.3204 8.02165 14.3204Z" fill="#EF0027"/>
<path d="M10.6525 4.52626L4.25293 3.34851L7.62079 11.8234L12.3136 6.10576L10.6525 4.52626ZM10.5496 5.04508L11.5287 5.97584L8.85131 6.46051L10.5496 5.04508V5.04508ZM8.26952 6.3634L5.44753 4.02297L10.0601 4.8717L8.26952 6.3634V6.3634ZM8.06865 6.77756L7.60837 10.5822L5.12737 4.33736L8.06865 6.77712V6.77756ZM8.49434 6.97932L11.4596 6.44277L8.05845 10.5857L8.49434 6.97932Z" fill="white"/>
</g>
<defs>
<clipPath id="clip0_200_8626">
<rect width="14.1898" height="14.1898" fill="white" transform="translate(0.926758 0.130615)"/>
</clipPath>
</defs>
</svg>
