<svg width="16" height="15" viewBox="0 0 16 15" fill="none" xmlns="http://www.w3.org/2000/svg">
<g clip-path="url(#clip0_200_8555)">
<path d="M8.02165 14.2179C11.94 14.2179 15.1165 11.0414 15.1165 7.12297C15.1165 3.20457 11.94 0.0280762 8.02165 0.0280762C4.10325 0.0280762 0.926758 3.20457 0.926758 7.12297C0.926758 11.0414 4.10325 14.2179 8.02165 14.2179Z" fill="#F7931A"/>
<path d="M11.2096 6.24503C11.3488 5.3156 10.6407 4.81586 9.67311 4.4824L9.98706 3.22305L9.22081 3.03238L8.91484 4.25847C8.71352 4.20791 8.50689 4.16091 8.30069 4.11391L8.60887 2.87984L7.84263 2.68872L7.52868 3.94762C7.36195 3.90949 7.19788 3.87224 7.03913 3.83233L7.04002 3.82834L5.98288 3.5645L5.7789 4.38307C5.7789 4.38307 6.34782 4.51344 6.33585 4.52142C6.64625 4.59902 6.70212 4.80433 6.69281 4.96751L6.33541 6.40201C6.35669 6.40733 6.38418 6.41531 6.41522 6.42728L6.33408 6.40733L5.833 8.41696C5.79486 8.51096 5.69864 8.65242 5.48136 8.59876C5.48934 8.60985 4.92441 8.45997 4.92441 8.45997L4.54395 9.33708L5.54166 9.58584C5.72702 9.6324 5.90882 9.68118 6.08753 9.72685L5.77047 11.0004L6.53628 11.1911L6.85023 9.93172C7.05953 9.98803 7.26262 10.0404 7.46128 10.09L7.14821 11.344L7.91446 11.5347L8.23151 10.2638C9.53875 10.5113 10.5214 10.4115 10.9351 9.22932C11.2686 8.27772 10.9187 7.72831 10.2309 7.37046C10.732 7.25517 11.1089 6.9257 11.2096 6.24503ZM9.45804 8.70075C9.2217 9.6528 7.61869 9.13798 7.09899 9.00894L7.52025 7.32168C8.03995 7.45161 9.70592 7.70836 9.45804 8.70075ZM9.69528 6.23129C9.47933 7.09731 8.14549 6.65698 7.71314 6.54923L8.09449 5.01939C8.52684 5.12715 9.92054 5.32802 9.69528 6.23129Z" fill="white"/>
</g>
<defs>
<clipPath id="clip0_200_8555">
<rect width="14.1898" height="14.1898" fill="white" transform="translate(0.926758 0.0280762)"/>
</clipPath>
</defs>
</svg>
