<svg width="15" height="16" viewBox="0 0 15 16" fill="none" xmlns="http://www.w3.org/2000/svg">
<path fill-rule="evenodd" clip-rule="evenodd" d="M3.36273 2.59797C3.01351 2.24875 2.44731 2.24875 2.0981 2.59797C1.74888 2.94719 1.74888 3.51339 2.0981 3.86261L6.23497 7.99948L2.41597 11.8185C2.06675 12.1677 2.06675 12.7339 2.41597 13.0831C2.76519 13.4323 3.33138 13.4323 3.6806 13.0831L7.4996 9.26412L11.6366 13.4011C11.9858 13.7503 12.552 13.7503 12.9012 13.4011C13.2504 13.0518 13.2504 12.4857 12.9012 12.1364L8.76424 7.99948L12.9011 3.86261C13.2503 3.51339 13.2503 2.94719 12.9011 2.59797C12.5519 2.24875 11.9857 2.24875 11.6365 2.59797L7.4996 6.73485L3.36273 2.59797Z" fill="url(#paint0_linear_691_22470)"/>
<defs>
<linearGradient id="paint0_linear_691_22470" x1="1.83618" y1="7.99953" x2="31.3982" y2="7.99953" gradientUnits="userSpaceOnUse">
<stop stop-color="white"/>
<stop offset="0.850954" stop-color="white" stop-opacity="0"/>
</linearGradient>
</defs>
</svg>
