<svg width="16" height="16" viewBox="0 0 16 16" fill="none" xmlns="http://www.w3.org/2000/svg">
<path opacity="0.974" fill-rule="evenodd" clip-rule="evenodd" d="M7.70346 1.98441C8.55093 1.90058 9.08737 2.26516 9.31283 3.07816C9.39018 3.85447 9.06205 4.3701 8.32846 4.62503C7.53099 4.76022 6.98412 4.45294 6.68783 3.70316C6.53049 2.82958 6.86902 2.25667 7.70346 1.98441Z" fill="#8C8D94"/>
<path opacity="0.971" fill-rule="evenodd" clip-rule="evenodd" d="M7.73407 6.64065C8.82179 6.61899 9.34782 7.15024 9.3122 8.2344C9.0892 9.03118 8.56317 9.39056 7.73407 9.31253C6.93729 9.08953 6.57792 8.56349 6.65595 7.7344C6.79182 7.14543 7.1512 6.78084 7.73407 6.64065Z" fill="#8C8D94"/>
<path opacity="0.974" fill-rule="evenodd" clip-rule="evenodd" d="M7.82821 11.2968C8.62518 11.2763 9.11996 11.6513 9.31258 12.4218C9.38393 13.225 9.03496 13.7406 8.26571 13.9687C7.41758 14.0678 6.88114 13.7084 6.65633 12.8906C6.59152 12.019 6.98214 11.4877 7.82821 11.2968Z" fill="#8C8D94"/>
</svg>
