<svg width="16" height="15" viewBox="0 0 16 15" fill="none" xmlns="http://www.w3.org/2000/svg">
<g clip-path="url(#clip0_200_8611)">
<path d="M8.02165 14.7951C11.94 14.7951 15.1165 11.6186 15.1165 7.70024C15.1165 3.78184 11.94 0.605347 8.02165 0.605347C4.10325 0.605347 0.926758 3.78184 0.926758 7.70024C0.926758 11.6186 4.10325 14.7951 8.02165 14.7951Z" fill="#627EEA"/>
<path d="M8.24219 2.37915V6.31238L11.5666 7.79787L8.24219 2.37915Z" fill="white" fill-opacity="0.602"/>
<path d="M8.24183 2.37915L4.91699 7.79787L8.24183 6.31238V2.37915Z" fill="white"/>
<path d="M8.24219 10.3468V13.0194L11.5688 8.41699L8.24219 10.3468Z" fill="white" fill-opacity="0.602"/>
<path d="M8.24183 13.0194V10.3464L4.91699 8.41699L8.24183 13.0194Z" fill="white"/>
<path d="M8.24219 9.72821L11.5666 7.79796L8.24219 6.31335V9.72821Z" fill="white" fill-opacity="0.2"/>
<path d="M4.91699 7.79796L8.24183 9.72821V6.31335L4.91699 7.79796Z" fill="white" fill-opacity="0.602"/>
</g>
<defs>
<clipPath id="clip0_200_8611">
<rect width="14.1898" height="14.1898" fill="white" transform="translate(0.926758 0.605347)"/>
</clipPath>
</defs>
</svg>
