<svg width="20" height="20" viewBox="0 0 20 20" fill="none" xmlns="http://www.w3.org/2000/svg">
<g clip-path="url(#clip0_184_9464)">
<path opacity="0.987" fill-rule="evenodd" clip-rule="evenodd" d="M9.12109 -0.0195312C9.69402 -0.0195312 10.2669 -0.0195312 10.8398 -0.0195312C14.758 0.468051 17.551 2.4993 19.2188 6.07422C19.621 7.05809 19.8749 8.07371 19.9805 9.12109C19.9805 9.69402 19.9805 10.2669 19.9805 10.8398C19.4929 14.758 17.4616 17.551 13.8867 19.2188C12.9029 19.621 11.8872 19.8749 10.8398 19.9805C10.2669 19.9805 9.69402 19.9805 9.12109 19.9805C5.20293 19.4929 2.40995 17.4616 0.742188 13.8867C0.339973 12.9029 0.0860672 11.8872 -0.0195312 10.8398C-0.0195312 10.2669 -0.0195312 9.69402 -0.0195312 9.12109C0.468051 5.20293 2.4993 2.40995 6.07422 0.742188C7.05809 0.339973 8.07371 0.0860672 9.12109 -0.0195312ZM9.90234 1.97266C10.1657 1.97739 10.3805 2.08155 10.5469 2.28516C11.184 3.66286 11.8285 5.03656 12.4805 6.40625C13.9133 6.62395 15.3456 6.84531 16.7773 7.07031C17.3059 7.31504 17.4166 7.68613 17.1094 8.18359C16.0938 9.22527 15.0781 10.2669 14.0625 11.3086C14.0364 11.4128 14.0364 11.5169 14.0625 11.6211C14.2958 13.0526 14.5237 14.4849 14.7461 15.918C14.6716 16.4809 14.3591 16.6958 13.8086 16.5625C12.5366 15.8565 11.2605 15.1599 9.98047 14.4727C8.70039 15.1599 7.42434 15.8565 6.15234 16.5625C5.60891 16.6877 5.29641 16.4729 5.21484 15.918C5.45172 14.4121 5.6991 12.9082 5.95703 11.4062C4.91055 10.2946 3.84934 9.19434 2.77344 8.10547C2.55971 7.60043 2.70945 7.25539 3.22266 7.07031C4.64121 6.84473 6.06047 6.6234 7.48047 6.40625C8.11934 5.03078 8.76387 3.6571 9.41406 2.28516C9.54602 2.12523 9.70879 2.02107 9.90234 1.97266Z" fill="white"/>
</g>
<defs>
<clipPath id="clip0_184_9464">
<rect width="20" height="20" fill="white"/>
</clipPath>
</defs>
</svg>
