<svg width="28" height="28" viewBox="0 0 28 28" fill="none" xmlns="http://www.w3.org/2000/svg">
<g filter="url(#filter0_b_540_19653)">
<rect width="28" height="28" rx="7" fill="white" fill-opacity="0.09"/>
<g clip-path="url(#clip0_540_19653)">
<path opacity="0.996" fill-rule="evenodd" clip-rule="evenodd" d="M19.9883 12.6055C19.9883 12.7227 19.9883 12.8399 19.9883 12.9571C19.9064 13.1466 19.7814 13.3068 19.6133 13.4375C18.7977 14.1358 17.9892 14.8429 17.1875 15.5586C17.4373 16.7379 17.6913 17.9176 17.9492 19.0977C17.9274 19.5062 17.7126 19.7249 17.3047 19.7539C17.1856 19.7505 17.0723 19.7232 16.9648 19.6719C15.9795 19.0699 14.9873 18.48 13.9883 17.9024C12.9736 18.4879 11.9658 19.0855 10.9648 19.6953C10.63 19.8258 10.3527 19.7516 10.1328 19.4727C10.0352 19.3134 10.0039 19.1416 10.0391 18.9571C10.3043 17.8259 10.5543 16.6931 10.7891 15.5586C9.88306 14.7698 8.98462 13.9729 8.09375 13.168C8.05614 13.1049 8.02098 13.0424 7.98828 12.9805C7.98828 12.8555 7.98828 12.7305 7.98828 12.6055C8.07703 12.349 8.25672 12.1966 8.52734 12.1485C9.69183 12.0433 10.8559 11.9339 12.0195 11.8203C12.4952 10.7244 12.9679 9.62674 13.4375 8.52736C13.6831 8.23003 13.9839 8.16362 14.3398 8.32815C14.4219 8.37893 14.4883 8.44533 14.5391 8.52736C15.0087 9.62674 15.4813 10.7244 15.957 11.8203C17.161 11.9305 18.3642 12.0477 19.5664 12.1719C19.776 12.2525 19.9166 12.3971 19.9883 12.6055Z" fill="#FFC106"/>
</g>
<rect x="0.75" y="0.75" width="26.5" height="26.5" rx="6.25" stroke="url(#paint0_linear_540_19653)" stroke-opacity="0.11" stroke-width="1.5"/>
</g>
<defs>
<filter id="filter0_b_540_19653" x="-3.78788" y="-3.78788" width="35.5758" height="35.5758" filterUnits="userSpaceOnUse" color-interpolation-filters="sRGB">
<feFlood flood-opacity="0" result="BackgroundImageFix"/>
<feGaussianBlur in="BackgroundImageFix" stdDeviation="1.89394"/>
<feComposite in2="SourceAlpha" operator="in" result="effect1_backgroundBlur_540_19653"/>
<feBlend mode="normal" in="SourceGraphic" in2="effect1_backgroundBlur_540_19653" result="shape"/>
</filter>
<linearGradient id="paint0_linear_540_19653" x1="0.516129" y1="1.27272" x2="30.4817" y2="4.16095" gradientUnits="userSpaceOnUse">
<stop stop-color="white"/>
<stop offset="1" stop-color="white" stop-opacity="0"/>
</linearGradient>
<clipPath id="clip0_540_19653">
<rect width="12" height="12" fill="white" transform="translate(8 8)"/>
</clipPath>
</defs>
</svg>
