<svg width="30" height="30" viewBox="0 0 30 30" fill="none" xmlns="http://www.w3.org/2000/svg">
<g filter="url(#filter0_b_1082_55184)">
<rect width="30" height="30" rx="7" fill="white" fill-opacity="0.09"/>
<g clip-path="url(#clip0_1082_55184)">
<path opacity="0.996" fill-rule="evenodd" clip-rule="evenodd" d="M22.9824 13.1406C22.9824 13.2968 22.9824 13.4531 22.9824 13.6093C22.8733 13.8621 22.7066 14.0757 22.4824 14.25C21.395 15.181 20.3169 16.1237 19.248 17.0781C19.5812 18.6504 19.9197 20.2234 20.2637 21.7968C20.2346 22.3415 19.9482 22.6332 19.4043 22.6718C19.2455 22.6673 19.0944 22.6308 18.9512 22.5625C17.6374 21.7598 16.3145 20.9733 14.9824 20.2031C13.6295 20.9837 12.2858 21.7806 10.9512 22.5937C10.5047 22.7677 10.1349 22.6687 9.8418 22.2968C9.71161 22.0845 9.66994 21.8554 9.7168 21.6093C10.0705 20.1011 10.4038 18.5907 10.7168 17.0781C9.50879 16.0263 8.31088 14.9638 7.12305 13.8906C7.0729 13.8065 7.02602 13.7232 6.98242 13.6406C6.98242 13.4739 6.98242 13.3072 6.98242 13.1406C7.10075 12.7986 7.34034 12.5954 7.70117 12.5312C9.25382 12.391 10.8059 12.2452 12.3574 12.0937C12.9917 10.6325 13.6219 9.16892 14.248 7.70309C14.5755 7.30664 14.9766 7.2181 15.4512 7.43747C15.5605 7.50518 15.6491 7.59372 15.7168 7.70309C16.343 9.16892 16.9732 10.6325 17.6074 12.0937C19.2127 12.2406 20.8169 12.3968 22.4199 12.5625C22.6994 12.67 22.8869 12.8627 22.9824 13.1406Z" fill="#68717C"/>
</g>
</g>
<defs>
<filter id="filter0_b_1082_55184" x="-3.78788" y="-3.78788" width="37.5758" height="37.5758" filterUnits="userSpaceOnUse" color-interpolation-filters="sRGB">
<feFlood flood-opacity="0" result="BackgroundImageFix"/>
<feGaussianBlur in="BackgroundImageFix" stdDeviation="1.89394"/>
<feComposite in2="SourceAlpha" operator="in" result="effect1_backgroundBlur_1082_55184"/>
<feBlend mode="normal" in="SourceGraphic" in2="effect1_backgroundBlur_1082_55184" result="shape"/>
</filter>
<clipPath id="clip0_1082_55184">
<rect width="16" height="16" fill="white" transform="translate(7 7)"/>
</clipPath>
</defs>
</svg>
