<svg width="284" height="137" viewBox="0 0 284 137" fill="none" xmlns="http://www.w3.org/2000/svg">
<g clip-path="url(#clip0_507_21980)">
<g filter="url(#filter0_d_507_21980)">
<mask id="path-1-inside-1_507_21980" fill="white">
<path fill-rule="evenodd" clip-rule="evenodd" d="M3.72361 138L4.38756 137.617L0.170898 135.181L0.170898 134.3L4.38756 131.865L0.170898 129.43L0.170898 128.548L4.38756 126.113L0.170898 123.678L0.170898 122.797L4.38756 120.361L0.170898 117.926L0.170898 117.045L4.38756 114.61L0.170898 112.174L0.170898 111.293L4.38756 108.858L0.170898 106.423L0.170898 105.542L4.38756 103.106L0.170898 100.671L0.170898 99.7898L4.38756 97.3545L0.170898 94.9192L0.170898 94.0381L4.38756 91.6028L0.170898 89.1675L0.170898 88.2864L4.38756 85.8511L0.170898 83.4158L0.170898 82.5346L4.38756 80.0994L0.170898 77.6641L0.170898 76.7829L4.38756 74.3476L0.170898 71.9124L0.170898 71.0312L4.38756 68.5959L0.170898 66.1607L0.170898 65.2795L4.38756 62.8442L0.170898 60.4089L0.170898 59.5278L4.38756 57.0925L0.170898 54.6572L0.170898 53.776L4.38756 51.3408L0.170898 48.9055L0.170898 48.0243L4.38756 45.5891L0.170898 43.1538L0.170898 42.2726L4.38756 39.8373L0.170898 37.4021L0.170898 36.5209L4.38756 34.0856L0.170898 31.6503L0.170898 30.7692L4.38756 28.3339L0.170898 25.8986L0.170898 25.0175L4.38756 22.5822L0.170898 20.1469L0.170898 19.2657L4.38756 16.8305L0.170898 14.3952L0.170898 13.514L4.38756 11.0787L0.170898 8.64346L0.170898 7.76231L4.38756 5.32703L0.170898 2.89174L0.170898 2.01059L4.38756 -0.424698L3.39163 -0.999863L286.967 -0.999863C286.947 -0.874863 286.937 -0.74678 286.937 -0.616409C286.937 0.760162 288.053 1.87599 289.429 1.87599C290.805 1.87599 291.921 0.760162 291.921 -0.616409C291.921 -0.616409 291.911 -0.874863 291.891 -0.999863H281.25H280.609L279.612 -0.424698L283.829 2.01059V2.89174L279.612 5.32703L283.829 7.76231V8.64346L279.612 11.0787L283.829 13.514V14.3952L279.612 16.8305L283.829 19.2657V20.1469L279.612 22.5822L283.829 25.0175V25.8986L279.612 28.3339L283.829 30.7692V31.6503L279.612 34.0856L283.829 36.5209V37.4021L279.612 39.8373L283.829 42.2726V43.1538L279.612 45.5891L283.829 48.0243V48.9055L279.612 51.3408L283.829 53.776V54.6572L279.612 57.0925L283.829 59.5278V60.4089L279.612 62.8442L283.829 65.2795V66.1607L279.612 68.5959L283.829 71.0312V71.9124L279.612 74.3476L283.829 76.7829V77.6641L279.612 80.0994L283.829 82.5346V83.4158L279.612 85.8511L283.829 88.2864V89.1675L279.612 91.6028L283.829 94.0381V94.9192L279.612 97.3545L283.829 99.7898V100.671L279.612 103.106L283.829 105.542V106.423L279.612 108.858L283.829 111.293V112.174L279.612 114.61L283.829 117.045V117.926L279.612 120.361L283.829 122.797V123.678L279.612 126.113L283.829 128.548V129.43L279.612 131.865L283.829 134.3V135.181L279.612 137.617L280.276 138L291.914 138C291.918 137.937 291.921 137.873 291.921 137.808C291.921 136.432 290.805 135.316 289.429 135.316C288.053 135.316 286.937 136.432 286.937 137.808C286.937 137.873 286.94 137.937 286.945 138H3.72361Z"/>
</mask>
<path fill-rule="evenodd" clip-rule="evenodd" d="M3.72361 138L4.38756 137.617L0.170898 135.181L0.170898 134.3L4.38756 131.865L0.170898 129.43L0.170898 128.548L4.38756 126.113L0.170898 123.678L0.170898 122.797L4.38756 120.361L0.170898 117.926L0.170898 117.045L4.38756 114.61L0.170898 112.174L0.170898 111.293L4.38756 108.858L0.170898 106.423L0.170898 105.542L4.38756 103.106L0.170898 100.671L0.170898 99.7898L4.38756 97.3545L0.170898 94.9192L0.170898 94.0381L4.38756 91.6028L0.170898 89.1675L0.170898 88.2864L4.38756 85.8511L0.170898 83.4158L0.170898 82.5346L4.38756 80.0994L0.170898 77.6641L0.170898 76.7829L4.38756 74.3476L0.170898 71.9124L0.170898 71.0312L4.38756 68.5959L0.170898 66.1607L0.170898 65.2795L4.38756 62.8442L0.170898 60.4089L0.170898 59.5278L4.38756 57.0925L0.170898 54.6572L0.170898 53.776L4.38756 51.3408L0.170898 48.9055L0.170898 48.0243L4.38756 45.5891L0.170898 43.1538L0.170898 42.2726L4.38756 39.8373L0.170898 37.4021L0.170898 36.5209L4.38756 34.0856L0.170898 31.6503L0.170898 30.7692L4.38756 28.3339L0.170898 25.8986L0.170898 25.0175L4.38756 22.5822L0.170898 20.1469L0.170898 19.2657L4.38756 16.8305L0.170898 14.3952L0.170898 13.514L4.38756 11.0787L0.170898 8.64346L0.170898 7.76231L4.38756 5.32703L0.170898 2.89174L0.170898 2.01059L4.38756 -0.424698L3.39163 -0.999863L286.967 -0.999863C286.947 -0.874863 286.937 -0.74678 286.937 -0.616409C286.937 0.760162 288.053 1.87599 289.429 1.87599C290.805 1.87599 291.921 0.760162 291.921 -0.616409C291.921 -0.616409 291.911 -0.874863 291.891 -0.999863H281.25H280.609L279.612 -0.424698L283.829 2.01059V2.89174L279.612 5.32703L283.829 7.76231V8.64346L279.612 11.0787L283.829 13.514V14.3952L279.612 16.8305L283.829 19.2657V20.1469L279.612 22.5822L283.829 25.0175V25.8986L279.612 28.3339L283.829 30.7692V31.6503L279.612 34.0856L283.829 36.5209V37.4021L279.612 39.8373L283.829 42.2726V43.1538L279.612 45.5891L283.829 48.0243V48.9055L279.612 51.3408L283.829 53.776V54.6572L279.612 57.0925L283.829 59.5278V60.4089L279.612 62.8442L283.829 65.2795V66.1607L279.612 68.5959L283.829 71.0312V71.9124L279.612 74.3476L283.829 76.7829V77.6641L279.612 80.0994L283.829 82.5346V83.4158L279.612 85.8511L283.829 88.2864V89.1675L279.612 91.6028L283.829 94.0381V94.9192L279.612 97.3545L283.829 99.7898V100.671L279.612 103.106L283.829 105.542V106.423L279.612 108.858L283.829 111.293V112.174L279.612 114.61L283.829 117.045V117.926L279.612 120.361L283.829 122.797V123.678L279.612 126.113L283.829 128.548V129.43L279.612 131.865L283.829 134.3V135.181L279.612 137.617L280.276 138L291.914 138C291.918 137.937 291.921 137.873 291.921 137.808C291.921 136.432 290.805 135.316 289.429 135.316C288.053 135.316 286.937 136.432 286.937 137.808C286.937 137.873 286.94 137.937 286.945 138H3.72361Z" fill="#111320"/>
<path d="M292.421 130.523C292.421 128.87 291.082 127.53 289.429 127.53V128.53C290.529 128.53 291.421 129.422 291.421 130.523H292.421ZM289.429 127.53C287.777 127.53 286.437 128.87 286.437 130.523H287.437C287.437 129.422 288.329 128.53 289.429 128.53V127.53ZM289.429 121.245C290.529 121.245 291.421 122.137 291.421 123.237H292.421C292.421 121.585 291.082 120.245 289.429 120.245V121.245ZM287.437 123.237C287.437 122.137 288.329 121.245 289.429 121.245V120.245C287.777 120.245 286.437 121.585 286.437 123.237H287.437ZM292.421 115.952C292.421 114.299 291.082 112.959 289.429 112.959V113.959C290.529 113.959 291.421 114.851 291.421 115.952H292.421ZM289.429 112.959C287.777 112.959 286.437 114.299 286.437 115.952H287.437C287.437 114.851 288.329 113.959 289.429 113.959V112.959ZM289.429 106.674C290.529 106.674 291.421 107.566 291.421 108.666H292.421C292.421 107.014 291.082 105.674 289.429 105.674V106.674ZM287.437 108.666C287.437 107.566 288.329 106.674 289.429 106.674V105.674C287.777 105.674 286.437 107.014 286.437 108.666H287.437ZM292.421 101.381C292.421 99.7282 291.082 98.3883 289.429 98.3883V99.3883C290.529 99.3883 291.421 100.28 291.421 101.381H292.421ZM289.429 98.3883C287.777 98.3883 286.437 99.7281 286.437 101.381H287.437C287.437 100.28 288.329 99.3883 289.429 99.3883V98.3883ZM289.429 92.1028C290.529 92.1028 291.421 92.9946 291.421 94.0952H292.421C292.421 92.4426 291.082 91.1028 289.429 91.1028V92.1028ZM287.437 94.0952C287.437 92.9946 288.329 92.1028 289.429 92.1028V91.1028C287.777 91.1028 286.437 92.4426 286.437 94.0952H287.437ZM292.421 86.8097C292.421 85.1571 291.082 83.8173 289.429 83.8173V84.8173C290.529 84.8173 291.421 85.7091 291.421 86.8097H292.421ZM289.429 83.8173C287.777 83.8173 286.437 85.1571 286.437 86.8097H287.437C287.437 85.7091 288.329 84.8173 289.429 84.8173V83.8173ZM289.429 77.5318C290.529 77.5318 291.421 78.4236 291.421 79.5242H292.421C292.421 77.8716 291.082 76.5318 289.429 76.5318V77.5318ZM287.437 79.5242C287.437 78.4236 288.329 77.5318 289.429 77.5318V76.5318C287.777 76.5318 286.437 77.8716 286.437 79.5242H287.437ZM292.421 72.2387C292.421 70.5861 291.082 69.2463 289.429 69.2463V70.2463C290.529 70.2463 291.421 71.1381 291.421 72.2387H292.421ZM289.429 69.2463C287.777 69.2463 286.437 70.5861 286.437 72.2387H287.437C287.437 71.1381 288.329 70.2463 289.429 70.2463V69.2463ZM289.429 62.9608C290.529 62.9608 291.421 63.8526 291.421 64.9532H292.421C292.421 63.3006 291.082 61.9608 289.429 61.9608V62.9608ZM287.437 64.9532C287.437 63.8526 288.329 62.9608 289.429 62.9608V61.9608C287.777 61.9608 286.437 63.3006 286.437 64.9532H287.437ZM292.421 57.6677C292.421 56.0151 291.082 54.6753 289.429 54.6753V55.6753C290.529 55.6753 291.421 56.5671 291.421 57.6677H292.421ZM289.429 54.6753C287.777 54.6753 286.437 56.0151 286.437 57.6677H287.437C287.437 56.5671 288.329 55.6753 289.429 55.6753V54.6753ZM289.429 48.3897C290.529 48.3897 291.421 49.2816 291.421 50.3821H292.421C292.421 48.7296 291.082 47.3897 289.429 47.3897V48.3897ZM287.437 50.3821C287.437 49.2816 288.329 48.3897 289.429 48.3897V47.3897C287.777 47.3897 286.437 48.7296 286.437 50.3821H287.437ZM292.421 43.0966C292.421 41.4441 291.082 40.1042 289.429 40.1042V41.1042C290.529 41.1042 291.421 41.9961 291.421 43.0966H292.421ZM289.429 40.1042C287.777 40.1042 286.437 41.4441 286.437 43.0966H287.437C287.437 41.9961 288.329 41.1042 289.429 41.1042V40.1042ZM289.429 33.8187C290.529 33.8187 291.421 34.7105 291.421 35.8111H292.421C292.421 34.1586 291.082 32.8187 289.429 32.8187V33.8187ZM287.437 35.8111C287.437 34.7106 288.329 33.8187 289.429 33.8187V32.8187C287.777 32.8187 286.437 34.1586 286.437 35.8111H287.437ZM292.421 28.5256C292.421 26.873 291.082 25.5332 289.429 25.5332V26.5332C290.529 26.5332 291.421 27.425 291.421 28.5256H292.421ZM289.429 25.5332C287.777 25.5332 286.437 26.873 286.437 28.5256H287.437C287.437 27.425 288.329 26.5332 289.429 26.5332V25.5332ZM289.429 19.2477C290.529 19.2477 291.421 20.1395 291.421 21.2401H292.421C292.421 19.5875 291.082 18.2477 289.429 18.2477V19.2477ZM287.437 21.2401C287.437 20.1395 288.329 19.2477 289.429 19.2477V18.2477C287.777 18.2477 286.437 19.5875 286.437 21.2401H287.437ZM292.421 13.9546C292.421 12.302 291.082 10.9622 289.429 10.9622V11.9622C290.529 11.9622 291.421 12.854 291.421 13.9546H292.421ZM289.429 10.9622C287.777 10.9622 286.437 12.302 286.437 13.9546H287.437C287.437 12.854 288.329 11.9622 289.429 11.9622V10.9622ZM289.429 4.67668C290.529 4.67668 291.421 5.56851 291.421 6.6691H292.421C292.421 5.01653 291.082 3.67668 289.429 3.67668V4.67668ZM287.437 6.6691C287.437 5.56853 288.329 4.67668 289.429 4.67668V3.67668C287.777 3.67668 286.437 5.01653 286.437 6.6691H287.437ZM3.72361 138L3.2235 137.134L-0.00747052 139H3.72361V138ZM4.38756 137.617L4.88768 138.483L6.38711 137.617L4.88768 136.751L4.38756 137.617ZM0.170898 135.181H-0.829102L-0.829102 135.759L-0.329214 136.047L0.170898 135.181ZM0.170898 134.3L-0.329214 133.434L-0.829102 133.723V134.3H0.170898ZM4.38756 131.865L4.88768 132.731L6.38712 131.865L4.88768 130.999L4.38756 131.865ZM0.170898 129.43H-0.829102L-0.829102 130.007L-0.329214 130.296L0.170898 129.43ZM0.170898 128.548L-0.329214 127.682L-0.829102 127.971L-0.829102 128.548H0.170898ZM4.38756 126.113L4.88768 126.979L6.38712 126.113L4.88768 125.247L4.38756 126.113ZM0.170898 123.678H-0.829102V124.255L-0.329214 124.544L0.170898 123.678ZM0.170898 122.797L-0.329213 121.931L-0.829102 122.219L-0.829102 122.797H0.170898ZM4.38756 120.361L4.88768 121.227L6.3871 120.361L4.88768 119.495L4.38756 120.361ZM0.170898 117.926H-0.829102V118.503L-0.329223 118.792L0.170898 117.926ZM0.170898 117.045L-0.329223 116.179L-0.829102 116.468V117.045H0.170898ZM4.38756 114.61L4.88768 115.476L6.38708 114.61L4.88768 113.744L4.38756 114.61ZM0.170898 112.174H-0.829102V112.752L-0.329223 113.04L0.170898 112.174ZM0.170898 111.293L-0.329223 110.427L-0.829102 110.716V111.293H0.170898ZM4.38756 108.858L4.88768 109.724L6.38708 108.858L4.88768 107.992L4.38756 108.858ZM0.170898 106.423H-0.829102V107L-0.329222 107.289L0.170898 106.423ZM0.170898 105.542L-0.329223 104.676L-0.829102 104.964V105.542H0.170898ZM4.38756 103.106L4.88768 103.972L6.38708 103.106L4.88768 102.24L4.38756 103.106ZM0.170898 100.671H-0.829102L-0.829102 101.248L-0.329222 101.537L0.170898 100.671ZM0.170898 99.7898L-0.329222 98.9238L-0.829102 99.2125V99.7898H0.170898ZM4.38756 97.3545L4.88768 98.2205L6.38708 97.3545L4.88768 96.4886L4.38756 97.3545ZM0.170898 94.9192H-0.829102L-0.829102 95.4965L-0.329222 95.7852L0.170898 94.9192ZM0.170898 94.0381L-0.329223 93.1721L-0.829102 93.4608L-0.829102 94.0381H0.170898ZM4.38756 91.6028L4.88768 92.4688L6.38708 91.6028L4.88768 90.7368L4.38756 91.6028ZM0.170898 89.1675H-0.829102V89.7448L-0.329222 90.0335L0.170898 89.1675ZM0.170898 88.2864L-0.329223 87.4204L-0.829102 87.7091L-0.829102 88.2864H0.170898ZM4.38756 85.8511L4.88768 86.717L6.38708 85.8511L4.88768 84.9851L4.38756 85.8511ZM0.170898 83.4158H-0.829102V83.9931L-0.329222 84.2818L0.170898 83.4158ZM0.170898 82.5346L-0.329222 81.6687L-0.829102 81.9574V82.5346H0.170898ZM4.38756 80.0994L4.88768 80.9653L6.38708 80.0994L4.88768 79.2334L4.38756 80.0994ZM0.170898 77.6641H-0.829102V78.2413L-0.329223 78.53L0.170898 77.6641ZM0.170898 76.7829L-0.329222 75.917L-0.829102 76.2057V76.7829H0.170898ZM4.38756 74.3476L4.88768 75.2136L6.38708 74.3476L4.88768 73.4817L4.38756 74.3476ZM0.170898 71.9124H-0.829102V72.4896L-0.329223 72.7783L0.170898 71.9124ZM0.170898 71.0312L-0.329223 70.1652L-0.829102 70.4539V71.0312H0.170898ZM4.38756 68.5959L4.88768 69.4619L6.38708 68.5959L4.88768 67.73L4.38756 68.5959ZM0.170898 66.1607H-0.829102L-0.829102 66.7379L-0.329222 67.0266L0.170898 66.1607ZM0.170898 65.2795L-0.329222 64.4135L-0.829102 64.7022V65.2795H0.170898ZM4.38756 62.8442L4.88768 63.7102L6.38708 62.8442L4.88768 61.9783L4.38756 62.8442ZM0.170898 60.4089H-0.829102L-0.829102 60.9862L-0.329223 61.2749L0.170898 60.4089ZM0.170898 59.5278L-0.329222 58.6618L-0.829102 58.9505L-0.829102 59.5278H0.170898ZM4.38756 57.0925L4.88768 57.9585L6.38708 57.0925L4.88768 56.2265L4.38756 57.0925ZM0.170898 54.6572H-0.829102V55.2345L-0.329222 55.5232L0.170898 54.6572ZM0.170898 53.776L-0.329222 52.9101L-0.829102 53.1988L-0.829102 53.776H0.170898ZM4.38756 51.3408L4.88768 52.2067L6.38708 51.3408L4.88768 50.4748L4.38756 51.3408ZM0.170898 48.9055H-0.829102V49.4827L-0.329223 49.7715L0.170898 48.9055ZM0.170898 48.0243L-0.329223 47.1584L-0.829102 47.4471V48.0243H0.170898ZM4.38756 45.5891L4.88768 46.455L6.38708 45.5891L4.88768 44.7231L4.38756 45.5891ZM0.170898 43.1538H-0.829102V43.731L-0.329222 44.0197L0.170898 43.1538ZM0.170898 42.2726L-0.329222 41.4066L-0.829102 41.6954V42.2726H0.170898ZM4.38756 39.8373L4.88768 40.7033L6.38708 39.8373L4.88768 38.9714L4.38756 39.8373ZM0.170898 37.4021H-0.829102V37.9793L-0.329223 38.268L0.170898 37.4021ZM0.170898 36.5209L-0.329224 35.655L-0.829102 35.9436V36.5209H0.170898ZM4.38756 34.0856L4.88769 34.9516L6.38708 34.0856L4.88768 33.2197L4.38756 34.0856ZM0.170898 31.6503H-0.829102L-0.829102 32.2276L-0.329223 32.5163L0.170898 31.6503ZM0.170898 30.7692L-0.329224 29.9032L-0.829102 30.1919V30.7692H0.170898ZM4.38756 28.3339L4.88769 29.1998L6.38708 28.3339L4.88768 27.4679L4.38756 28.3339ZM0.170898 25.8986H-0.829102V26.4759L-0.329223 26.7646L0.170898 25.8986ZM0.170898 25.0175L-0.329223 24.1515L-0.829102 24.4402L-0.829102 25.0175H0.170898ZM4.38756 22.5822L4.88768 23.4481L6.38708 22.5822L4.88769 21.7162L4.38756 22.5822ZM0.170898 20.1469H-0.829102V20.7242L-0.329224 21.0128L0.170898 20.1469ZM0.170898 19.2657L-0.329223 18.3998L-0.829102 18.6885L-0.829102 19.2657H0.170898ZM4.38756 16.8305L4.88768 17.6964L6.38708 16.8305L4.88769 15.9645L4.38756 16.8305ZM0.170898 14.3952H-0.829102V14.9724L-0.329224 15.2611L0.170898 14.3952ZM0.170898 13.514L-0.329223 12.6481L-0.829102 12.9368V13.514H0.170898ZM4.38756 11.0787L4.88768 11.9447L6.38708 11.0787L4.88768 10.2128L4.38756 11.0787ZM0.170898 8.64346H-0.829102V9.22072L-0.329223 9.50941L0.170898 8.64346ZM0.170898 7.76231L-0.329224 6.89636L-0.829102 7.18506V7.76231H0.170898ZM4.38756 5.32703L4.88769 6.19298L6.38707 5.32703L4.88769 4.46107L4.38756 5.32703ZM0.170898 2.89174H-0.829102L-0.829102 3.46899L-0.329224 3.75769L0.170898 2.89174ZM0.170898 2.01059L-0.329224 1.14464L-0.829102 1.43333V2.01059H0.170898ZM4.38756 -0.424698L4.88769 0.441254L6.38711 -0.424713L4.88767 -1.29066L4.38756 -0.424698ZM3.39163 -0.999863V-1.99986H-0.339526L2.89152 -0.133896L3.39163 -0.999863ZM286.967 -0.999863L287.955 -0.846832L288.134 -1.99986H286.967V-0.999863ZM291.921 -0.616409H292.921V-0.635635L292.92 -0.654831L291.921 -0.616409ZM291.891 -0.999863L292.88 -1.15289L292.749 -1.99986H291.891V-0.999863ZM280.609 -0.999863V-1.99986H280.341L280.109 -1.86598L280.609 -0.999863ZM279.612 -0.424698L279.113 -1.29082L277.612 -0.425034L279.112 0.441254L279.612 -0.424698ZM283.829 2.01059H284.829V1.43333L284.329 1.14464L283.829 2.01059ZM283.829 2.89174L284.329 3.75769L284.829 3.46899V2.89174H283.829ZM279.612 5.32703L279.112 4.46107L277.613 5.32703L279.112 6.19298L279.612 5.32703ZM283.829 7.76231H284.829V7.18506L284.329 6.89636L283.829 7.76231ZM283.829 8.64346L284.329 9.50941L284.829 9.22072V8.64346H283.829ZM279.612 11.0787L279.112 10.2128L277.613 11.0787L279.112 11.9447L279.612 11.0787ZM283.829 13.514H284.829V12.9368L284.329 12.6481L283.829 13.514ZM283.829 14.3952L284.329 15.2611L284.829 14.9724V14.3952H283.829ZM279.612 16.8305L279.112 15.9645L277.613 16.8305L279.112 17.6964L279.612 16.8305ZM283.829 19.2657H284.829V18.6885L284.329 18.3998L283.829 19.2657ZM283.829 20.1469L284.329 21.0128L284.829 20.7242V20.1469H283.829ZM279.612 22.5822L279.112 21.7162L277.613 22.5822L279.112 23.4481L279.612 22.5822ZM283.829 25.0175H284.829V24.4402L284.329 24.1515L283.829 25.0175ZM283.829 25.8986L284.329 26.7646L284.829 26.4759V25.8986H283.829ZM279.612 28.3339L279.112 27.4679L277.613 28.3339L279.112 29.1998L279.612 28.3339ZM283.829 30.7692H284.829V30.1919L284.329 29.9032L283.829 30.7692ZM283.829 31.6503L284.329 32.5163L284.829 32.2276V31.6503H283.829ZM279.612 34.0856L279.112 33.2197L277.613 34.0856L279.112 34.9516L279.612 34.0856ZM283.829 36.5209H284.829V35.9436L284.329 35.655L283.829 36.5209ZM283.829 37.4021L284.329 38.268L284.829 37.9793V37.4021H283.829ZM279.612 39.8373L279.112 38.9714L277.613 39.8373L279.112 40.7033L279.612 39.8373ZM283.829 42.2726H284.829V41.6954L284.329 41.4067L283.829 42.2726ZM283.829 43.1538L284.329 44.0197L284.829 43.731V43.1538H283.829ZM279.612 45.5891L279.112 44.7231L277.613 45.5891L279.112 46.455L279.612 45.5891ZM283.829 48.0243H284.829V47.4471L284.329 47.1584L283.829 48.0243ZM283.829 48.9055L284.329 49.7714L284.829 49.4827V48.9055H283.829ZM279.612 51.3408L279.112 50.4748L277.613 51.3408L279.112 52.2067L279.612 51.3408ZM283.829 53.776H284.829V53.1988L284.329 52.9101L283.829 53.776ZM283.829 54.6572L284.329 55.5232L284.829 55.2345V54.6572H283.829ZM279.612 57.0925L279.112 56.2265L277.613 57.0925L279.112 57.9584L279.612 57.0925ZM283.829 59.5278H284.829V58.9505L284.329 58.6618L283.829 59.5278ZM283.829 60.4089L284.329 61.2749L284.829 60.9862V60.4089H283.829ZM279.612 62.8442L279.112 61.9783L277.613 62.8442L279.112 63.7102L279.612 62.8442ZM283.829 65.2795H284.829V64.7022L284.329 64.4135L283.829 65.2795ZM283.829 66.1607L284.329 67.0266L284.829 66.7379V66.1607H283.829ZM279.612 68.5959L279.112 67.73L277.613 68.5959L279.112 69.4619L279.612 68.5959ZM283.829 71.0312H284.829V70.4539L284.329 70.1653L283.829 71.0312ZM283.829 71.9124L284.329 72.7783L284.829 72.4896V71.9124H283.829ZM279.612 74.3476L279.112 73.4817L277.613 74.3476L279.112 75.2136L279.612 74.3476ZM283.829 76.7829H284.829V76.2057L284.329 75.917L283.829 76.7829ZM283.829 77.6641L284.329 78.53L284.829 78.2413V77.6641H283.829ZM279.612 80.0994L279.112 79.2334L277.613 80.0994L279.112 80.9653L279.612 80.0994ZM283.829 82.5346H284.829V81.9574L284.329 81.6687L283.829 82.5346ZM283.829 83.4158L284.329 84.2818L284.829 83.9931V83.4158H283.829ZM279.612 85.8511L279.112 84.9851L277.613 85.8511L279.112 86.717L279.612 85.8511ZM283.829 88.2864H284.829V87.7091L284.329 87.4204L283.829 88.2864ZM283.829 89.1675L284.329 90.0335L284.829 89.7448V89.1675H283.829ZM279.612 91.6028L279.112 90.7368L277.613 91.6028L279.112 92.4688L279.612 91.6028ZM283.829 94.0381H284.829V93.4608L284.329 93.1721L283.829 94.0381ZM283.829 94.9192L284.329 95.7852L284.829 95.4965V94.9192H283.829ZM279.612 97.3545L279.112 96.4886L277.613 97.3545L279.112 98.2205L279.612 97.3545ZM283.829 99.7898H284.829V99.2125L284.329 98.9238L283.829 99.7898ZM283.829 100.671L284.329 101.537L284.829 101.248V100.671H283.829ZM279.612 103.106L279.112 102.24L277.613 103.106L279.112 103.972L279.612 103.106ZM283.829 105.542H284.829V104.964L284.329 104.676L283.829 105.542ZM283.829 106.423L284.329 107.289L284.829 107V106.423H283.829ZM279.612 108.858L279.112 107.992L277.613 108.858L279.112 109.724L279.612 108.858ZM283.829 111.293H284.829V110.716L284.329 110.427L283.829 111.293ZM283.829 112.174L284.329 113.04L284.829 112.752V112.174H283.829ZM279.612 114.61L279.112 113.744L277.613 114.61L279.112 115.476L279.612 114.61ZM283.829 117.045H284.829V116.468L284.329 116.179L283.829 117.045ZM283.829 117.926L284.329 118.792L284.829 118.503V117.926H283.829ZM279.612 120.361L279.112 119.495L277.613 120.361L279.112 121.227L279.612 120.361ZM283.829 122.797H284.829V122.219L284.329 121.931L283.829 122.797ZM283.829 123.678L284.329 124.544L284.829 124.255V123.678H283.829ZM279.612 126.113L279.112 125.247L277.613 126.113L279.112 126.979L279.612 126.113ZM283.829 128.548H284.829V127.971L284.329 127.682L283.829 128.548ZM283.829 129.43L284.329 130.296L284.829 130.007V129.43H283.829ZM279.612 131.865L279.112 130.999L277.613 131.865L279.112 132.731L279.612 131.865ZM283.829 134.3H284.829V133.723L284.329 133.434L283.829 134.3ZM283.829 135.181L284.329 136.047L284.829 135.759V135.181H283.829ZM279.612 137.617L279.112 136.751L277.614 137.616L279.112 138.482L279.612 137.617ZM280.276 138L279.775 138.866L280.007 139H280.276V138ZM291.914 138V139H292.841L292.911 138.076L291.914 138ZM286.945 138V139H288.023L287.942 137.924L286.945 138ZM4.22372 138.866L4.88768 138.483L3.88745 136.751L3.2235 137.134L4.22372 138.866ZM4.88768 136.751L0.67101 134.315L-0.329214 136.047L3.88745 138.483L4.88768 136.751ZM1.1709 135.181V134.3H-0.829102V135.181H1.1709ZM0.67101 135.166L4.88768 132.731L3.88745 130.999L-0.329214 133.434L0.67101 135.166ZM4.88768 130.999L0.67101 128.564L-0.329214 130.296L3.88745 132.731L4.88768 130.999ZM1.1709 129.43L1.1709 128.548H-0.829102V129.43H1.1709ZM0.67101 129.414L4.88768 126.979L3.88745 125.247L-0.329214 127.682L0.67101 129.414ZM4.88768 125.247L0.67101 122.812L-0.329214 124.544L3.88745 126.979L4.88768 125.247ZM1.1709 123.678V122.797H-0.829102V123.678H1.1709ZM0.67101 123.663L4.88768 121.227L3.88745 119.495L-0.329213 121.931L0.67101 123.663ZM4.88768 119.495L0.671019 117.06L-0.329223 118.792L3.88744 121.227L4.88768 119.495ZM1.1709 117.926V117.045H-0.829102L-0.829102 117.926H1.1709ZM0.671019 117.911L4.88768 115.476L3.88744 113.744L-0.329223 116.179L0.671019 117.911ZM4.88768 113.744L0.671019 111.308L-0.329223 113.04L3.88744 115.476L4.88768 113.744ZM1.1709 112.174V111.293H-0.829102L-0.829102 112.174H1.1709ZM0.671019 112.159L4.88768 109.724L3.88744 107.992L-0.329223 110.427L0.671019 112.159ZM4.88768 107.992L0.671019 105.557L-0.329222 107.289L3.88744 109.724L4.88768 107.992ZM1.1709 106.423V105.542H-0.829102L-0.829102 106.423H1.1709ZM0.67102 106.407L4.88768 103.972L3.88744 102.24L-0.329223 104.676L0.67102 106.407ZM4.88768 102.24L0.671019 99.805L-0.329222 101.537L3.88744 103.972L4.88768 102.24ZM1.1709 100.671L1.1709 99.7898H-0.829102V100.671H1.1709ZM0.671019 100.656L4.88768 98.2205L3.88744 96.4886L-0.329222 98.9238L0.671019 100.656ZM4.88768 96.4886L0.671019 94.0533L-0.329222 95.7852L3.88744 98.2205L4.88768 96.4886ZM1.1709 94.9192V94.0381H-0.829102V94.9192H1.1709ZM0.67102 94.904L4.88768 92.4688L3.88744 90.7368L-0.329223 93.1721L0.67102 94.904ZM4.88768 90.7368L0.671019 88.3016L-0.329222 90.0335L3.88744 92.4688L4.88768 90.7368ZM1.1709 89.1675L1.1709 88.2864H-0.829102V89.1675H1.1709ZM0.67102 89.1523L4.88768 86.717L3.88744 84.9851L-0.329223 87.4204L0.67102 89.1523ZM4.88768 84.9851L0.671019 82.5499L-0.329222 84.2818L3.88744 86.717L4.88768 84.9851ZM1.1709 83.4158V82.5346H-0.829102L-0.829102 83.4158H1.1709ZM0.671019 83.4006L4.88768 80.9653L3.88744 79.2334L-0.329222 81.6687L0.671019 83.4006ZM4.88768 79.2334L0.67102 76.7981L-0.329223 78.53L3.88744 80.9653L4.88768 79.2334ZM1.1709 77.6641V76.7829H-0.829102L-0.829102 77.6641H1.1709ZM0.671019 77.6489L4.88768 75.2136L3.88744 73.4817L-0.329222 75.917L0.671019 77.6489ZM4.88768 73.4817L0.67102 71.0464L-0.329223 72.7783L3.88744 75.2136L4.88768 73.4817ZM1.1709 71.9124V71.0312H-0.829102L-0.829102 71.9124H1.1709ZM0.67102 71.8972L4.88768 69.4619L3.88744 67.73L-0.329223 70.1652L0.67102 71.8972ZM4.88768 67.73L0.671019 65.2947L-0.329222 67.0266L3.88744 69.4619L4.88768 67.73ZM1.1709 66.1607V65.2795H-0.829102V66.1607H1.1709ZM0.671019 66.1454L4.88768 63.7102L3.88744 61.9783L-0.329222 64.4135L0.671019 66.1454ZM4.88768 61.9783L0.67102 59.543L-0.329223 61.2749L3.88744 63.7102L4.88768 61.9783ZM1.1709 60.4089L1.1709 59.5278H-0.829102V60.4089H1.1709ZM0.671019 60.3937L4.88768 57.9585L3.88744 56.2265L-0.329222 58.6618L0.671019 60.3937ZM4.88768 56.2265L0.671019 53.7913L-0.329222 55.5232L3.88744 57.9585L4.88768 56.2265ZM1.1709 54.6572V53.776H-0.829102V54.6572H1.1709ZM0.671019 54.642L4.88768 52.2067L3.88744 50.4748L-0.329222 52.9101L0.671019 54.642ZM4.88768 50.4748L0.67102 48.0395L-0.329223 49.7715L3.88744 52.2067L4.88768 50.4748ZM1.1709 48.9055V48.0243H-0.829102L-0.829102 48.9055H1.1709ZM0.67102 48.8903L4.88768 46.455L3.88744 44.7231L-0.329223 47.1584L0.67102 48.8903ZM4.88768 44.7231L0.671019 42.2878L-0.329222 44.0197L3.88744 46.455L4.88768 44.7231ZM1.1709 43.1538V42.2726H-0.829102L-0.829102 43.1538H1.1709ZM0.671019 43.1386L4.88768 40.7033L3.88744 38.9714L-0.329222 41.4066L0.671019 43.1386ZM4.88768 38.9714L0.67102 36.5361L-0.329223 38.268L3.88744 40.7033L4.88768 38.9714ZM1.1709 37.4021V36.5209H-0.829102L-0.829102 37.4021H1.1709ZM0.671021 37.3869L4.88769 34.9516L3.88744 33.2197L-0.329224 35.655L0.671021 37.3869ZM4.88768 33.2197L0.67102 30.7844L-0.329223 32.5163L3.88744 34.9516L4.88768 33.2197ZM1.1709 31.6503L1.1709 30.7692H-0.829102V31.6503H1.1709ZM0.671021 31.6351L4.88769 29.1998L3.88744 27.4679L-0.329224 29.9032L0.671021 31.6351ZM4.88768 27.4679L0.67102 25.0327L-0.329223 26.7646L3.88744 29.1999L4.88768 27.4679ZM1.1709 25.8986V25.0175H-0.829102V25.8986H1.1709ZM0.67102 25.8834L4.88768 23.4481L3.88744 21.7162L-0.329223 24.1515L0.67102 25.8834ZM4.88769 21.7162L0.671021 19.2809L-0.329224 21.0128L3.88744 23.4481L4.88769 21.7162ZM1.1709 20.1469L1.1709 19.2657H-0.829102V20.1469H1.1709ZM0.67102 20.1317L4.88768 17.6964L3.88744 15.9645L-0.329223 18.3998L0.67102 20.1317ZM4.88769 15.9645L0.671021 13.5292L-0.329224 15.2611L3.88744 17.6964L4.88769 15.9645ZM1.1709 14.3952V13.514H-0.829102L-0.829102 14.3952H1.1709ZM0.67102 14.38L4.88768 11.9447L3.88744 10.2128L-0.329223 12.6481L0.67102 14.38ZM4.88768 10.2128L0.67102 7.77751L-0.329223 9.50941L3.88744 11.9447L4.88768 10.2128ZM1.1709 8.64346V7.76231H-0.829102L-0.829102 8.64346H1.1709ZM0.671021 8.62827L4.88769 6.19298L3.88744 4.46107L-0.329224 6.89636L0.671021 8.62827ZM4.88769 4.46107L0.671021 2.02579L-0.329224 3.75769L3.88744 6.19298L4.88769 4.46107ZM1.1709 2.89174L1.1709 2.01059H-0.829102V2.89174H1.1709ZM0.671021 2.87654L4.88769 0.441254L3.88744 -1.29065L-0.329224 1.14464L0.671021 2.87654ZM4.88767 -1.29066L3.89173 -1.86583L2.89152 -0.133896L3.88746 0.441269L4.88767 -1.29066ZM3.39163 0.000137329L286.967 0.000137329V-1.99986L3.39163 -1.99986V0.000137329ZM285.979 -1.15289C285.951 -0.977066 285.937 -0.797821 285.937 -0.616409H287.937C287.937 -0.69574 287.944 -0.772659 287.955 -0.846832L285.979 -1.15289ZM285.937 -0.616409C285.937 1.31218 287.5 2.87599 289.429 2.87599V0.875992C288.606 0.875992 287.937 0.20816 287.937 -0.616409H285.937ZM289.429 2.87599C291.358 2.87599 292.921 1.31216 292.921 -0.616409H290.921C290.921 0.208176 290.253 0.875992 289.429 0.875992V2.87599ZM291.921 -0.616409C292.92 -0.654831 292.92 -0.654861 292.92 -0.654892C292.92 -0.654907 292.92 -0.654938 292.92 -0.654953C292.92 -0.654999 292.92 -0.655045 292.92 -0.655106C292.92 -0.655212 292.92 -0.655334 292.92 -0.655472C292.92 -0.655746 292.92 -0.656082 292.92 -0.656479C292.92 -0.657272 292.92 -0.658325 292.92 -0.659607C292.92 -0.66217 292.92 -0.665695 292.919 -0.670059C292.919 -0.678787 292.919 -0.690979 292.918 -0.705826C292.916 -0.735352 292.914 -0.776367 292.912 -0.822266C292.907 -0.900604 292.897 -1.03908 292.88 -1.15289L290.903 -0.846832C290.903 -0.847961 290.905 -0.833862 290.908 -0.80014C290.911 -0.769852 290.913 -0.735077 290.915 -0.700256C290.917 -0.665909 290.919 -0.634506 290.92 -0.611664C290.921 -0.600327 290.921 -0.591354 290.921 -0.585449C290.921 -0.582504 290.921 -0.580353 290.921 -0.579071C290.922 -0.57843 290.922 -0.578018 290.922 -0.577835C290.922 -0.577744 290.922 -0.577698 290.922 -0.577728C290.922 -0.577744 290.922 -0.577774 290.922 -0.577805C290.922 -0.577835 290.922 -0.57785 290.922 -0.577881C290.922 -0.577896 290.922 -0.577927 290.922 -0.577927C290.922 -0.577957 290.922 -0.577988 291.921 -0.616409ZM280.109 -1.86598L279.113 -1.29082L280.112 0.441422L281.109 -0.133743L280.109 -1.86598ZM279.112 0.441254L283.329 2.87654L284.329 1.14464L280.113 -1.29065L279.112 0.441254ZM282.829 2.01059V2.89174H284.829V2.01059H282.829ZM283.329 2.02579L279.112 4.46107L280.113 6.19298L284.329 3.75769L283.329 2.02579ZM279.112 6.19298L283.329 8.62827L284.329 6.89636L280.113 4.46107L279.112 6.19298ZM282.829 7.76231V8.64346H284.829V7.76231H282.829ZM283.329 7.77751L279.112 10.2128L280.113 11.9447L284.329 9.50941L283.329 7.77751ZM279.112 11.9447L283.329 14.38L284.329 12.6481L280.113 10.2128L279.112 11.9447ZM282.829 13.514V14.3952H284.829V13.514H282.829ZM283.329 13.5292L279.112 15.9645L280.113 17.6964L284.329 15.2611L283.329 13.5292ZM279.112 17.6964L283.329 20.1317L284.329 18.3998L280.113 15.9645L279.112 17.6964ZM282.829 19.2657V20.1469H284.829V19.2657H282.829ZM283.329 19.2809L279.112 21.7162L280.113 23.4481L284.329 21.0128L283.329 19.2809ZM279.112 23.4481L283.329 25.8834L284.329 24.1515L280.113 21.7162L279.112 23.4481ZM282.829 25.0175V25.8986H284.829V25.0175H282.829ZM283.329 25.0327L279.112 27.4679L280.113 29.1998L284.329 26.7646L283.329 25.0327ZM279.112 29.1998L283.329 31.6351L284.329 29.9032L280.113 27.4679L279.112 29.1998ZM282.829 30.7692V31.6503H284.829V30.7692H282.829ZM283.329 30.7844L279.112 33.2197L280.113 34.9516L284.329 32.5163L283.329 30.7844ZM279.112 34.9516L283.329 37.3869L284.329 35.655L280.113 33.2197L279.112 34.9516ZM282.829 36.5209V37.4021H284.829V36.5209H282.829ZM283.329 36.5361L279.112 38.9714L280.113 40.7033L284.329 38.268L283.329 36.5361ZM279.112 40.7033L283.329 43.1386L284.329 41.4067L280.113 38.9714L279.112 40.7033ZM282.829 42.2726V43.1538H284.829V42.2726H282.829ZM283.329 42.2878L279.112 44.7231L280.113 46.455L284.329 44.0197L283.329 42.2878ZM279.112 46.455L283.329 48.8903L284.329 47.1584L280.113 44.7231L279.112 46.455ZM282.829 48.0243V48.9055H284.829V48.0243H282.829ZM283.329 48.0395L279.112 50.4748L280.113 52.2067L284.329 49.7714L283.329 48.0395ZM279.112 52.2067L283.329 54.642L284.329 52.9101L280.113 50.4748L279.112 52.2067ZM282.829 53.776V54.6572H284.829V53.776H282.829ZM283.329 53.7913L279.112 56.2265L280.113 57.9584L284.329 55.5232L283.329 53.7913ZM279.112 57.9584L283.329 60.3937L284.329 58.6618L280.113 56.2265L279.112 57.9584ZM282.829 59.5278V60.4089H284.829V59.5278H282.829ZM283.329 59.543L279.112 61.9783L280.113 63.7102L284.329 61.2749L283.329 59.543ZM279.112 63.7102L283.329 66.1454L284.329 64.4135L280.113 61.9783L279.112 63.7102ZM282.829 65.2795V66.1607H284.829V65.2795H282.829ZM283.329 65.2947L279.112 67.73L280.113 69.4619L284.329 67.0266L283.329 65.2947ZM279.112 69.4619L283.329 71.8972L284.329 70.1653L280.113 67.73L279.112 69.4619ZM282.829 71.0312V71.9124H284.829V71.0312H282.829ZM283.329 71.0464L279.112 73.4817L280.113 75.2136L284.329 72.7783L283.329 71.0464ZM279.112 75.2136L283.329 77.6489L284.329 75.917L280.113 73.4817L279.112 75.2136ZM282.829 76.7829V77.6641H284.829V76.7829H282.829ZM283.329 76.7981L279.112 79.2334L280.113 80.9653L284.329 78.53L283.329 76.7981ZM279.112 80.9653L283.329 83.4006L284.329 81.6687L280.113 79.2334L279.112 80.9653ZM282.829 82.5346V83.4158H284.829V82.5346H282.829ZM283.329 82.5499L279.112 84.9851L280.113 86.717L284.329 84.2818L283.329 82.5499ZM279.112 86.717L283.329 89.1523L284.329 87.4204L280.113 84.9851L279.112 86.717ZM282.829 88.2864V89.1675H284.829V88.2864H282.829ZM283.329 88.3016L279.112 90.7368L280.113 92.4688L284.329 90.0335L283.329 88.3016ZM279.112 92.4688L283.329 94.904L284.329 93.1721L280.113 90.7368L279.112 92.4688ZM282.829 94.0381V94.9192H284.829V94.0381H282.829ZM283.329 94.0533L279.112 96.4886L280.113 98.2205L284.329 95.7852L283.329 94.0533ZM279.112 98.2205L283.329 100.656L284.329 98.9238L280.113 96.4886L279.112 98.2205ZM282.829 99.7898V100.671H284.829V99.7898H282.829ZM283.329 99.805L279.112 102.24L280.113 103.972L284.329 101.537L283.329 99.805ZM279.112 103.972L283.329 106.407L284.329 104.676L280.113 102.24L279.112 103.972ZM282.829 105.542V106.423H284.829V105.542H282.829ZM283.329 105.557L279.112 107.992L280.113 109.724L284.329 107.289L283.329 105.557ZM279.112 109.724L283.329 112.159L284.329 110.427L280.113 107.992L279.112 109.724ZM282.829 111.293V112.174H284.829V111.293H282.829ZM283.329 111.308L279.112 113.744L280.113 115.476L284.329 113.04L283.329 111.308ZM279.112 115.476L283.329 117.911L284.329 116.179L280.113 113.744L279.112 115.476ZM282.829 117.045V117.926H284.829V117.045H282.829ZM283.329 117.06L279.112 119.495L280.113 121.227L284.329 118.792L283.329 117.06ZM279.112 121.227L283.329 123.663L284.329 121.931L280.113 119.495L279.112 121.227ZM282.829 122.797V123.678H284.829V122.797H282.829ZM283.329 122.812L279.112 125.247L280.113 126.979L284.329 124.544L283.329 122.812ZM279.112 126.979L283.329 129.414L284.329 127.682L280.113 125.247L279.112 126.979ZM282.829 128.548V129.43H284.829V128.548H282.829ZM283.329 128.564L279.112 130.999L280.113 132.731L284.329 130.296L283.329 128.564ZM279.112 132.731L283.329 135.166L284.329 133.434L280.113 130.999L279.112 132.731ZM282.829 134.3V135.181H284.829V134.3H282.829ZM283.329 134.315L279.112 136.751L280.113 138.483L284.329 136.047L283.329 134.315ZM279.112 138.482L279.775 138.866L280.776 137.134L280.113 136.751L279.112 138.482ZM280.276 139H291.914V137H280.276V139ZM292.911 138.076C292.917 137.987 292.921 137.898 292.921 137.808H290.921C290.921 137.847 290.919 137.886 290.916 137.924L292.911 138.076ZM292.921 137.808C292.921 135.88 291.358 134.316 289.429 134.316V136.316C290.253 136.316 290.921 136.984 290.921 137.808H292.921ZM289.429 134.316C287.5 134.316 285.937 135.88 285.937 137.808H287.937C287.937 136.984 288.606 136.316 289.429 136.316V134.316ZM285.937 137.808C285.937 137.899 285.941 137.988 285.948 138.076L287.942 137.924C287.939 137.886 287.937 137.847 287.937 137.808H285.937ZM286.945 137L3.72361 137V139L286.945 139V137ZM291.891 -1.99986H281.25V0.000137329H291.891V-1.99986ZM281.25 -1.99986H280.609V0.000137329H281.25V-1.99986Z" fill="black" mask="url(#path-1-inside-1_507_21980)"/>
</g>
</g>
<defs>
<filter id="filter0_d_507_21980" x="-3.8291" y="-1" width="299.75" height="147" filterUnits="userSpaceOnUse" color-interpolation-filters="sRGB">
<feFlood flood-opacity="0" result="BackgroundImageFix"/>
<feColorMatrix in="SourceAlpha" type="matrix" values="0 0 0 0 0 0 0 0 0 0 0 0 0 0 0 0 0 0 127 0" result="hardAlpha"/>
<feOffset dy="4"/>
<feGaussianBlur stdDeviation="2"/>
<feComposite in2="hardAlpha" operator="out"/>
<feColorMatrix type="matrix" values="0 0 0 0 0 0 0 0 0 0 0 0 0 0 0 0 0 0 0.25 0"/>
<feBlend mode="normal" in2="BackgroundImageFix" result="effect1_dropShadow_507_21980"/>
<feBlend mode="normal" in="SourceGraphic" in2="effect1_dropShadow_507_21980" result="shape"/>
</filter>
<clipPath id="clip0_507_21980">
<rect width="284" height="137" fill="white"/>
</clipPath>
</defs>
</svg>
