<svg width="24" height="24" viewBox="0 0 24 24" fill="none" xmlns="http://www.w3.org/2000/svg">
<path fill-rule="evenodd" clip-rule="evenodd" d="M4.45936 7.47344C5.38513 4.15835 8.53385 2.00006 12 2.00006C15.4661 2.00006 18.6149 4.15835 19.5406 7.47344C19.7632 8.27047 19.9705 9.07187 20.1262 9.78935C20.4897 11.4638 20.7927 13.6989 20.9801 15.2464C21.1565 16.7028 20.1399 18.0373 18.6471 18.271C16.8578 18.5512 14.0966 18.9231 12 18.9231C9.90339 18.9231 7.14215 18.5512 5.35286 18.271C3.86011 18.0373 2.84345 16.7028 3.01986 15.2464C3.20731 13.6989 3.51032 11.4638 3.87376 9.78935C4.02949 9.07187 4.23678 8.27047 4.45936 7.47344ZM12 3.53852C9.18994 3.53852 6.70482 5.28258 5.98001 7.87804C5.76175 8.65958 5.56284 9.43014 5.41567 10.1082C5.0683 11.7086 4.77207 13.8835 4.58509 15.4271C4.50681 16.0734 4.95347 16.6504 5.60249 16.752C7.38794 17.0316 10.0404 17.3847 12 17.3847C13.9596 17.3847 16.6121 17.0316 18.3975 16.752C19.0465 16.6504 19.4932 16.0734 19.4149 15.4271C19.2279 13.8835 18.9317 11.7086 18.5843 10.1082C18.4372 9.43014 18.2382 8.65958 18.02 7.87804C17.2952 5.28258 14.8101 3.53852 12 3.53852Z" fill="url(#paint0_linear_62_5945)"/>
<path fill-rule="evenodd" clip-rule="evenodd" d="M9.89849 17.3847C10.3337 17.3847 10.6866 17.7291 10.6866 18.1539V19.1795C10.6866 19.8876 11.2746 20.4616 12 20.4616C12.7254 20.4616 13.3134 19.8876 13.3134 19.1795V18.1539C13.3134 17.7291 13.6663 17.3847 14.1015 17.3847C14.5367 17.3847 14.8896 17.7291 14.8896 18.1539V19.1795C14.8896 20.7373 13.5959 22.0001 12 22.0001C10.4041 22.0001 9.11042 20.7373 9.11042 19.1795V18.1539C9.11042 17.7291 9.46325 17.3847 9.89849 17.3847Z" fill="url(#paint1_linear_62_5945)"/>
<circle cx="19" cy="6" r="4.4375" fill="#EA3333" stroke="#804C57" stroke-width="1.125"/>
<defs>
<linearGradient id="paint0_linear_62_5945" x1="3" y1="12.0001" x2="49.978" y2="12.0001" gradientUnits="userSpaceOnUse">
<stop stop-color="white"/>
<stop offset="0.850954" stop-color="white" stop-opacity="0"/>
</linearGradient>
<linearGradient id="paint1_linear_62_5945" x1="3" y1="12.0001" x2="49.978" y2="12.0001" gradientUnits="userSpaceOnUse">
<stop stop-color="white"/>
<stop offset="0.850954" stop-color="white" stop-opacity="0"/>
</linearGradient>
</defs>
</svg>
