<svg width="14" height="14" viewBox="0 0 14 14" fill="none" xmlns="http://www.w3.org/2000/svg">
<path fill-rule="evenodd" clip-rule="evenodd" d="M6.60242 0.860292C7.73875 0.860292 8.84956 1.19728 9.79436 1.82863C10.7392 2.45998 11.4755 3.35733 11.9103 4.4072C12.3451 5.45707 12.4587 6.61229 12.2369 7.72676C12.0151 8.84123 11.4677 9.86489 10.6641 10.6683C9.86046 11.4716 8.83662 12.0187 7.72208 12.2401C6.60754 12.4616 5.45235 12.3476 4.40262 11.9124C3.35289 11.4773 2.45578 10.7407 1.82473 9.79569C1.19368 8.85069 0.857056 7.73977 0.857422 6.60344C0.857179 5.84901 1.00563 5.10194 1.29427 4.40492C1.58292 3.7079 2.00612 3.0746 2.53966 2.54122C3.07321 2.00785 3.70664 1.58486 4.40376 1.29644C5.10087 1.00801 5.848 0.859806 6.60242 0.860292Z" fill="url(#paint0_radial_1194_67852)"/>
<path fill-rule="evenodd" clip-rule="evenodd" d="M6.60295 0.000488281C7.90889 0.000488281 9.18551 0.387745 10.2714 1.11329C11.3572 1.83883 12.2035 2.87007 12.7033 4.0766C13.203 5.28313 13.3338 6.61077 13.079 7.89162C12.8243 9.17246 12.1954 10.349 11.2719 11.2724C10.3485 12.1959 9.17197 12.8247 7.89113 13.0795C6.61028 13.3343 5.28265 13.2035 4.07611 12.7038C2.86958 12.204 1.83834 11.3577 1.1128 10.2718C0.387256 9.186 0 7.90938 0 6.60344C0 4.85223 0.695663 3.17274 1.93396 1.93445C3.17225 0.696155 4.85174 0.000488281 6.60295 0.000488281ZM6.60295 1.14135C7.68325 1.14135 8.73929 1.4617 9.63753 2.06188C10.5358 2.66206 11.2359 3.51512 11.6493 4.51319C12.0627 5.51126 12.1708 6.6095 11.9601 7.66904C11.7493 8.72859 11.2291 9.70184 10.4652 10.4657C9.70135 11.2296 8.7281 11.7498 7.66856 11.9606C6.60901 12.1713 5.51077 12.0632 4.5127 11.6498C3.51463 11.2363 2.66157 10.5363 2.06139 9.63802C1.46121 8.73978 1.14086 7.68374 1.14086 6.60344C1.14135 5.15496 1.71698 3.76594 2.74121 2.7417C3.76545 1.71747 5.15447 1.14184 6.60295 1.14135Z" fill="#808080"/>
<path fill-rule="evenodd" clip-rule="evenodd" d="M6.60296 0.571844C7.79634 0.571844 8.96292 0.925747 9.95515 1.58879C10.9474 2.25184 11.7207 3.19424 12.1773 4.29682C12.6339 5.3994 12.7533 6.61262 12.5203 7.78304C12.2874 8.95347 11.7126 10.0285 10.8686 10.8722C10.0246 11.716 8.94938 12.2904 7.77889 12.523C6.60839 12.7556 5.39521 12.6359 4.29277 12.1789C3.19034 11.722 2.24817 10.9484 1.58543 9.95595C0.922688 8.96351 0.569142 7.79683 0.569508 6.60344C0.569265 5.81114 0.725171 5.02655 1.02832 4.29454C1.33146 3.56252 1.7759 2.89742 2.33623 2.33726C2.89656 1.7771 3.5618 1.33287 4.29391 1.02995C5.02602 0.727025 5.81065 0.571358 6.60296 0.571844ZM6.60296 0.000488281C5.29702 0.000488281 4.0204 0.387745 2.93455 1.11329C1.8487 1.83883 1.00239 2.87007 0.502623 4.0766C0.00286101 5.28313 -0.1279 6.61077 0.126877 7.89162C0.381653 9.17246 1.01052 10.349 1.93396 11.2724C2.8574 12.1959 4.03394 12.8247 5.31478 13.0795C6.59563 13.3343 7.92326 13.2035 9.1298 12.7038C10.3363 12.204 11.3676 11.3577 12.0931 10.2718C12.8187 9.186 13.2059 7.90938 13.2059 6.60344C13.2059 4.85223 12.5102 3.17274 11.272 1.93445C10.0337 0.696155 8.35417 0.000488281 6.60296 0.000488281Z" fill="url(#paint1_radial_1194_67852)"/>
<path style="mix-blend-mode:multiply" fill-rule="evenodd" clip-rule="evenodd" d="M6.60242 0.860292C7.73875 0.860292 8.84956 1.19728 9.79436 1.82863C10.7392 2.45998 11.4755 3.35733 11.9103 4.4072C12.3451 5.45707 12.4587 6.61229 12.2369 7.72676C12.0151 8.84123 11.4677 9.86489 10.6641 10.6683C9.86046 11.4716 8.83662 12.0187 7.72208 12.2401C6.60754 12.4616 5.45235 12.3476 4.40262 11.9124C3.35289 11.4773 2.45578 10.7407 1.82473 9.79569C1.19368 8.85069 0.857056 7.73977 0.857422 6.60344C0.857179 5.84901 1.00563 5.10194 1.29427 4.40492C1.58292 3.7079 2.00612 3.0746 2.53966 2.54122C3.07321 2.00785 3.70664 1.58486 4.40376 1.29644C5.10087 1.00801 5.848 0.859806 6.60242 0.860292Z" fill="url(#paint2_radial_1194_67852)"/>
<path style="mix-blend-mode:screen" fill-rule="evenodd" clip-rule="evenodd" d="M6.47702 1.91607C7.11124 2.55029 6.6046 4.085 5.34355 5.34605C4.0825 6.60711 2.54594 7.11374 1.91171 6.47952C1.27749 5.8453 1.78598 4.30874 3.04518 3.04953C4.30439 1.79033 5.84279 1.27999 6.47702 1.91607Z" fill="url(#paint3_radial_1194_67852)"/>
<path style="mix-blend-mode:screen" fill-rule="evenodd" clip-rule="evenodd" d="M11.277 7.83306C11.6468 8.20287 11.1698 9.26792 10.2175 10.2183C9.26523 11.1687 8.19833 11.644 7.83037 11.2778C7.46241 10.9117 7.93946 9.84298 8.88987 8.89072C9.84029 7.93846 10.9109 7.46325 11.277 7.83306Z" fill="url(#paint4_radial_1194_67852)"/>
<path style="mix-blend-mode:multiply" fill-rule="evenodd" clip-rule="evenodd" d="M6.60322 1.57404C9.2603 1.57404 11.4773 3.38056 12.0043 5.78618C11.8094 4.49323 11.1571 3.3131 10.166 2.4602C9.17495 1.60731 7.91078 1.13824 6.60322 1.13824C5.29566 1.13824 4.03149 1.60731 3.0404 2.4602C2.0493 3.3131 1.39705 4.49323 1.20215 5.78618C1.72728 3.38241 3.94614 1.57404 6.60322 1.57404Z" fill="url(#paint5_radial_1194_67852)"/>
<path style="mix-blend-mode:multiply" fill-rule="evenodd" clip-rule="evenodd" d="M11.828 9.62109C11.0272 11.0059 9.70991 12.0166 8.16504 12.4316L8.31111 12.9864C10.0024 12.5318 11.4446 11.4254 12.3217 9.90955L11.828 9.62479V9.62109Z" fill="url(#paint6_radial_1194_67852)"/>
<path style="mix-blend-mode:multiply" fill-rule="evenodd" clip-rule="evenodd" d="M12.6345 6.60345C12.6374 7.13058 12.5716 7.65584 12.4385 8.1659L12.9932 8.31383C13.1422 7.75594 13.2175 7.18091 13.2169 6.60345H12.6345Z" fill="url(#paint7_radial_1194_67852)"/>
<path fill-rule="evenodd" clip-rule="evenodd" d="M6.60253 2.37097L7.85063 4.88568L10.6261 5.29617L8.62169 7.25986L9.0895 10.0279L6.60253 8.72615L4.11555 10.0279L4.58336 7.25986L2.57715 5.29617L5.35442 4.88568L6.60253 2.37097Z" fill="#B05B00"/>
<path fill-rule="evenodd" clip-rule="evenodd" d="M6.60253 6.60342L2.57715 5.29614L4.58336 7.25983L6.60253 6.60342Z" fill="url(#paint8_radial_1194_67852)"/>
<path fill-rule="evenodd" clip-rule="evenodd" d="M2.57715 5.29617L6.60253 6.60345L5.35442 4.88568L2.57715 5.29617Z" fill="url(#paint9_radial_1194_67852)"/>
<path fill-rule="evenodd" clip-rule="evenodd" d="M5.35449 4.88568L6.6026 6.60345V2.37097L5.35449 4.88568Z" fill="url(#paint10_radial_1194_67852)"/>
<path fill-rule="evenodd" clip-rule="evenodd" d="M6.60254 2.37097V6.60345L7.85065 4.88568L6.60254 2.37097Z" fill="url(#paint11_radial_1194_67852)"/>
<path fill-rule="evenodd" clip-rule="evenodd" d="M7.85065 4.88568L6.60254 6.60345L10.6261 5.29617L7.85065 4.88568Z" fill="url(#paint12_radial_1194_67852)"/>
<path fill-rule="evenodd" clip-rule="evenodd" d="M10.6261 5.29614L6.60254 6.60342L8.6217 7.25983L10.6261 5.29614Z" fill="url(#paint13_radial_1194_67852)"/>
<path fill-rule="evenodd" clip-rule="evenodd" d="M8.6217 7.25987L6.60254 6.60345L9.08951 10.0279L8.6217 7.25987Z" fill="url(#paint14_radial_1194_67852)"/>
<path fill-rule="evenodd" clip-rule="evenodd" d="M9.08951 10.0279L6.60254 6.60345V8.72616L9.08951 10.0279Z" fill="url(#paint15_radial_1194_67852)"/>
<path fill-rule="evenodd" clip-rule="evenodd" d="M6.60318 8.72616V6.60345L4.11621 10.0279L6.60318 8.72616Z" fill="url(#paint16_radial_1194_67852)"/>
<path fill-rule="evenodd" clip-rule="evenodd" d="M4.11621 10.0279L6.60318 6.60345L4.58402 7.25987L4.11621 10.0279Z" fill="url(#paint17_radial_1194_67852)"/>
<path style="mix-blend-mode:screen" fill-rule="evenodd" clip-rule="evenodd" d="M3.19336 5.49589L6.40331 6.32981C6.31264 6.14331 6.24496 5.94649 6.20176 5.74367L6.60301 2.56885V6.60347L3.19336 5.49404V5.49589Z" fill="url(#paint18_radial_1194_67852)"/>
<path style="mix-blend-mode:screen" fill-rule="evenodd" clip-rule="evenodd" d="M6.60254 6.60346C6.80909 6.34013 7.10283 6.15917 7.43092 6.09312L10.2914 5.40527L6.60254 6.60346Z" fill="url(#paint19_radial_1194_67852)"/>
<path style="mix-blend-mode:screen" fill-rule="evenodd" clip-rule="evenodd" d="M6.60329 6.60345C6.21139 6.84332 5.86672 7.1529 5.58631 7.51689L4.11816 10.0279L6.60514 6.60345H6.60329Z" fill="url(#paint20_radial_1194_67852)"/>
<path style="mix-blend-mode:screen" fill-rule="evenodd" clip-rule="evenodd" d="M10.7896 10.7915C9.97071 11.6196 8.93064 12.1943 7.79376 12.4468C6.65687 12.6993 5.47131 12.6189 4.37891 12.2153C5.47486 12.6808 6.68492 12.8082 7.85379 12.5811C9.02265 12.3541 10.097 11.7829 10.939 10.9409C11.7809 10.099 12.3521 9.0246 12.5792 7.85574C12.8062 6.68687 12.6788 5.47681 12.2133 4.38086C12.6165 5.47333 12.6966 6.65877 12.4441 7.79556C12.1917 8.93234 11.6173 9.97241 10.7896 10.7915Z" fill="url(#paint21_radial_1194_67852)"/>
<g style="mix-blend-mode:screen">
<path d="M11.0614 10.6603C10.9121 10.7775 10.7774 10.9122 10.6602 11.0615C10.8208 10.9576 10.9575 10.8209 11.0614 10.6603Z" fill="#FFCC14"/>
</g>
<defs>
<radialGradient id="paint0_radial_1194_67852" cx="0" cy="0" r="1" gradientUnits="userSpaceOnUse" gradientTransform="translate(3.71051 3.25666) scale(10.473)">
<stop stop-color="#FF5C5C"/>
<stop offset="0.75" stop-color="#A10500"/>
<stop offset="1" stop-color="#850400"/>
</radialGradient>
<radialGradient id="paint1_radial_1194_67852" cx="0" cy="0" r="1" gradientUnits="userSpaceOnUse" gradientTransform="translate(2.79946 1.62026) scale(13.0691 13.0691)">
<stop stop-color="#FFEB68"/>
<stop offset="1" stop-color="#C75600"/>
</radialGradient>
<radialGradient id="paint2_radial_1194_67852" cx="0" cy="0" r="1" gradientUnits="userSpaceOnUse" gradientTransform="translate(6.60242 6.60344) scale(5.74315)">
<stop offset="0.78" stop-color="white"/>
<stop offset="0.8" stop-color="#FCF9F9"/>
<stop offset="0.83" stop-color="#F5E8E8"/>
<stop offset="0.86" stop-color="#E9CCCC"/>
<stop offset="0.9" stop-color="#D8A5A5"/>
<stop offset="0.94" stop-color="#C37373"/>
<stop offset="0.98" stop-color="#A93737"/>
<stop offset="1" stop-color="#991313"/>
</radialGradient>
<radialGradient id="paint3_radial_1194_67852" cx="0" cy="0" r="1" gradientUnits="userSpaceOnUse" gradientTransform="translate(-0.255371 -0.596791) scale(8.37249)">
<stop stop-color="#FF8C9B"/>
<stop offset="1"/>
</radialGradient>
<radialGradient id="paint4_radial_1194_67852" cx="0" cy="0" r="1" gradientUnits="userSpaceOnUse" gradientTransform="translate(12.5584 12.7127) scale(5.42142 5.42141)">
<stop stop-color="#FF8C9B"/>
<stop offset="1"/>
</radialGradient>
<radialGradient id="paint5_radial_1194_67852" cx="0" cy="0" r="1" gradientUnits="userSpaceOnUse" gradientTransform="translate(6.60322 6.65893) scale(5.47873 5.47873)">
<stop offset="0.9" stop-color="white"/>
<stop offset="0.91" stop-color="#FBF4F4"/>
<stop offset="0.93" stop-color="#EFD6D6"/>
<stop offset="0.95" stop-color="#DBA6A6"/>
<stop offset="0.98" stop-color="#C16464"/>
<stop offset="1" stop-color="#A82525"/>
</radialGradient>
<radialGradient id="paint6_radial_1194_67852" cx="0" cy="0" r="1" gradientUnits="userSpaceOnUse" gradientTransform="translate(9.72379 10.6307) scale(3.19146 3.19146)">
<stop stop-color="#B05B00"/>
<stop offset="1" stop-color="white"/>
</radialGradient>
<radialGradient id="paint7_radial_1194_67852" cx="0" cy="0" r="1" gradientUnits="userSpaceOnUse" gradientTransform="translate(11.3734 7.12858) scale(2.20406 2.20407)">
<stop stop-color="#B05B00"/>
<stop offset="1" stop-color="white"/>
</radialGradient>
<radialGradient id="paint8_radial_1194_67852" cx="0" cy="0" r="1" gradientUnits="userSpaceOnUse" gradientTransform="translate(3.67733 0.876913) scale(6.43469 6.43469)">
<stop stop-color="#FFC600"/>
<stop offset="1" stop-color="#D64F00"/>
</radialGradient>
<radialGradient id="paint9_radial_1194_67852" cx="0" cy="0" r="1" gradientUnits="userSpaceOnUse" gradientTransform="translate(5.70019 3.60244) scale(5.48243 5.48243)">
<stop stop-color="#FFEB68"/>
<stop offset="1" stop-color="#E67D2D"/>
</radialGradient>
<radialGradient id="paint10_radial_1194_67852" cx="0" cy="0" r="1" gradientUnits="userSpaceOnUse" gradientTransform="translate(5.75759 3.55621) scale(6.91914)">
<stop stop-color="#FFEB68"/>
<stop offset="1" stop-color="#FFAC6B"/>
</radialGradient>
<radialGradient id="paint11_radial_1194_67852" cx="0" cy="0" r="1" gradientUnits="userSpaceOnUse" gradientTransform="translate(2.83972 2.83878) scale(6.79526)">
<stop stop-color="#FFC600"/>
<stop offset="1" stop-color="#D64F00"/>
</radialGradient>
<radialGradient id="paint12_radial_1194_67852" cx="0" cy="0" r="1" gradientUnits="userSpaceOnUse" gradientTransform="translate(8.84359 2.18792) scale(6.05934 6.05933)">
<stop stop-color="#FFEB68"/>
<stop offset="1" stop-color="#E67D2D"/>
</radialGradient>
<radialGradient id="paint13_radial_1194_67852" cx="0" cy="0" r="1" gradientUnits="userSpaceOnUse" gradientTransform="translate(4.55749 -0.0882898) scale(8.29299 8.29299)">
<stop stop-color="#FFC600"/>
<stop offset="1" stop-color="#D64F00"/>
</radialGradient>
<radialGradient id="paint14_radial_1194_67852" cx="0" cy="0" r="1" gradientUnits="userSpaceOnUse" gradientTransform="translate(11.8779 7.88485) scale(6.39957 6.39956)">
<stop stop-color="#FFEB68"/>
<stop offset="1" stop-color="#E67D2D"/>
</radialGradient>
<radialGradient id="paint15_radial_1194_67852" cx="0" cy="0" r="1" gradientUnits="userSpaceOnUse" gradientTransform="translate(11.0162 5.98217) scale(7.26677 7.26677)">
<stop stop-color="#FFC600"/>
<stop offset="1" stop-color="#D64F00"/>
</radialGradient>
<radialGradient id="paint16_radial_1194_67852" cx="0" cy="0" r="1" gradientUnits="userSpaceOnUse" gradientTransform="translate(0.743542 4.81542) scale(7.4036 7.4036)">
<stop stop-color="#FFC600"/>
<stop offset="1" stop-color="#D64F00"/>
</radialGradient>
<radialGradient id="paint17_radial_1194_67852" cx="0" cy="0" r="1" gradientUnits="userSpaceOnUse" gradientTransform="translate(5.40315 9.95023) scale(4.56901 4.569)">
<stop stop-color="#FFC600"/>
<stop offset="1" stop-color="#D64F00"/>
</radialGradient>
<radialGradient id="paint18_radial_1194_67852" cx="0" cy="0" r="1" gradientUnits="userSpaceOnUse" gradientTransform="translate(7.12999 5.77695) scale(5.75054 5.75054)">
<stop stop-color="#FFEF8F"/>
<stop offset="1"/>
</radialGradient>
<radialGradient id="paint19_radial_1194_67852" cx="0" cy="0" r="1" gradientUnits="userSpaceOnUse" gradientTransform="translate(9.53698 4.30509) scale(6.039 6.03899)">
<stop stop-color="#FFEF8F"/>
<stop offset="1"/>
</radialGradient>
<radialGradient id="paint20_radial_1194_67852" cx="0" cy="0" r="1" gradientUnits="userSpaceOnUse" gradientTransform="translate(3.30458 9.25314) scale(5.19029 5.19028)">
<stop stop-color="#FFEF8F"/>
<stop offset="1"/>
</radialGradient>
<radialGradient id="paint21_radial_1194_67852" cx="0" cy="0" r="1" gradientUnits="userSpaceOnUse" gradientTransform="translate(12.217 12.0655) scale(6.77862 6.77861)">
<stop stop-color="#FFEF8F"/>
<stop offset="1"/>
</radialGradient>
</defs>
</svg>
