<svg width="14" height="14" viewBox="0 0 14 14" fill="none" xmlns="http://www.w3.org/2000/svg">
<path opacity="0.995" fill-rule="evenodd" clip-rule="evenodd" d="M4.88081 0.39637C6.6678 0.383784 8.45425 0.397456 10.2402 0.437386C11.0832 0.624127 11.5982 1.1391 11.7851 1.98231C11.8033 5.74664 11.8033 9.51094 11.7851 13.2753C11.7084 13.4663 11.5671 13.5575 11.3613 13.5487C11.2622 13.5557 11.1711 13.5329 11.0878 13.4804C9.72522 12.6304 8.35803 11.7873 6.98628 10.9511C5.58625 11.8178 4.18258 12.6791 2.77534 13.535C2.50572 13.6075 2.30976 13.5209 2.18745 13.2753C2.17413 9.56561 2.18325 5.85596 2.21479 2.14637C2.34996 1.21826 2.87405 0.648592 3.78706 0.437386C4.15636 0.432765 4.52096 0.419093 4.88081 0.39637Z" fill="white" fill-opacity="0.27"/>
</svg>
