<svg width="14" height="14" viewBox="0 0 14 14" fill="none" xmlns="http://www.w3.org/2000/svg">
<g clip-path="url(#clip0_461_17433)">
<path opacity="0.988" fill-rule="evenodd" clip-rule="evenodd" d="M5.31837 -0.0136719C6.43035 -0.0136719 7.54232 -0.0136719 8.6543 -0.0136719C8.8605 0.0695805 8.97442 0.224529 8.9961 0.451172C9.01434 4.80793 9.01434 9.16472 8.9961 13.5215C8.97442 13.7481 8.8605 13.9031 8.6543 13.9863C7.54232 13.9863 6.43035 13.9863 5.31837 13.9863C5.11217 13.9031 4.99825 13.7481 4.97657 13.5215C4.95833 9.16472 4.95833 4.80793 4.97657 0.451172C4.9979 0.225541 5.11184 0.0705931 5.31837 -0.0136719Z" fill="white" fill-opacity="0.27"/>
<path opacity="0.994" fill-rule="evenodd" clip-rule="evenodd" d="M13.9863 4.33399C13.9863 7.44207 13.9863 10.5501 13.9863 13.6582C13.946 13.7203 13.905 13.784 13.8633 13.8496C13.7955 13.8992 13.7271 13.9448 13.6582 13.9863C12.5462 13.9863 11.4343 13.9863 10.3223 13.9863C10.1349 13.9128 10.021 13.776 9.98048 13.5762C9.96224 10.5137 9.96224 7.45118 9.98048 4.38868C10.0186 4.17737 10.1417 4.04519 10.3496 3.99219C11.4434 3.97396 12.5371 3.97396 13.6309 3.99219C13.8 4.05653 13.9185 4.17048 13.9863 4.33399Z" fill="white" fill-opacity="0.27"/>
<path opacity="0.994" fill-rule="evenodd" clip-rule="evenodd" d="M3.65039 13.9863C2.53841 13.9863 1.42643 13.9863 0.314453 13.9863C0.252421 13.946 0.188619 13.905 0.123047 13.8633C0.0734423 13.7955 0.0278693 13.7271 -0.0136719 13.6582C-0.0136719 11.0514 -0.0136719 8.44466 -0.0136719 5.8379C0.0541961 5.67438 0.172686 5.56044 0.341797 5.4961C1.44466 5.47786 2.54753 5.47786 3.65039 5.4961C3.799 5.54447 3.90381 5.64017 3.96484 5.78321C4.01015 8.37969 4.01926 10.9773 3.99219 13.5762C3.95166 13.776 3.83772 13.9128 3.65039 13.9863Z" fill="white" fill-opacity="0.27"/>
</g>
<defs>
<clipPath id="clip0_461_17433">
<rect width="14" height="14" fill="white"/>
</clipPath>
</defs>
</svg>
