<svg width="22" height="21" viewBox="0 0 22 21" fill="none" xmlns="http://www.w3.org/2000/svg">
<g clip-path="url(#clip0_1034_107243)">
<path opacity="0.976" fill-rule="evenodd" clip-rule="evenodd" d="M10.0361 -0.0214844C10.2686 -0.0214844 10.501 -0.0214844 10.7334 -0.0214844C10.7334 0.990236 10.7334 2.00195 10.7334 3.01367C8.85464 3.08526 7.22771 3.75519 5.85254 5.02344C5.12792 4.32617 4.41699 3.61524 3.71973 2.89062C4.9826 1.65709 6.47282 0.802593 8.19043 0.327148C8.80316 0.165907 9.4184 0.0496962 10.0361 -0.0214844Z" fill="#67707B"/>
<path opacity="0.977" fill-rule="evenodd" clip-rule="evenodd" d="M11.2256 -0.0214844C11.458 -0.0214844 11.6904 -0.0214844 11.9229 -0.0214844C14.1661 0.21166 16.1485 1.05248 17.8701 2.50098C18.0007 2.62466 18.1237 2.75454 18.2393 2.89062C17.542 3.61524 16.8311 4.32617 16.1064 5.02344C14.7339 3.75669 13.1069 3.08677 11.2256 3.01367C11.2256 2.00195 11.2256 0.990236 11.2256 -0.0214844Z" fill="#67707B"/>
<path opacity="0.977" fill-rule="evenodd" clip-rule="evenodd" d="M0.479492 10.2344C0.479492 10.0019 0.479492 9.76955 0.479492 9.53711C0.712637 7.29384 1.55346 5.31143 3.00195 3.58984C3.12564 3.4593 3.25552 3.33625 3.3916 3.2207C4.11621 3.91797 4.82715 4.62889 5.52441 5.35352C4.25617 6.72869 3.58624 8.35561 3.51465 10.2344C2.50293 10.2344 1.49121 10.2344 0.479492 10.2344Z" fill="#67707B"/>
<path opacity="0.977" fill-rule="evenodd" clip-rule="evenodd" d="M21.4795 9.53711C21.4795 9.76955 21.4795 10.0019 21.4795 10.2344C20.4678 10.2344 19.4561 10.2344 18.4443 10.2344C18.3727 8.35561 17.7028 6.72869 16.4346 5.35352C17.1318 4.62889 17.8428 3.91797 18.5674 3.2207C19.8009 4.48357 20.6554 5.97379 21.1309 7.69141C21.2921 8.30414 21.4083 8.91937 21.4795 9.53711Z" fill="#67707B"/>
<path opacity="0.98" fill-rule="evenodd" clip-rule="evenodd" d="M10.8154 6.62397C11.0495 6.59075 11.2546 6.65227 11.4307 6.80854C12.3535 7.73139 13.2764 8.65425 14.1992 9.5771C14.8281 10.4111 14.8281 11.2451 14.1992 12.0791C13.491 12.7545 12.698 12.8775 11.8203 12.4482C11.879 12.9201 11.9543 13.3918 12.0459 13.8632C12.0364 14.0877 11.927 14.238 11.7178 14.3144C11.2256 14.3418 10.7334 14.3418 10.2412 14.3144C10.0319 14.238 9.92259 14.0877 9.91308 13.8632C9.98461 13.4236 10.0666 12.9861 10.1592 12.5507C10.1455 12.5302 10.1318 12.5097 10.1182 12.4892C9.24038 12.8828 8.45427 12.746 7.75976 12.0791C7.13086 11.2451 7.13086 10.4111 7.75976 9.5771C8.69626 8.64059 9.63282 7.70404 10.5693 6.76753C10.6607 6.72893 10.7427 6.68107 10.8154 6.62397Z" fill="#67707B"/>
<path opacity="0.977" fill-rule="evenodd" clip-rule="evenodd" d="M0.479492 10.7246C1.49121 10.7246 2.50293 10.7246 3.51465 10.7246C3.58624 12.6034 4.25617 14.2303 5.52441 15.6055C4.82715 16.3301 4.11621 17.041 3.3916 17.7383C2.15806 16.4754 1.30357 14.9852 0.828125 13.2676C0.666884 12.6548 0.550673 12.0396 0.479492 11.4219C0.479492 11.1894 0.479492 10.957 0.479492 10.7246Z" fill="#67707B"/>
<path opacity="0.977" fill-rule="evenodd" clip-rule="evenodd" d="M21.4795 10.7246C21.4795 10.957 21.4795 11.1894 21.4795 11.4219C21.2464 13.6651 20.4055 15.6476 18.957 17.3691C18.8334 17.4997 18.7035 17.6227 18.5674 17.7383C17.8428 17.041 17.1318 16.3301 16.4346 15.6055C17.7028 14.2304 18.3727 12.6034 18.4443 10.7246C19.4561 10.7246 20.4678 10.7246 21.4795 10.7246Z" fill="#67707B"/>
<path opacity="0.977" fill-rule="evenodd" clip-rule="evenodd" d="M10.7334 20.9805C10.501 20.9805 10.2686 20.9805 10.0361 20.9805C7.79287 20.7473 5.81046 19.9065 4.08887 18.458C3.95832 18.3343 3.83528 18.2044 3.71973 18.0684C4.41699 17.3437 5.12792 16.6328 5.85254 15.9355C7.22771 17.2038 8.85464 17.8737 10.7334 17.9453C10.7334 18.957 10.7334 19.9687 10.7334 20.9805Z" fill="#67707B"/>
<path opacity="0.977" fill-rule="evenodd" clip-rule="evenodd" d="M11.9229 20.9805C11.6904 20.9805 11.458 20.9805 11.2256 20.9805C11.2256 19.9687 11.2256 18.957 11.2256 17.9453C13.1043 17.8737 14.7313 17.2038 16.1064 15.9355C16.8311 16.6328 17.542 17.3437 18.2393 18.0684C17.0225 19.2653 15.5869 20.1061 13.9326 20.5908C13.2666 20.7719 12.5967 20.9018 11.9229 20.9805Z" fill="#67707B"/>
</g>
<defs>
<clipPath id="clip0_1034_107243">
<rect width="21" height="21" fill="white" transform="translate(0.5)"/>
</clipPath>
</defs>
</svg>
