<svg width="20" height="20" viewBox="0 0 20 20" fill="none" xmlns="http://www.w3.org/2000/svg">
<g clip-path="url(#clip0_184_9480)">
<path opacity="0.99" fill-rule="evenodd" clip-rule="evenodd" d="M10.332 -0.0195312H2.12891C1.42242 0.17272 0.986224 0.628449 0.820313 1.34766C0.794271 4.04297 0.794271 6.73828 0.820313 9.43359C1.00496 10.2172 1.49324 10.6795 2.28516 10.8203C3.57422 10.8464 4.86328 10.8464 6.15235 10.8203C7.5727 9.38691 9.005 7.96766 10.4492 6.5625C10.8129 6.28953 11.2165 6.10074 11.6602 5.99609C11.6667 4.44656 11.6602 2.89708 11.6406 1.34766C11.4747 0.628449 11.0385 0.17272 10.332 -0.0195312ZM4.92188 3.53516C5.00285 2.91951 4.73594 2.56795 4.12109 2.48047C3.80114 2.53296 3.56026 2.70223 3.39844 2.98828C3.24421 3.63055 3.4916 4.00816 4.14063 4.12109C4.52496 4.08801 4.78539 3.89269 4.92188 3.53516ZM9.10156 3.49609C9.13403 2.77999 8.78895 2.45447 8.06641 2.51953C7.90781 2.58971 7.7711 2.69388 7.65625 2.83203C7.38789 3.34911 7.4986 3.75926 7.98828 4.0625C8.53176 4.2107 8.90285 4.02187 9.10156 3.49609ZM9.10156 6.46484C8.93684 5.99488 8.60481 5.78656 8.10547 5.83984C7.90461 5.91809 7.74184 6.04832 7.61719 6.23047C7.39004 6.77191 7.53977 7.16906 8.06641 7.42188C8.78887 7.5066 9.13391 7.18758 9.10156 6.46484ZM4.92188 7.71484C4.98668 7.04383 4.6807 6.69227 4.00391 6.66016C3.81819 6.72098 3.65543 6.82516 3.51563 6.97266C3.21883 7.46207 3.30346 7.87223 3.76953 8.20312C4.30652 8.40012 4.69067 8.23734 4.92188 7.71484ZM13.9647 7.10938C13.438 6.78891 12.8651 6.63914 12.2459 6.66016C11.7447 6.72984 11.289 6.91863 10.8787 7.22656L6.2889 11.8164C6.14034 12.0484 6.02315 12.2958 5.93733 12.5586C5.70444 13.4536 5.8737 14.2609 6.44515 14.9805L10.9178 19.4531C11.1564 19.6245 11.4169 19.7547 11.6991 19.8438C12.6092 20.094 13.4296 19.9248 14.16 19.3359L18.6326 14.8633C18.7435 14.7198 18.8346 14.5636 18.9061 14.3945C19.2844 13.4286 19.1673 12.5301 18.5545 11.6992L13.9647 7.10938ZM13.3006 13.3203C13.2026 12.7212 12.8511 12.4543 12.2459 12.5195C12.0155 12.6262 11.8397 12.7954 11.7186 13.0273C11.6038 13.5464 11.7926 13.9045 12.285 14.1016C12.8724 14.1652 13.2109 13.9048 13.3006 13.3203Z" fill="#67707B"/>
</g>
<defs>
<clipPath id="clip0_184_9480">
<rect width="20" height="20" fill="white"/>
</clipPath>
</defs>
</svg>
