<svg width="20" height="20" viewBox="0 0 20 20" fill="none" xmlns="http://www.w3.org/2000/svg">
<g clip-path="url(#clip0_176_6792)">
<path fill-rule="evenodd" clip-rule="evenodd" d="M19.4692 7.92903C19.4692 8.11871 19.4692 8.30839 19.4692 8.49807C19.3367 8.80493 19.1344 9.06419 18.8622 9.27575C17.5422 10.406 16.2334 11.5504 14.9358 12.709C15.3402 14.6177 15.7512 16.5272 16.1687 18.4373C16.1334 19.0985 15.7857 19.4526 15.1255 19.4995C14.9326 19.494 14.7493 19.4497 14.5754 19.3667C12.9805 18.3923 11.3746 17.4376 9.75753 16.5026C8.1152 17.4503 6.48395 18.4176 4.86378 19.4047C4.32178 19.6158 3.87289 19.4957 3.51705 19.0443C3.35901 18.7866 3.30843 18.5084 3.3653 18.2097C3.79466 16.3788 4.19933 14.5452 4.57926 12.709C3.1128 11.4322 1.65858 10.1423 0.216611 8.83949C0.15573 8.7374 0.0988261 8.63623 0.0458984 8.536C0.0458984 8.33369 0.0458984 8.13134 0.0458984 7.92903C0.189549 7.51382 0.480391 7.26723 0.918428 7.18927C2.80328 7.01909 4.68745 6.84204 6.5709 6.65817C7.34085 4.88428 8.10587 3.1076 8.86603 1.32815C9.2636 0.846881 9.75043 0.739395 10.3266 1.0057C10.4593 1.08789 10.5668 1.19538 10.649 1.32815C11.4092 3.1076 12.1742 4.88428 12.9442 6.65817C14.8929 6.83647 16.8403 7.02615 18.7863 7.22721C19.1256 7.35775 19.3532 7.5917 19.4692 7.92903Z" fill="#564327"/>
</g>
<defs>
<clipPath id="clip0_176_6792">
<rect width="19.4233" height="19.4233" fill="white" transform="translate(0.0649414 0.474609)"/>
</clipPath>
</defs>
</svg>
