<svg width="16" height="16" viewBox="0 0 16 16" fill="none" xmlns="http://www.w3.org/2000/svg">
<path d="M5.59375 12.3266V5.55328C5.59375 5.28661 5.67375 5.02661 5.82042 4.80661L7.64042 2.09994C7.92708 1.66661 8.64042 1.35994 9.24708 1.58661C9.90042 1.80661 10.3337 2.53994 10.1937 3.19328L9.84708 5.37328C9.82042 5.57328 9.87375 5.75328 9.98708 5.89328C10.1004 6.01994 10.2671 6.09994 10.4471 6.09994H13.1871C13.7137 6.09994 14.1671 6.31328 14.4337 6.68661C14.6871 7.04661 14.7337 7.51328 14.5671 7.98661L12.9271 12.9799C12.7204 13.8066 11.8204 14.4799 10.9271 14.4799H8.32708C7.88042 14.4799 7.25375 14.3266 6.96708 14.0399L6.11375 13.3799C5.78708 13.1333 5.59375 12.7399 5.59375 12.3266Z" fill="#8C8D94"/>
<path d="M3.47301 4.2533H2.78634C1.75301 4.2533 1.33301 4.6533 1.33301 5.63996V12.3466C1.33301 13.3333 1.75301 13.7333 2.78634 13.7333H3.47301C4.50634 13.7333 4.92634 13.3333 4.92634 12.3466V5.63996C4.92634 4.6533 4.50634 4.2533 3.47301 4.2533Z" fill="#8C8D94"/>
</svg>
