<svg width="16" height="16" viewBox="0 0 16 16" fill="none" xmlns="http://www.w3.org/2000/svg">
<path d="M11.333 1.62H4.66634C2.66634 1.62 1.33301 2.95333 1.33301 4.95333V8.95333C1.33301 10.9533 2.66634 12.2867 4.66634 12.2867H7.33301L10.2997 14.26C10.7397 14.5533 11.333 14.24 11.333 13.7067V12.2867C13.333 12.2867 14.6663 10.9533 14.6663 8.95333V4.95333C14.6663 2.95333 13.333 1.62 11.333 1.62ZM10.333 7.49999H5.66634C5.39301 7.49999 5.16634 7.27333 5.16634 6.99999C5.16634 6.72666 5.39301 6.49999 5.66634 6.49999H10.333C10.6063 6.49999 10.833 6.72666 10.833 6.99999C10.833 7.27333 10.6063 7.49999 10.333 7.49999Z" fill="#8C8D94"/>
</svg>
