<svg width="36" height="36" viewBox="0 0 36 36" fill="none" xmlns="http://www.w3.org/2000/svg">
<circle cx="18" cy="18" r="18" fill="#21252C"/>
<path d="M21.3299 11.3242C19.9724 11.3242 18.7574 11.9842 17.9999 12.9967C17.2424 11.9842 16.0274 11.3242 14.6699 11.3242C12.3674 11.3242 10.4999 13.1992 10.4999 15.5167C10.4999 16.4092 10.6424 17.2342 10.8899 17.9992C12.0749 21.7492 15.7274 23.9917 17.5349 24.6067C17.7899 24.6967 18.2099 24.6967 18.4649 24.6067C20.2724 23.9917 23.9249 21.7492 25.1099 17.9992C25.3574 17.2342 25.4999 16.4092 25.4999 15.5167C25.4999 13.1992 23.6324 11.3242 21.3299 11.3242Z" fill="#8C8D93"/>
</svg>
