<svg width="22" height="21" viewBox="0 0 22 21" fill="none" xmlns="http://www.w3.org/2000/svg">
<g clip-path="url(#clip0_1034_107246)">
<path fill-rule="evenodd" clip-rule="evenodd" d="M11.8817 -0.0205078H10.077C9.09922 0.087673 8.1422 0.306423 7.20594 0.635742C7.11349 1.85409 7.20922 3.05721 7.49305 4.24512C8.13314 4.0706 8.77569 3.8997 9.42078 3.73242C12.5562 2.99809 15.7007 2.95023 18.8544 3.58887C18.8963 3.56829 18.9031 3.54095 18.8749 3.50684C16.9951 1.4424 14.664 0.266625 11.8817 -0.0205078ZM9.1543 9.65983C7.03088 7.26157 5.94396 4.45884 5.89355 1.25163C4.39029 2.10518 3.15299 3.25362 2.18164 4.69694C2.14576 4.75325 2.12525 4.81478 2.12012 4.88151C2.21376 5.3723 2.32998 5.85768 2.46875 6.33757C3.55266 9.87512 5.42573 12.9103 8.08789 15.443C8.34994 15.1517 8.58237 14.8373 8.78516 14.4997C9.50055 13.3176 9.98589 12.0461 10.2412 10.6852C9.86034 10.366 9.49801 10.0241 9.1543 9.65983ZM21.4795 9.53651V11.0131C18.1733 8.94506 14.6664 8.52125 10.959 9.74159C9.58287 8.5687 8.56429 7.13997 7.90332 5.45546C7.91993 5.4167 7.94729 5.38934 7.98535 5.37342C11.9187 4.10678 15.8836 3.99741 19.8799 5.0453C19.9549 5.0565 20.0164 5.0907 20.0645 5.14784C20.8461 6.51509 21.3178 7.97796 21.4795 9.53651ZM0.479492 9.53613V11.4229C0.790571 14.301 2.04155 16.6799 4.23242 18.5596C5.39587 18.023 6.41445 17.2915 7.28809 16.3652C4.4152 13.6095 2.41227 10.3078 1.2793 6.45996C0.851477 7.44676 0.584875 8.47215 0.479492 9.53613ZM10.8154 20.9801H10.0361C8.33448 20.8093 6.76218 20.2624 5.31934 19.3394C8.64275 17.4421 10.6798 14.6052 11.4307 10.8287C13.158 10.2424 14.9217 10.0989 16.7217 10.398C15.7938 14.525 13.825 18.0523 10.8154 20.9801ZM21.2744 12.3258C20.2429 11.5708 19.1081 11.024 17.8701 10.6852C16.9945 14.5494 15.2308 17.9332 12.5791 20.8366C13.7965 20.6906 14.9449 20.3214 16.0244 19.7292C18.8236 18.1182 20.5804 15.7325 21.2949 12.5719C21.3281 12.4867 21.3212 12.4046 21.2744 12.3258Z" fill="#67707B"/>
</g>
<defs>
<clipPath id="clip0_1034_107246">
<rect width="21" height="21" fill="white" transform="translate(0.5)"/>
</clipPath>
</defs>
</svg>
