<svg width="20" height="20" viewBox="0 0 20 20" fill="none" xmlns="http://www.w3.org/2000/svg">
<path fill-rule="evenodd" clip-rule="evenodd" d="M9.35547 1.97269C11.8755 1.8366 13.9003 2.76108 15.4297 4.74613C16.2233 5.90961 16.6465 7.19867 16.6992 8.61332C17.353 8.68773 17.7762 9.03929 17.9688 9.668C17.9948 11.2045 17.9948 12.7409 17.9688 14.2774C17.828 14.8478 17.4699 15.1929 16.8945 15.3125C16.3602 15.3191 15.8263 15.3386 15.293 15.3711C14.1159 16.8846 12.5664 17.7505 10.6445 17.9688C9.96758 17.9883 9.29051 17.9948 8.61328 17.9883C8.61328 17.5326 8.61328 17.0769 8.61328 16.6211C9.2384 16.6277 9.8634 16.6211 10.4883 16.6016C11.8731 16.4464 13.0254 15.8539 13.9453 14.8243C13.9467 13.4946 13.9727 12.1665 14.0234 10.8399C14.0841 10.5623 14.1883 10.3018 14.3359 10.0586C14.6354 9.61593 14.9349 9.1732 15.2344 8.7305C15.2683 6.92984 14.5717 5.47804 13.1445 4.37504C11.5122 3.24979 9.76746 3.04146 7.91016 3.75004C5.93742 4.67965 4.85668 6.23566 4.66797 8.418C4.66613 8.52718 4.68566 8.63133 4.72656 8.7305C5.12199 9.2825 5.48656 9.85543 5.82031 10.4493C5.8907 10.6397 5.94277 10.835 5.97656 11.0352C6.00262 12.2982 6.00262 13.5612 5.97656 14.8243C5.92149 15.0328 5.79777 15.1826 5.60547 15.2735C4.7616 15.3373 3.91527 15.3503 3.06641 15.3125C2.49104 15.1929 2.13297 14.8478 1.99219 14.2774C1.96615 12.7409 1.96615 11.2045 1.99219 9.668C2.18472 9.03929 2.6079 8.68773 3.26172 8.61332C3.38225 6.09465 4.50203 4.1741 6.62109 2.8516C7.47566 2.36486 8.38711 2.07189 9.35547 1.97269Z" fill="#67707B"/>
<path fill-rule="evenodd" clip-rule="evenodd" d="M9.90234 4.27734C11.14 4.28453 12.1946 4.72074 13.0664 5.58594C12.825 5.83391 12.5776 6.0748 12.3242 6.30859C11.2324 5.31555 9.99543 5.0877 8.61328 5.625C8.24676 5.79516 7.92125 6.02301 7.63672 6.30859C7.38336 6.0748 7.13598 5.83391 6.89453 5.58594C7.73039 4.76434 8.73301 4.32812 9.90234 4.27734Z" fill="#67707B"/>
</svg>
