<svg width="20" height="20" viewBox="0 0 20 20" fill="none" xmlns="http://www.w3.org/2000/svg">
<path fill-rule="evenodd" clip-rule="evenodd" d="M9.22918 3.54778C8.5705 4.08224 8.16045 4.94687 8.03932 6.35357C8.00971 6.69748 7.70691 6.95226 7.36301 6.92265C7.0191 6.89303 6.76432 6.59024 6.79393 6.24633C6.93113 4.65303 7.42108 3.40516 8.44157 2.57712C9.44481 1.76308 10.8469 1.44995 12.5916 1.44995H12.7C14.6243 1.44995 16.1341 1.83144 17.1471 2.84447C18.1601 3.85749 18.5416 5.3673 18.5416 7.29162V12.725C18.5416 14.6493 18.1601 16.1591 17.1471 17.1721C16.1341 18.1851 14.6243 18.5666 12.7 18.5666H12.5916C10.8596 18.5666 9.46592 18.2577 8.46473 17.4567C7.44548 16.6413 6.94905 15.4117 6.80266 13.8413C6.77062 13.4976 7.02326 13.193 7.36695 13.161C7.71064 13.1289 8.01522 13.3816 8.04726 13.7253C8.17587 15.1049 8.58777 15.9544 9.2456 16.4807C9.9215 17.0214 10.9737 17.3166 12.5916 17.3166H12.7C14.5006 17.3166 15.5992 16.9523 16.2632 16.2882C16.9273 15.6242 17.2916 14.5256 17.2916 12.725V7.29162C17.2916 5.49093 16.9273 4.39241 16.2632 3.72835C15.5992 3.06429 14.5006 2.69995 12.7 2.69995H12.5916C10.9614 2.69995 9.90511 2.99932 9.22918 3.54778ZM3.59228 9.37496L5.31698 7.65025C5.56106 7.40618 5.56106 7.01045 5.31698 6.76637C5.0729 6.52229 4.67718 6.52229 4.4331 6.76637L1.64143 9.55804C1.39735 9.80212 1.39735 10.1978 1.64143 10.4419L4.4331 13.2336C4.67718 13.4777 5.0729 13.4777 5.31698 13.2336C5.56106 12.9895 5.56106 12.5938 5.31698 12.3497L3.59224 10.625H12.5001C12.8453 10.625 13.1251 10.3451 13.1251 9.99996C13.1251 9.65478 12.8453 9.37496 12.5001 9.37496H3.59228Z" fill="#C84E41"/>
</svg>
