<svg width="163" height="19" viewBox="0 0 163 19" fill="none" xmlns="http://www.w3.org/2000/svg">
<path d="M31.6701 7.41938C31.3174 6.99901 30.8757 6.65709 30.3751 6.41673C29.7689 6.13772 29.1032 6.00181 28.4326 6.02013H23.0368C22.5791 6.02648 22.1247 6.09707 21.6878 6.22966C21.1939 6.37535 20.7334 6.61157 20.3311 6.92555C19.9035 7.27012 19.5521 7.69518 19.2983 8.17514C18.9982 8.75989 18.8525 9.40785 18.8743 10.0608V13.9667C18.8516 14.5651 18.9712 15.1606 19.2238 15.7069C19.4765 16.2533 19.8554 16.7357 20.3311 17.1169C20.7314 17.4321 21.1927 17.6662 21.6878 17.8053C22.1244 17.94 22.5787 18.0132 23.0368 18.0223H28.4326C28.7357 18.0179 29.0377 17.9854 29.3344 17.9251C29.655 17.8596 29.9676 17.7618 30.2672 17.6332C30.5827 17.4958 30.8803 17.3225 31.1536 17.1169C31.4475 16.9062 31.7074 16.654 31.9245 16.3687C32.1467 16.0475 32.3206 15.6973 32.4409 15.3286C32.5723 14.8937 32.6372 14.4424 32.6336 13.9892V10.0832C32.6254 9.63356 32.5501 9.18748 32.4101 8.75881C32.2558 8.26976 32.0044 7.81472 31.6701 7.41938ZM29.6351 13.9667C29.6565 14.2832 29.5484 14.5951 29.3344 14.8347C29.2131 14.9416 29.0705 15.0233 28.9154 15.0748C28.7603 15.1263 28.596 15.1464 28.4326 15.134H23.0907C22.7612 15.1539 22.4369 15.0463 22.1889 14.8347C22.0801 14.7176 21.9967 14.5803 21.9437 14.4312C21.8907 14.2821 21.8693 14.1241 21.8805 13.9667V10.0608C21.868 9.90447 21.889 9.74732 21.9421 9.59924C21.9951 9.45115 22.0792 9.31532 22.1889 9.20026C22.4369 8.98866 22.7612 8.88107 23.0907 8.90098H28.4326C28.7587 8.87939 29.0803 8.98431 29.3268 9.19277C29.4385 9.31261 29.5236 9.45356 29.5766 9.60677C29.6297 9.75999 29.6496 9.92218 29.6351 10.0832V13.9667Z" fill="white"/>
<path d="M47.6499 7.41938C47.2937 7.00236 46.8529 6.66107 46.3549 6.41673C45.7486 6.13772 45.083 6.00181 44.4124 6.02013H39.0165C38.5588 6.02595 38.1044 6.09656 37.6676 6.22966C37.1532 6.37966 36.6755 6.62941 36.2635 6.96382C35.8514 7.29822 35.5135 7.7103 35.2703 8.17514C34.9765 8.76176 34.8337 9.40881 34.8541 10.0608V13.9667C34.8331 14.6211 34.9759 15.2708 35.2703 15.8598C35.5222 16.3453 35.8768 16.7737 36.311 17.1169C36.7112 17.4321 37.1725 17.6662 37.6676 17.8053C38.104 17.9407 38.5584 18.0138 39.0165 18.0223H44.4124C45.0444 18.0117 45.6679 17.8794 46.2469 17.6332C46.5616 17.4942 46.859 17.321 47.1334 17.1169C47.4295 16.9086 47.6896 16.656 47.9042 16.3687C48.1294 16.0492 48.3035 15.6986 48.4207 15.3286C48.5558 14.8944 48.6208 14.4426 48.6134 13.9892V10.0832C48.6081 9.6339 48.5354 9.18776 48.3976 8.75881C48.2343 8.27194 47.9809 7.81803 47.6499 7.41938ZM45.6148 13.9667C45.6362 14.2832 45.5283 14.5951 45.3143 14.8347C45.1921 14.9406 45.0494 15.0215 44.8945 15.0729C44.7396 15.1243 44.5757 15.1451 44.4124 15.134H39.0859C38.7564 15.1539 38.4321 15.0463 38.1841 14.8347C38.0753 14.7176 37.9919 14.5803 37.9389 14.4312C37.8859 14.2821 37.8644 14.1241 37.8757 13.9667V10.0608C37.8632 9.90447 37.8842 9.74732 37.9373 9.59924C37.9903 9.45115 38.0744 9.31532 38.1841 9.20026C38.4321 8.98866 38.7564 8.88107 39.0859 8.90098H44.4278C44.5923 8.87956 44.7596 8.89549 44.9167 8.94756C45.0737 8.99964 45.2161 9.08645 45.3327 9.20108C45.4493 9.31571 45.5369 9.45506 45.5885 9.60814C45.6401 9.76123 45.6544 9.92384 45.6303 10.0832L45.6148 13.9667Z" fill="white"/>
<path d="M61.7024 13.9672C61.7227 14.2823 61.6179 14.5929 61.4095 14.8353C61.2862 14.9417 61.1422 15.023 60.9859 15.0744C60.8297 15.1258 60.6645 15.1462 60.4999 15.1345H55.1427C54.9818 15.1449 54.8204 15.1238 54.6681 15.0723C54.5158 15.0209 54.3757 14.9403 54.2562 14.8353C54.1456 14.7147 54.0613 14.5736 54.0083 14.4206C53.9553 14.2676 53.9348 14.1058 53.9479 13.9448V10.0613C53.9372 9.90514 53.959 9.74847 54.012 9.60064C54.0649 9.45281 54.148 9.31683 54.2562 9.20079C54.5066 8.98804 54.8337 8.88042 55.1658 8.90151H60.4999V6.02066H55.1427C54.6849 6.02595 54.2303 6.09657 53.7937 6.2302C53.2992 6.37431 52.8383 6.61068 52.437 6.92608C52.0047 7.2681 51.6503 7.69363 51.3964 8.17567C51.0999 8.76164 50.9545 9.40873 50.9724 10.0613V13.9672C50.9772 14.2565 51.0108 14.5447 51.0726 14.8278C51.14 15.1413 51.2408 15.4473 51.3733 15.7406C51.5165 16.046 51.695 16.3347 51.9052 16.6012C52.1243 16.8848 52.3838 17.1367 52.676 17.3494C53.0014 17.5695 53.3603 17.7387 53.7397 17.8507C54.1864 17.9851 54.6519 18.0508 55.1195 18.0453H60.4768C60.7799 18.0409 61.0819 18.0083 61.3787 17.948C61.7014 17.8816 62.0165 17.7838 62.3191 17.6562C62.6322 17.5187 62.9272 17.3454 63.1979 17.1399C63.4917 16.9291 63.7516 16.6769 63.9687 16.3916C64.1939 16.0722 64.368 15.7216 64.4851 15.3516C64.6202 14.9174 64.6852 14.4656 64.6778 14.0121V0.977356H61.7024V13.9672Z" fill="white"/>
<path d="M68.7481 2.21115C68.572 2.28222 68.4121 2.38647 68.2779 2.51792C68.0024 2.79535 67.8478 3.16522 67.8462 3.55053V18.022H70.8216V11.5121H79.9405V8.60133H70.8447V4.98719H82.7618V2.0989H69.3416C69.1381 2.09791 68.9363 2.13607 68.7481 2.21115Z" fill="white"/>
<path d="M87.579 6.10981C87.2558 6.17782 86.9407 6.27814 86.6387 6.40913C86.321 6.54253 86.0229 6.71614 85.7522 6.92544C85.458 7.13587 85.1981 7.38812 84.9813 7.6737C84.7531 7.99142 84.5788 8.34258 84.4649 8.7138C84.3265 9.14482 84.2589 9.59427 84.2645 10.0457V18.0073H87.2399V10.0607C87.2274 9.90436 87.2484 9.74721 87.3014 9.59913C87.3545 9.45104 87.4385 9.31521 87.5482 9.20015C87.6734 9.09423 87.8188 9.01329 87.9762 8.96193C88.1336 8.91058 88.2999 8.88984 88.4655 8.90087H95.1563V6.02002H88.4424C88.1524 6.0236 87.8633 6.05366 87.579 6.10981Z" fill="white"/>
<path d="M100.152 0.946716H97.1763V3.55816H100.152V0.946716Z" fill="white"/>
<path d="M100.152 6.02002H97.1763V18.0222H100.152V6.02002Z" fill="white"/>
<path d="M114.867 6.91048C114.474 6.6044 114.024 6.37338 113.542 6.22958C113.11 6.09601 112.661 6.02538 112.208 6.02004H106.812C106.154 6.00222 105.501 6.13826 104.908 6.41665C104.417 6.65864 103.984 6.9976 103.636 7.41181C103.321 7.79405 103.083 8.23075 102.935 8.69885C102.797 9.11746 102.724 9.55379 102.719 9.99334V14.0415C102.7 14.6805 102.84 15.3146 103.128 15.8897C103.377 16.3661 103.726 16.7867 104.153 17.1243C104.545 17.4334 104.995 17.6647 105.479 17.8052C105.91 17.9406 106.359 18.0137 106.812 18.0223H112.208V15.2686H106.866C106.53 15.2754 106.203 15.1608 105.949 14.9469C105.821 14.8327 105.72 14.6922 105.655 14.5355C105.589 14.3789 105.561 14.2102 105.571 14.0415V10.0158C105.564 9.68704 105.682 9.3672 105.903 9.11788C106.023 8.99576 106.17 8.90041 106.332 8.83842C106.495 8.77643 106.669 8.74927 106.843 8.75872H112.239C112.568 8.75461 112.886 8.86928 113.133 9.08047C113.259 9.19304 113.358 9.33112 113.424 9.48498C113.489 9.63883 113.519 9.80471 113.511 9.97091C113.518 10.2973 113.4 10.6147 113.179 10.8614C113.059 10.9848 112.913 11.0815 112.75 11.1448C112.588 11.2081 112.414 11.2365 112.239 11.228H106.843V13.9666H112.239C112.897 13.9845 113.55 13.8485 114.143 13.5701C114.628 13.3263 115.056 12.9874 115.399 12.5749C115.715 12.1926 115.953 11.756 116.101 11.2879C116.238 10.8691 116.311 10.4328 116.317 9.99334C116.335 9.35438 116.195 8.72053 115.908 8.14514C115.654 7.66727 115.3 7.24659 114.867 6.91048Z" fill="white"/>
<path d="M131.068 8.23493C130.797 7.85155 130.467 7.51083 130.089 7.22474C129.727 6.95216 129.334 6.72117 128.918 6.53635C128.523 6.35965 128.109 6.22665 127.684 6.1398C127.294 6.06117 126.896 6.02104 126.497 6.02005H119.799C119.598 6.01885 119.398 6.05704 119.213 6.13231C119.037 6.20433 118.875 6.30559 118.735 6.43158C118.598 6.56059 118.49 6.71612 118.419 6.88806C118.341 7.06533 118.301 7.25644 118.303 7.44926V18.0223H121.271V8.9009H126.474C126.816 8.89883 127.156 8.95713 127.476 9.07299C127.777 9.18702 128.052 9.35735 128.286 9.57431C128.516 9.7852 128.7 10.0399 128.825 10.3226C128.965 10.6416 129.034 10.986 129.026 11.3328V17.9998H132.001V11.3328C132.01 10.7399 131.924 10.1492 131.747 9.5818C131.594 9.10137 131.365 8.64698 131.068 8.23493Z" fill="white"/>
<path d="M145.197 13.9672C145.217 14.2823 145.112 14.5929 144.904 14.8353C144.781 14.9417 144.637 15.023 144.48 15.0744C144.324 15.1258 144.159 15.1462 143.994 15.1345H138.598C138.438 15.1449 138.276 15.1238 138.124 15.0723C137.972 15.0209 137.832 14.9403 137.712 14.8353C137.601 14.7147 137.517 14.5736 137.464 14.4206C137.411 14.2676 137.391 14.1058 137.404 13.9448V10.0613C137.399 9.90377 137.428 9.74697 137.487 9.60037C137.547 9.45376 137.636 9.32037 137.751 9.20828C138.001 8.99553 138.328 8.88787 138.66 8.90896H143.994V6.02815H138.598C138.141 6.03344 137.686 6.10406 137.249 6.23769C136.755 6.3818 136.294 6.61817 135.893 6.93357C135.461 7.2756 135.106 7.70112 134.852 8.18316C134.558 8.76978 134.416 9.41684 134.436 10.0688V13.9747C134.438 14.2638 134.469 14.552 134.528 14.8353C134.599 15.1479 134.7 15.4535 134.829 15.7481C134.972 16.0535 135.151 16.3422 135.361 16.6086C135.58 16.8923 135.84 17.1442 136.132 17.3569C136.459 17.5785 136.821 17.7477 137.203 17.8582C137.647 17.9932 138.11 18.0589 138.575 18.0528H143.971C144.274 18.0484 144.576 18.0158 144.873 17.9555C145.196 17.8891 145.511 17.7913 145.813 17.6637C146.127 17.5262 146.422 17.3529 146.692 17.1474C146.986 16.9366 147.246 16.6844 147.463 16.3991C147.688 16.0797 147.862 15.729 147.98 15.359C148.115 14.9249 148.18 14.4731 148.172 14.0196V0.977356H145.197V13.9672Z" fill="white"/>
<path d="M159.052 10.5767H154.427C154.211 10.5569 154.011 10.4596 153.865 10.304C153.719 10.1483 153.638 9.94535 153.638 9.73486C153.638 9.52436 153.719 9.32144 153.865 9.16576C154.011 9.01008 154.211 8.91284 154.427 8.89306H162.236V6.01221H154.443C153.492 6.10485 152.61 6.53703 151.969 7.2249C151.328 7.91276 150.973 8.80729 150.973 9.73486C150.973 10.6624 151.328 11.5569 151.969 12.2448C152.61 12.9326 153.492 13.3648 154.443 13.4575H159.068C159.299 13.4575 159.52 13.5466 159.683 13.7051C159.847 13.8637 159.939 14.0788 159.939 14.303C159.939 14.5273 159.847 14.7423 159.683 14.9009C159.52 15.0594 159.299 15.1486 159.068 15.1486H150.588V18.0294H159.068C160.09 18.0294 161.07 17.6352 161.793 16.9336C162.516 16.2319 162.922 15.2803 162.922 14.288C162.922 13.2958 162.516 12.3442 161.793 11.6425C161.07 10.9409 160.09 10.5467 159.068 10.5467L159.052 10.5767Z" fill="white"/>
<path d="M15.961 9.03546C15.8277 8.90101 15.6677 8.79408 15.4908 8.72116C15.303 8.64351 15.1013 8.60284 14.8972 8.60146H5.5085V11.5122H13.4172V15.1338H4.16726C4.00588 15.1427 3.84428 15.1202 3.69203 15.0675C3.53978 15.0148 3.39995 14.933 3.28078 14.827C3.17084 14.7118 3.08613 14.5762 3.03181 14.4282C2.97748 14.2803 2.95469 14.1232 2.96476 13.9665V6.21449C2.9534 6.05368 2.97476 5.89229 3.02767 5.73951C3.08057 5.58673 3.16395 5.44554 3.27307 5.32405C3.39378 5.21844 3.53516 5.13753 3.68878 5.0861C3.84241 5.03468 4.00515 5.01378 4.16726 5.02472H16.2539V2.09902H4.16726C3.70263 2.09129 3.23961 2.15442 2.79516 2.28609C2.41424 2.4038 2.05326 2.57523 1.72374 2.7949C1.42984 3.00568 1.17003 3.25788 0.952905 3.54317C0.737613 3.8076 0.5564 4.0966 0.413313 4.40369C0.280804 4.69706 0.180044 5.00298 0.112678 5.31656C0.050789 5.59959 0.0172264 5.88778 0.0124661 6.17708V13.989C0.00745871 14.4428 0.0750769 14.8947 0.21289 15.3284C0.330036 15.6984 0.504145 16.049 0.729334 16.3685C0.948459 16.6521 1.208 16.904 1.50016 17.1167C1.77462 17.3208 2.07202 17.494 2.38664 17.633C2.68885 17.7617 3.00399 17.8595 3.32703 17.9249C3.6186 17.9849 3.91548 18.0175 4.21351 18.0221H14.9435C15.1406 18.0246 15.3362 17.9888 15.5189 17.9168C15.7016 17.8449 15.8676 17.7382 16.0072 17.6031C16.1452 17.4719 16.2529 17.3138 16.3232 17.1392C16.4022 16.9569 16.4416 16.7608 16.4389 16.563V10.0606C16.4408 9.86776 16.4014 9.67666 16.3232 9.49939C16.2349 9.32321 16.1119 9.16559 15.961 9.03546Z" fill="white"/>
</svg>
