<svg width="163" height="19" viewBox="0 0 163 19" fill="none" xmlns="http://www.w3.org/2000/svg">
<path d="M31.6696 7.41941C31.3169 6.99904 30.8753 6.65713 30.3746 6.41676C29.7684 6.13775 29.1028 6.00184 28.4321 6.02016H23.0363C22.5786 6.02651 22.1242 6.0971 21.6873 6.22969C21.1935 6.37538 20.7329 6.6116 20.3307 6.92558C19.903 7.27015 19.5516 7.69521 19.2978 8.17517C18.9977 8.75992 18.8521 9.40788 18.8738 10.0608V13.9667C18.8511 14.5652 18.9707 15.1607 19.2233 15.707C19.476 16.2533 19.8549 16.7358 20.3307 17.117C20.7309 17.4322 21.1922 17.6662 21.6873 17.8053C22.1239 17.9401 22.5782 18.0132 23.0363 18.0224H28.4321C28.7352 18.018 29.0372 17.9854 29.334 17.9251C29.6545 17.8597 29.9671 17.7619 30.2667 17.6333C30.5822 17.4959 30.8798 17.3226 31.1532 17.117C31.4471 16.9062 31.7069 16.654 31.924 16.3687C32.1462 16.0476 32.3201 15.6973 32.4404 15.3286C32.5718 14.8937 32.6368 14.4424 32.6331 13.9892V10.0832C32.6249 9.6336 32.5497 9.18751 32.4096 8.75884C32.2553 8.26979 32.0039 7.81475 31.6696 7.41941ZM29.6346 13.9667C29.656 14.2832 29.548 14.5951 29.334 14.8348C29.2126 14.9417 29.07 15.0234 28.9149 15.0748C28.7598 15.1263 28.5955 15.1464 28.4321 15.134H23.0902C22.7607 15.1539 22.4364 15.0463 22.1884 14.8348C22.0796 14.7176 21.9962 14.5803 21.9432 14.4312C21.8902 14.2821 21.8688 14.1241 21.88 13.9667V10.0608C21.8676 9.9045 21.8885 9.74735 21.9416 9.59927C21.9946 9.45118 22.0787 9.31535 22.1884 9.20029C22.4364 8.98869 22.7607 8.88111 23.0902 8.90101H28.4321C28.7582 8.87942 29.0799 8.98434 29.3263 9.1928C29.438 9.31264 29.5231 9.45359 29.5761 9.6068C29.6292 9.76002 29.6491 9.92221 29.6346 10.0832V13.9667Z" fill="black"/>
<path d="M47.6494 7.41941C47.2932 7.00239 46.8524 6.6611 46.3544 6.41676C45.7481 6.13775 45.0825 6.00184 44.4119 6.02016H39.016C38.5583 6.02598 38.1039 6.09659 37.6671 6.22969C37.1527 6.37969 36.6751 6.62944 36.263 6.96385C35.8509 7.29825 35.513 7.71033 35.2698 8.17517C34.976 8.76179 34.8332 9.40884 34.8536 10.0608V13.9667C34.8326 14.6212 34.9754 15.2708 35.2698 15.8599C35.5217 16.3453 35.8763 16.7737 36.3105 17.117C36.7107 17.4322 37.172 17.6662 37.6671 17.8053C38.1036 17.9407 38.5579 18.0138 39.016 18.0224H44.4119C45.0439 18.0117 45.6674 17.8795 46.2464 17.6333C46.5611 17.4942 46.8585 17.321 47.1329 17.117C47.429 16.9086 47.6891 16.6561 47.9038 16.3687C48.1289 16.0493 48.3031 15.6986 48.4202 15.3286C48.5553 14.8945 48.6203 14.4427 48.6129 13.9892V10.0832C48.6076 9.63393 48.5349 9.18779 48.3971 8.75884C48.2338 8.27197 47.9804 7.81806 47.6494 7.41941ZM45.6144 13.9667C45.6358 14.2832 45.5278 14.5951 45.3138 14.8348C45.1917 14.9406 45.0489 15.0216 44.894 15.073C44.7391 15.1244 44.5752 15.1451 44.4119 15.134H39.0854C38.7559 15.1539 38.4316 15.0463 38.1836 14.8348C38.0748 14.7176 37.9914 14.5803 37.9384 14.4312C37.8854 14.2821 37.864 14.1241 37.8752 13.9667V10.0608C37.8628 9.9045 37.8837 9.74735 37.9368 9.59927C37.9898 9.45118 38.0739 9.31535 38.1836 9.20029C38.4316 8.98869 38.7559 8.88111 39.0854 8.90101H44.4273C44.5918 8.87959 44.7591 8.89552 44.9162 8.94759C45.0732 8.99967 45.2156 9.08648 45.3322 9.20111C45.4488 9.31574 45.5364 9.45509 45.588 9.60817C45.6397 9.76126 45.6539 9.92387 45.6298 10.0832L45.6144 13.9667Z" fill="black"/>
<path d="M61.7002 13.9672C61.7205 14.2823 61.6157 14.5929 61.4073 14.8353C61.284 14.9417 61.14 15.023 60.9837 15.0744C60.8275 15.1258 60.6623 15.1462 60.4977 15.1345H55.1405C54.9796 15.1449 54.8182 15.1238 54.6659 15.0723C54.5136 15.0209 54.3735 14.9403 54.254 14.8353C54.1434 14.7147 54.0591 14.5736 54.0061 14.4206C53.9531 14.2676 53.9326 14.1058 53.9457 13.9448V10.0613C53.935 9.90514 53.9568 9.74847 54.0098 9.60064C54.0627 9.45281 54.1458 9.31683 54.254 9.20079C54.5044 8.98804 54.8315 8.88042 55.1636 8.90151H60.4977V6.02066H55.1405C54.6827 6.02595 54.2281 6.09657 53.7915 6.2302C53.297 6.37431 52.8361 6.61068 52.4348 6.92608C52.0025 7.2681 51.6481 7.69363 51.3942 8.17567C51.0977 8.76164 50.9523 9.40873 50.9702 10.0613V13.9672C50.975 14.2565 51.0086 14.5447 51.0704 14.8278C51.1378 15.1413 51.2386 15.4473 51.3711 15.7406C51.5143 16.046 51.6928 16.3347 51.903 16.6012C52.1221 16.8848 52.3816 17.1367 52.6738 17.3494C52.9992 17.5695 53.3581 17.7387 53.7375 17.8507C54.1842 17.9851 54.6497 18.0508 55.1173 18.0453H60.4746C60.7777 18.0409 61.0797 18.0083 61.3765 17.948C61.6992 17.8816 62.0143 17.7838 62.3169 17.6562C62.63 17.5187 62.925 17.3454 63.1957 17.1399C63.4895 16.9291 63.7494 16.6769 63.9665 16.3916C64.1917 16.0722 64.3658 15.7216 64.4829 15.3516C64.618 14.9174 64.683 14.4656 64.6756 14.0121V0.977356H61.7002V13.9672Z" fill="black"/>
<path d="M68.7456 2.21118C68.5695 2.28225 68.4097 2.3865 68.2754 2.51795C67.9999 2.79538 67.8453 3.16525 67.8438 3.55056V18.022H70.8191V11.5121H79.9381V8.60136H70.8423V4.98722H82.7593V2.09893H69.3392C69.1356 2.09794 68.9339 2.1361 68.7456 2.21118Z" fill="black"/>
<path d="M87.5805 6.10978C87.2572 6.17779 86.9421 6.27811 86.6401 6.4091C86.3225 6.5425 86.0244 6.71611 85.7536 6.92541C85.4594 7.13584 85.1996 7.38809 84.9828 7.67367C84.7546 7.99139 84.5802 8.34254 84.4664 8.71377C84.328 9.14479 84.2604 9.59424 84.2659 10.0457V18.0072H87.2413V10.0606C87.2289 9.90433 87.2498 9.74718 87.3029 9.5991C87.3559 9.45101 87.44 9.31518 87.5497 9.20012C87.6748 9.0942 87.8203 9.01326 87.9777 8.9619C88.1351 8.91055 88.3013 8.88981 88.467 8.90084H95.1578V6.01999H88.4439C88.1538 6.02357 87.8647 6.05363 87.5805 6.10978Z" fill="black"/>
<path d="M100.151 0.946716H97.1758V3.55816H100.151V0.946716Z" fill="black"/>
<path d="M100.151 6.01999H97.1758V18.0222H100.151V6.01999Z" fill="black"/>
<path d="M114.869 6.91051C114.475 6.60443 114.025 6.37341 113.543 6.22961C113.112 6.09605 112.662 6.02541 112.209 6.02007H106.814C106.155 6.00225 105.502 6.13829 104.91 6.41668C104.419 6.65867 103.986 6.99763 103.638 7.41184C103.322 7.79408 103.084 8.23078 102.936 8.69888C102.798 9.11749 102.725 9.55382 102.72 9.99337V14.0415C102.701 14.6805 102.841 15.3146 103.129 15.8897C103.378 16.3662 103.728 16.7867 104.154 17.1244C104.546 17.4334 104.996 17.6648 105.48 17.8053C105.911 17.9406 106.361 18.0138 106.814 18.0223H112.209V15.2686H106.868C106.531 15.2755 106.204 15.1608 105.95 14.9469C105.822 14.8327 105.722 14.6922 105.656 14.5356C105.591 14.379 105.562 14.2102 105.573 14.0415V10.0158C105.565 9.68707 105.683 9.36723 105.904 9.11791C106.025 8.99579 106.171 8.90044 106.334 8.83845C106.496 8.77646 106.67 8.7493 106.844 8.75875H112.24C112.569 8.75464 112.888 8.86931 113.134 9.0805C113.261 9.19307 113.36 9.33115 113.425 9.48501C113.49 9.63886 113.52 9.80474 113.512 9.97094C113.519 10.2974 113.401 10.6147 113.181 10.8614C113.061 10.9848 112.914 11.0816 112.752 11.1449C112.59 11.2082 112.415 11.2365 112.24 11.228H106.844V13.9667H112.24C112.899 13.9845 113.551 13.8485 114.144 13.5701C114.629 13.3264 115.057 12.9875 115.401 12.5749C115.716 12.1927 115.954 11.756 116.102 11.2879C116.24 10.8692 116.312 10.4329 116.318 9.99337C116.336 9.35442 116.196 8.72056 115.909 8.14517C115.656 7.6673 115.301 7.24662 114.869 6.91051Z" fill="black"/>
<path d="M131.07 8.2349C130.799 7.85152 130.468 7.5108 130.091 7.22471C129.729 6.95213 129.336 6.72113 128.919 6.53632C128.525 6.35962 128.111 6.22661 127.686 6.13976C127.295 6.06114 126.898 6.021 126.499 6.02002H119.8C119.599 6.01882 119.4 6.05701 119.214 6.13227C119.038 6.2043 118.877 6.30556 118.736 6.43155C118.599 6.56056 118.492 6.71609 118.42 6.88803C118.342 7.0653 118.303 7.25641 118.305 7.44923V18.0222H121.272V8.90087H126.476C126.818 8.8988 127.157 8.9571 127.478 9.07295C127.779 9.18699 128.054 9.35732 128.287 9.57428C128.518 9.78517 128.701 10.0399 128.827 10.3225C128.967 10.6415 129.035 10.986 129.027 11.3327V17.9998H132.002V11.3327C132.011 10.7398 131.925 10.1492 131.748 9.58177C131.595 9.10134 131.367 8.64694 131.07 8.2349Z" fill="black"/>
<path d="M145.196 13.9672C145.217 14.2823 145.112 14.5929 144.903 14.8353C144.78 14.9417 144.636 15.023 144.48 15.0744C144.324 15.1258 144.158 15.1462 143.994 15.1345H138.598C138.437 15.1449 138.276 15.1238 138.123 15.0723C137.971 15.0209 137.831 14.9403 137.712 14.8353C137.601 14.7147 137.517 14.5736 137.464 14.4206C137.411 14.2676 137.39 14.1058 137.403 13.9448V10.0613C137.399 9.90377 137.427 9.74697 137.487 9.60037C137.546 9.45376 137.636 9.32037 137.75 9.20828C138 8.99553 138.328 8.88787 138.66 8.90896H143.994V6.02815H138.598C138.14 6.03344 137.686 6.10406 137.249 6.23769C136.754 6.3818 136.294 6.61817 135.892 6.93357C135.46 7.2756 135.106 7.70112 134.852 8.18316C134.558 8.76978 134.415 9.41684 134.436 10.0688V13.9747C134.438 14.2638 134.469 14.552 134.528 14.8353C134.599 15.1479 134.7 15.4535 134.829 15.7481C134.972 16.0535 135.15 16.3422 135.361 16.6086C135.58 16.8923 135.839 17.1442 136.131 17.3569C136.459 17.5785 136.82 17.7477 137.203 17.8582C137.647 17.9932 138.11 18.0589 138.575 18.0528H143.971C144.274 18.0484 144.576 18.0158 144.873 17.9555C145.195 17.8891 145.51 17.7913 145.813 17.6637C146.126 17.5262 146.421 17.3529 146.692 17.1474C146.986 16.9366 147.245 16.6844 147.463 16.3991C147.688 16.0797 147.862 15.729 147.979 15.359C148.114 14.9249 148.179 14.4731 148.172 14.0196V0.977356H145.196V13.9672Z" fill="black"/>
<path d="M159.05 10.5766H154.425C154.209 10.5568 154.008 10.4596 153.862 10.3039C153.716 10.1482 153.635 9.94532 153.635 9.73483C153.635 9.52433 153.716 9.32141 153.862 9.16573C154.008 9.01005 154.209 8.91281 154.425 8.89303H162.233V6.01218H154.44C153.489 6.10482 152.608 6.537 151.967 7.22487C151.326 7.91273 150.971 8.80726 150.971 9.73483C150.971 10.6624 151.326 11.5569 151.967 12.2447C152.608 12.9326 153.489 13.3648 154.44 13.4574H159.065C159.296 13.4574 159.518 13.5465 159.681 13.7051C159.844 13.8637 159.936 14.0787 159.936 14.303C159.936 14.5272 159.844 14.7423 159.681 14.9008C159.518 15.0594 159.296 15.1485 159.065 15.1485H150.586V18.0293H159.065C160.087 18.0293 161.068 17.6352 161.79 16.9336C162.513 16.2319 162.919 15.2803 162.919 14.288C162.919 13.2957 162.513 12.3441 161.79 11.6425C161.068 10.9408 160.087 10.5467 159.065 10.5467L159.05 10.5766Z" fill="black"/>
<path d="M15.9605 9.03546C15.8272 8.90101 15.6672 8.79408 15.4903 8.72116C15.3025 8.64351 15.1008 8.60284 14.8967 8.60146H5.50801V11.5122H13.4167V15.1338H4.16677C4.00539 15.1427 3.84379 15.1202 3.69154 15.0675C3.53929 15.0148 3.39946 14.933 3.28029 14.827C3.17035 14.7118 3.08564 14.5762 3.03132 14.4282C2.97699 14.2803 2.9542 14.1232 2.96427 13.9665V6.21449C2.95291 6.05368 2.97427 5.89229 3.02718 5.73951C3.08008 5.58673 3.16346 5.44554 3.27258 5.32405C3.39329 5.21844 3.53467 5.13753 3.68829 5.0861C3.84192 5.03468 4.00466 5.01378 4.16677 5.02472H16.2534V2.09902H4.16677C3.70214 2.09129 3.23912 2.15442 2.79467 2.28609C2.41375 2.4038 2.05278 2.57523 1.72325 2.7949C1.42935 3.00568 1.16954 3.25788 0.952416 3.54317C0.737125 3.8076 0.555912 4.0966 0.412825 4.40369C0.280316 4.69706 0.179556 5.00298 0.11219 5.31656C0.0503007 5.59959 0.0167382 5.88778 0.0119778 6.17708V13.989C0.00697043 14.4428 0.0745886 14.8947 0.212401 15.3284C0.329548 15.6984 0.503657 16.049 0.728845 16.3685C0.94797 16.6521 1.20751 16.904 1.49968 17.1167C1.77414 17.3208 2.07154 17.494 2.38615 17.633C2.68836 17.7617 3.00351 17.8595 3.32654 17.9249C3.61811 17.9849 3.91499 18.0175 4.21302 18.0221H14.943C15.1401 18.0246 15.3357 17.9888 15.5184 17.9168C15.7011 17.8449 15.8671 17.7382 16.0067 17.6031C16.1447 17.4719 16.2524 17.3138 16.3227 17.1392C16.4017 16.9569 16.4411 16.7608 16.4384 16.563V10.0606C16.4403 9.86776 16.4009 9.67666 16.3227 9.49939C16.2344 9.32321 16.1114 9.16559 15.9605 9.03546Z" fill="black"/>
</svg>
