<svg width="21" height="21" viewBox="0 0 21 21" fill="none" xmlns="http://www.w3.org/2000/svg">
<g clip-path="url(#clip0_1034_107240)">
<path opacity="0.992" fill-rule="evenodd" clip-rule="evenodd" d="M7.60852 0.819947C5.89961 0.799439 4.19061 0.792602 2.48157 0.799439C1.59803 1.00619 1.04432 1.55306 0.820436 2.44006C0.79309 4.16272 0.79309 5.88538 0.820436 7.60803C1.06386 8.56238 1.67225 9.1161 2.64563 9.26917C4.23158 9.29652 5.81749 9.29652 7.40344 9.26917C8.463 9.0846 9.08508 8.46251 9.26966 7.40295C9.29701 5.817 9.29701 4.23109 9.26966 2.64514C9.11659 1.67176 8.56287 1.06337 7.60852 0.819947ZM18.4777 0.819947C16.7688 0.799439 15.0598 0.792602 13.3507 0.799439C12.4041 1.05589 11.8504 1.67112 11.6896 2.64514C11.6622 4.23109 11.6622 5.817 11.6896 7.40295C11.8742 8.46251 12.4962 9.0846 13.5558 9.26917C15.1417 9.29652 16.7277 9.29652 18.3136 9.26917C19.287 9.1161 19.8954 8.56238 20.1388 7.60803C20.1662 5.88538 20.1662 4.16272 20.1388 2.44006C19.9221 1.55345 19.3684 1.01341 18.4777 0.819947ZM2.64563 11.6686C4.23162 11.6617 5.81757 11.6686 7.40344 11.6891C8.46189 11.8725 9.08398 12.4946 9.26966 13.5553C9.29701 15.1412 9.29701 16.7272 9.26966 18.3131C9.11659 19.2865 8.56287 19.8949 7.60852 20.1383C5.89952 20.1657 4.19057 20.1657 2.48157 20.1383C1.59083 19.9448 1.03712 19.4048 0.820436 18.5182C0.79309 16.7955 0.79309 15.0729 0.820436 13.3502C1.07095 12.3954 1.67935 11.8349 2.64563 11.6686ZM18.3134 11.6891C16.7276 11.6686 15.1416 11.6617 13.5556 11.6686C12.6071 11.8308 11.9987 12.3776 11.7304 13.3092C11.6635 14.9758 11.6498 16.6438 11.6894 18.3131C11.8425 19.2865 12.3962 19.8949 13.3506 20.1383C15.0596 20.1657 16.7685 20.1657 18.4775 20.1383C19.3684 19.9447 19.9221 19.4047 20.1386 18.5182C20.166 16.7955 20.166 15.0729 20.1386 13.3502C19.8952 12.3959 19.2868 11.8422 18.3134 11.6891Z" fill="url(#paint0_linear_1034_107240)"/>
</g>
<defs>
<linearGradient id="paint0_linear_1034_107240" x1="10.4796" y1="0.796877" x2="23.3892" y2="6.04815" gradientUnits="userSpaceOnUse">
<stop stop-color="#7E2CFF"/>
<stop offset="1" stop-color="#596BF7"/>
</linearGradient>
<clipPath id="clip0_1034_107240">
<rect width="21" height="21" fill="white"/>
</clipPath>
</defs>
</svg>
