<svg width="20" height="20" viewBox="0 0 20 20" fill="none" xmlns="http://www.w3.org/2000/svg">
<g clip-path="url(#clip0_1118_58865)">
<path opacity="0.975" fill-rule="evenodd" clip-rule="evenodd" d="M13.2025 0.548742C11.8242 0.090058 10.4076 -0.0810715 8.9528 0.0353537C8.22299 0.128899 7.50043 0.290519 6.78516 0.520221C6.75327 0.56156 6.73428 0.6091 6.72812 0.662829C7.3103 2.25741 7.88073 3.85462 8.43941 5.45446H11.5197C12.0632 3.89079 12.6241 2.33157 13.2025 0.776915C13.2406 0.700859 13.2406 0.624798 13.2025 0.548742ZM6.0151 1.00507C5.9746 0.92103 5.90808 0.883005 5.81545 0.890986C3.374 2.04913 1.64365 3.88404 0.624518 6.39565C2.54088 7.11371 4.4613 7.82675 6.38588 8.53477C6.83247 8.30203 7.26982 8.05487 7.69787 7.79321C7.76438 7.09044 7.77391 6.38692 7.72639 5.68261L6.0151 1.00507ZM13.9726 0.890991C16.2114 1.82701 17.8752 3.38623 18.9639 5.56853C19.0801 5.8485 19.2038 6.12419 19.3347 6.39566C17.4272 7.13619 15.5067 7.84923 13.5733 8.53478C13.1267 8.30204 12.6894 8.05487 12.2613 7.79322C12.1948 7.09044 12.1853 6.38693 12.2328 5.68262C12.8294 4.09037 13.4093 2.49316 13.9726 0.890991ZM11.4057 6.25308H8.55351C8.53463 6.7489 8.55362 7.24329 8.61055 7.7362C9.06821 7.98559 9.52455 8.23282 9.97959 8.47776C10.4346 8.23282 10.891 7.98559 11.3486 7.7362C11.4056 7.24329 11.4245 6.7489 11.4057 6.25308ZM0.396373 7.16573C2.23259 7.85709 4.07697 8.53208 5.92956 9.19076C5.99522 9.72822 6.00474 10.2701 5.95808 10.8165C4.10926 11.4898 2.26488 12.1743 0.424894 12.87C0.249081 12.4521 0.134995 12.0148 0.0826351 11.5581C-0.0314513 10.5313 -0.0314513 9.5045 0.0826351 8.47772C0.142901 8.02759 0.247478 7.59024 0.396373 7.16573ZM19.6484 7.3939C19.637 7.29008 19.5895 7.21404 19.5058 7.16573C17.6905 7.85983 15.8651 8.54435 14.0297 9.21928C13.9632 9.76969 13.9537 10.3211 14.0012 10.8735C15.8445 11.5766 17.6984 12.2326 19.5629 12.8415C19.7034 12.4244 19.808 11.9966 19.8766 11.5581C20.0474 10.1552 19.9713 8.76716 19.6484 7.3939ZM8.1542 8.4207C8.6264 8.67391 9.09227 8.94013 9.55176 9.2193C9.59922 9.77171 9.58969 10.3231 9.52324 10.8736C9.07168 11.1326 8.62486 11.3988 8.18272 11.6722C7.71702 11.4204 7.26067 11.1542 6.81368 10.8736C6.77564 10.3221 6.77564 9.77074 6.81368 9.2193C7.27026 8.9609 7.71708 8.69468 8.1542 8.4207ZM13.1455 9.2193C12.6861 8.94013 12.2202 8.67391 11.748 8.4207C11.3109 8.69468 10.864 8.9609 10.4075 9.2193C10.36 9.77171 10.3695 10.3231 10.436 10.8736C10.8875 11.1326 11.3344 11.3988 11.7765 11.6722C12.2422 11.4204 12.6985 11.1542 13.1455 10.8736C13.1836 10.3221 13.1836 9.77074 13.1455 9.2193ZM6.1577 11.5581C6.25462 11.549 6.34971 11.5584 6.44292 11.5866C6.86857 11.8129 7.28687 12.0506 7.69787 12.2997C7.76438 13.0024 7.77391 13.7059 7.72639 14.4103C7.14814 16.0119 6.55871 17.6091 5.95805 19.2019C3.4425 18.0554 1.6647 16.2015 0.624514 13.6402C2.47488 12.9507 4.31926 12.2566 6.1577 11.5581ZM11.3772 12.3566C10.912 12.0529 10.4272 11.7867 9.92255 11.558C9.48543 11.832 9.03861 12.0982 8.58204 12.3566C8.55351 12.8316 8.54404 13.307 8.55351 13.7827H11.4057C11.4151 13.307 11.4057 12.8316 11.3772 12.3566ZM13.5163 11.558C15.4312 12.2589 17.3517 12.9434 19.2776 13.6116C18.2951 16.201 16.5363 18.0644 14.0011 19.2018C13.4005 17.609 12.811 16.0118 12.2328 14.4102C12.1853 13.7059 12.1948 13.0024 12.2613 12.2996C12.6833 12.0509 13.1016 11.8037 13.5163 11.558ZM11.4627 14.6384C10.4747 14.5814 9.48595 14.5624 8.49648 14.5814C7.89792 16.2158 7.31796 17.851 6.75666 19.4871C8.8903 20.1614 11.0294 20.1709 13.174 19.5156C13.2001 19.492 13.2191 19.4635 13.2311 19.4301L11.4627 14.6384Z" fill="#69727D"/>
</g>
<defs>
<clipPath id="clip0_1118_58865">
<rect width="20" height="20" fill="white"/>
</clipPath>
</defs>
</svg>
