<svg width="20" height="20" viewBox="0 0 20 20" fill="none" xmlns="http://www.w3.org/2000/svg">
<g clip-path="url(#clip0_184_9492)">
<path opacity="0.987" fill-rule="evenodd" clip-rule="evenodd" d="M10.5273 -0.0195312C10.7617 -0.0195312 10.9961 -0.0195312 11.2305 -0.0195312C13.79 0.444098 16.3551 0.906336 18.9258 1.36719C19.4773 1.57349 19.8289 1.95761 19.9805 2.51953C19.9805 2.75391 19.9805 2.98828 19.9805 3.22266C19.2367 7.3852 18.488 11.5519 17.7344 15.7227C17.4522 16.369 16.9575 16.7075 16.25 16.7383C15.7866 16.6795 15.3243 16.6144 14.8633 16.543C14.8726 16.3061 14.8531 16.0717 14.8047 15.8398C14.3715 14.2049 13.9354 12.5708 13.4961 10.9375C13.9607 10.5907 14.4165 10.2261 14.8633 9.84375C15.5216 9.25062 16.0099 8.54098 16.3281 7.71484C16.6042 6.78922 16.2982 6.14469 15.4102 5.78125C14.8241 5.66625 14.3293 5.82902 13.9258 6.26953C13.6836 5.67637 13.2409 5.35086 12.5977 5.29297C12.4168 5.30961 12.241 5.34867 12.0703 5.41016C12.0508 5.39715 12.0312 5.3841 12.0117 5.37109C11.84 4.73215 11.6642 4.09414 11.4844 3.45703C11.0561 2.46277 10.3074 1.86381 9.23828 1.66016C9.30402 0.809312 9.73371 0.249415 10.5273 -0.0195312Z" fill="white"/>
<path opacity="0.99" fill-rule="evenodd" clip-rule="evenodd" d="M5.13672 19.9805C4.90234 19.9805 4.66797 19.9805 4.43359 19.9805C3.88802 19.8324 3.5039 19.4939 3.28125 18.9649C2.17989 14.8716 1.07963 10.783 -0.0195312 6.69925C-0.0195312 6.46487 -0.0195312 6.2305 -0.0195312 5.99612C0.128254 5.51589 0.427734 5.1578 0.878906 4.9219C3.42876 4.22386 5.98086 3.53376 8.53516 2.85159C9.42082 2.7052 10.0523 3.03723 10.4297 3.84768C11.5234 7.93624 12.6172 12.0248 13.7109 16.1133C13.8326 16.9312 13.5266 17.5237 12.793 17.8907C10.2363 18.5883 7.68422 19.2849 5.13672 19.9805ZM5.91797 8.18362C6.10848 8.15675 6.27773 8.20233 6.42578 8.32034C7.33035 9.10776 8.2223 9.90854 9.10156 10.7227C9.12762 10.8399 9.12762 10.9571 9.10156 11.0742C8.71863 12.21 8.32801 13.3428 7.92969 14.4727C7.81055 14.6145 7.66082 14.6601 7.48047 14.6094C6.62258 13.8948 5.77625 13.1657 4.94141 12.4219C4.75582 12.2826 4.62563 12.1068 4.55078 11.8946C4.94406 10.7212 5.34121 9.54936 5.74219 8.37893C5.80887 8.31889 5.86746 8.25378 5.91797 8.18362Z" fill="white"/>
</g>
<defs>
<clipPath id="clip0_184_9492">
<rect width="20" height="20" fill="white"/>
</clipPath>
</defs>
</svg>
