<svg width="24" height="24" viewBox="0 0 24 24" fill="none" xmlns="http://www.w3.org/2000/svg">
<path fill-rule="evenodd" clip-rule="evenodd" d="M16.1269 4.20144C17.9162 3.60499 19.0284 3.88221 19.5702 4.42486C20.1129 4.96839 20.3895 6.08413 19.7979 7.87366L19.7976 7.87444L16.9682 16.3628L16.9681 16.3631C16.5091 17.7424 15.9945 18.7182 15.4857 19.3343C14.975 19.9528 14.5395 20.1324 14.2197 20.1324C13.8999 20.1324 13.4644 19.9528 12.9536 19.3343C12.4449 18.7182 11.9303 17.7424 11.4713 16.3631L11.4712 16.3628L10.7177 14.1022L14.2205 10.5897C14.513 10.2964 14.5123 9.82148 14.219 9.529C13.9257 9.23651 13.4509 9.23717 13.1584 9.53048L9.57837 13.1205C9.56475 13.1341 9.55176 13.1482 9.53941 13.1626L7.63686 12.5284L7.63648 12.5283C6.25694 12.0692 5.2811 11.5552 4.66498 11.0471C4.04637 10.5369 3.86719 10.1024 3.86719 9.78368C3.86719 9.46471 4.04661 9.02942 4.66558 8.5179C5.28188 8.00859 6.25779 7.49278 7.63714 7.03135L7.63761 7.03119L16.1269 4.20144ZM21.2218 8.34541C21.8898 6.3254 21.7614 4.49638 20.6317 3.36499C19.501 2.23264 17.6732 2.10486 15.6525 2.77841L7.16252 5.60841L7.16177 5.60866C5.68637 6.10219 4.52117 6.69132 3.71004 7.36164C2.90152 8.02981 2.36719 8.84889 2.36719 9.78368C2.36719 10.7187 2.90175 11.5373 3.71065 12.2043C4.52195 12.8734 5.68723 13.4605 7.16252 13.9514L7.16289 13.9516L9.32676 14.6729L10.0481 16.8367L10.0481 16.837L10.0482 16.8371C10.5392 18.3126 11.127 19.478 11.797 20.2893C12.465 21.0983 13.2845 21.6324 14.2197 21.6324C15.1549 21.6324 15.9744 21.0983 16.6424 20.2893C17.3124 19.478 17.9002 18.3126 18.3912 16.8371L18.3913 16.8367L21.2212 8.3471L21.2218 8.34541Z" fill="url(#paint0_linear_1194_67901)"/>
<defs>
<linearGradient id="paint0_linear_1194_67901" x1="6.00534" y1="-1.27108" x2="21.7625" y2="2.26825" gradientUnits="userSpaceOnUse">
<stop stop-color="#C6A3FF"/>
<stop offset="1" stop-color="#7E8BED"/>
</linearGradient>
</defs>
</svg>
