<svg width="20" height="20" viewBox="0 0 20 20" fill="none" xmlns="http://www.w3.org/2000/svg">
<path fill-rule="evenodd" clip-rule="evenodd" d="M6.96118 2.86211C7.31004 2.65457 7.77979 2.77017 8.00285 3.14179L8.09107 3.29415L8.09176 3.29536C8.53343 4.06515 9.20319 4.58957 10.001 4.58957C10.5003 4.58957 10.9504 4.3841 11.3265 4.04161L14.8505 4.99564C14.4049 5.76472 14.2853 6.60755 14.6834 7.2985C15.0817 7.98958 15.871 8.30832 16.7583 8.30832C17.2819 8.30832 17.7166 8.73896 17.7166 9.26665V10.7333C17.7166 11.2569 17.286 11.6916 16.7583 11.6916C15.871 11.6916 15.0817 12.0104 14.6834 12.7015C14.2855 13.3921 14.4048 14.2344 14.8498 15.0031C15.1126 15.4648 14.9532 16.0474 14.4982 16.3073L14.4979 16.3075L13.0562 17.1325L13.0562 17.1324L13.0471 17.1379C12.6982 17.3454 12.2284 17.2298 12.0054 16.8582L11.9172 16.7058L11.9164 16.7045C11.4748 15.9348 10.805 15.4104 10.0073 15.4104C9.20999 15.4104 8.53829 15.9342 8.09256 16.7032L8.0924 16.7035L8.00285 16.8582C7.77979 17.2298 7.31004 17.3454 6.96118 17.1379L6.96123 17.1378L6.95205 17.1325L5.51038 16.3075L5.51005 16.3073C5.05401 16.0467 4.89695 15.4562 5.1576 15.0046C5.60329 14.2355 5.72304 13.3925 5.32481 12.7015C4.92656 12.0104 4.13728 11.6916 3.24996 11.6916C2.72227 11.6916 2.29163 11.2569 2.29163 10.7333V9.26665C2.29163 8.74302 2.72227 8.30832 3.24996 8.30832C4.13728 8.30832 4.92656 7.98958 5.32481 7.2985C5.72304 6.60745 5.60329 5.76448 5.1576 4.99532C4.89695 4.54377 5.05401 3.95323 5.51005 3.69264L5.51038 3.69244L6.95205 2.86744L6.95209 2.86752L6.96118 2.86211ZM5.1576 4.99532C5.15752 4.99518 5.15744 4.99504 5.15736 4.9949L4.61663 5.30832L5.15779 4.99564C5.15773 4.99553 5.15767 4.99542 5.1576 4.99532ZM11.3266 4.04158L8.00285 3.14179L11.3265 4.04161C11.3266 4.0416 11.3266 4.04159 11.3266 4.04158ZM11.3266 4.04158L14.8505 4.99556C15.1114 4.54398 14.9543 3.95327 14.4982 3.69264L14.4979 3.69244L13.0562 2.86744L13.047 2.86219L13.0471 2.86211C12.6982 2.65457 12.2284 2.77017 12.0054 3.1418L11.9158 3.29647L11.9157 3.29674C11.7491 3.5841 11.551 3.83723 11.3266 4.04158ZM9.07875 2.50543C8.51877 1.56417 7.29322 1.21378 6.32703 1.78491L4.88987 2.60733L4.88953 2.60752C3.82927 3.21363 3.46978 4.57269 4.07546 5.62099L4.07589 5.62174C4.38834 6.16079 4.3393 6.50514 4.24177 6.67438C4.14419 6.84372 3.87097 7.05832 3.24996 7.05832C2.02764 7.05832 1.04163 8.05694 1.04163 9.26665V10.7333C1.04163 11.943 2.02764 12.9416 3.24996 12.9416C3.87097 12.9416 4.14419 13.1562 4.24177 13.3256C4.3393 13.4948 4.38834 13.8392 4.07589 14.3782L4.07546 14.379C3.46971 15.4274 3.82935 16.7866 4.88987 17.3926L6.3271 18.2151C7.29328 18.7862 8.51878 18.4358 9.07875 17.4945L9.07879 17.4946L9.08252 17.4881L9.17403 17.3301C9.48663 16.7907 9.81076 16.6604 10.0073 16.6604C10.2028 16.6604 10.5244 16.7896 10.8327 17.3275L10.8341 17.3298L10.9257 17.4881L10.9257 17.4882L10.9295 17.4945C11.4895 18.4358 12.715 18.7862 13.6811 18.2151L15.1184 17.3926C16.1796 16.7862 16.537 15.4364 15.9343 14.3816L15.9343 14.3816L15.9324 14.3782C15.6199 13.8392 15.6689 13.4948 15.7665 13.3256C15.8641 13.1562 16.1373 12.9416 16.7583 12.9416C17.9806 12.9416 18.9666 11.943 18.9666 10.7333V9.26665C18.9666 8.04433 17.968 7.05832 16.7583 7.05832C16.1373 7.05832 15.8641 6.84372 15.7665 6.67438C15.6689 6.50514 15.6199 6.16079 15.9324 5.62174L15.9328 5.62099C16.5385 4.57269 16.179 3.21363 15.1187 2.60752L15.1184 2.60733L13.6812 1.78491C12.715 1.21378 11.4895 1.56417 10.9295 2.50543L10.9295 2.5054L10.9257 2.51183L10.8342 2.6699L10.8342 2.67001L10.8341 2.67017C10.5215 3.20927 10.1975 3.33957 10.001 3.33957C9.80548 3.33957 9.48386 3.21037 9.17552 2.67248L9.17418 2.67017L9.08252 2.51184L9.08256 2.51181L9.07875 2.50543ZM8.12496 9.99993C8.12496 8.9644 8.96443 8.12493 9.99996 8.12493C11.0355 8.12493 11.875 8.9644 11.875 9.99993C11.875 11.0355 11.0355 11.8749 9.99996 11.8749C8.96443 11.8749 8.12496 11.0355 8.12496 9.99993ZM9.99996 6.87493C8.27407 6.87493 6.87496 8.27404 6.87496 9.99993C6.87496 11.7258 8.27407 13.1249 9.99996 13.1249C11.7258 13.1249 13.125 11.7258 13.125 9.99993C13.125 8.27404 11.7258 6.87493 9.99996 6.87493Z" fill="white"/>
</svg>
