<svg width="16" height="16" viewBox="0 0 16 16" fill="none" xmlns="http://www.w3.org/2000/svg">
<path fill-rule="evenodd" clip-rule="evenodd" d="M8.75004 1.33337C8.75004 0.91916 8.41425 0.583374 8.00004 0.583374C7.58583 0.583374 7.25004 0.91916 7.25004 1.33337V1.38671C7.25004 1.80092 7.58583 2.13671 8.00004 2.13671C8.41425 2.13671 8.75004 1.80092 8.75004 1.38671V1.33337ZM3.77037 2.70971C3.47748 2.41682 3.0026 2.41682 2.70971 2.70971C2.41682 3.0026 2.41682 3.47748 2.70971 3.77037L2.79638 3.85704C3.08927 4.14993 3.56414 4.14993 3.85704 3.85704C4.14993 3.56414 4.14993 3.08927 3.85704 2.79638L3.77037 2.70971ZM13.2904 3.77037C13.5833 3.47748 13.5833 3.0026 13.2904 2.70971C12.9975 2.41682 12.5226 2.41682 12.2297 2.70971L12.143 2.79638C11.8502 3.08927 11.8502 3.56415 12.143 3.85704C12.4359 4.14993 12.9108 4.14993 13.2037 3.85704L13.2904 3.77037ZM1.33337 7.25004C0.91916 7.25004 0.583374 7.58583 0.583374 8.00004C0.583374 8.41425 0.91916 8.75004 1.33337 8.75004H1.38671C1.80092 8.75004 2.13671 8.41425 2.13671 8.00004C2.13671 7.58583 1.80092 7.25004 1.38671 7.25004H1.33337ZM14.6134 7.25004C14.1992 7.25004 13.8634 7.58583 13.8634 8.00004C13.8634 8.41425 14.1992 8.75004 14.6134 8.75004H14.6667C15.0809 8.75004 15.4167 8.41425 15.4167 8.00004C15.4167 7.58583 15.0809 7.25004 14.6667 7.25004H14.6134ZM13.2037 12.143C12.9108 11.8502 12.4359 11.8502 12.143 12.143C11.8502 12.4359 11.8502 12.9108 12.143 13.2037L12.2297 13.2904C12.5226 13.5833 12.9975 13.5833 13.2904 13.2904C13.5833 12.9975 13.5833 12.5226 13.2904 12.2297L13.2037 12.143ZM3.85704 13.2037C4.14993 12.9108 4.14993 12.4359 3.85704 12.143C3.56415 11.8502 3.08927 11.8502 2.79638 12.143L2.70971 12.2297C2.41682 12.5226 2.41682 12.9975 2.70971 13.2904C3.0026 13.5833 3.47748 13.5833 3.77037 13.2904L3.85704 13.2037ZM8.75004 14.6134C8.75004 14.1992 8.41425 13.8634 8.00004 13.8634C7.58583 13.8634 7.25004 14.1992 7.25004 14.6134V14.6667C7.25004 15.0809 7.58583 15.4167 8.00004 15.4167C8.41425 15.4167 8.75004 15.0809 8.75004 14.6667V14.6134ZM4.26671 8.00004C4.26671 5.93818 5.93818 4.26671 8.00004 4.26671C10.0619 4.26671 11.7334 5.93818 11.7334 8.00004C11.7334 10.0619 10.0619 11.7334 8.00004 11.7334C5.93818 11.7334 4.26671 10.0619 4.26671 8.00004ZM8.00004 3.06671C5.27544 3.06671 3.06671 5.27544 3.06671 8.00004C3.06671 10.7246 5.27544 12.9334 8.00004 12.9334C10.7246 12.9334 12.9334 10.7246 12.9334 8.00004C12.9334 5.27544 10.7246 3.06671 8.00004 3.06671Z" fill="#9599A1"/>
</svg>
