<svg width="15" height="15" viewBox="0 0 15 15" fill="none" xmlns="http://www.w3.org/2000/svg">
<g clip-path="url(#clip0_651_26483)">
<path opacity="0.999" fill-rule="evenodd" clip-rule="evenodd" d="M6.81151 -0.0146484C7.26072 -0.0146484 7.70996 -0.0146484 8.15917 -0.0146484C8.24706 0.00488282 8.33495 0.0244141 8.42284 0.0439453C8.43883 1.84233 9.07361 3.37553 10.3271 4.64356C10.3271 4.65331 10.3271 4.6631 10.3271 4.67285C9.80228 5.1537 9.28959 5.65175 8.78905 6.16699C8.77546 6.18439 8.77056 6.20394 8.7744 6.22559C8.76465 6.22559 8.75486 6.22559 8.7451 6.22559C7.22694 4.65193 6.38709 2.76717 6.22557 0.571289C6.20961 0.396586 6.22912 0.23057 6.28417 0.0732422C6.46352 0.0437426 6.6393 0.0144456 6.81151 -0.0146484Z" fill="#F3F3F6"/>
<path opacity="0.997" fill-rule="evenodd" clip-rule="evenodd" d="M8.42285 0.0439453C10.1344 0.250353 11.5895 0.963243 12.7881 2.18262C11.958 2.99317 11.1377 3.81349 10.3271 4.64356C9.07362 3.37553 8.43885 1.84233 8.42285 0.0439453Z" fill="#B7DB38"/>
<path opacity="0.998" fill-rule="evenodd" clip-rule="evenodd" d="M6.19629 0.0732422C6.18686 0.244863 6.19661 0.41088 6.22559 0.571289C6.3871 2.76717 7.22695 4.65193 8.74512 6.22559C7.89551 7.05566 7.05566 7.89551 6.22559 8.74512C4.61247 7.18705 2.67888 6.3472 0.424805 6.22559C0.313523 6.19679 0.196336 6.187 0.0732422 6.19629C0.646362 3.4309 2.23816 1.51197 4.84863 0.439453C5.28911 0.280534 5.73832 0.158463 6.19629 0.0732422Z" fill="#B7DB38"/>
<path fill-rule="evenodd" clip-rule="evenodd" d="M6.19629 0.0732422C6.22558 0.0732422 6.25488 0.0732422 6.28418 0.0732422C6.22913 0.23057 6.20962 0.396586 6.22558 0.571289C6.19661 0.41088 6.18685 0.244863 6.19629 0.0732422Z" fill="#CEE481"/>
<path fill-rule="evenodd" clip-rule="evenodd" d="M12.7881 2.18262C14.0075 3.38124 14.7204 4.83633 14.9268 6.54785C13.1437 6.51709 11.6105 5.8921 10.3271 4.67285C10.3271 4.6631 10.3271 4.65331 10.3271 4.64355C11.1377 3.81349 11.958 2.99317 12.7881 2.18262Z" fill="#90CC1C"/>
<path fill-rule="evenodd" clip-rule="evenodd" d="M10.3271 4.67285C11.6105 5.8921 13.1436 6.51709 14.9267 6.54785C14.9463 6.63574 14.9658 6.72363 14.9853 6.81152C14.9853 7.26073 14.9853 7.70997 14.9853 8.15918C14.9562 8.33139 14.9269 8.50717 14.8974 8.68652C14.7401 8.74157 14.5741 8.76108 14.3994 8.74512C12.2024 8.60329 10.3274 7.76344 8.7744 6.22559C8.77056 6.20394 8.77545 6.18439 8.78905 6.16699C9.28958 5.65175 9.80228 5.1537 10.3271 4.67285Z" fill="#E1E2EA"/>
<path fill-rule="evenodd" clip-rule="evenodd" d="M0.0732422 6.19626C0.196336 6.18698 0.313523 6.19676 0.424805 6.22556C0.298025 6.21138 0.180838 6.23089 0.0732422 6.28415C0.0732422 6.25486 0.0732422 6.22556 0.0732422 6.19626Z" fill="#D8E89F"/>
<path opacity="0.999" fill-rule="evenodd" clip-rule="evenodd" d="M0.424805 6.22567C2.67888 6.34728 4.61247 7.18713 6.22559 8.7452C6.22559 8.75495 6.22559 8.76474 6.22559 8.77449C5.70073 9.25534 5.18804 9.75339 4.6875 10.2686C4.67391 10.286 4.66901 10.3056 4.67285 10.3272C4.6631 10.3272 4.65331 10.3272 4.64356 10.3272C3.37509 9.07344 1.84189 8.43869 0.0439453 8.42293C0.0244141 8.33504 0.00488282 8.24715 -0.0146484 8.15926C-0.0146484 7.71005 -0.0146484 7.26081 -0.0146484 6.8116C0.0144456 6.6394 0.0437426 6.46362 0.0732422 6.28426C0.180838 6.231 0.298025 6.21149 0.424805 6.22567Z" fill="#F3F3F6"/>
<path fill-rule="evenodd" clip-rule="evenodd" d="M8.74512 6.22559C8.75487 6.22559 8.76466 6.22559 8.77441 6.22559C10.3274 7.76344 12.2024 8.60329 14.3994 8.74512C14.5598 8.77409 14.7258 8.78385 14.8975 8.77441C14.3243 11.5398 12.7325 13.4588 10.1221 14.5313C9.68159 14.6902 9.23238 14.8122 8.77441 14.8975C8.78385 14.7258 8.77409 14.5598 8.74512 14.3994C8.60326 12.2024 7.76344 10.3274 6.22559 8.77441C6.22559 8.76466 6.22559 8.75487 6.22559 8.74512C7.05565 7.89551 7.89551 7.05565 8.74512 6.22559Z" fill="#90CC1C"/>
<path opacity="0.997" fill-rule="evenodd" clip-rule="evenodd" d="M0.0439453 8.42285C1.84189 8.43861 3.37509 9.07336 4.64356 10.3271C3.81349 11.1377 2.99317 11.958 2.18262 12.7881C0.963243 11.5895 0.250353 10.1344 0.0439453 8.42285Z" fill="#B7DB38"/>
<path fill-rule="evenodd" clip-rule="evenodd" d="M14.8975 8.68652C14.8975 8.71582 14.8975 8.74512 14.8975 8.77441C14.7258 8.78385 14.5598 8.77409 14.3994 8.74512C14.5741 8.76108 14.7401 8.74157 14.8975 8.68652Z" fill="#D2E1B9"/>
<path fill-rule="evenodd" clip-rule="evenodd" d="M6.22557 8.77441C7.76342 10.3274 8.60325 12.2024 8.7451 14.3994C8.76107 14.5741 8.74156 14.7401 8.68651 14.8975C8.50715 14.927 8.33137 14.9563 8.15916 14.9854C7.71971 14.9854 7.28026 14.9854 6.8408 14.9854C6.74316 14.9658 6.64548 14.9463 6.54784 14.9268C6.51707 13.1437 5.89208 11.6105 4.67284 10.3271C4.669 10.3055 4.67389 10.286 4.68748 10.2686C5.18802 9.75331 5.70072 9.25526 6.22557 8.77441Z" fill="#E1E2EA"/>
<path fill-rule="evenodd" clip-rule="evenodd" d="M4.64355 10.3271C4.65331 10.3271 4.6631 10.3271 4.67285 10.3271C5.8921 11.6105 6.51709 13.1437 6.54785 14.9268C4.83633 14.7204 3.38124 14.0075 2.18262 12.7881C2.99317 11.958 3.81349 11.1377 4.64355 10.3271Z" fill="#90CC1C"/>
<path fill-rule="evenodd" clip-rule="evenodd" d="M8.74512 14.3994C8.77409 14.5598 8.78385 14.7258 8.77441 14.8975C8.74512 14.8975 8.71582 14.8975 8.68652 14.8975C8.74157 14.7401 8.76108 14.5741 8.74512 14.3994Z" fill="#D2E0B8"/>
</g>
<defs>
<clipPath id="clip0_651_26483">
<rect width="15" height="15" fill="white"/>
</clipPath>
</defs>
</svg>
