<svg width="15" height="15" viewBox="0 0 15 15" fill="none" xmlns="http://www.w3.org/2000/svg">
<path d="M6.25 6.875V10.625M8.75 6.875V10.625M2.5 4.375H12.5M11.875 4.375L11.3331 11.9638C11.3107 12.2791 11.1696 12.5743 10.9382 12.7897C10.7068 13.0052 10.4024 13.125 10.0863 13.125H4.91375C4.59759 13.125 4.29317 13.0052 4.0618 12.7897C3.83044 12.5743 3.68932 12.2791 3.66688 11.9638L3.125 4.375H11.875ZM9.375 4.375V2.5C9.375 2.33424 9.30915 2.17527 9.19194 2.05806C9.07473 1.94085 8.91576 1.875 8.75 1.875H6.25C6.08424 1.875 5.92527 1.94085 5.80806 2.05806C5.69085 2.17527 5.625 2.33424 5.625 2.5V4.375H9.375Z" stroke="#CC414D" stroke-linecap="round" stroke-linejoin="round"/>
</svg>
