<svg width="20" height="20" viewBox="0 0 20 20" fill="none" xmlns="http://www.w3.org/2000/svg">
<path opacity="0.986" fill-rule="evenodd" clip-rule="evenodd" d="M9.58987 1.62111C11.3169 1.5433 12.5083 2.29851 13.1641 3.88674C13.5816 5.3942 13.1975 6.65072 12.0117 7.65627C11.6619 7.91256 11.2778 8.10139 10.8594 8.22268C10.8399 8.80846 10.8333 9.39439 10.8399 9.98049C12.5847 9.97396 14.3295 9.98049 16.0742 10C16.3824 10.0882 16.5712 10.2901 16.6407 10.6055C16.6472 11.5563 16.6667 12.5068 16.6992 13.4571C18.0104 14.061 18.5247 15.0766 18.2422 16.5039C17.8493 17.6712 17.0355 18.2831 15.8008 18.3399C14.4365 18.2451 13.6097 17.529 13.3203 16.1914C13.2103 14.8872 13.7507 13.9757 14.9414 13.4571C14.987 13.0019 14.9935 12.5462 14.961 12.0899C14.9476 11.8742 14.8369 11.7375 14.6289 11.6797C11.4887 11.641 8.35065 11.654 5.21487 11.7188C5.07745 11.8042 5.00581 11.9279 5.00002 12.0899C4.96749 12.5462 4.97401 13.0019 5.01956 13.4571C5.92963 13.8182 6.46999 14.4822 6.64065 15.4492C6.74788 16.7131 6.23354 17.6181 5.09768 18.1641C3.77707 18.5833 2.7289 18.2252 1.95315 17.0899C1.33989 15.7476 1.60682 14.6213 2.75393 13.711C2.9232 13.6263 3.09247 13.5417 3.26174 13.4571C3.29429 12.5068 3.31382 11.5563 3.32034 10.6055C3.38978 10.2901 3.57858 10.0882 3.88674 10C5.63147 9.98049 7.37627 9.97396 9.12112 9.98049C9.12764 9.39439 9.12112 8.80846 9.10159 8.22268C7.53807 7.70025 6.71124 6.61303 6.62112 4.96096C6.71495 3.37002 7.5092 2.30231 9.00393 1.75783C9.20299 1.70472 9.39831 1.65915 9.58987 1.62111Z" fill="#67707B"/>
</svg>
