<svg width="13" height="12" viewBox="0 0 13 12" fill="none" xmlns="http://www.w3.org/2000/svg">
<path fill-rule="evenodd" clip-rule="evenodd" d="M2.36248 0.597974C2.01327 0.248755 1.44707 0.248755 1.09785 0.597974C0.748633 0.947193 0.748633 1.51339 1.09785 1.86261L5.23415 5.9989L1.41456 9.81849C1.06534 10.1677 1.06534 10.7339 1.41456 11.0831C1.76378 11.4323 2.32997 11.4323 2.67919 11.0831L6.49878 7.26353L10.6363 11.4011C10.9855 11.7503 11.5517 11.7503 11.9009 11.4011C12.2502 11.0518 12.2502 10.4857 11.9009 10.1364L7.76341 5.9989L11.8997 1.86261C12.2489 1.51339 12.2489 0.947193 11.8997 0.597974C11.5505 0.248755 10.9843 0.248755 10.6351 0.597974L6.49878 4.73427L2.36248 0.597974Z" fill="#94959B"/>
</svg>
