<svg width="20" height="20" viewBox="0 0 20 20" fill="none" xmlns="http://www.w3.org/2000/svg">
<path fill-rule="evenodd" clip-rule="evenodd" d="M2.29206 6.46256C2.30255 5.07792 2.502 4.43843 2.84668 4.09763C3.20336 3.74496 3.88246 3.5459 5.36663 3.5459H14.625C16.1136 3.5459 16.7949 3.74503 17.1526 4.09804C17.4979 4.43876 17.6974 5.07789 17.7079 6.46256H2.29206ZM1.04163 7.08756V6.57923C1.04163 5.11992 1.21162 3.95644 1.96782 3.20875C2.72155 2.4635 3.89246 2.2959 5.36663 2.2959H14.625C16.103 2.2959 17.2758 2.46343 18.0306 3.20834C18.7883 3.9561 18.9583 5.11998 18.9583 6.57923V7.08756V13.4209C18.9583 14.8802 18.7883 16.0437 18.0321 16.7914C17.2784 17.5366 16.1075 17.7042 14.6333 17.7042H5.36736C3.89376 17.7083 2.72252 17.5435 1.96824 16.7991C1.2115 16.0523 1.04163 14.8882 1.04163 13.4292V7.08756ZM17.7083 7.71256V13.4209C17.7083 14.8866 17.5075 15.5523 17.1532 15.9025C16.7966 16.2552 16.1175 16.4542 14.6333 16.4542L5.36663 16.4542L5.36487 16.4542C3.88061 16.4584 3.20223 16.2607 2.84626 15.9094C2.49258 15.5603 2.29163 14.8952 2.29163 13.4292V7.71256H17.7083ZM4.99996 13.1292C4.65478 13.1292 4.37496 13.4091 4.37496 13.7542C4.37496 14.0994 4.65478 14.3792 4.99996 14.3792H6.66663C7.0118 14.3792 7.29163 14.0994 7.29163 13.7542C7.29163 13.4091 7.0118 13.1292 6.66663 13.1292H4.99996ZM8.12496 13.7542C8.12496 13.4091 8.40478 13.1292 8.74996 13.1292H12.0833C12.4285 13.1292 12.7083 13.4091 12.7083 13.7542C12.7083 14.0994 12.4285 14.3792 12.0833 14.3792H8.74996C8.40478 14.3792 8.12496 14.0994 8.12496 13.7542Z" fill="#9599A1"/>
</svg>
