<svg width="24" height="24" viewBox="0 0 24 24" fill="none" xmlns="http://www.w3.org/2000/svg">
<path fill-rule="evenodd" clip-rule="evenodd" d="M12 3.53852C7.32682 3.53852 3.53846 7.32688 3.53846 12.0001C3.53846 13.4001 3.87786 14.7185 4.4782 15.8798C4.53465 15.989 4.5641 16.1102 4.5641 16.2331V19.436H7.76697C7.88989 19.436 8.01102 19.4654 8.12022 19.5219C9.28153 20.1222 10.6 20.4616 12 20.4616C16.6732 20.4616 20.4615 16.6732 20.4615 12.0001C20.4615 7.32688 16.6732 3.53852 12 3.53852ZM2 12.0001C2 6.47721 6.47715 2.00006 12 2.00006C17.5228 2.00006 22 6.47721 22 12.0001C22 17.5229 17.5228 22.0001 12 22.0001C10.4162 22.0001 8.91649 21.6313 7.58388 20.9744H3.79487C3.37004 20.9744 3.02564 20.63 3.02564 20.2052V16.4162C2.36874 15.0836 2 13.5838 2 12.0001Z" fill="url(#paint0_linear_62_5944)"/>
<path d="M9.94872 12.0001C9.94872 12.5665 9.48952 13.0257 8.92308 13.0257C8.35663 13.0257 7.89744 12.5665 7.89744 12.0001C7.89744 11.4336 8.35663 10.9744 8.92308 10.9744C9.48952 10.9744 9.94872 11.4336 9.94872 12.0001Z" fill="url(#paint1_linear_62_5944)"/>
<path d="M13.0256 12.0001C13.0256 12.5665 12.5664 13.0257 12 13.0257C11.4336 13.0257 10.9744 12.5665 10.9744 12.0001C10.9744 11.4336 11.4336 10.9744 12 10.9744C12.5664 10.9744 13.0256 11.4336 13.0256 12.0001Z" fill="url(#paint2_linear_62_5944)"/>
<path d="M16.1026 12.0001C16.1026 12.5665 15.6434 13.0257 15.0769 13.0257C14.5105 13.0257 14.0513 12.5665 14.0513 12.0001C14.0513 11.4336 14.5105 10.9744 15.0769 10.9744C15.6434 10.9744 16.1026 11.4336 16.1026 12.0001Z" fill="url(#paint3_linear_62_5944)"/>
<defs>
<linearGradient id="paint0_linear_62_5944" x1="5.77778" y1="-1.77772" x2="22.1394" y2="1.89811" gradientUnits="userSpaceOnUse">
<stop stop-color="#C6A3FF"/>
<stop offset="1" stop-color="#7E8BED"/>
</linearGradient>
<linearGradient id="paint1_linear_62_5944" x1="5.77778" y1="-1.77772" x2="22.1394" y2="1.89811" gradientUnits="userSpaceOnUse">
<stop stop-color="#C6A3FF"/>
<stop offset="1" stop-color="#7E8BED"/>
</linearGradient>
<linearGradient id="paint2_linear_62_5944" x1="5.77778" y1="-1.77772" x2="22.1394" y2="1.89811" gradientUnits="userSpaceOnUse">
<stop stop-color="#C6A3FF"/>
<stop offset="1" stop-color="#7E8BED"/>
</linearGradient>
<linearGradient id="paint3_linear_62_5944" x1="5.77778" y1="-1.77772" x2="22.1394" y2="1.89811" gradientUnits="userSpaceOnUse">
<stop stop-color="#C6A3FF"/>
<stop offset="1" stop-color="#7E8BED"/>
</linearGradient>
</defs>
</svg>
