<svg width="21" height="21" viewBox="0 0 21 21" fill="none" xmlns="http://www.w3.org/2000/svg">
<path d="M10.4999 1.75C5.67851 1.75 1.74994 5.67857 1.74994 10.5C1.74994 11.8393 2.0178 13.1786 2.6428 14.3393V17.6429C2.6428 18 2.91065 18.3571 3.35708 18.3571H6.66065C7.82137 18.9821 9.16065 19.25 10.4999 19.25C15.3214 19.25 19.2499 15.3214 19.2499 10.5C19.2499 5.67857 15.3214 1.75 10.4999 1.75ZM7.82137 11.3929C7.37494 11.3929 6.92851 10.9464 6.92851 10.5C6.92851 10.0536 7.37494 9.60714 7.82137 9.60714C8.2678 9.60714 8.71423 10.0536 8.71423 10.5C8.71423 10.9464 8.2678 11.3929 7.82137 11.3929ZM10.4999 11.3929C10.0535 11.3929 9.60708 10.9464 9.60708 10.5C9.60708 10.0536 10.0535 9.60714 10.4999 9.60714C10.9464 9.60714 11.3928 10.0536 11.3928 10.5C11.3928 10.9464 10.9464 11.3929 10.4999 11.3929ZM13.1785 11.3929C12.7321 11.3929 12.2857 10.9464 12.2857 10.5C12.2857 10.0536 12.7321 9.60714 13.1785 9.60714C13.6249 9.60714 14.0714 10.0536 14.0714 10.5C14.0714 10.9464 13.6249 11.3929 13.1785 11.3929Z" fill="#67707B"/>
</svg>
