<svg width="33" height="33" viewBox="0 0 33 33" fill="none" xmlns="http://www.w3.org/2000/svg">
<circle opacity="0.1" cx="16.5" cy="16.5" r="16.5" fill="white"/>
<path fill-rule="evenodd" clip-rule="evenodd" d="M11.9527 10.893C11.6598 10.6001 11.1849 10.6001 10.892 10.893C10.5991 11.1859 10.5991 11.6608 10.892 11.9537L15.4386 16.5002L11.2304 20.7084C10.9375 21.0013 10.9375 21.4762 11.2304 21.7691C11.5233 22.0619 11.9982 22.0619 12.2911 21.7691L16.4992 17.5609L21.0459 22.1075C21.3388 22.4004 21.8136 22.4004 22.1065 22.1075C22.3994 21.8146 22.3994 21.3397 22.1065 21.0469L17.5599 16.5002L22.1065 11.9537C22.3994 11.6608 22.3994 11.1859 22.1065 10.893C21.8136 10.6001 21.3387 10.6001 21.0458 10.893L16.4992 15.4396L11.9527 10.893Z" fill="url(#paint0_linear_461_17407)"/>
<defs>
<linearGradient id="paint0_linear_461_17407" x1="10.6724" y1="16.5003" x2="41.0876" y2="16.5003" gradientUnits="userSpaceOnUse">
<stop stop-color="white"/>
<stop offset="0.850954" stop-color="white" stop-opacity="0"/>
</linearGradient>
</defs>
</svg>
