<svg width="26" height="26" viewBox="0 0 26 26" fill="none" xmlns="http://www.w3.org/2000/svg">
<circle cx="13" cy="13" r="13" fill="#2D1E1F"/>
<path fill-rule="evenodd" clip-rule="evenodd" d="M9.42429 8.57564C9.18997 8.34132 8.81007 8.34132 8.57576 8.57564C8.34145 8.80995 8.34145 9.18985 8.57576 9.42417L12.1515 12.9999L8.84236 16.309C8.60805 16.5433 8.60805 16.9232 8.84236 17.1575C9.07668 17.3918 9.45658 17.3918 9.69089 17.1575L13 13.8484L16.5758 17.4242C16.8101 17.6585 17.19 17.6585 17.4243 17.4242C17.6586 17.1899 17.6586 16.81 17.4243 16.5756L13.8485 12.9999L17.4242 9.42417C17.6585 9.18985 17.6585 8.80995 17.4242 8.57564C17.1899 8.34132 16.81 8.34132 16.5757 8.57564L13 12.1513L9.42429 8.57564Z" fill="#CC414D"/>
</svg>
