<svg width="20" height="20" viewBox="0 0 20 20" fill="none" xmlns="http://www.w3.org/2000/svg">
<path opacity="0.98" fill-rule="evenodd" clip-rule="evenodd" d="M6.66017 1.62109C8.87376 1.61458 11.0873 1.62109 13.3008 1.64063C13.6555 1.70338 13.8834 1.9052 13.9844 2.24609C14.0104 3.18359 14.0104 4.12109 13.9844 5.05859C13.8645 5.45152 13.5976 5.65336 13.1836 5.66406C11.0482 5.69012 8.91278 5.69012 6.77735 5.66406C6.38173 5.65219 6.11481 5.4634 5.97657 5.09766C5.95052 4.1341 5.95052 3.17057 5.97657 2.20703C6.09259 1.87916 6.32044 1.68385 6.66017 1.62109Z" fill="white"/>
<path opacity="0.868" fill-rule="evenodd" clip-rule="evenodd" d="M9.27734 6.11329C9.73324 6.10676 10.189 6.11329 10.6445 6.13282C10.6823 6.30473 10.6953 6.48051 10.6836 6.66016C10.2148 6.66016 9.74609 6.66016 9.27734 6.66016C9.27734 6.47786 9.27734 6.29559 9.27734 6.11329Z" fill="white"/>
<path opacity="0.986" fill-rule="evenodd" clip-rule="evenodd" d="M5.37107 7.28516C8.37892 7.27864 11.3867 7.28516 14.3945 7.30469C15.4813 7.42836 16.23 7.99477 16.6406 9.00391C17.1997 11.0059 17.7466 13.0111 18.2812 15.0195C18.4587 16.4946 17.8792 17.5428 16.5429 18.1641C14.9926 18.6029 13.8663 18.1016 13.164 16.6602C13.0778 16.3282 12.9737 16.0027 12.8515 15.6836C12.6779 15.4574 12.45 15.3337 12.1679 15.3125C10.7096 15.2865 9.25127 15.2865 7.79295 15.3125C7.43107 15.3363 7.17716 15.5121 7.03123 15.8398C6.90541 16.6061 6.56037 17.2506 5.99607 17.7734C4.79986 18.5659 3.64099 18.5138 2.51951 17.6172C1.70052 16.7827 1.44661 15.7997 1.75779 14.668C2.27254 12.7782 2.79338 10.8902 3.32029 9.00391C3.70114 8.06825 4.38474 7.49536 5.37107 7.28516ZM6.26951 9.51172C6.69423 9.44915 6.9742 9.6184 7.10935 10.0195C7.12884 10.2275 7.13537 10.4358 7.12888 10.6445C7.40931 10.6285 7.68275 10.6611 7.9492 10.7422C8.3824 11.0763 8.40845 11.4408 8.02732 11.8359C7.74142 11.958 7.44197 12.0036 7.12888 11.9727C7.13537 12.1814 7.12884 12.3897 7.10935 12.5977C6.98107 13.0167 6.70111 13.1795 6.26951 13.0859C6.06416 12.9978 5.92744 12.8481 5.85935 12.6367C5.83986 12.4157 5.83334 12.1944 5.83982 11.9727C5.52673 12.0036 5.22728 11.958 4.94138 11.8359C4.57681 11.4844 4.57681 11.1328 4.94138 10.7813C5.22787 10.6621 5.52736 10.6165 5.83982 10.6445C5.82509 10.3806 5.84463 10.1202 5.89841 9.86329C5.9924 9.71063 6.11607 9.59344 6.26951 9.51172ZM13.3008 9.51172C13.9319 9.49794 14.1858 9.79743 14.0625 10.4102C13.8723 10.749 13.5924 10.8597 13.2226 10.7422C12.8178 10.4914 12.7332 10.1593 12.9687 9.7461C13.0594 9.63301 13.1701 9.55489 13.3008 9.51172ZM12.0508 10.7617C12.6819 10.7479 12.9358 11.0474 12.8125 11.6602C12.6223 11.999 12.3424 12.1097 11.9726 11.9922C11.5678 11.7414 11.4832 11.4093 11.7187 10.9961C11.8094 10.883 11.9201 10.8049 12.0508 10.7617ZM14.5508 10.7617C15.1819 10.7479 15.4358 11.0474 15.3125 11.6602C15.1223 11.999 14.8424 12.1097 14.4726 11.9922C14.0678 11.7414 13.9832 11.4093 14.2187 10.9961C14.3094 10.883 14.4201 10.8049 14.5508 10.7617ZM13.3008 12.0117C13.931 11.9972 14.1849 12.2966 14.0625 12.9102C13.8423 13.2761 13.5363 13.3738 13.1445 13.2031C12.8074 12.9346 12.7488 12.6156 12.9687 12.2461C13.0594 12.133 13.1701 12.0549 13.3008 12.0117Z" fill="white"/>
</svg>
