<svg width="16" height="15" viewBox="0 0 16 15" fill="none" xmlns="http://www.w3.org/2000/svg">
<g clip-path="url(#clip0_200_8583)">
<path d="M8.02165 14.7442C11.94 14.7442 15.1165 11.5677 15.1165 7.64933C15.1165 3.73093 11.94 0.554443 8.02165 0.554443C4.10325 0.554443 0.926758 3.73093 0.926758 7.64933C0.926758 11.5677 4.10325 14.7442 8.02165 14.7442Z" fill="#8834FF"/>
<path d="M4.03034 9.96858C4.11504 9.96858 4.20417 9.97301 4.28886 9.96858C4.44983 9.95661 4.61124 9.92424 4.76866 9.88433C5.0791 9.79956 5.36967 9.65412 5.62359 9.45642C5.69631 9.4001 5.76859 9.33979 5.83732 9.27505C5.98233 9.13005 6.10782 8.96465 6.20848 8.78728C6.29716 8.62986 6.36146 8.46047 6.41024 8.28709C6.41423 8.27512 6.41423 8.25871 6.41822 8.24674H5.785C5.65341 8.24615 5.52227 8.23129 5.39389 8.20239C5.38231 8.19769 5.37002 8.19499 5.35753 8.19441C5.35137 8.19128 5.34581 8.18708 5.34113 8.182C5.37749 8.10174 5.40986 8.02502 5.44223 7.94432L5.68833 7.3754C5.6962 7.34823 5.70832 7.32249 5.72425 7.29913C5.74182 7.28286 5.76505 7.27411 5.78899 7.27474C5.98676 7.27075 6.1801 7.27474 6.37787 7.27474H6.43019C6.42221 7.24237 6.42221 7.21842 6.41423 7.19049C6.34279 6.91763 6.2165 6.66219 6.04308 6.43976C5.95779 6.33116 5.86472 6.2289 5.7646 6.13379C5.63937 6.01598 5.49995 5.91424 5.34955 5.83093C5.19282 5.74278 5.028 5.66987 4.85734 5.6132C4.7152 5.56866 4.56953 5.53632 4.42189 5.51653C4.30483 5.50412 4.19175 5.50013 4.07513 5.49215C4.04675 5.49215 4.01837 5.48815 3.99044 5.48416C3.98467 5.48244 3.97942 5.4793 3.97517 5.47505C3.97091 5.47079 3.96778 5.46554 3.96605 5.45978C3.9257 5.3671 3.88534 5.27841 3.84499 5.18574C3.79621 5.07665 3.75187 4.96801 3.70398 4.86292C3.66762 4.77423 3.62727 4.68998 3.58691 4.59686L3.67161 4.57247C3.84898 4.54853 4.03079 4.54054 4.21215 4.54853C4.5009 4.5582 4.78766 4.60015 5.06709 4.67357C5.24446 4.72191 5.42183 4.78221 5.59122 4.85494C5.82934 4.95559 6.05505 5.08109 6.26523 5.23008C6.35747 5.29837 6.45015 5.37109 6.53927 5.44381C6.57918 5.47618 6.61954 5.51254 6.65989 5.54846C6.86165 5.74224 7.03902 5.96396 7.18846 6.20208C7.33745 6.43976 7.44653 6.69783 7.51926 6.96833C7.5432 7.05701 7.55917 7.15013 7.57956 7.23882C7.5819 7.24562 7.58624 7.25155 7.59202 7.25583C7.5978 7.26011 7.60475 7.26252 7.61193 7.26276H8.43051C8.44691 7.19802 8.45889 7.13373 8.47086 7.06899C8.51964 6.87964 8.58393 6.69783 8.66464 6.52445C8.72894 6.37945 8.80964 6.23844 8.90232 6.1094C8.98701 5.99234 9.0757 5.87527 9.17281 5.76663C9.24412 5.68235 9.32085 5.60281 9.40251 5.52851C9.57212 5.37454 9.75576 5.23677 9.95103 5.117C10.1528 4.99196 10.3625 4.89085 10.5842 4.81059C10.7377 4.75827 10.8907 4.70993 11.0441 4.66958C11.1607 4.6412 11.2738 4.6208 11.3948 4.60484C11.4915 4.58888 11.5926 4.5809 11.6933 4.57247C11.758 4.56848 11.8183 4.56449 11.8831 4.56449C11.9797 4.56449 12.0724 4.5605 12.1651 4.56449C12.2582 4.56892 12.3509 4.58888 12.4436 4.60484C12.4475 4.60484 12.4475 4.60928 12.4555 4.61681L12.3868 4.77822C12.3145 4.94761 12.2418 5.117 12.1651 5.29039C12.1358 5.35125 12.1089 5.41323 12.0844 5.47618C12.0684 5.51609 12.0281 5.50013 12.0001 5.50811C11.9757 5.51254 11.9558 5.51254 11.9314 5.50811C11.5191 5.51212 11.1129 5.60722 10.7417 5.78658C10.568 5.87141 10.4054 5.97714 10.2574 6.10142C10.1971 6.15374 10.1288 6.20607 10.0721 6.26638C9.92664 6.41182 9.80159 6.57678 9.70094 6.75858C9.62004 6.9086 9.55523 7.06675 9.5076 7.23039C9.50316 7.24237 9.50317 7.25877 9.49917 7.27075H9.54352C9.75326 7.27075 9.96699 7.26631 10.1767 7.27075C10.3018 7.27075 10.4268 7.2907 10.5479 7.33105C10.5523 7.33549 10.5559 7.33549 10.5599 7.33948L10.4432 7.60554C10.3625 7.79488 10.2778 7.98467 10.1971 8.17801C10.1727 8.23476 10.1568 8.24674 10.092 8.24674H9.50316C9.51957 8.30305 9.53154 8.35139 9.54751 8.40016C9.60427 8.56955 9.68497 8.73052 9.78563 8.87996C9.84638 8.96864 9.91068 9.04935 9.97941 9.13005C10.0193 9.17839 10.0637 9.22672 10.108 9.26707C10.2574 9.41207 10.4273 9.53756 10.6082 9.63822C10.7616 9.72691 10.927 9.79963 11.0964 9.8555C11.2578 9.91226 11.4272 9.94862 11.6006 9.96459L11.919 9.98898C11.9593 9.99341 11.9997 9.99341 12.04 9.99696C12.048 10.0014 12.0564 10.0049 12.0604 10.0134C12.1287 10.1743 12.1974 10.3357 12.2702 10.4971L12.4431 10.8922C12.3868 10.9047 12.3345 10.9166 12.2782 10.9206C12.1407 10.9286 11.9997 10.9366 11.8627 10.9366C11.7376 10.9366 11.6126 10.9246 11.4915 10.9087C11.3238 10.885 11.157 10.8554 10.9913 10.82C10.7928 10.7712 10.5985 10.7064 10.4104 10.6262C10.1865 10.5303 9.97306 10.4114 9.77366 10.2714C9.66973 10.1944 9.56757 10.115 9.46725 10.0333C9.40149 9.97976 9.33942 9.92184 9.28145 9.85994C9.02672 9.60083 8.81691 9.30111 8.66065 8.97308C8.56927 8.77878 8.50154 8.57423 8.45889 8.3638C8.4509 8.34341 8.44691 8.31946 8.44248 8.29906C8.44248 8.25915 8.42252 8.25073 8.38616 8.25073H7.57158C7.53103 8.46971 7.46603 8.68345 7.3778 8.88794C7.30627 9.06149 7.2157 9.22657 7.10775 9.38015C7.02334 9.49883 6.93306 9.61322 6.83726 9.72292C6.76828 9.80663 6.69282 9.88476 6.61155 9.95661C6.48651 10.0657 6.35348 10.1663 6.22045 10.267C6.06046 10.3807 5.89035 10.4794 5.71228 10.5619C5.38077 10.7195 5.02711 10.8255 4.66356 10.8763C4.53852 10.8962 4.41347 10.9087 4.28886 10.9206C4.21768 10.9247 4.14632 10.9247 4.07513 10.9206C3.97004 10.9206 3.86539 10.9162 3.76473 10.9126C3.72793 10.9082 3.69156 10.9047 3.65565 10.8962C3.63525 10.8922 3.62727 10.8843 3.63924 10.8603C3.71994 10.6745 3.80464 10.4892 3.88534 10.3034C3.93412 10.1907 3.97846 10.0861 4.03034 9.96902V9.96858Z" fill="white"/>
</g>
<defs>
<clipPath id="clip0_200_8583">
<rect width="14.1898" height="14.1898" fill="white" transform="translate(0.926758 0.554443)"/>
</clipPath>
</defs>
</svg>
