<svg width="150" height="175" viewBox="0 0 150 175" fill="none" xmlns="http://www.w3.org/2000/svg">
<rect width="150" height="175" rx="14" fill="#111320" fill-opacity="0.81"/>
<g opacity="0.84" filter="url(#filter0_f_184_7899)">
<circle cx="75.5" cy="74.5" r="27.5" fill="url(#paint0_linear_184_7899)"/>
</g>
<circle opacity="0.5" cx="75.5" cy="74.5" r="29.5" fill="url(#paint1_linear_184_7899)"/>
<circle cx="75.5" cy="74.5" r="27.5" fill="url(#paint2_linear_184_7899)"/>
<path d="M83.0184 73.2355C83.9426 73.8252 83.9426 75.1748 83.0184 75.7645L73.0569 82.1212C72.0584 82.7583 70.75 82.0412 70.75 80.8567V68.1433C70.75 66.9588 72.0584 66.2417 73.0569 66.8788L83.0184 73.2355Z" fill="white"/>
<path d="M50.52 126H52.08V122.796H53.808C55.44 122.796 56.736 121.956 56.736 120.216C56.736 118.656 55.572 117.696 53.856 117.696H50.52V126ZM52.08 118.956H53.688C54.516 118.956 55.164 119.34 55.164 120.252C55.164 121.14 54.576 121.536 53.64 121.536H52.08V118.956ZM59.386 126V117.228H57.898V126H59.386ZM65.9006 121.776C65.9006 120.336 65.0246 119.7 63.4166 119.688C61.5806 119.676 60.9446 120.6 60.8606 121.608H62.2886C62.3726 121.152 62.5406 120.78 63.3566 120.78C64.2806 120.78 64.4366 121.284 64.4366 121.764V122.184H63.5006C61.6886 122.184 60.5726 122.832 60.5726 124.224C60.5726 125.172 61.1966 126.144 62.6726 126.144C63.8006 126.144 64.2446 125.7 64.4606 125.328C64.4726 125.556 64.5086 125.868 64.5566 126H65.9846C65.9486 125.844 65.9006 125.064 65.9006 124.488V121.776ZM64.4486 123.3C64.4486 124.212 64.2926 125.052 63.0686 125.052C62.4086 125.052 62.0726 124.644 62.0726 124.14C62.0726 123.444 62.5526 123.12 63.6446 123.12H64.4486V123.3ZM66.7285 119.832L68.9965 126.204C68.7205 127.008 68.4085 127.26 67.7365 127.26C67.5805 127.26 67.4005 127.248 67.2685 127.236V128.46C67.5445 128.496 67.8565 128.508 68.0245 128.508C69.4285 128.508 69.9085 128.004 70.5085 126.216L72.6325 119.832H71.1445C70.3165 122.604 69.9325 123.996 69.7765 124.644H69.7645C69.6445 124.044 69.0925 122.244 68.3245 119.832H66.7285ZM78.128 126V123.204C78.128 121.704 78.116 120.108 78.056 119.304H78.068C78.524 120.252 80.84 124.32 81.812 126H83.66V117.696H82.232V120.432C82.232 121.788 82.232 123.18 82.316 124.116H82.304C81.896 123.216 79.748 119.592 78.656 117.696H76.688V126H78.128ZM88.0422 119.688C86.1222 119.688 85.0062 121.056 85.0062 122.928C85.0062 124.776 86.0982 126.144 87.9702 126.144C89.9022 126.144 90.9822 124.74 90.9822 122.904C90.9822 120.972 89.8302 119.688 88.0422 119.688ZM87.9822 120.876C88.9422 120.876 89.4582 121.596 89.4582 122.928C89.4582 124.176 88.9422 124.956 88.0062 124.956C87.0822 124.956 86.5182 124.164 86.5182 122.916C86.5182 121.572 87.0702 120.876 87.9822 120.876ZM91.5877 119.832L93.3517 126H94.9597C95.5597 123.708 95.9677 122.148 96.0757 121.404H96.0877C96.2197 122.172 96.6157 123.696 97.1557 126H98.7517L100.612 119.832H99.1237C98.3197 123.012 98.1157 123.936 97.9717 124.584H97.9597C97.8757 123.948 97.6357 123.024 96.8557 119.832H95.4517C94.6477 122.856 94.3837 124.008 94.2637 124.656H94.2517C94.1317 123.936 93.7837 122.448 93.1597 119.832H91.5877Z" fill="url(#paint3_linear_184_7899)"/>
<defs>
<filter id="filter0_f_184_7899" x="16" y="15" width="119" height="119" filterUnits="userSpaceOnUse" color-interpolation-filters="sRGB">
<feFlood flood-opacity="0" result="BackgroundImageFix"/>
<feBlend mode="normal" in="SourceGraphic" in2="BackgroundImageFix" result="shape"/>
<feGaussianBlur stdDeviation="16" result="effect1_foregroundBlur_184_7899"/>
</filter>
<linearGradient id="paint0_linear_184_7899" x1="75.5" y1="47" x2="112.175" y2="61.9203" gradientUnits="userSpaceOnUse">
<stop stop-color="#7E2CFF"/>
<stop offset="0.0001" stop-color="#7E2CFF"/>
<stop offset="1" stop-color="#596BF7"/>
</linearGradient>
<linearGradient id="paint1_linear_184_7899" x1="75.5" y1="45" x2="114.842" y2="61.0054" gradientUnits="userSpaceOnUse">
<stop stop-color="#7E2CFF"/>
<stop offset="0.0001" stop-color="#7E2CFF"/>
<stop offset="1" stop-color="#596BF7"/>
</linearGradient>
<linearGradient id="paint2_linear_184_7899" x1="75.5" y1="47" x2="112.175" y2="61.9203" gradientUnits="userSpaceOnUse">
<stop stop-color="#7E2CFF"/>
<stop offset="0.0001" stop-color="#7E2CFF"/>
<stop offset="1" stop-color="#596BF7"/>
</linearGradient>
<linearGradient id="paint3_linear_184_7899" x1="59.3222" y1="113.733" x2="82.265" y2="136.069" gradientUnits="userSpaceOnUse">
<stop stop-color="#C6A3FF"/>
<stop offset="1" stop-color="#7E8BED"/>
</linearGradient>
</defs>
</svg>
