<svg width="20" height="20" viewBox="0 0 20 20" fill="none" xmlns="http://www.w3.org/2000/svg">
<g clip-path="url(#clip0_1118_58827)">
<path opacity="0.934" fill-rule="evenodd" clip-rule="evenodd" d="M9.08203 -0.0195312C9.68098 -0.0195312 10.28 -0.0195312 10.8789 -0.0195312C11.2393 0.0292667 11.6039 0.0878605 11.9727 0.15625C11.3212 0.547148 10.6571 0.918242 9.98047 1.26953C9.30379 0.918242 8.63973 0.547148 7.98828 0.15625C8.35703 0.0878605 8.7216 0.0292667 9.08203 -0.0195312Z" fill="#69727D"/>
<path opacity="0.988" fill-rule="evenodd" clip-rule="evenodd" d="M6.38672 0.605469C7.38664 1.11848 8.37621 1.65234 9.35547 2.20703C9.40105 3.46985 9.40754 4.73289 9.375 5.99609C8.25746 6.81828 7.13117 7.62555 5.99609 8.41797C5.06699 7.97297 4.14254 7.51723 3.22266 7.05078C2.93321 5.87344 2.64675 4.69504 2.36328 3.51562C3.17466 2.5348 4.1382 1.74054 5.25391 1.13281C5.63387 0.952398 6.01145 0.776617 6.38672 0.605469Z" fill="#69727D"/>
<path opacity="0.988" fill-rule="evenodd" clip-rule="evenodd" d="M13.4959 0.605469C15.1292 1.204 16.4964 2.17405 17.5975 3.51562C17.314 4.69504 17.0276 5.87344 16.7381 7.05078C15.8182 7.51723 14.8938 7.97297 13.9647 8.41797C12.8296 7.62555 11.7033 6.81828 10.5858 5.99609C10.5532 4.73289 10.5597 3.46985 10.6053 2.20703C11.5839 1.69191 12.5474 1.15805 13.4959 0.605469Z" fill="#69727D"/>
<path opacity="0.94" fill-rule="evenodd" clip-rule="evenodd" d="M1.42578 4.70703C1.48168 4.72191 1.51424 4.76098 1.52344 4.82422C1.70004 5.60875 1.88884 6.39 2.08984 7.16797C1.44743 7.69129 0.796387 8.20559 0.136719 8.71094C0.0976562 8.73699 0.0585938 8.73699 0.0195312 8.71094C0.228596 7.28285 0.697344 5.9482 1.42578 4.70703Z" fill="#69727D"/>
<path opacity="0.939" fill-rule="evenodd" clip-rule="evenodd" d="M18.457 4.70702C18.4912 4.7019 18.5173 4.71491 18.5352 4.74608C19.2714 5.97182 19.7402 7.29342 19.9414 8.71092C19.9023 8.73698 19.8633 8.73698 19.8242 8.71092C19.1645 8.20557 18.5135 7.69127 17.8711 7.16795C18.0814 6.35096 18.2767 5.53065 18.457 4.70702Z" fill="#69727D"/>
<path opacity="0.983" fill-rule="evenodd" clip-rule="evenodd" d="M9.90234 6.97266C9.95598 6.96653 10.0081 6.97305 10.0586 6.99219C11.0022 7.69184 11.9527 8.38195 12.9102 9.0625C13.0341 9.14086 13.1382 9.23852 13.2227 9.35547C12.8109 10.6168 12.4072 11.8798 12.0117 13.1445C10.6575 13.1445 9.3034 13.1445 7.94922 13.1445C7.55371 11.8798 7.15004 10.6168 6.73828 9.35547C6.7791 9.28887 6.83117 9.23027 6.89453 9.17969C7.91367 8.46227 8.91625 7.7266 9.90234 6.97266Z" fill="#69727D"/>
<path opacity="0.985" fill-rule="evenodd" clip-rule="evenodd" d="M-0.0195312 10.8789C-0.0195312 10.6575 -0.0195312 10.4362 -0.0195312 10.2149C0.896758 9.52665 1.80821 8.83005 2.71484 8.12501C2.76693 8.09896 2.81901 8.09896 2.87109 8.12501C3.76953 8.57423 4.66797 9.02345 5.56641 9.47267C6.02973 10.8366 6.48547 12.2038 6.93359 13.5742C6.39406 14.2375 5.84719 14.895 5.29297 15.5469C4.00437 15.444 2.71532 15.3268 1.42578 15.1953C0.619152 13.8627 0.13738 12.4239 -0.0195312 10.8789Z" fill="#69727D"/>
<path opacity="0.985" fill-rule="evenodd" clip-rule="evenodd" d="M19.9805 10.2149C19.9805 10.4362 19.9805 10.6575 19.9805 10.8789C19.8236 12.4239 19.3418 13.8627 18.5352 15.1953C17.2461 15.3315 15.957 15.4486 14.668 15.5469C14.1137 14.895 13.5669 14.2375 13.0273 13.5742C13.4727 12.2186 13.9219 10.8645 14.375 9.51173C15.2708 9.0345 16.1757 8.57228 17.0898 8.12501C17.1419 8.09896 17.194 8.09896 17.2461 8.12501C18.1527 8.83005 19.0642 9.52665 19.9805 10.2149Z" fill="#69727D"/>
<path opacity="0.987" fill-rule="evenodd" clip-rule="evenodd" d="M10.8789 19.9805C10.28 19.9805 9.68098 19.9805 9.08203 19.9805C8.30023 19.8969 7.53199 19.7277 6.77734 19.4727C6.55332 18.4241 6.33195 17.3759 6.11328 16.3281C6.66387 15.6438 7.22375 14.9668 7.79297 14.2969C9.25129 14.2708 10.7096 14.2708 12.168 14.2969C12.7431 14.963 13.303 15.6401 13.8477 16.3281C13.6385 17.3807 13.4171 18.4288 13.1836 19.4727C12.4289 19.7277 11.6607 19.8969 10.8789 19.9805Z" fill="#69727D"/>
<path opacity="0.943" fill-rule="evenodd" clip-rule="evenodd" d="M2.32422 16.4648C2.34753 16.4399 2.38009 16.4269 2.42188 16.4258C3.29928 16.5215 4.1782 16.5996 5.05859 16.6602C5.19426 17.397 5.33746 18.1327 5.48828 18.8672C5.47527 18.8867 5.46223 18.9062 5.44922 18.9258C4.24785 18.3106 3.20619 17.4903 2.32422 16.4648Z" fill="#69727D"/>
<path opacity="0.942" fill-rule="evenodd" clip-rule="evenodd" d="M17.4414 16.4258C17.5078 16.4195 17.5729 16.426 17.6367 16.4453C16.76 17.4853 15.7183 18.3122 14.5117 18.9258C14.4987 18.9128 14.4857 18.8997 14.4727 18.8867C14.6309 18.1474 14.7742 17.4052 14.9023 16.6602C15.7565 16.605 16.6029 16.5269 17.4414 16.4258Z" fill="#69727D"/>
</g>
<defs>
<clipPath id="clip0_1118_58827">
<rect width="20" height="20" fill="white"/>
</clipPath>
</defs>
</svg>
