<svg width="20" height="20" viewBox="0 0 20 20" fill="none" xmlns="http://www.w3.org/2000/svg">
<g clip-path="url(#clip0_1118_58830)">
<path opacity="0.984" fill-rule="evenodd" clip-rule="evenodd" d="M14.1996 -0.0195312C14.8246 -0.0195312 15.4496 -0.0195312 16.0746 -0.0195312C16.9891 0.030095 17.8615 0.25796 18.6918 0.664062C19.0757 0.917871 19.3427 1.26293 19.4926 1.69922C19.6967 2.2553 19.8269 2.82822 19.8832 3.41797C20.0268 5.11875 19.8967 6.79844 19.4926 8.45703C19.4085 8.53297 19.3108 8.5525 19.1996 8.51562C16.577 5.93207 13.9663 3.33441 11.3676 0.722656C11.3137 0.567363 11.3593 0.456688 11.5043 0.390625C12.3992 0.192651 13.2977 0.0559324 14.1996 -0.0195312Z" fill="#69727D"/>
<path opacity="0.986" fill-rule="evenodd" clip-rule="evenodd" d="M9.7461 0.878918C9.81247 0.87266 9.87758 0.879171 9.94141 0.898449C12.9677 3.88566 15.982 6.88696 18.9844 9.90236C18.9909 9.94794 18.9974 9.99349 19.0039 10.0391C17.6674 14.0318 15.0763 16.8833 11.2305 18.5938C10.7383 18.8056 10.237 18.9944 9.72657 19.1602C9.67872 19.146 9.63317 19.1265 9.58985 19.1016C6.65473 16.2055 3.73155 13.2954 0.820319 10.3711C0.819569 10.06 0.884674 9.76052 1.01563 9.47267C2.3711 5.78657 4.82551 3.11078 8.37891 1.44532C8.83813 1.25446 9.29383 1.06566 9.7461 0.878918ZM11.6211 5.80079C11.8016 5.78099 11.9709 5.81353 12.1289 5.89845C12.2834 6.07946 12.4592 6.22923 12.6563 6.34767C12.7198 6.34278 12.7784 6.32325 12.832 6.28907C12.9791 6.08552 13.1744 5.96185 13.418 5.91798C13.8938 6.02302 14.0565 6.30946 13.9063 6.77736C13.7393 6.89794 13.6286 7.05419 13.5742 7.24611C13.5807 7.28517 13.5872 7.32423 13.5938 7.36329C13.7644 7.52083 13.9206 7.69009 14.0625 7.87111C14.1827 8.32056 14.0134 8.594 13.5547 8.69142C13.2468 8.59888 12.9929 8.4231 12.793 8.16407C12.7018 8.08595 12.6107 8.08595 12.5195 8.16407C12.3295 8.31443 12.1863 8.49669 12.0898 8.71095C12.0964 8.74349 12.1029 8.77607 12.1094 8.80861C12.28 8.96614 12.4363 9.1354 12.5781 9.31642C12.703 9.62712 12.6314 9.88103 12.3633 10.0781C12.1254 10.1747 11.904 10.1486 11.6992 10C11.569 9.86982 11.4388 9.73958 11.3086 9.60939C11.2121 9.58181 11.1209 9.59482 11.0352 9.64845C10.9115 9.77216 10.7878 9.89583 10.6641 10.0195C10.6085 10.1184 10.5955 10.2226 10.625 10.332C10.8105 10.4913 10.9668 10.6736 11.0938 10.8789C11.1769 11.4078 10.9491 11.6487 10.4102 11.6016C10.3581 11.5755 10.306 11.5495 10.2539 11.5234C10.0775 11.3406 9.89528 11.1648 9.70704 10.9961C9.45965 11.1845 9.26434 11.4123 9.1211 11.6797C9.22641 11.8636 9.36313 12.0264 9.53126 12.168C9.77079 12.5822 9.67313 12.8882 9.23829 13.0859C9.03411 13.1134 8.8518 13.0613 8.69141 12.9297C8.56274 12.7745 8.41301 12.6508 8.24219 12.5586C8.04118 12.6418 7.87192 12.772 7.73438 12.9492C7.65626 13.0534 7.65626 13.1575 7.73438 13.2617C7.91989 13.421 8.07614 13.6033 8.20313 13.8086C8.29173 14.1588 8.16801 14.3997 7.83204 14.5313C7.45637 14.5477 7.16993 14.3915 6.97266 14.0625C6.91903 14.0283 6.86044 14.0088 6.79688 14.0039C6.63059 14.1129 6.44829 14.1911 6.25001 14.2383C5.78985 14.1431 5.62059 13.8696 5.74219 13.418C5.82575 13.3279 5.88434 13.2237 5.91798 13.1055C5.9093 13.0447 5.88325 12.9926 5.83985 12.9492C5.57321 12.7667 5.41696 12.5193 5.3711 12.207C5.42391 11.8224 5.64528 11.6467 6.03516 11.6797C6.27657 11.8035 6.48493 11.9728 6.66016 12.1875C6.70962 12.1996 6.7552 12.2191 6.79688 12.2461C7.03727 12.1099 7.22606 11.9211 7.36329 11.6797C7.18805 11.4523 7.01227 11.2244 6.83594 10.9961C6.72579 10.4682 6.94063 10.2143 7.48048 10.2344C7.72188 10.3582 7.93024 10.5275 8.10548 10.7422C8.19411 10.8095 8.28528 10.8095 8.37891 10.7422C8.562 10.5924 8.70524 10.4166 8.8086 10.2149C8.80559 10.1446 8.78606 10.0795 8.75001 10.0195C8.5645 9.86025 8.40825 9.67794 8.28126 9.47267C8.2229 8.98431 8.43774 8.74341 8.92579 8.75001C9.16719 8.8738 9.37555 9.0431 9.55079 9.25782C9.65497 9.33595 9.75911 9.33595 9.86329 9.25782C10.0493 9.0981 10.2056 8.91579 10.332 8.71095C10.1568 8.48353 9.98102 8.25564 9.80469 8.02736C9.70403 7.70833 9.80169 7.46743 10.0977 7.3047C10.305 7.22364 10.5003 7.24966 10.6836 7.38282C10.8369 7.56239 11.0127 7.71212 11.2109 7.83204C11.4027 7.71868 11.572 7.57544 11.7188 7.40236C11.7724 7.31661 11.7854 7.22544 11.7578 7.12892C11.6406 7.01173 11.5234 6.89454 11.4063 6.77736C11.1274 6.37118 11.199 6.04568 11.6211 5.80079Z" fill="#69727D"/>
<path opacity="0.982" fill-rule="evenodd" clip-rule="evenodd" d="M5.6838 19.9805C5.0588 19.9805 4.4338 19.9805 3.8088 19.9805C3.01285 19.924 2.24462 19.7352 1.50411 19.4141C1.02401 19.1773 0.691979 18.8062 0.508014 18.3008C0.145713 17.2581 -0.0170471 16.1839 0.0197331 15.0781C0.019557 13.9923 0.130234 12.9181 0.351764 11.8555C0.435862 11.7795 0.533518 11.76 0.644733 11.7969C3.16319 14.2763 5.66969 16.7698 8.16427 19.2774C8.25376 19.4076 8.23423 19.5183 8.10567 19.6094C7.29907 19.7757 6.49177 19.8994 5.6838 19.9805Z" fill="#69727D"/>
</g>
<defs>
<clipPath id="clip0_1118_58830">
<rect width="20" height="20" fill="white"/>
</clipPath>
</defs>
</svg>
