<svg width="36" height="36" viewBox="0 0 36 36" fill="none" xmlns="http://www.w3.org/2000/svg">
<circle cx="18" cy="18" r="18" fill="#21252C"/>
<g clip-path="url(#clip0_525_18410)">
<path opacity="0.996" fill-rule="evenodd" clip-rule="evenodd" d="M26.9823 15.9082C26.9823 16.084 26.9823 16.2598 26.9823 16.4356C26.8595 16.72 26.672 16.9602 26.4198 17.1563C25.1965 18.2037 23.9836 19.2643 22.7811 20.3379C23.1559 22.1068 23.5368 23.8764 23.9237 25.6465C23.891 26.2593 23.5688 26.5874 22.9569 26.6309C22.7782 26.6258 22.6083 26.5848 22.4471 26.5078C20.9691 25.6048 19.4809 24.72 17.9823 23.8535C16.4603 24.7318 14.9486 25.6283 13.4471 26.543C12.9449 26.7387 12.5289 26.6273 12.1991 26.209C12.0526 25.9702 12.0058 25.7124 12.0585 25.4356C12.4564 23.7388 12.8314 22.0396 13.1835 20.3379C11.8245 19.1547 10.4768 17.9594 9.1405 16.752C9.08408 16.6574 9.03135 16.5636 8.9823 16.4707C8.9823 16.2832 8.9823 16.0957 8.9823 15.9082C9.11542 15.5234 9.38495 15.2949 9.79089 15.2227C11.5376 15.065 13.2837 14.9009 15.0292 14.7305C15.7427 13.0866 16.4517 11.4401 17.1561 9.79105C17.5246 9.34504 17.9757 9.24543 18.5096 9.49222C18.6327 9.56839 18.7323 9.668 18.8085 9.79105C19.5129 11.4401 20.2219 13.0866 20.9354 14.7305C22.7414 14.8957 24.5461 15.0715 26.3495 15.2578C26.6639 15.3788 26.8748 15.5956 26.9823 15.9082Z" fill="#8C8D93"/>
</g>
<defs>
<clipPath id="clip0_525_18410">
<rect width="18" height="18" fill="white" transform="translate(9 9)"/>
</clipPath>
</defs>
</svg>
