<svg width="20" height="20" viewBox="0 0 20 20" fill="none" xmlns="http://www.w3.org/2000/svg">
<g clip-path="url(#clip0_184_9486)">
<path opacity="0.983" fill-rule="evenodd" clip-rule="evenodd" d="M15.1758 -0.0195312C16.6602 -0.0195312 18.1445 -0.0195312 19.6289 -0.0195312C19.687 0.0313887 19.7521 0.0769617 19.8242 0.117188C19.871 0.195911 19.923 0.267526 19.9805 0.332031C19.9805 1.81641 19.9805 3.30078 19.9805 4.78516C19.9266 4.89789 19.8485 4.99555 19.7461 5.07812C16.705 7.73516 13.6581 10.3849 10.6055 13.0273C10.5729 12.2725 10.5534 11.5173 10.5469 10.7617C10.5007 10.6158 10.4616 10.4725 10.4297 10.332C12.513 8.24871 14.5964 6.16535 16.6797 4.08203C16.8814 3.77553 16.8489 3.49559 16.582 3.24219C16.3393 3.10652 16.105 3.11954 15.8789 3.28125C13.7956 5.36457 11.7122 7.44793 9.62891 9.53125C9.48992 9.49387 9.34668 9.4548 9.19922 9.41406C8.44367 9.40754 7.68848 9.38801 6.93359 9.35547C9.57605 6.30281 12.2258 3.25595 14.8828 0.214844C14.9654 0.11247 15.063 0.0343446 15.1758 -0.0195312Z" fill="white"/>
<path opacity="0.989" fill-rule="evenodd" clip-rule="evenodd" d="M3.30078 19.9805C2.3112 19.9805 1.32161 19.9805 0.332031 19.9805C0.273948 19.9295 0.208844 19.884 0.136719 19.8438C0.0899773 19.7651 0.0378939 19.6934 -0.0195312 19.6289C-0.0195312 18.6394 -0.0195312 17.6497 -0.0195312 16.6602C0.0710738 16.4594 0.227324 16.3357 0.449219 16.2891C0.839625 16.2695 1.23025 16.2631 1.62109 16.2695C1.55696 16.0534 1.5765 15.8451 1.67969 15.6445C2.44846 14.8823 3.21018 14.1141 3.96484 13.3399C3.52269 12.8782 3.07347 12.4224 2.61719 11.9727C2.47794 11.7551 2.44539 11.5207 2.51953 11.2695C2.10266 11.2761 1.686 11.2695 1.26953 11.25C1.10052 11.1886 0.976828 11.0779 0.898438 10.918C0.834469 9.95689 0.821449 8.99338 0.859375 8.02736C0.927441 7.81603 1.06416 7.66627 1.26953 7.57814C2.26156 7.54017 3.25114 7.55322 4.23828 7.61721C4.37727 7.69111 4.47492 7.80178 4.53125 7.94924C4.53781 8.37951 4.55734 8.8092 4.58984 9.2383C4.7866 9.18455 4.98191 9.19103 5.17578 9.25783C5.59246 9.67451 6.0091 10.0912 6.42578 10.5078C7.33969 10.509 8.25117 10.5351 9.16016 10.586C9.27586 10.6753 9.36051 10.786 9.41406 10.918C9.42707 11.7904 9.44012 12.6628 9.45312 13.5352C9.8698 13.9519 10.2864 14.3685 10.7031 14.7852C10.7699 14.979 10.7764 15.1744 10.7227 15.3711C11.1518 15.4036 11.5814 15.4231 12.0117 15.4297C12.1592 15.486 12.2698 15.5837 12.3438 15.7227C12.4077 16.7098 12.4208 17.6994 12.3828 18.6914C12.2947 18.8968 12.1449 19.0335 11.9336 19.1016C10.9676 19.1395 10.0041 19.1265 9.04297 19.0625C8.88309 18.9841 8.77238 18.8604 8.71094 18.6914C8.69141 18.275 8.68488 17.8583 8.69141 17.4414C8.44027 17.5156 8.2059 17.483 7.98828 17.3438C7.53852 16.8875 7.08277 16.4383 6.62109 15.9961C5.84688 16.7508 5.07867 17.5125 4.31641 18.2813C4.1159 18.3845 3.90754 18.404 3.69141 18.3399C3.69791 18.7307 3.6914 19.1213 3.67188 19.5117C3.62525 19.7337 3.50155 19.8899 3.30078 19.9805Z" fill="white"/>
</g>
<defs>
<clipPath id="clip0_184_9486">
<rect width="20" height="20" fill="white"/>
</clipPath>
</defs>
</svg>
