<svg width="16" height="17" viewBox="0 0 16 17" fill="none" xmlns="http://www.w3.org/2000/svg">
<path fill-rule="evenodd" clip-rule="evenodd" d="M6.35332 2.18659C6.05332 3.06659 5.83999 3.97992 5.67332 4.89325C7.21999 4.71992 8.77999 4.71992 10.3267 4.89325C10.16 3.97992 9.94665 3.07325 9.64665 2.18659C9.63745 2.14976 9.6346 2.1193 9.63152 2.08641L9.63152 2.08639C9.63014 2.07165 9.62872 2.05642 9.62665 2.03992C9.10665 1.91325 8.55999 1.83325 7.99999 1.83325C7.43332 1.83325 6.89332 1.91325 6.36665 2.03992C6.364 2.06113 6.36346 2.08023 6.36293 2.0989V2.0989C6.36212 2.12718 6.36135 2.15446 6.35332 2.18659ZM11.4666 5.03325C12.3266 5.17992 13.1733 5.38658 14.0133 5.63992C13.3533 4.25992 12.24 3.14658 10.86 2.48658C11.12 3.31992 11.3266 4.17325 11.4666 5.03325ZM5.09998 14.4399C5.08998 14.4399 5.07831 14.4432 5.06664 14.4466C5.05498 14.4499 5.04331 14.4532 5.03331 14.4532C3.73998 13.8132 2.68664 12.7533 2.03998 11.4599C2.03998 11.4499 2.04331 11.4383 2.04664 11.4266C2.04998 11.4149 2.05331 11.4032 2.05331 11.3932C2.86664 11.6332 3.70664 11.8132 4.53998 11.9532C4.68664 12.7933 4.85998 13.6266 5.09998 14.4399ZM13.96 11.4666C13.3 12.7933 12.2 13.8666 10.86 14.5133C11.1133 13.6666 11.3266 12.8132 11.4666 11.9532C12.3066 11.8132 13.1333 11.6332 13.9466 11.3932C13.9426 11.4093 13.9483 11.4253 13.9534 11.4399C13.9568 11.4496 13.96 11.4586 13.96 11.4666ZM5.09997 2.55992C4.85997 3.37325 4.68663 4.19992 4.54663 5.03992C3.68663 5.17325 2.8333 5.38658 1.98663 5.63992C2.6333 4.29992 3.70663 3.19992 5.0333 2.53992C5.0433 2.53992 5.05497 2.54492 5.06663 2.54992C5.0783 2.55492 5.08997 2.55992 5.09997 2.55992ZM14.6666 8.49991C14.6666 9.06658 14.5866 9.60658 14.46 10.1332C14.4388 10.1359 14.4197 10.1364 14.401 10.137C14.3727 10.1378 14.3454 10.1386 14.3133 10.1466C13.4266 10.4399 12.52 10.6599 11.6066 10.8266C11.78 9.27991 11.78 7.71991 11.6066 6.17325C12.52 6.33992 13.4333 6.55325 14.3133 6.85325C14.3666 6.86658 14.4066 6.87325 14.46 6.87325C14.5866 7.39992 14.6666 7.93991 14.6666 8.49991ZM9.64665 14.8133C9.94665 13.9333 10.16 13.0266 10.3267 12.1066C9.55999 12.1933 8.77999 12.2533 7.99999 12.2533C7.21999 12.2533 6.44665 12.1933 5.67332 12.1066C5.83999 13.0266 6.05999 13.9266 6.35332 14.8133C6.36135 14.8454 6.36212 14.8727 6.36293 14.9009C6.36346 14.9196 6.364 14.9387 6.36665 14.9599C6.89332 15.0866 7.43332 15.1666 7.99999 15.1666C8.55999 15.1666 9.10665 15.0866 9.62665 14.9599C9.62872 14.9434 9.63014 14.9282 9.63152 14.9134L9.63152 14.9134C9.6346 14.8805 9.63745 14.8501 9.64665 14.8133ZM10.5089 11.0088C8.84147 11.2192 7.15849 11.2192 5.49109 11.0088C5.28072 9.34141 5.28072 7.65843 5.49109 5.99103C7.15849 5.78066 8.84147 5.78066 10.5089 5.99103C10.7192 7.65843 10.7192 9.34141 10.5089 11.0088ZM1.68665 10.1466C2.56665 10.4466 3.47331 10.6599 4.39331 10.8266C4.22665 9.27991 4.22665 7.71991 4.39331 6.17325C3.47331 6.33992 2.57331 6.55991 1.68665 6.85325C1.64982 6.86245 1.61936 6.8653 1.58647 6.86838C1.57172 6.86976 1.55649 6.87118 1.53998 6.87325C1.41331 7.39325 1.33331 7.93991 1.33331 8.49991C1.33331 9.06658 1.41331 9.60658 1.53998 10.1332C1.56119 10.1359 1.58029 10.1364 1.59896 10.137C1.62724 10.1378 1.65452 10.1386 1.68665 10.1466Z" fill="#676F7F"/>
</svg>
