<svg width="20" height="20" viewBox="0 0 20 20" fill="none" xmlns="http://www.w3.org/2000/svg">
<path d="M6.37505 17.425C6.35005 17.425 6.31672 17.4417 6.29172 17.4417C4.67505 16.6417 3.35838 15.3167 2.55005 13.7C2.55005 13.675 2.56672 13.6417 2.56672 13.6167C3.58338 13.9167 4.63338 14.1417 5.67505 14.3167C5.85838 15.3667 6.07505 16.4084 6.37505 17.425Z" fill="white"/>
<path d="M6.37505 17.425C6.35005 17.425 6.31672 17.4417 6.29172 17.4417C4.67505 16.6417 3.35838 15.3167 2.55005 13.7C2.55005 13.675 2.56672 13.6417 2.56672 13.6167C3.58338 13.9167 4.63338 14.1417 5.67505 14.3167C5.85838 15.3667 6.07505 16.4084 6.37505 17.425Z" fill="url(#paint0_linear_184_9210)"/>
<path d="M17.45 13.7084C16.625 15.3667 15.25 16.7084 13.575 17.5167C13.8916 16.4584 14.1583 15.3917 14.3333 14.3167C15.3833 14.1417 16.4166 13.9167 17.4333 13.6167C17.425 13.65 17.45 13.6834 17.45 13.7084Z" fill="white"/>
<path d="M17.45 13.7084C16.625 15.3667 15.25 16.7084 13.575 17.5167C13.8916 16.4584 14.1583 15.3917 14.3333 14.3167C15.3833 14.1417 16.4166 13.9167 17.4333 13.6167C17.425 13.65 17.45 13.6834 17.45 13.7084Z" fill="url(#paint1_linear_184_9210)"/>
<path d="M17.5166 6.42494C16.4666 6.10828 15.4083 5.84994 14.3333 5.66661C14.1583 4.59161 13.9 3.52494 13.575 2.48328C15.3 3.30828 16.6916 4.69994 17.5166 6.42494Z" fill="white"/>
<path d="M17.5166 6.42494C16.4666 6.10828 15.4083 5.84994 14.3333 5.66661C14.1583 4.59161 13.9 3.52494 13.575 2.48328C15.3 3.30828 16.6916 4.69994 17.5166 6.42494Z" fill="url(#paint2_linear_184_9210)"/>
<path d="M6.37507 2.57505C6.07507 3.59172 5.8584 4.62505 5.6834 5.67505C4.6084 5.84172 3.54173 6.10838 2.4834 6.42505C3.29173 4.75005 4.6334 3.37505 6.29173 2.55005C6.31673 2.55005 6.35006 2.57505 6.37507 2.57505Z" fill="white"/>
<path d="M6.37507 2.57505C6.07507 3.59172 5.8584 4.62505 5.6834 5.67505C4.6084 5.84172 3.54173 6.10838 2.4834 6.42505C3.29173 4.75005 4.6334 3.37505 6.29173 2.55005C6.31673 2.55005 6.35006 2.57505 6.37507 2.57505Z" fill="url(#paint3_linear_184_9210)"/>
<path d="M12.9082 5.49163C10.9749 5.27496 9.02489 5.27496 7.09155 5.49163C7.29989 4.34996 7.56655 3.20829 7.94155 2.10829C7.95822 2.04163 7.94989 1.99163 7.95822 1.92496C8.61655 1.76663 9.29155 1.66663 9.99989 1.66663C10.6999 1.66663 11.3832 1.76663 12.0332 1.92496C12.0416 1.99163 12.0416 2.04163 12.0582 2.10829C12.4332 3.21663 12.6999 4.34996 12.9082 5.49163Z" fill="white"/>
<path d="M12.9082 5.49163C10.9749 5.27496 9.02489 5.27496 7.09155 5.49163C7.29989 4.34996 7.56655 3.20829 7.94155 2.10829C7.95822 2.04163 7.94989 1.99163 7.95822 1.92496C8.61655 1.76663 9.29155 1.66663 9.99989 1.66663C10.6999 1.66663 11.3832 1.76663 12.0332 1.92496C12.0416 1.99163 12.0416 2.04163 12.0582 2.10829C12.4332 3.21663 12.6999 4.34996 12.9082 5.49163Z" fill="url(#paint4_linear_184_9210)"/>
<path d="M5.49175 12.9083C4.34175 12.7 3.20841 12.4333 2.10841 12.0583C2.04175 12.0417 1.99175 12.05 1.92508 12.0417C1.76675 11.3833 1.66675 10.7083 1.66675 10C1.66675 9.30001 1.76675 8.61667 1.92508 7.96667C1.99175 7.95834 2.04175 7.95834 2.10841 7.94167C3.21675 7.57501 4.34175 7.30001 5.49175 7.09167C5.28342 9.02501 5.28342 10.975 5.49175 12.9083Z" fill="white"/>
<path d="M5.49175 12.9083C4.34175 12.7 3.20841 12.4333 2.10841 12.0583C2.04175 12.0417 1.99175 12.05 1.92508 12.0417C1.76675 11.3833 1.66675 10.7083 1.66675 10C1.66675 9.30001 1.76675 8.61667 1.92508 7.96667C1.99175 7.95834 2.04175 7.95834 2.10841 7.94167C3.21675 7.57501 4.34175 7.30001 5.49175 7.09167C5.28342 9.02501 5.28342 10.975 5.49175 12.9083Z" fill="url(#paint5_linear_184_9210)"/>
<path d="M18.3333 10C18.3333 10.7083 18.2333 11.3833 18.075 12.0417C18.0083 12.05 17.9583 12.0417 17.8916 12.0583C16.7833 12.425 15.65 12.7 14.5083 12.9083C14.725 10.975 14.725 9.02501 14.5083 7.09167C15.65 7.30001 16.7916 7.56667 17.8916 7.94167C17.9583 7.95834 18.0083 7.96667 18.075 7.96667C18.2333 8.62501 18.3333 9.30001 18.3333 10Z" fill="white"/>
<path d="M18.3333 10C18.3333 10.7083 18.2333 11.3833 18.075 12.0417C18.0083 12.05 17.9583 12.0417 17.8916 12.0583C16.7833 12.425 15.65 12.7 14.5083 12.9083C14.725 10.975 14.725 9.02501 14.5083 7.09167C15.65 7.30001 16.7916 7.56667 17.8916 7.94167C17.9583 7.95834 18.0083 7.96667 18.075 7.96667C18.2333 8.62501 18.3333 9.30001 18.3333 10Z" fill="url(#paint6_linear_184_9210)"/>
<path d="M12.9082 14.5083C12.6999 15.6583 12.4332 16.7916 12.0582 17.8916C12.0416 17.9583 12.0416 18.0083 12.0332 18.075C11.3832 18.2333 10.6999 18.3333 9.99989 18.3333C9.29155 18.3333 8.61655 18.2333 7.95822 18.075C7.94989 18.0083 7.95822 17.9583 7.94155 17.8916C7.57489 16.7833 7.29989 15.6583 7.09155 14.5083C8.05822 14.6166 9.02489 14.6916 9.99989 14.6916C10.9749 14.6916 11.9499 14.6166 12.9082 14.5083Z" fill="white"/>
<path d="M12.9082 14.5083C12.6999 15.6583 12.4332 16.7916 12.0582 17.8916C12.0416 17.9583 12.0416 18.0083 12.0332 18.075C11.3832 18.2333 10.6999 18.3333 9.99989 18.3333C9.29155 18.3333 8.61655 18.2333 7.95822 18.075C7.94989 18.0083 7.95822 17.9583 7.94155 17.8916C7.57489 16.7833 7.29989 15.6583 7.09155 14.5083C8.05822 14.6166 9.02489 14.6916 9.99989 14.6916C10.9749 14.6916 11.9499 14.6166 12.9082 14.5083Z" fill="url(#paint7_linear_184_9210)"/>
<path d="M13.1362 13.1361C11.0519 13.399 8.94822 13.399 6.86397 13.1361C6.60101 11.0518 6.60101 8.9481 6.86397 6.86385C8.94822 6.60088 11.0519 6.60088 13.1362 6.86385C13.3992 8.9481 13.3992 11.0518 13.1362 13.1361Z" fill="white"/>
<path d="M13.1362 13.1361C11.0519 13.399 8.94822 13.399 6.86397 13.1361C6.60101 11.0518 6.60101 8.9481 6.86397 6.86385C8.94822 6.60088 11.0519 6.60088 13.1362 6.86385C13.3992 8.9481 13.3992 11.0518 13.1362 13.1361Z" fill="url(#paint8_linear_184_9210)"/>
<defs>
<linearGradient id="paint0_linear_184_9210" x1="2.55005" y1="15.5292" x2="12.5329" y2="15.5292" gradientUnits="userSpaceOnUse">
<stop stop-color="white"/>
<stop offset="0.850954" stop-color="white" stop-opacity="0"/>
</linearGradient>
<linearGradient id="paint1_linear_184_9210" x1="13.575" y1="15.5667" x2="23.6883" y2="15.5667" gradientUnits="userSpaceOnUse">
<stop stop-color="white"/>
<stop offset="0.850954" stop-color="white" stop-opacity="0"/>
</linearGradient>
<linearGradient id="paint2_linear_184_9210" x1="13.575" y1="4.45411" x2="23.8623" y2="4.45411" gradientUnits="userSpaceOnUse">
<stop stop-color="white"/>
<stop offset="0.850954" stop-color="white" stop-opacity="0"/>
</linearGradient>
<linearGradient id="paint3_linear_184_9210" x1="2.4834" y1="4.48755" x2="12.6402" y2="4.48755" gradientUnits="userSpaceOnUse">
<stop stop-color="white"/>
<stop offset="0.850954" stop-color="white" stop-opacity="0"/>
</linearGradient>
<linearGradient id="paint4_linear_184_9210" x1="7.09155" y1="3.57913" x2="22.2724" y2="3.57913" gradientUnits="userSpaceOnUse">
<stop stop-color="white"/>
<stop offset="0.850954" stop-color="white" stop-opacity="0"/>
</linearGradient>
<linearGradient id="paint5_linear_184_9210" x1="1.66675" y1="10" x2="11.6496" y2="10" gradientUnits="userSpaceOnUse">
<stop stop-color="white"/>
<stop offset="0.850954" stop-color="white" stop-opacity="0"/>
</linearGradient>
<linearGradient id="paint6_linear_184_9210" x1="14.5083" y1="10" x2="24.4911" y2="10" gradientUnits="userSpaceOnUse">
<stop stop-color="white"/>
<stop offset="0.850954" stop-color="white" stop-opacity="0"/>
</linearGradient>
<linearGradient id="paint7_linear_184_9210" x1="7.09155" y1="16.4208" x2="22.2724" y2="16.4208" gradientUnits="userSpaceOnUse">
<stop stop-color="white"/>
<stop offset="0.850954" stop-color="white" stop-opacity="0"/>
</linearGradient>
<linearGradient id="paint8_linear_184_9210" x1="6.66675" y1="9.99997" x2="24.066" y2="9.99997" gradientUnits="userSpaceOnUse">
<stop stop-color="white"/>
<stop offset="0.850954" stop-color="white" stop-opacity="0"/>
</linearGradient>
</defs>
</svg>
