<svg width="20" height="20" viewBox="0 0 20 20" fill="none" xmlns="http://www.w3.org/2000/svg">
<g clip-path="url(#clip0_1118_58872)">
<path opacity="0.978" fill-rule="evenodd" clip-rule="evenodd" d="M9.12109 -0.0195312H8.88672C7.53582 0.142082 6.2598 0.552238 5.05859 1.21094C2.10625 2.98004 0.413539 5.5777 -0.0195312 9.00391V9.66797C1.08968 10.2243 2.26156 10.5759 3.49609 10.7227C3.45466 10.1505 3.44814 9.57754 3.47656 9.00391C3.87652 5.0498 5.75801 2.04199 9.12109 -0.0195312ZM14.1211 0.820312C13.3694 0.482672 12.5882 0.241787 11.7773 0.0976562C10.7953 0.406301 9.87084 0.8425 9.00389 1.40625C5.82538 3.72105 4.36705 6.85258 4.62889 10.8008C6.32862 10.7974 7.92366 10.3938 9.41405 9.58984C9.62909 5.9232 11.1981 3.00003 14.1211 0.820312ZM19.9805 9.08203V10.8398C19.875 12.0298 19.5559 13.1626 19.0234 14.2383C18.9871 10.5267 17.5353 7.51238 14.668 5.19531C14.0039 4.7068 13.3008 4.27711 12.5586 3.90625C13.3161 2.92063 14.2146 2.09381 15.2539 1.42578C18.0209 3.23462 19.5964 5.78672 19.9805 9.08203ZM17.4609 11.1523C16.5366 8.22945 14.6812 6.13312 11.8945 4.86328C11.7092 5.22105 11.5334 5.58563 11.3672 5.95703C10.853 7.14129 10.5926 8.37824 10.5859 9.66797C13.6173 11.6655 15.3621 14.478 15.8203 18.1055C16.4784 17.6559 17.0644 17.1221 17.5781 16.5039C17.9999 14.7098 17.9609 12.926 17.4609 11.1523ZM9.90234 10.6055C11.3889 11.4671 12.5478 12.652 13.3789 14.1602C11.6272 15.4102 9.66762 16.0482 7.5 16.0742C4.78922 16.0266 2.45848 15.076 0.507812 13.2227C0.226218 12.4787 0.0699676 11.7105 0.0390625 10.918C2.92976 12.1903 5.85293 12.2619 8.80859 11.1328C9.19105 10.9871 9.55562 10.8113 9.90234 10.6055ZM9.27733 19.9805H10.6836C12.0951 19.8667 13.4297 19.4761 14.6875 18.8086C14.6669 17.5546 14.4 16.3567 13.8867 15.2148C12.993 15.8245 12.0294 16.2997 10.9961 16.6406C7.7435 17.6363 4.65104 17.2782 1.71874 15.5664C1.70642 15.6214 1.71944 15.6735 1.7578 15.7227C3.61653 18.2703 6.12303 19.6895 9.27733 19.9805Z" fill="white"/>
</g>
<defs>
<clipPath id="clip0_1118_58872">
<rect width="20" height="20" fill="white"/>
</clipPath>
</defs>
</svg>
