<svg width="20" height="20" viewBox="0 0 20 20" fill="none" xmlns="http://www.w3.org/2000/svg">
<g clip-path="url(#clip0_1118_58858)">
<path opacity="0.988" fill-rule="evenodd" clip-rule="evenodd" d="M9.08203 -0.0195312C9.58984 -0.0195312 10.0977 -0.0195312 10.6055 -0.0195312C12.3491 0.271805 13.5926 1.22232 14.3359 2.83203C15.0971 4.95117 14.6609 6.78062 13.0273 8.32031C12.443 8.80129 11.7789 9.1268 11.0352 9.29688C10.2933 9.3766 9.55109 9.45473 8.80859 9.53125C6.21594 10.1968 4.67297 11.8439 4.17969 14.4727C3.97844 16.0423 4.34301 17.4616 5.27344 18.7305C5.29949 18.7695 5.29949 18.8086 5.27344 18.8477C2.17195 17.0861 0.407625 14.4298 -0.0195312 10.8789C-0.0195312 10.28 -0.0195312 9.68098 -0.0195312 9.08203C0.464867 5.2675 2.43102 2.5136 5.87891 0.820312C6.90984 0.380348 7.97754 0.100401 9.08203 -0.0195312ZM9.70703 2.51953C11.1562 2.52996 11.9765 3.25261 12.168 4.6875C12.0528 5.87031 11.4148 6.58645 10.2539 6.83594C9.1816 6.90883 8.41988 6.45961 7.96875 5.48828C7.6191 4.37582 7.92512 3.48389 8.88672 2.8125C9.15242 2.67846 9.42586 2.58081 9.70703 2.51953Z" fill="#69727D"/>
<path opacity="0.988" fill-rule="evenodd" clip-rule="evenodd" d="M19.9806 9.08203C19.9806 9.68098 19.9806 10.28 19.9806 10.8789C19.5715 14.3529 17.8658 16.9766 14.8634 18.75C13.6121 19.4255 12.284 19.8356 10.8791 19.9805C10.3842 19.9805 9.88948 19.9805 9.39468 19.9805C7.55636 19.6726 6.27382 18.657 5.54702 16.9336C4.90109 14.8746 5.36335 13.1104 6.93374 11.6406C7.51812 11.1596 8.18218 10.8341 8.92593 10.6641C9.66765 10.5843 10.4098 10.5062 11.1525 10.4297C13.7451 9.76414 15.2881 8.11699 15.7814 5.48828C15.9826 3.91852 15.618 2.49925 14.6876 1.23047C14.6616 1.19141 14.6616 1.15234 14.6876 1.11328C17.7891 2.87479 19.5534 5.53105 19.9806 9.08203ZM9.70718 13.1055C11.1561 13.1156 11.9764 13.8383 12.1681 15.2734C12.0532 16.456 11.4152 17.1722 10.2541 17.4219C9.18175 17.4948 8.42003 17.0455 7.9689 16.0742C7.61925 14.9618 7.92527 14.0698 8.88687 13.3984C9.1523 13.2645 9.42573 13.1668 9.70718 13.1055Z" fill="#69727D"/>
<path opacity="0.955" fill-rule="evenodd" clip-rule="evenodd" d="M9.74609 3.65232C10.4932 3.60853 10.9229 3.95357 11.0352 4.68748C10.9237 5.42708 10.494 5.76564 9.74609 5.7031C9.24184 5.55521 8.9684 5.21669 8.92578 4.68748C8.97273 4.15505 9.24617 3.80998 9.74609 3.65232Z" fill="#69727D"/>
<path opacity="0.955" fill-rule="evenodd" clip-rule="evenodd" d="M9.74609 14.2383C10.4932 14.1945 10.9229 14.5395 11.0352 15.2734C10.9237 16.013 10.494 16.3516 9.74609 16.289C9.24184 16.1411 8.9684 15.8026 8.92578 15.2734C8.97273 14.741 9.24617 14.3959 9.74609 14.2383Z" fill="#69727D"/>
</g>
<defs>
<clipPath id="clip0_1118_58858">
<rect width="20" height="20" fill="white"/>
</clipPath>
</defs>
</svg>
