<svg width="20" height="20" viewBox="0 0 20 20" fill="none" xmlns="http://www.w3.org/2000/svg">
<g clip-path="url(#clip0_1118_58879)">
<path opacity="0.985" fill-rule="evenodd" clip-rule="evenodd" d="M9.02507 0.0334367C11.4061 -0.150479 13.5806 0.424318 15.5487 1.75783C15.7896 1.92263 16.0112 2.10961 16.2135 2.31878C14.9776 3.31908 14.0219 4.53793 13.3465 5.97533C13.0504 5.99644 12.7595 6.04489 12.4739 6.12076C12.0306 6.49473 12.0306 6.86869 12.4739 7.24266C12.5819 7.28088 12.6928 7.3086 12.8063 7.32576C12.828 7.34907 12.8418 7.37679 12.8478 7.40886C12.6764 8.04269 12.5656 8.68674 12.5154 9.34102C11.9542 9.2447 11.6079 9.4663 11.4766 10.0058C11.4964 10.2461 11.6072 10.4331 11.809 10.5668C12.038 10.6453 12.2734 10.6799 12.5154 10.6707C12.5656 11.325 12.6764 11.9691 12.8478 12.6028C12.831 12.6421 12.8033 12.6698 12.7647 12.6859C12.2237 12.8193 12.0506 13.1447 12.2453 13.6624L12.4739 13.8909C12.7602 13.9636 13.0511 14.0121 13.3465 14.0364C14.0119 15.5122 14.9814 16.7518 16.2551 17.7552C13.8762 19.6601 11.1753 20.3527 8.15249 19.8328C6.50463 19.5142 5.03649 18.8286 3.74801 17.776C4.98509 16.7465 5.94078 15.4999 6.61508 14.0364C6.91047 14.0121 7.20133 13.9636 7.48766 13.8909C7.93089 13.517 7.93089 13.143 7.48766 12.769C7.39259 12.7349 7.29561 12.7072 7.1968 12.6859C7.15824 12.6698 7.13053 12.6421 7.1137 12.6028C7.2851 11.9691 7.39592 11.325 7.44611 10.6707C7.68969 10.6851 7.92512 10.6505 8.15249 10.5668C8.59572 10.1928 8.59572 9.81886 8.15249 9.4449C7.92512 9.36117 7.68969 9.32656 7.44611 9.34102C7.40232 8.68566 7.2915 8.04161 7.1137 7.40886C7.11972 7.37679 7.13356 7.34907 7.15525 7.32576C7.72563 7.21665 7.91261 6.89117 7.7162 6.34929L7.48766 6.12076C7.20204 6.04489 6.91117 5.99644 6.61508 5.97533C5.93799 4.51682 4.96847 3.29106 3.70646 2.298C5.2474 1.00617 7.02029 0.251313 9.02507 0.0334367ZM2.75076 3.19136C3.56916 3.78135 4.25476 4.50157 4.80756 5.35205C4.94855 5.57859 5.06626 5.81406 5.16075 6.05843C4.64065 6.12844 4.43983 6.4193 4.55825 6.93101C4.65058 7.09256 4.78213 7.21028 4.95299 7.2842C5.22445 7.32376 5.49454 7.35837 5.76325 7.38808C5.95373 8.02191 6.08532 8.66596 6.15799 9.32023C5.91026 9.32817 5.67483 9.3836 5.45162 9.48644C5.1192 9.83269 5.1192 10.179 5.45162 10.5252C5.67483 10.6281 5.91026 10.6835 6.15799 10.6914C6.08528 11.3458 5.95373 11.9898 5.76325 12.6236C5.44908 12.6457 5.13744 12.6941 4.82834 12.769C4.40854 13.1168 4.39471 13.4769 4.78679 13.8494C4.89923 13.9286 5.02388 13.9633 5.16075 13.9532C4.60895 15.0888 3.8333 16.0514 2.83386 16.8411C2.79231 16.8688 2.75076 16.8688 2.7092 16.8411C0.221013 14.0418 -0.547694 10.8215 0.403084 7.18032C0.878452 5.66053 1.66101 4.33087 2.75076 3.19136ZM17.2523 3.21213C17.2129 3.19207 17.1714 3.18514 17.1277 3.19136C16.1702 3.96862 15.3946 4.89664 14.8008 5.97532C14.896 6.04837 15.0068 6.09682 15.1332 6.12075C15.5764 6.49472 15.5764 6.86868 15.1332 7.24265C14.8345 7.32338 14.5298 7.36493 14.2191 7.3673C14.0114 8.004 13.8729 8.65499 13.8035 9.32023C13.9852 9.33772 14.1652 9.36544 14.3437 9.40333C14.7623 9.60291 14.88 9.91455 14.6969 10.3382C14.4576 10.5945 14.1598 10.7122 13.8035 10.6914C13.8729 11.3567 14.0114 12.0077 14.2191 12.6444L14.8008 12.6859C15.074 12.7082 15.2748 12.8398 15.4033 13.0807C15.5231 13.5912 15.3223 13.8821 14.8008 13.9532C15.3526 15.0888 16.1282 16.0514 17.1277 16.8411C17.1692 16.8688 17.2108 16.8688 17.2523 16.8411C18.532 15.4663 19.3699 13.8527 19.7662 12.0003C20.3743 8.64572 19.5363 5.71633 17.2523 3.21213Z" fill="#69727D"/>
</g>
<defs>
<clipPath id="clip0_1118_58879">
<rect width="20" height="20" fill="white"/>
</clipPath>
</defs>
</svg>
