<svg width="20" height="20" viewBox="0 0 20 20" fill="none" xmlns="http://www.w3.org/2000/svg">
<g clip-path="url(#clip0_184_9405)">
<path opacity="0.981" fill-rule="evenodd" clip-rule="evenodd" d="M9.74609 -0.0195312C9.90234 -0.0195312 10.0586 -0.0195312 10.2148 -0.0195312C10.3703 0.0513598 10.4809 0.168547 10.5469 0.332031C10.5949 0.603332 10.6145 0.87677 10.6055 1.15234C11.6231 1.22772 12.5997 1.46861 13.5352 1.875C14.5905 2.45481 15.6582 3.01471 16.7383 3.55469C17.7277 3.99074 18.7302 4.39441 19.7461 4.76562C19.8725 4.89484 19.9506 5.04457 19.9805 5.21484C19.9805 5.2409 19.9805 5.26691 19.9805 5.29297C19.951 5.53984 19.8207 5.71562 19.5898 5.82031C18.3276 5.86598 17.0776 5.7618 15.8398 5.50781C14.8183 5.24266 13.7896 5.00828 12.7539 4.80469C10.905 4.51824 9.05598 4.51824 7.20703 4.80469C6.17133 5.00828 5.14266 5.24266 4.12109 5.50781C2.8833 5.7618 1.6333 5.86598 0.371094 5.82031C0.140176 5.71562 0.00996801 5.53984 -0.0195312 5.29297C-0.0195312 5.26691 -0.0195312 5.2409 -0.0195312 5.21484C0.0103332 5.04457 0.0884582 4.89484 0.214844 4.76562C1.23618 4.40785 2.23878 4.00418 3.22266 3.55469C4.3027 3.01471 5.37039 2.45481 6.42578 1.875C7.36125 1.46861 8.33781 1.22772 9.35547 1.15234C9.34648 0.87677 9.36602 0.603332 9.41406 0.332031C9.48 0.168547 9.59066 0.0513598 9.74609 -0.0195312Z" fill="#67707B"/>
<path opacity="0.937" fill-rule="evenodd" clip-rule="evenodd" d="M9.35547 5.72266C9.77215 5.72266 10.1888 5.72266 10.6055 5.72266C10.6055 9.3034 10.6055 12.8841 10.6055 16.4648C10.1888 16.4648 9.77215 16.4648 9.35547 16.4648C9.35547 12.8841 9.35547 9.3034 9.35547 5.72266Z" fill="#67707B"/>
<path opacity="0.975" fill-rule="evenodd" clip-rule="evenodd" d="M-0.0195312 11.582C-0.0195312 11.543 -0.0195312 11.5039 -0.0195312 11.4648C0.0262294 11.2298 0.156438 11.054 0.371094 10.9375C0.523719 10.9111 0.673457 10.8785 0.820312 10.8398C1.39323 9.53777 1.96614 8.23566 2.53906 6.93359C2.97781 6.84609 3.42052 6.76797 3.86719 6.69922C3.89974 6.71223 3.9323 6.72527 3.96484 6.73828C3.35789 8.11488 2.74591 9.48859 2.12891 10.8594C3.45703 10.8854 4.78516 10.8854 6.11328 10.8594C5.48324 9.46254 4.85824 8.06281 4.23828 6.66016C4.63578 6.5377 5.03941 6.45309 5.44922 6.40625C6.1218 7.87691 6.77934 9.3548 7.42188 10.8398C7.65207 10.8676 7.86691 10.9392 8.06641 11.0547C8.20082 11.2178 8.25289 11.4066 8.22266 11.6211C8.21043 12.2504 8.00859 12.8102 7.61719 13.3008C6.49227 14.5049 5.10555 15.0062 3.45703 14.8047C2.18269 14.6466 1.17357 14.0542 0.429688 13.0273C0.164081 12.5756 0.0143412 12.0939 -0.0195312 11.582Z" fill="#67707B"/>
<path opacity="0.974" fill-rule="evenodd" clip-rule="evenodd" d="M19.9804 11.4648C19.9804 11.5039 19.9804 11.543 19.9804 11.582C19.8452 12.8053 19.2333 13.7102 18.1445 14.2969C16.9515 14.8615 15.7145 14.9787 14.4336 14.6484C13.4363 14.3796 12.6616 13.8132 12.1093 12.9492C11.8022 12.4291 11.685 11.8692 11.7578 11.2695C11.8164 11.1068 11.927 10.9961 12.0898 10.9375C12.2424 10.9111 12.3922 10.8785 12.539 10.8398C13.1816 9.3548 13.8391 7.87691 14.5117 6.40625C14.9215 6.45309 15.3251 6.5377 15.7226 6.66016C15.1027 8.06281 14.4777 9.46254 13.8476 10.8594C15.1758 10.8854 16.5039 10.8854 17.832 10.8594C17.215 9.48859 16.603 8.11488 15.9961 6.73828C16.0286 6.72527 16.0612 6.71223 16.0937 6.69922C16.5412 6.76309 16.9839 6.84121 17.4218 6.93359C17.9948 8.23566 18.5677 9.53777 19.1406 10.8398C19.3708 10.8676 19.5856 10.9392 19.7851 11.0547C19.889 11.1776 19.9541 11.3143 19.9804 11.4648Z" fill="#67707B"/>
<path opacity="0.991" fill-rule="evenodd" clip-rule="evenodd" d="M13.7305 19.9805C11.2305 19.9805 8.73046 19.9805 6.23046 19.9805C5.87913 19.7447 5.76842 19.4191 5.89842 19.0039C6.08721 18.2943 6.53643 17.845 7.24608 17.6563C9.06901 17.6302 10.8919 17.6302 12.7148 17.6563C13.694 17.9574 14.1432 18.615 14.0625 19.6289C13.9965 19.7924 13.8859 19.9096 13.7305 19.9805Z" fill="#67707B"/>
</g>
<defs>
<clipPath id="clip0_184_9405">
<rect width="20" height="20" fill="white"/>
</clipPath>
</defs>
</svg>
