<svg width="20" height="20" viewBox="0 0 20 20" fill="none" xmlns="http://www.w3.org/2000/svg">
<g clip-path="url(#clip0_62_8896)">
<path opacity="0.987" fill-rule="evenodd" clip-rule="evenodd" d="M7.24609 -0.0195312C7.76691 -0.0195312 8.28777 -0.0195312 8.80859 -0.0195312C12.0151 0.419859 14.2612 2.12559 15.5469 5.09766C16.0091 6.38645 16.1849 7.71457 16.0742 9.08203C16.5039 9.08203 16.9336 9.08203 17.3633 9.08203C17.3633 7.31121 17.3633 5.54035 17.3633 3.76953C16.5362 3.45155 16.0935 2.84608 16.0352 1.95312C16.1057 0.913059 16.6396 0.255505 17.6367 -0.0195312C17.8971 -0.0195312 18.1575 -0.0195312 18.418 -0.0195312C19.2383 0.201823 19.7591 0.722656 19.9805 1.54297C19.9805 1.80339 19.9805 2.0638 19.9805 2.32422C19.8126 3.03899 19.3829 3.52076 18.6914 3.76953C18.7104 5.8682 18.6909 7.96457 18.6328 10.0586C18.5219 10.2736 18.3461 10.3973 18.1055 10.4297C17.4285 10.4492 16.7514 10.4557 16.0742 10.4492C16.0807 13.0925 16.0742 15.7357 16.0547 18.3789C15.8631 19.2279 15.3488 19.7618 14.5117 19.9805C10.1888 19.9805 5.8659 19.9805 1.54297 19.9805C0.722656 19.7591 0.201823 19.2383 -0.0195312 18.418C-0.0195312 14.681 -0.0195312 10.944 -0.0195312 7.20703C0.293715 4.75023 1.45257 2.80362 3.45703 1.36719C4.60918 0.595527 5.87219 0.133286 7.24609 -0.0195312ZM7.75391 2.59766C9.34008 2.58035 10.6357 3.17931 11.6406 4.39453C11.9641 4.83312 12.205 5.31488 12.3633 5.83984C12.2347 6.41734 11.8961 6.59312 11.3477 6.36719C11.3021 6.3216 11.2565 6.27605 11.2109 6.23047C10.4641 4.40836 9.11645 3.65964 7.16797 3.98438C6.44656 4.19187 5.85414 4.58902 5.39062 5.17578C5.17027 5.55797 4.95543 5.94211 4.74609 6.32812C4.20145 6.60922 3.84987 6.45297 3.69141 5.85938C4.22543 4.23164 5.31918 3.18996 6.97266 2.73438C7.2366 2.67585 7.49699 2.63028 7.75391 2.59766ZM7.87109 5.21484C8.52453 5.24621 8.75238 5.57172 8.55469 6.19141C8.32867 6.46492 8.04871 6.53652 7.71484 6.40625C7.38945 6.16184 7.31785 5.85586 7.5 5.48828C7.60898 5.37246 7.7327 5.28133 7.87109 5.21484ZM3.30078 7.83203C6.45184 7.82551 9.60289 7.83203 12.7539 7.85156C12.9977 7.92609 13.1474 8.08887 13.2031 8.33984C13.2292 10.306 13.2292 12.2721 13.2031 14.2383C13.1445 14.5052 12.9818 14.668 12.7148 14.7266C9.58984 14.7526 6.46484 14.7526 3.33984 14.7266C3.08886 14.6708 2.9261 14.5211 2.85156 14.2773C2.82552 12.2852 2.82552 10.293 2.85156 8.30078C2.93042 8.07227 3.08016 7.91602 3.30078 7.83203ZM4.66797 16.0742C6.89457 16.0677 9.12113 16.0742 11.3477 16.0938C11.6899 16.1626 11.8852 16.371 11.9336 16.7188C11.8896 17.0491 11.7073 17.2574 11.3867 17.3438C9.14715 17.3698 6.90754 17.3698 4.66797 17.3438C4.16793 17.1578 4.03121 16.8258 4.25781 16.3477C4.37492 16.2212 4.51164 16.13 4.66797 16.0742Z" fill="#67707B"/>
<path opacity="0.953" fill-rule="evenodd" clip-rule="evenodd" d="M4.08203 9.08203C4.68098 9.08203 5.27996 9.08203 5.87891 9.08203C5.87891 10.5534 5.87891 12.0247 5.87891 13.4961C5.27996 13.4961 4.68098 13.4961 4.08203 13.4961C4.08203 12.0247 4.08203 10.5534 4.08203 9.08203Z" fill="#67707B"/>
<path opacity="0.953" fill-rule="evenodd" clip-rule="evenodd" d="M7.12891 9.08203C7.72785 9.08203 8.32684 9.08203 8.92578 9.08203C8.92578 10.5534 8.92578 12.0247 8.92578 13.4961C8.32684 13.4961 7.72785 13.4961 7.12891 13.4961C7.12891 12.0247 7.12891 10.5534 7.12891 9.08203Z" fill="#67707B"/>
<path opacity="0.954" fill-rule="evenodd" clip-rule="evenodd" d="M10.1758 9.08203C10.7747 9.08203 11.3737 9.08203 11.9727 9.08203C11.9792 10.5404 11.9727 11.9987 11.9531 13.457C11.3637 13.4957 10.7713 13.5088 10.1758 13.4961C10.1758 12.0247 10.1758 10.5534 10.1758 9.08203Z" fill="#67707B"/>
</g>
<defs>
<clipPath id="clip0_62_8896">
<rect width="20" height="20" fill="white"/>
</clipPath>
</defs>
</svg>
