<svg width="20" height="20" viewBox="0 0 20 20" fill="none" xmlns="http://www.w3.org/2000/svg">
<g clip-path="url(#clip0_184_9468)">
<path opacity="0.982" fill-rule="evenodd" clip-rule="evenodd" d="M6.66017 0.644539C6.42181 0.614566 6.20044 0.660137 5.99611 0.781258C4.57244 1.8676 3.40708 3.17619 2.50001 4.70704C2.47396 4.7461 2.47396 4.78516 2.50001 4.82423C2.9638 5.13434 3.40654 5.4729 3.82814 5.83985C4.05646 6.13423 4.19318 6.46626 4.23829 6.83595C6.20333 7.83095 7.66165 9.32181 8.61329 11.3086C9.8356 11.9624 10.9359 12.7827 11.9141 13.7695C12.4219 14.3555 12.9297 14.9414 13.4375 15.5274C14.1888 16.3027 15.0287 16.9603 15.957 17.5C16.7126 17.9102 17.5199 18.1381 18.3789 18.1836C18.6871 18.1699 18.9866 18.1178 19.2774 18.0274C19.4804 17.2368 19.2591 16.5922 18.6133 16.0938C17.9753 15.5599 17.3372 15.0261 16.6992 14.4922C15.5963 14.0319 14.5026 13.5501 13.418 13.0469C12.9062 12.7199 12.5481 12.2707 12.3438 11.6992C11.6016 9.5638 10.8594 7.42841 10.1172 5.29298C9.33759 5.16677 8.62798 4.8738 7.98829 4.41407C7.51908 3.99005 7.23911 3.46271 7.14845 2.83204C7.08337 2.27275 7.07033 1.71285 7.10939 1.15235C7.04622 0.900703 6.8965 0.731434 6.66017 0.644539Z" fill="#67707B"/>
<path opacity="0.947" fill-rule="evenodd" clip-rule="evenodd" d="M13.2617 3.06639C12.0313 2.94346 11.2631 3.47732 10.957 4.66795C11.2641 4.65643 11.57 4.63041 11.875 4.58983C12.5814 4.62725 13.1478 4.92674 13.5742 5.48826C13.5529 4.72233 13.4943 3.95409 13.3984 3.18358C13.3537 3.13919 13.3081 3.10012 13.2617 3.06639Z" fill="#67707B"/>
<path opacity="0.946" fill-rule="evenodd" clip-rule="evenodd" d="M12.0508 5.21484C11.6338 5.25391 11.2172 5.29297 10.8008 5.33203C11.5061 7.38941 12.2157 9.44672 12.9297 11.5039C13.1108 11.9321 13.3907 12.2771 13.7695 12.5391C14.6123 12.9051 15.4521 13.2762 16.2891 13.6523C16.1224 13.1228 15.9206 12.602 15.6836 12.0898C15.0837 11.8926 14.4782 11.7103 13.8672 11.543C13.5811 11.3951 13.5485 11.2063 13.7695 10.9766C13.8175 10.9461 13.8696 10.9265 13.9258 10.918C14.3835 11.0421 14.8392 11.1723 15.293 11.3086C15.306 11.2891 15.319 11.2695 15.332 11.25C15.241 10.9704 15.1238 10.7035 14.9805 10.4492C14.461 10.2956 13.9402 10.1459 13.418 10C13.1796 9.90957 13.1079 9.7468 13.2031 9.51172C13.2674 9.42727 13.352 9.3752 13.457 9.35547C13.8477 9.47266 14.2383 9.58984 14.6289 9.70703C14.6419 9.6875 14.655 9.66797 14.668 9.64844C14.5658 9.36793 14.4486 9.09449 14.3164 8.82812C13.8193 8.69281 13.3245 8.54957 12.832 8.39844C12.6157 8.2007 12.6287 8.01844 12.8711 7.85156C13.254 7.87727 13.6251 7.96191 13.9844 8.10547C13.9133 7.80148 13.8026 7.50852 13.6523 7.22656C13.2487 7.10938 12.845 6.99219 12.4414 6.875C12.1466 6.68539 12.1466 6.49008 12.4414 6.28906C12.7204 6.31016 12.9938 6.36875 13.2617 6.46484C13.2878 6.45184 13.3138 6.43879 13.3398 6.42578C13.1459 5.76281 12.7162 5.35914 12.0508 5.21484Z" fill="#67707B"/>
<path opacity="0.964" fill-rule="evenodd" clip-rule="evenodd" d="M2.24609 5.37108C2.20019 5.36252 2.16113 5.37553 2.1289 5.41014C1.81226 6.05889 1.35004 6.57971 0.742186 6.97264C0.666444 7.1669 0.666444 7.36221 0.742186 7.55858C1.14984 8.42854 1.75531 9.11865 2.55859 9.62889C2.85273 8.87037 3.15875 8.11518 3.47656 7.36326C3.64328 6.9408 3.59121 6.55018 3.32031 6.19139C2.94902 5.93135 2.59094 5.65791 2.24609 5.37108Z" fill="#67707B"/>
<path opacity="0.957" fill-rule="evenodd" clip-rule="evenodd" d="M4.16016 7.48047C4.08848 7.50477 4.04289 7.55688 4.02344 7.63672C3.69887 8.44133 3.36684 9.24211 3.02734 10.0391C4.9359 11.4594 6.84996 12.8721 8.76953 14.2773C8.48348 11.7064 7.29855 9.65559 5.21484 8.125C4.86688 7.9 4.51531 7.68516 4.16016 7.48047ZM4.94141 9.04297C4.77367 9.03117 4.64996 9.09625 4.57031 9.23828C4.47574 9.55809 4.43668 9.88363 4.45312 10.2148C4.70375 10.4506 4.89906 10.4116 5.03906 10.0977C5.07965 9.85562 5.12523 9.61477 5.17578 9.375C5.14895 9.225 5.07082 9.11434 4.94141 9.04297ZM6.26953 10.0195C5.98074 9.9893 5.83098 10.1195 5.82031 10.4102C5.76414 10.6557 5.73809 10.903 5.74219 11.1523C5.90879 11.3893 6.09109 11.4024 6.28906 11.1914C6.36852 10.9102 6.42711 10.6237 6.46484 10.332C6.45812 10.1878 6.39301 10.0836 6.26953 10.0195Z" fill="#67707B"/>
<path opacity="0.954" fill-rule="evenodd" clip-rule="evenodd" d="M9.08203 12.2851C9.04309 12.284 9.01703 12.3035 9.00391 12.3437C9.27184 13.1495 9.43457 13.9763 9.49219 14.8242C10.9961 15.9375 12.5 17.0508 14.0039 18.1641C15.285 19.0475 16.7043 19.4251 18.2617 19.2969C18.5232 19.2233 18.7055 19.0605 18.8086 18.8086C17.639 18.8466 16.5453 18.5667 15.5273 17.9687C14.5073 17.3531 13.5894 16.6044 12.7734 15.7226C11.7474 14.3514 10.517 13.2055 9.08203 12.2851Z" fill="#67707B"/>
</g>
<defs>
<clipPath id="clip0_184_9468">
<rect width="20" height="20" fill="white" transform="matrix(-1 0 0 1 20 0)"/>
</clipPath>
</defs>
</svg>
