<svg width="16" height="16" viewBox="0 0 16 16" fill="none" xmlns="http://www.w3.org/2000/svg">
<path opacity="0.996" fill-rule="evenodd" clip-rule="evenodd" d="M15.9844 6.14065C15.9844 6.2969 15.9844 6.45315 15.9844 6.6094C15.8752 6.86218 15.7086 7.07575 15.4844 7.25003C14.397 8.18109 13.3189 9.12381 12.25 10.0782C12.5831 11.6505 12.9217 13.2234 13.2656 14.7969C13.2366 15.3416 12.9501 15.6332 12.4062 15.6719C12.2474 15.6673 12.0964 15.6309 11.9531 15.5625C10.6393 14.7598 9.31644 13.9734 7.98438 13.2032C6.6315 13.9838 5.28775 14.7807 3.95312 15.5938C3.50666 15.7677 3.13688 15.6687 2.84375 15.2969C2.71357 15.0846 2.6719 14.8554 2.71875 14.6094C3.07243 13.1012 3.40578 11.5907 3.71875 10.0782C2.51075 9.02637 1.31283 7.96387 0.125 6.89065C0.0748494 6.80656 0.0279744 6.72321 -0.015625 6.64065C-0.015625 6.474 -0.015625 6.30731 -0.015625 6.14065C0.102707 5.79862 0.342291 5.5955 0.703125 5.53128C2.25578 5.39109 3.80788 5.24525 5.35938 5.09378C5.99362 3.63253 6.62381 2.16898 7.25 0.703152C7.5775 0.306702 7.97853 0.21816 8.45312 0.437527C8.5625 0.505236 8.65103 0.593777 8.71875 0.703152C9.34494 2.16898 9.97513 3.63253 10.6094 5.09378C12.2147 5.24065 13.8189 5.3969 15.4219 5.56253C15.7013 5.67006 15.8888 5.86278 15.9844 6.14065Z" fill="#FFC106"/>
</svg>
