<svg width="20" height="20" viewBox="0 0 20 20" fill="none" xmlns="http://www.w3.org/2000/svg">
<path fill-rule="evenodd" clip-rule="evenodd" d="M16.0416 4.42553V7.91664C16.0416 8.26182 16.3214 8.54164 16.6666 8.54164C17.0118 8.54164 17.2916 8.26182 17.2916 7.91664V4.42553L17.8914 5.02525C18.1354 5.26933 18.5312 5.26933 18.7752 5.02525C19.0193 4.78117 19.0193 4.38545 18.7752 4.14137L17.1086 2.4747C16.9973 2.36347 16.8546 2.30293 16.7091 2.29308C16.6686 2.29031 16.6277 2.29148 16.587 2.29671C16.4688 2.31182 16.354 2.36069 16.2584 2.44333C16.2456 2.45441 16.2332 2.46598 16.2214 2.47802L14.558 4.14137C14.3139 4.38545 14.3139 4.78117 14.558 5.02525C14.8021 5.26933 15.1978 5.26933 15.4419 5.02525L16.0416 4.42553ZM2.29206 6.45831C2.30255 5.07367 2.502 4.43417 2.84668 4.09337C3.20336 3.74071 3.88246 3.54164 5.36663 3.54164H12.0833C12.4285 3.54164 12.7083 3.26182 12.7083 2.91664C12.7083 2.57147 12.4285 2.29164 12.0833 2.29164H5.36663C3.89246 2.29164 2.72155 2.45925 1.96782 3.2045C1.21162 3.95218 1.04163 5.11567 1.04163 6.57498V7.08331V13.425C1.04163 14.8843 1.21162 16.0478 1.96782 16.7955C2.72155 17.5407 3.89246 17.7083 5.36663 17.7083H14.6333C16.1075 17.7083 17.2784 17.5407 18.0321 16.7955C18.7883 16.0478 18.9583 14.8843 18.9583 13.425V11.6916C18.9583 11.3465 18.6785 11.0666 18.3333 11.0666C17.9881 11.0666 17.7083 11.3465 17.7083 11.6916V13.425C17.7083 14.8907 17.5075 15.5564 17.1532 15.9066C16.7966 16.2592 16.1175 16.4583 14.6333 16.4583H5.36663C3.88246 16.4583 3.20336 16.2592 2.84668 15.9066C2.49247 15.5564 2.29163 14.8907 2.29163 13.425V7.70831H12.0833C12.4285 7.70831 12.7083 7.42849 12.7083 7.08331C12.7083 6.73813 12.4285 6.45831 12.0833 6.45831H2.29206ZM4.99996 13.125C4.65478 13.125 4.37496 13.4048 4.37496 13.75C4.37496 14.0952 4.65478 14.375 4.99996 14.375H6.66663C7.0118 14.375 7.29163 14.0952 7.29163 13.75C7.29163 13.4048 7.0118 13.125 6.66663 13.125H4.99996ZM8.12496 13.75C8.12496 13.4048 8.40478 13.125 8.74996 13.125H12.0833C12.4285 13.125 12.7083 13.4048 12.7083 13.75C12.7083 14.0952 12.4285 14.375 12.0833 14.375H8.74996C8.40478 14.375 8.12496 14.0952 8.12496 13.75Z" fill="#9599A1"/>
</svg>
