<svg width="42" height="42" viewBox="0 0 42 42" fill="none" xmlns="http://www.w3.org/2000/svg">
<circle cx="21" cy="21" r="21" fill="white" fill-opacity="0.08"/>
<g clip-path="url(#clip0_709_27936)">
<path fill-rule="evenodd" clip-rule="evenodd" d="M24.229 17.3652C23.403 16.5774 22.3007 16.1483 21.1601 16.1659C19.0731 16.1659 17.3005 17.5739 16.6685 19.4699C16.3334 20.4635 16.3334 21.5394 16.6685 22.533H16.6714C17.3064 24.4261 19.076 25.8341 21.1631 25.8341C22.2404 25.8341 23.1653 25.5585 23.8822 25.0718V25.0698C24.7258 24.5113 25.302 23.6324 25.4813 22.6388H21.1602V19.5582H28.706C28.8001 20.0932 28.8442 20.6399 28.8442 21.1837C28.8442 23.617 27.9746 25.6742 26.4615 27.0675L26.4631 27.0687C25.1374 28.2916 23.3178 29 21.1601 29C18.1353 29 15.3692 27.2951 14.0111 24.5936C12.8765 22.3331 12.8765 19.6699 14.0112 17.4093C15.3692 14.705 18.1353 13 21.1601 13C23.1473 12.9765 25.0668 13.7231 26.5131 15.0812L24.229 17.3652Z" fill="white"/>
</g>
<defs>
<clipPath id="clip0_709_27936">
<rect width="16" height="16" fill="white" transform="translate(13 13)"/>
</clipPath>
</defs>
</svg>
