<svg width="18" height="14" viewBox="0 0 18 14" fill="none" xmlns="http://www.w3.org/2000/svg">
<path fill-rule="evenodd" clip-rule="evenodd" d="M2.93864 6.6215C1.9605 5.03131 1.21163 3.51694 2.15649 2.08023C2.18053 3.40785 3.314 4.73177 2.93864 6.6215Z" fill="#C4C4C4"/>
<path fill-rule="evenodd" clip-rule="evenodd" d="M2.15649 2.08023C1.21163 3.51694 1.9605 5.03871 2.93864 6.6215C2.67978 4.90188 1.68869 3.84792 2.15649 2.08023Z" fill="url(#paint0_radial_1194_67825)"/>
<path fill-rule="evenodd" clip-rule="evenodd" d="M2.15692 2.08023C1.68912 3.85347 2.68021 4.90188 2.93907 6.6215C3.30888 4.73177 2.18096 3.40785 2.15692 2.08023Z" fill="url(#paint1_radial_1194_67825)"/>
<path fill-rule="evenodd" clip-rule="evenodd" d="M2.03785 2.80508C2.15434 4.35829 2.72754 5.1053 2.93833 6.62152C2.59811 5.1959 1.93615 4.00512 2.03785 2.80508Z" fill="url(#paint2_radial_1194_67825)"/>
<path fill-rule="evenodd" clip-rule="evenodd" d="M1.01386 2.11908C1.16548 4.25288 3.44351 5.84307 3.43057 8.012C1.16548 6.22212 -0.195417 4.3139 1.01386 2.11908Z" fill="#B3B3B3"/>
<path fill-rule="evenodd" clip-rule="evenodd" d="M1.01386 2.11908C-0.195417 4.3213 1.16548 6.22212 3.43057 8.012C2.94427 6.71767 2.12329 6.12597 1.48722 5.04243C0.766089 3.81466 0.78273 3.06209 1.01386 2.11908Z" fill="url(#paint3_radial_1194_67825)"/>
<path fill-rule="evenodd" clip-rule="evenodd" d="M1.48739 5.04243C2.12346 6.12597 2.94444 6.70657 3.43074 8.012C3.44368 5.84307 1.16565 4.24364 1.01403 2.11908C0.782899 3.06209 0.766258 3.81466 1.48739 5.04243Z" fill="url(#paint4_radial_1194_67825)"/>
<path fill-rule="evenodd" clip-rule="evenodd" d="M0.873061 3.04544C1.16521 5.53426 2.72211 5.97064 3.4303 8.01199C2.53905 6.20732 0.867513 5.15151 0.873061 3.04544Z" fill="url(#paint5_radial_1194_67825)"/>
<path fill-rule="evenodd" clip-rule="evenodd" d="M4.04644 9.18058C3.50585 8.75173 2.94295 8.35177 2.3601 7.9824C1.05652 7.08191 -0.0954348 6.30162 0.00626294 4.46921C0.716298 5.57864 2.16225 6.25169 3.0461 7.4092C3.46829 7.94766 3.80563 8.54752 4.04644 9.18798V9.18058Z" fill="#BDBDBD"/>
<path fill-rule="evenodd" clip-rule="evenodd" d="M0.00626294 4.4618C-0.0954348 6.31085 1.05652 7.08191 2.3601 7.975C2.94295 8.34437 3.50585 8.74432 4.04644 9.17318C3.10712 7.79934 2.66335 7.60704 1.37456 6.54568C0.450034 5.77463 0.233696 5.33271 0.00626294 4.45441V4.4618Z" fill="url(#paint6_radial_1194_67825)"/>
<path fill-rule="evenodd" clip-rule="evenodd" d="M1.37416 6.55309C2.66849 7.61444 3.10671 7.80674 4.04603 9.18059C3.80574 8.53818 3.46837 7.93641 3.0457 7.39626C2.16185 6.23875 0.715894 5.57125 0.00585938 4.45627C0.233292 5.33457 0.440386 5.77649 1.37416 6.54754V6.55309Z" fill="url(#paint7_radial_1194_67825)"/>
<path fill-rule="evenodd" clip-rule="evenodd" d="M0.313477 5.34753C1.36743 6.90258 2.70245 7.09119 4.04671 9.18061C3.8618 8.95133 3.58444 8.58892 3.38475 8.36333C2.43803 7.29273 0.969889 6.64557 0.313477 5.34753Z" fill="url(#paint8_radial_1194_67825)"/>
<path fill-rule="evenodd" clip-rule="evenodd" d="M4.25867 9.4968C3.55973 9.1991 2.76463 9.05672 2.16184 8.77567C1.11528 8.28752 0.471813 7.94175 0.144531 6.39224C0.902641 7.2613 1.84935 7.47763 2.8386 8.05639C3.43701 8.39222 3.92905 8.88939 4.25867 9.49125V9.4968Z" fill="#D1D1D1"/>
<path fill-rule="evenodd" clip-rule="evenodd" d="M0.144531 6.39224C0.471813 7.94175 1.11528 8.28752 2.16184 8.77567C2.76463 9.05672 3.55973 9.1991 4.25867 9.4968C3.41365 8.73684 2.99576 8.65363 1.9455 8.10816C0.863811 7.55345 0.599397 7.30937 0.144531 6.39224Z" fill="url(#paint9_radial_1194_67825)"/>
<path fill-rule="evenodd" clip-rule="evenodd" d="M0.144531 6.39224C0.599397 7.31677 0.863811 7.5479 1.9455 8.10816C2.99576 8.66287 3.41365 8.73684 4.25867 9.4968C3.92905 8.89493 3.43701 8.39776 2.8386 8.06193C1.84935 7.47763 0.902641 7.2613 0.144531 6.39779V6.39224Z" fill="url(#paint10_radial_1194_67825)"/>
<path fill-rule="evenodd" clip-rule="evenodd" d="M0.518555 7.04492C1.51149 8.08779 3.159 8.41507 4.25918 9.49676C3.12387 8.61291 1.27482 8.08039 0.518555 7.04492Z" fill="url(#paint11_radial_1194_67825)"/>
<path fill-rule="evenodd" clip-rule="evenodd" d="M4.29056 9.43023C2.99622 9.85366 1.58724 9.71868 0.951172 8.33374C1.78324 8.9014 3.36788 8.92174 4.29056 9.43023Z" fill="#E6E6E6"/>
<path fill-rule="evenodd" clip-rule="evenodd" d="M4.29056 9.43023C3.03875 9.2786 1.77585 9.37476 0.951172 8.33374C1.58724 9.71868 2.98513 9.85366 4.29056 9.43023Z" fill="url(#paint12_radial_1194_67825)"/>
<path fill-rule="evenodd" clip-rule="evenodd" d="M0.951172 8.32077C1.77585 9.36179 3.03875 9.26563 4.29056 9.41726C3.36603 8.90877 1.78324 8.88843 0.951172 8.32077Z" fill="url(#paint13_radial_1194_67825)"/>
<path fill-rule="evenodd" clip-rule="evenodd" d="M1.35059 8.72571C2.301 9.28042 3.12382 9.29706 4.29057 9.42465C3.24586 9.42465 2.30285 9.42465 1.35059 8.72571Z" fill="url(#paint14_radial_1194_67825)"/>
<path fill-rule="evenodd" clip-rule="evenodd" d="M14.2826 6.6215C15.2626 5.03131 16.0096 3.51694 15.0666 2.08023C15.0407 3.40785 13.9091 4.73177 14.2826 6.6215Z" fill="#C4C4C4"/>
<path fill-rule="evenodd" clip-rule="evenodd" d="M15.0662 2.08023C16.0092 3.51694 15.2622 5.03871 14.2822 6.6215C14.5411 4.90188 15.5322 3.84792 15.0662 2.08023Z" fill="url(#paint15_radial_1194_67825)"/>
<path fill-rule="evenodd" clip-rule="evenodd" d="M15.0664 2.08023C15.5324 3.85347 14.5413 4.90188 14.2824 6.6215C13.9126 4.73177 15.0405 3.40785 15.0664 2.08023Z" fill="url(#paint16_radial_1194_67825)"/>
<path fill-rule="evenodd" clip-rule="evenodd" d="M15.1827 2.80508C15.0662 4.35829 14.493 5.1053 14.2822 6.62152C14.6225 5.1959 15.2844 4.00512 15.1827 2.80508Z" fill="url(#paint17_radial_1194_67825)"/>
<path fill-rule="evenodd" clip-rule="evenodd" d="M16.2078 2.11908C16.058 4.24364 13.78 5.84307 13.7911 8.012C16.0561 6.22212 17.417 4.3139 16.2078 2.11908Z" fill="#B3B3B3"/>
<path fill-rule="evenodd" clip-rule="evenodd" d="M16.2077 2.11908C17.417 4.3213 16.0561 6.22212 13.791 8.012C14.2773 6.71767 15.0983 6.12597 15.7344 5.04243C16.4555 3.81466 16.4389 3.06209 16.2077 2.11908Z" fill="url(#paint18_radial_1194_67825)"/>
<path fill-rule="evenodd" clip-rule="evenodd" d="M15.7344 5.04243C15.0983 6.12597 14.2774 6.70657 13.7911 8.012C13.78 5.84307 16.058 4.24364 16.2078 2.11908C16.4389 3.06209 16.4555 3.81466 15.7344 5.04243Z" fill="url(#paint19_radial_1194_67825)"/>
<path fill-rule="evenodd" clip-rule="evenodd" d="M16.3483 3.04544C16.0561 5.53426 14.4992 5.97064 13.791 8.01199C14.6823 6.20732 16.3556 5.15151 16.3483 3.04544Z" fill="url(#paint20_radial_1194_67825)"/>
<path fill-rule="evenodd" clip-rule="evenodd" d="M13.1748 9.18058C13.7154 8.75173 14.2783 8.35177 14.8611 7.9824C16.1555 7.08191 17.3167 6.30162 17.215 4.46921C16.5049 5.57864 15.059 6.25169 14.1751 7.4092C13.7536 7.94811 13.4163 8.54786 13.1748 9.18798V9.18058Z" fill="#BDBDBD"/>
<path fill-rule="evenodd" clip-rule="evenodd" d="M17.215 4.4618C17.3167 6.31085 16.1647 7.08191 14.8611 7.975C14.2783 8.34437 13.7154 8.74432 13.1748 9.17318C14.1141 7.79934 14.5579 7.60704 15.8467 6.54568C16.7823 5.77463 16.9875 5.33271 17.215 4.45441V4.4618Z" fill="url(#paint21_radial_1194_67825)"/>
<path fill-rule="evenodd" clip-rule="evenodd" d="M15.8467 6.5531C14.5523 7.61445 14.1141 7.80675 13.1748 9.18059C13.4163 8.54047 13.7536 7.94072 14.1751 7.40181C15.059 6.2443 16.5049 5.5768 17.215 4.46182C16.9875 5.34012 16.7823 5.78204 15.8467 6.5531Z" fill="url(#paint22_radial_1194_67825)"/>
<path fill-rule="evenodd" clip-rule="evenodd" d="M16.908 5.34753C15.8541 6.90258 14.5191 7.09119 13.1748 9.18061C13.3597 8.95133 13.6371 8.58892 13.8368 8.36333C14.7835 7.29273 16.2516 6.64557 16.908 5.34753Z" fill="url(#paint23_radial_1194_67825)"/>
<path fill-rule="evenodd" clip-rule="evenodd" d="M12.9639 9.4968C13.661 9.1991 14.456 9.05672 15.0588 8.77567C16.1072 8.28752 16.7489 7.94175 17.0762 6.39224C16.318 7.2613 15.3732 7.47763 14.3821 8.05639C13.7839 8.39185 13.2923 8.88916 12.9639 9.49125V9.4968Z" fill="#D1D1D1"/>
<path fill-rule="evenodd" clip-rule="evenodd" d="M17.0762 6.39224C16.7489 7.94175 16.1072 8.28752 15.0588 8.77567C14.456 9.05672 13.661 9.1991 12.9639 9.4968C13.8089 8.73684 14.2249 8.65363 15.277 8.10816C16.3569 7.55345 16.6213 7.30937 17.0762 6.39224Z" fill="url(#paint24_radial_1194_67825)"/>
<path fill-rule="evenodd" clip-rule="evenodd" d="M17.0762 6.39224C16.6213 7.31677 16.3569 7.5479 15.277 8.10816C14.2249 8.66287 13.8089 8.73684 12.9639 9.4968C13.2923 8.8947 13.7839 8.3974 14.3821 8.06193C15.3732 7.47763 16.318 7.2613 17.0762 6.39779V6.39224Z" fill="url(#paint25_radial_1194_67825)"/>
<path fill-rule="evenodd" clip-rule="evenodd" d="M16.7026 7.04492C15.7116 8.08779 14.0622 8.41507 12.9639 9.49676C14.0973 8.61291 15.9482 8.08039 16.7026 7.04492Z" fill="url(#paint26_radial_1194_67825)"/>
<path fill-rule="evenodd" clip-rule="evenodd" d="M12.9346 9.43023C14.2289 9.85366 15.6379 9.71868 16.274 8.33374C15.4419 8.9014 13.8572 8.92174 12.9346 9.43023Z" fill="#E6E6E6"/>
<path fill-rule="evenodd" clip-rule="evenodd" d="M12.9346 9.43023C14.1864 9.2786 15.4511 9.37476 16.274 8.33374C15.6379 9.71868 14.24 9.85366 12.9346 9.43023Z" fill="url(#paint27_radial_1194_67825)"/>
<path fill-rule="evenodd" clip-rule="evenodd" d="M16.2632 8.32077C15.4404 9.36179 14.1756 9.26563 12.9238 9.41726C13.8484 8.90877 15.4311 8.88843 16.2632 8.32077Z" fill="url(#paint28_radial_1194_67825)"/>
<path fill-rule="evenodd" clip-rule="evenodd" d="M15.8707 8.72571C14.9202 9.28042 14.0974 9.29706 12.9307 9.42465C13.9754 9.42465 14.9184 9.42465 15.8707 8.72571Z" fill="url(#paint29_radial_1194_67825)"/>
<path fill-rule="evenodd" clip-rule="evenodd" d="M8.60929 1.15573L10.9705 2.51848L13.3318 3.88123V6.60858V9.33408L10.9705 10.6968L8.60929 12.0596L6.24991 10.6968L3.88867 9.33408V6.60858V3.88123L6.24991 2.51848L8.60929 1.15573Z" fill="url(#paint30_radial_1194_67825)"/>
<path fill-rule="evenodd" clip-rule="evenodd" d="M8.61169 6.10352e-05L11.4703 1.66421L14.3289 3.31541V9.91836L11.4703 11.5696L8.61169 13.2208L5.75121 11.5696L2.89258 9.91836V3.30616L5.75121 1.66421L8.61169 6.10352e-05ZM8.61169 1.31658L10.9008 2.6442L13.1899 3.96442V9.24531L10.9008 10.5729L8.61354 11.8931L6.32441 10.5729L4.03344 9.24531V3.96442L6.32256 2.6442L8.61169 1.32213V1.31658Z" fill="#999999"/>
<path fill-rule="evenodd" clip-rule="evenodd" d="M6.03596 2.14866C6.89885 1.65558 7.75743 1.1625 8.61169 0.669417V6.10352e-05L5.75121 1.66421L2.89258 3.31541L3.46209 3.64454L6.03596 2.1653V2.14866Z" fill="url(#paint31_radial_1194_67825)"/>
<path fill-rule="evenodd" clip-rule="evenodd" d="M8.61152 0.663883C7.74863 1.15696 6.89005 1.65004 6.03579 2.14312L3.46191 3.62236L4.03327 3.95149L6.32239 2.63127L8.61152 1.3092V0.65094V0.663883Z" fill="url(#paint32_radial_1194_67825)"/>
<path fill-rule="evenodd" clip-rule="evenodd" d="M8.61133 0.663869L11.1852 2.14311L13.7591 3.62235L14.3286 3.29322L11.47 1.66421L8.61133 6.10352e-05V0.658322V0.663869Z" fill="url(#paint33_radial_1194_67825)"/>
<path fill-rule="evenodd" clip-rule="evenodd" d="M11.1852 2.14864L8.61133 0.669403V1.32766L10.9005 2.64419L13.1896 3.96441L13.7609 3.63528L11.1871 2.15604L11.1852 2.14864Z" fill="url(#paint34_radial_1194_67825)"/>
<path fill-rule="evenodd" clip-rule="evenodd" d="M13.1875 3.96441V9.2453L13.7589 9.57443V3.63528L13.1875 3.96441Z" fill="url(#paint35_radial_1194_67825)"/>
<path fill-rule="evenodd" clip-rule="evenodd" d="M13.7598 3.63528V9.57998L14.3293 9.90911V3.30615L13.7598 3.63528Z" fill="url(#paint36_radial_1194_67825)"/>
<path fill-rule="evenodd" clip-rule="evenodd" d="M3.46209 6.60855V3.63528L2.89258 3.30615V9.90911L3.46209 9.57998V6.60855Z" fill="url(#paint37_radial_1194_67825)"/>
<path fill-rule="evenodd" clip-rule="evenodd" d="M3.46191 3.63528V9.57998L4.03327 9.2453V3.96441L3.46191 3.63528Z" fill="url(#paint38_radial_1194_67825)"/>
<path fill-rule="evenodd" clip-rule="evenodd" d="M6.32239 10.5729L4.03327 9.2453L3.46191 9.57443L6.03579 11.0537L8.61152 12.5329V11.8746L6.32239 10.5544V10.5729Z" fill="url(#paint39_radial_1194_67825)"/>
<path fill-rule="evenodd" clip-rule="evenodd" d="M6.03596 11.0666L3.46209 9.58737L2.89258 9.9165L5.75121 11.5677L8.61169 13.2189V12.5588L6.03596 11.0796V11.0666Z" fill="url(#paint40_radial_1194_67825)"/>
<path fill-rule="evenodd" clip-rule="evenodd" d="M10.9006 10.5729L8.61328 11.8931V12.5514L11.1872 11.0722L13.761 9.59292L13.1878 9.2453L10.9006 10.5729Z" fill="url(#paint41_radial_1194_67825)"/>
<path fill-rule="evenodd" clip-rule="evenodd" d="M11.1852 11.0666L8.61133 12.5459V13.206L11.47 11.5548L14.3286 9.90356L13.7591 9.57443L11.1852 11.0537V11.0666Z" fill="url(#paint42_radial_1194_67825)"/>
<path style="mix-blend-mode:multiply" fill-rule="evenodd" clip-rule="evenodd" d="M4.0332 4.83903C4.4289 4.08647 6.70323 2.63127 7.96613 1.94897C8.16378 1.83802 8.38664 1.77974 8.6133 1.77974C8.83996 1.77974 9.06282 1.83802 9.26046 1.94897C10.5234 2.63127 12.7921 4.08647 13.1934 4.83903V3.96444L10.9006 2.64421L8.6133 1.32214L6.32233 2.64421L4.0332 3.96444V4.83903Z" fill="url(#paint43_radial_1194_67825)"/>
<path style="mix-blend-mode:screen" fill-rule="evenodd" clip-rule="evenodd" d="M5.64746 2.37426L8.55786 0.617662L8.60964 0.0795898L8.61518 0.0906837L8.65401 0.612115L10.3348 1.65868L8.60964 0.7397L5.64746 2.37426Z" fill="url(#paint44_radial_1194_67825)"/>
<path style="mix-blend-mode:screen" fill-rule="evenodd" clip-rule="evenodd" d="M5.55658 2.42603L3.43757 3.55949L3.0918 3.42081L3.39504 3.66674L3.46161 6.93031L3.55961 3.69078L5.55658 2.42603Z" fill="url(#paint45_radial_1194_67825)"/>
<path style="mix-blend-mode:screen" fill-rule="evenodd" clip-rule="evenodd" d="M4.74902 10.3233L8.55252 12.6605L8.60984 13.0562L8.66346 12.6605L10.6179 11.3939L8.60984 12.4497L4.74902 10.3233Z" fill="url(#paint46_radial_1194_67825)"/>
<path style="mix-blend-mode:screen" fill-rule="evenodd" clip-rule="evenodd" d="M7.06998 3.93852C6.19168 4.44516 5.29304 4.6578 4.69395 4.55056C4.45727 4.50803 4.19656 4.31203 4.61074 4.0735L8.41609 1.87499C8.83027 1.63646 8.8691 1.96004 8.7859 2.18563C8.5788 2.75883 7.94643 3.43189 7.06813 3.93852H7.06998Z" fill="url(#paint47_radial_1194_67825)"/>
<path fill-rule="evenodd" clip-rule="evenodd" d="M8.61138 3.25439L9.59877 5.24767L11.801 5.57125L10.2108 7.12815L10.5825 9.32112L8.61138 8.2912L6.63844 9.32112L7.0101 7.12815L5.41992 5.57125L7.62214 5.24767L8.61138 3.25439Z" fill="#B05B00"/>
<path fill-rule="evenodd" clip-rule="evenodd" d="M8.61138 6.60858L5.41992 5.57126L7.0101 7.12816L8.61138 6.60858Z" fill="url(#paint48_radial_1194_67825)"/>
<path fill-rule="evenodd" clip-rule="evenodd" d="M5.41992 5.57123L8.61138 6.60855L7.62214 5.24765L5.41992 5.57123Z" fill="url(#paint49_radial_1194_67825)"/>
<path fill-rule="evenodd" clip-rule="evenodd" d="M7.62207 5.24767L8.61131 6.60857V3.25439L7.62207 5.24767Z" fill="url(#paint50_radial_1194_67825)"/>
<path fill-rule="evenodd" clip-rule="evenodd" d="M8.61133 3.25439V6.60857L9.59872 5.24767L8.61133 3.25439Z" fill="url(#paint51_radial_1194_67825)"/>
<path fill-rule="evenodd" clip-rule="evenodd" d="M9.59872 5.24765L8.61133 6.60855L11.8009 5.57123L9.59872 5.24765Z" fill="url(#paint52_radial_1194_67825)"/>
<path fill-rule="evenodd" clip-rule="evenodd" d="M11.8009 5.57126L8.61133 6.60858L10.2108 7.12816L11.8009 5.57126Z" fill="url(#paint53_radial_1194_67825)"/>
<path fill-rule="evenodd" clip-rule="evenodd" d="M10.2108 7.12813L8.61133 6.60855L10.5824 9.32111L10.2108 7.12813Z" fill="url(#paint54_radial_1194_67825)"/>
<path fill-rule="evenodd" clip-rule="evenodd" d="M10.5824 9.32111L8.61133 6.60855V8.29118L10.5824 9.32111Z" fill="url(#paint55_radial_1194_67825)"/>
<path fill-rule="evenodd" clip-rule="evenodd" d="M8.61161 8.29118V6.60855L6.63867 9.32111L8.61161 8.29118Z" fill="url(#paint56_radial_1194_67825)"/>
<path fill-rule="evenodd" clip-rule="evenodd" d="M6.63867 9.32111L8.61161 6.60855L7.01033 7.12813L6.63867 9.32111Z" fill="url(#paint57_radial_1194_67825)"/>
<path style="mix-blend-mode:screen" fill-rule="evenodd" clip-rule="evenodd" d="M5.9082 5.73212L8.4525 6.39223C8.38031 6.24477 8.32689 6.08885 8.29348 5.92812L8.61151 3.41156V6.61042L5.9082 5.73212Z" fill="url(#paint58_radial_1194_67825)"/>
<path style="mix-blend-mode:screen" fill-rule="evenodd" clip-rule="evenodd" d="M8.61133 6.60858C8.77466 6.39944 9.00755 6.25577 9.26774 6.20364L11.5347 5.64893L8.61133 6.59934V6.60858Z" fill="url(#paint59_radial_1194_67825)"/>
<path style="mix-blend-mode:screen" fill-rule="evenodd" clip-rule="evenodd" d="M8.61115 6.60855C8.30023 6.79789 8.02693 7.04299 7.80497 7.33153L6.64746 9.32111L8.6204 6.60855H8.61115Z" fill="url(#paint60_radial_1194_67825)"/>
<defs>
<radialGradient id="paint0_radial_1194_67825" cx="0" cy="0" r="1" gradientUnits="userSpaceOnUse" gradientTransform="translate(2.35434 1.53476) scale(4.4747)">
<stop stop-color="#FFC600"/>
<stop offset="1" stop-color="#D64F00"/>
</radialGradient>
<radialGradient id="paint1_radial_1194_67825" cx="0" cy="0" r="1" gradientUnits="userSpaceOnUse" gradientTransform="translate(2.59885 1.88978) scale(4.44511)">
<stop stop-color="#FFEB68"/>
<stop offset="1" stop-color="#E67D2D"/>
</radialGradient>
<radialGradient id="paint2_radial_1194_67825" cx="0" cy="0" r="1" gradientUnits="userSpaceOnUse" gradientTransform="translate(2.2172 2.86795) scale(3.66297)">
<stop stop-color="#FF9900"/>
<stop offset="1" stop-color="#C44800"/>
</radialGradient>
<radialGradient id="paint3_radial_1194_67825" cx="0" cy="0" r="1" gradientUnits="userSpaceOnUse" gradientTransform="translate(1.64254 1.66791) scale(5.43436)">
<stop stop-color="#FFC600"/>
<stop offset="1" stop-color="#D64F00"/>
</radialGradient>
<radialGradient id="paint4_radial_1194_67825" cx="0" cy="0" r="1" gradientUnits="userSpaceOnUse" gradientTransform="translate(1.31543 2.25036) scale(4.64481)">
<stop stop-color="#FFEB68"/>
<stop offset="1" stop-color="#E67D2D"/>
</radialGradient>
<radialGradient id="paint5_radial_1194_67825" cx="0" cy="0" r="1" gradientUnits="userSpaceOnUse" gradientTransform="translate(0.972909 3.07503) scale(4.8704)">
<stop stop-color="#FF9900"/>
<stop offset="1" stop-color="#C44800"/>
</radialGradient>
<radialGradient id="paint6_radial_1194_67825" cx="0" cy="0" r="1" gradientUnits="userSpaceOnUse" gradientTransform="translate(0.629392 3.75177) scale(5.24945 5.24945)">
<stop stop-color="#FFC600"/>
<stop offset="1" stop-color="#D64F00"/>
</radialGradient>
<radialGradient id="paint7_radial_1194_67825" cx="0" cy="0" r="1" gradientUnits="userSpaceOnUse" gradientTransform="translate(0.27582 4.56351) scale(4.72247 4.72247)">
<stop stop-color="#FFEB68"/>
<stop offset="1" stop-color="#E67D2D"/>
</radialGradient>
<radialGradient id="paint8_radial_1194_67825" cx="0" cy="0" r="1" gradientUnits="userSpaceOnUse" gradientTransform="translate(0.659249 5.30501) scale(4.26945)">
<stop stop-color="#FF9900"/>
<stop offset="1" stop-color="#C44800"/>
</radialGradient>
<radialGradient id="paint9_radial_1194_67825" cx="0" cy="0" r="1" gradientUnits="userSpaceOnUse" gradientTransform="translate(0.908189 5.56017) scale(4.97764 4.97764)">
<stop stop-color="#FFC600"/>
<stop offset="1" stop-color="#D64F00"/>
</radialGradient>
<radialGradient id="paint10_radial_1194_67825" cx="0" cy="0" r="1" gradientUnits="userSpaceOnUse" gradientTransform="translate(0.425587 6.3719) scale(4.21398 4.21398)">
<stop stop-color="#FFEB68"/>
<stop offset="1" stop-color="#E67D2D"/>
</radialGradient>
<radialGradient id="paint11_radial_1194_67825" cx="0" cy="0" r="1" gradientUnits="userSpaceOnUse" gradientTransform="translate(1.07512 6.7879) scale(3.8941 3.8941)">
<stop stop-color="#FF9900"/>
<stop offset="1" stop-color="#C44800"/>
</radialGradient>
<radialGradient id="paint12_radial_1194_67825" cx="0" cy="0" r="1" gradientUnits="userSpaceOnUse" gradientTransform="translate(1.55581 7.15775) scale(3.57421 3.57421)">
<stop stop-color="#FFC600"/>
<stop offset="1" stop-color="#D64F00"/>
</radialGradient>
<radialGradient id="paint13_radial_1194_67825" cx="0" cy="0" r="1" gradientUnits="userSpaceOnUse" gradientTransform="translate(1.35242 8.21722) scale(3.16742 3.16742)">
<stop stop-color="#FFEB68"/>
<stop offset="1" stop-color="#E67D2D"/>
</radialGradient>
<radialGradient id="paint14_radial_1194_67825" cx="0" cy="0" r="1" gradientUnits="userSpaceOnUse" gradientTransform="translate(1.67972 8.29488) scale(3.05463 3.05463)">
<stop stop-color="#FF9900"/>
<stop offset="1" stop-color="#C44800"/>
</radialGradient>
<radialGradient id="paint15_radial_1194_67825" cx="0" cy="0" r="1" gradientUnits="userSpaceOnUse" gradientTransform="translate(14.8665 1.53476) rotate(180) scale(4.4747)">
<stop stop-color="#FFC600"/>
<stop offset="1" stop-color="#D64F00"/>
</radialGradient>
<radialGradient id="paint16_radial_1194_67825" cx="0" cy="0" r="1" gradientUnits="userSpaceOnUse" gradientTransform="translate(14.6226 1.88978) rotate(180) scale(4.44511)">
<stop stop-color="#FFEB68"/>
<stop offset="1" stop-color="#E67D2D"/>
</radialGradient>
<radialGradient id="paint17_radial_1194_67825" cx="0" cy="0" r="1" gradientUnits="userSpaceOnUse" gradientTransform="translate(15.0034 2.86795) rotate(180) scale(3.66297 3.66297)">
<stop stop-color="#FF9900"/>
<stop offset="1" stop-color="#C44800"/>
</radialGradient>
<radialGradient id="paint18_radial_1194_67825" cx="0" cy="0" r="1" gradientUnits="userSpaceOnUse" gradientTransform="translate(15.579 1.66791) rotate(180) scale(5.43436)">
<stop stop-color="#FFC600"/>
<stop offset="1" stop-color="#D64F00"/>
</radialGradient>
<radialGradient id="paint19_radial_1194_67825" cx="0" cy="0" r="1" gradientUnits="userSpaceOnUse" gradientTransform="translate(15.9064 2.25036) rotate(180) scale(4.64481)">
<stop stop-color="#FFEB68"/>
<stop offset="1" stop-color="#E67D2D"/>
</radialGradient>
<radialGradient id="paint20_radial_1194_67825" cx="0" cy="0" r="1" gradientUnits="userSpaceOnUse" gradientTransform="translate(16.2484 3.07503) rotate(180) scale(4.8704)">
<stop stop-color="#FF9900"/>
<stop offset="1" stop-color="#C44800"/>
</radialGradient>
<radialGradient id="paint21_radial_1194_67825" cx="0" cy="0" r="1" gradientUnits="userSpaceOnUse" gradientTransform="translate(16.5918 3.75177) rotate(180) scale(5.24945 5.24945)">
<stop stop-color="#FFC600"/>
<stop offset="1" stop-color="#D64F00"/>
</radialGradient>
<radialGradient id="paint22_radial_1194_67825" cx="0" cy="0" r="1" gradientUnits="userSpaceOnUse" gradientTransform="translate(16.945 4.56352) rotate(180) scale(4.72247 4.72247)">
<stop stop-color="#FFEB68"/>
<stop offset="1" stop-color="#E67D2D"/>
</radialGradient>
<radialGradient id="paint23_radial_1194_67825" cx="0" cy="0" r="1" gradientUnits="userSpaceOnUse" gradientTransform="translate(16.5623 5.30501) rotate(180) scale(4.26945)">
<stop stop-color="#FF9900"/>
<stop offset="1" stop-color="#C44800"/>
</radialGradient>
<radialGradient id="paint24_radial_1194_67825" cx="0" cy="0" r="1" gradientUnits="userSpaceOnUse" gradientTransform="translate(16.3125 5.56017) rotate(180) scale(4.97764 4.97764)">
<stop stop-color="#FFC600"/>
<stop offset="1" stop-color="#D64F00"/>
</radialGradient>
<radialGradient id="paint25_radial_1194_67825" cx="0" cy="0" r="1" gradientUnits="userSpaceOnUse" gradientTransform="translate(16.7951 6.3719) rotate(180) scale(4.21398 4.21398)">
<stop stop-color="#FFEB68"/>
<stop offset="1" stop-color="#E67D2D"/>
</radialGradient>
<radialGradient id="paint26_radial_1194_67825" cx="0" cy="0" r="1" gradientUnits="userSpaceOnUse" gradientTransform="translate(16.1461 6.7879) rotate(180) scale(3.8941)">
<stop stop-color="#FF9900"/>
<stop offset="1" stop-color="#C44800"/>
</radialGradient>
<radialGradient id="paint27_radial_1194_67825" cx="0" cy="0" r="1" gradientUnits="userSpaceOnUse" gradientTransform="translate(15.6656 7.15775) rotate(180) scale(3.57421 3.57421)">
<stop stop-color="#FFC600"/>
<stop offset="1" stop-color="#D64F00"/>
</radialGradient>
<radialGradient id="paint28_radial_1194_67825" cx="0" cy="0" r="1" gradientUnits="userSpaceOnUse" gradientTransform="translate(15.8694 8.21722) rotate(180) scale(3.16742 3.16742)">
<stop stop-color="#FFEB68"/>
<stop offset="1" stop-color="#E67D2D"/>
</radialGradient>
<radialGradient id="paint29_radial_1194_67825" cx="0" cy="0" r="1" gradientUnits="userSpaceOnUse" gradientTransform="translate(15.5415 8.29488) rotate(180) scale(3.05463)">
<stop stop-color="#FF9900"/>
<stop offset="1" stop-color="#C44800"/>
</radialGradient>
<radialGradient id="paint30_radial_1194_67825" cx="0" cy="0" r="1" gradientUnits="userSpaceOnUse" gradientTransform="translate(7.05055 3.29878) scale(8.99193)">
<stop stop-color="#F7FF12"/>
<stop offset="0.7" stop-color="#FFAA00"/>
<stop offset="1" stop-color="#A82200"/>
</radialGradient>
<radialGradient id="paint31_radial_1194_67825" cx="0" cy="0" r="1" gradientUnits="userSpaceOnUse" gradientTransform="translate(7.72969 0.336588) scale(14.3375)">
<stop stop-color="#FFF8C7"/>
<stop offset="1" stop-color="#FFC521"/>
</radialGradient>
<radialGradient id="paint32_radial_1194_67825" cx="0" cy="0" r="1" gradientUnits="userSpaceOnUse" gradientTransform="translate(9.51755 7.81046) scale(7.80114 7.80114)">
<stop stop-color="#FF9900"/>
<stop offset="1" stop-color="#C44800"/>
</radialGradient>
<radialGradient id="paint33_radial_1194_67825" cx="0" cy="0" r="1" gradientUnits="userSpaceOnUse" gradientTransform="translate(6.49971 8.46501) scale(11.9837 11.9837)">
<stop stop-color="#FFEB68"/>
<stop offset="1" stop-color="#E67D2D"/>
</radialGradient>
<radialGradient id="paint34_radial_1194_67825" cx="0" cy="0" r="1" gradientUnits="userSpaceOnUse" gradientTransform="translate(6.94903 7.61443) scale(11.1978)">
<stop stop-color="#FFC600"/>
<stop offset="1" stop-color="#D64F00"/>
</radialGradient>
<radialGradient id="paint35_radial_1194_67825" cx="0" cy="0" r="1" gradientUnits="userSpaceOnUse" gradientTransform="translate(8.70541 5.59343) scale(9.48376 9.48377)">
<stop stop-color="#FFEB68"/>
<stop offset="1" stop-color="#E67D2D"/>
</radialGradient>
<radialGradient id="paint36_radial_1194_67825" cx="0" cy="0" r="1" gradientUnits="userSpaceOnUse" gradientTransform="translate(5.95492 5.82086) scale(10.8188 10.8188)">
<stop stop-color="#FFC600"/>
<stop offset="1" stop-color="#D64F00"/>
</radialGradient>
<radialGradient id="paint37_radial_1194_67825" cx="0" cy="0" r="1" gradientUnits="userSpaceOnUse" gradientTransform="translate(-2.18676 3.95702) scale(10.0256 10.0255)">
<stop stop-color="#FFEB68"/>
<stop offset="1" stop-color="#E67D2D"/>
</radialGradient>
<radialGradient id="paint38_radial_1194_67825" cx="0" cy="0" r="1" gradientUnits="userSpaceOnUse" gradientTransform="translate(11.7863 6.12595) scale(11.0388 11.0388)">
<stop stop-color="#FFC600"/>
<stop offset="1" stop-color="#D64F00"/>
</radialGradient>
<radialGradient id="paint39_radial_1194_67825" cx="0" cy="0" r="1" gradientUnits="userSpaceOnUse" gradientTransform="translate(9.51016 4.13083) scale(10.3011 10.3011)">
<stop stop-color="#FFEB68"/>
<stop offset="1" stop-color="#E67D2D"/>
</radialGradient>
<radialGradient id="paint40_radial_1194_67825" cx="0" cy="0" r="1" gradientUnits="userSpaceOnUse" gradientTransform="translate(13.5117 3.6094) scale(12.6031 12.6031)">
<stop stop-color="#FFC600"/>
<stop offset="1" stop-color="#D64F00"/>
</radialGradient>
<radialGradient id="paint41_radial_1194_67825" cx="0" cy="0" r="1" gradientUnits="userSpaceOnUse" gradientTransform="translate(12.5296 12.4238) scale(8.96789)">
<stop stop-color="#FFEB68"/>
<stop offset="1" stop-color="#FFAC6B"/>
</radialGradient>
<radialGradient id="paint42_radial_1194_67825" cx="0" cy="0" r="1" gradientUnits="userSpaceOnUse" gradientTransform="translate(6.22051 3.68706) scale(10.9778)">
<stop stop-color="#FF9900"/>
<stop offset="1" stop-color="#C44800"/>
</radialGradient>
<radialGradient id="paint43_radial_1194_67825" cx="0" cy="0" r="1" gradientUnits="userSpaceOnUse" gradientTransform="translate(8.53379 10.9538) scale(11.9319 11.9319)">
<stop offset="0.26" stop-color="white"/>
<stop offset="0.32" stop-color="#FFF9F4"/>
<stop offset="0.43" stop-color="#FDE8D6"/>
<stop offset="0.58" stop-color="#FCCCA6"/>
<stop offset="0.76" stop-color="#F9A663"/>
<stop offset="0.97" stop-color="#F6750F"/>
<stop offset="1" stop-color="#F56D00"/>
</radialGradient>
<radialGradient id="paint44_radial_1194_67825" cx="0" cy="0" r="1" gradientUnits="userSpaceOnUse" gradientTransform="translate(8.32119 -0.19222) scale(11.9356 11.9356)">
<stop stop-color="#FFEF8F"/>
<stop offset="1"/>
</radialGradient>
<radialGradient id="paint45_radial_1194_67825" cx="0" cy="0" r="1" gradientUnits="userSpaceOnUse" gradientTransform="translate(3.33587 3.68893) scale(5.86149 5.86148)">
<stop stop-color="#FFEF8F"/>
<stop offset="1"/>
</radialGradient>
<radialGradient id="paint46_radial_1194_67825" cx="0" cy="0" r="1" gradientUnits="userSpaceOnUse" gradientTransform="translate(8.62278 13.034) scale(8.81812 8.81812)">
<stop stop-color="#FFEF8F"/>
<stop offset="1"/>
</radialGradient>
<radialGradient id="paint47_radial_1194_67825" cx="0" cy="0" r="1" gradientUnits="userSpaceOnUse" gradientTransform="translate(5.16176 0.787744) scale(5.14036)">
<stop stop-color="#FFF2BB"/>
<stop offset="1"/>
</radialGradient>
<radialGradient id="paint48_radial_1194_67825" cx="0" cy="0" r="1" gradientUnits="userSpaceOnUse" gradientTransform="translate(6.29267 2.06731) scale(5.09968 5.09968)">
<stop stop-color="#FFC600"/>
<stop offset="1" stop-color="#D64F00"/>
</radialGradient>
<radialGradient id="paint49_radial_1194_67825" cx="0" cy="0" r="1" gradientUnits="userSpaceOnUse" gradientTransform="translate(7.8958 4.22882) scale(4.34527)">
<stop stop-color="#FFEB68"/>
<stop offset="1" stop-color="#E67D2D"/>
</radialGradient>
<radialGradient id="paint50_radial_1194_67825" cx="0" cy="0" r="1" gradientUnits="userSpaceOnUse" gradientTransform="translate(7.94011 4.19186) scale(5.48429 5.48428)">
<stop stop-color="#FFEB68"/>
<stop offset="1" stop-color="#FFAC6B"/>
</radialGradient>
<radialGradient id="paint51_radial_1194_67825" cx="0" cy="0" r="1" gradientUnits="userSpaceOnUse" gradientTransform="translate(5.62696 3.6242) scale(5.38628 5.38628)">
<stop stop-color="#FFC600"/>
<stop offset="1" stop-color="#D64F00"/>
</radialGradient>
<radialGradient id="paint52_radial_1194_67825" cx="0" cy="0" r="1" gradientUnits="userSpaceOnUse" gradientTransform="translate(10.3864 3.1083) scale(4.80198)">
<stop stop-color="#FFEB68"/>
<stop offset="1" stop-color="#E67D2D"/>
</radialGradient>
<radialGradient id="paint53_radial_1194_67825" cx="0" cy="0" r="1" gradientUnits="userSpaceOnUse" gradientTransform="translate(6.98971 1.30365) scale(6.57337 6.57337)">
<stop stop-color="#FFC600"/>
<stop offset="1" stop-color="#D64F00"/>
</radialGradient>
<radialGradient id="paint54_radial_1194_67825" cx="0" cy="0" r="1" gradientUnits="userSpaceOnUse" gradientTransform="translate(12.792 7.62368) scale(5.07379)">
<stop stop-color="#FFEB68"/>
<stop offset="1" stop-color="#E67D2D"/>
</radialGradient>
<radialGradient id="paint55_radial_1194_67825" cx="0" cy="0" r="1" gradientUnits="userSpaceOnUse" gradientTransform="translate(12.1097 6.11485) scale(5.75979 5.75979)">
<stop stop-color="#FFC600"/>
<stop offset="1" stop-color="#D64F00"/>
</radialGradient>
<radialGradient id="paint56_radial_1194_67825" cx="0" cy="0" r="1" gradientUnits="userSpaceOnUse" gradientTransform="translate(3.96679 5.19033) scale(5.86889 5.86888)">
<stop stop-color="#FFC600"/>
<stop offset="1" stop-color="#D64F00"/>
</radialGradient>
<radialGradient id="paint57_radial_1194_67825" cx="0" cy="0" r="1" gradientUnits="userSpaceOnUse" gradientTransform="translate(7.65935 9.26194) scale(3.62229 3.62229)">
<stop stop-color="#FFC600"/>
<stop offset="1" stop-color="#D64F00"/>
</radialGradient>
<radialGradient id="paint58_radial_1194_67825" cx="0" cy="0" r="1" gradientUnits="userSpaceOnUse" gradientTransform="translate(9.0294 5.954) scale(4.55791)">
<stop stop-color="#FFEF8F"/>
<stop offset="1"/>
</radialGradient>
<radialGradient id="paint59_radial_1194_67825" cx="0" cy="0" r="1" gradientUnits="userSpaceOnUse" gradientTransform="translate(10.9374 4.78542) scale(4.78719 4.78719)">
<stop stop-color="#FFEF8F"/>
<stop offset="1"/>
</radialGradient>
<radialGradient id="paint60_radial_1194_67825" cx="0" cy="0" r="1" gradientUnits="userSpaceOnUse" gradientTransform="translate(5.9966 8.70907) scale(4.11413)">
<stop stop-color="#FFEF8F"/>
<stop offset="1"/>
</radialGradient>
</defs>
</svg>
