<svg width="18" height="18" viewBox="0 0 18 18" fill="none" xmlns="http://www.w3.org/2000/svg">
<path fill-rule="evenodd" clip-rule="evenodd" d="M8.33565 1.83203C4.74353 1.83203 1.83154 4.74402 1.83154 8.33614C1.83154 11.9283 4.74353 14.8403 8.33565 14.8403C9.84404 14.8403 11.2325 14.3268 12.3358 13.4651L15.7464 16.8757C15.9641 17.0934 16.3171 17.0934 16.5348 16.8757C16.7525 16.658 16.7525 16.305 16.5348 16.0873L13.1533 12.7058C14.2012 11.5512 14.8398 10.0182 14.8398 8.33614C14.8398 4.74402 11.9278 1.83203 8.33565 1.83203ZM2.94653 8.33614C2.94653 5.35981 5.35932 2.94702 8.33565 2.94702C11.312 2.94702 13.7248 5.35981 13.7248 8.33614C13.7248 11.3125 11.312 13.7253 8.33565 13.7253C5.35932 13.7253 2.94653 11.3125 2.94653 8.33614Z" fill="white" fill-opacity="0.5"/>
</svg>
