<svg width="36" height="36" viewBox="0 0 36 36" fill="none" xmlns="http://www.w3.org/2000/svg">
<circle cx="18" cy="18" r="18" fill="#21252C"/>
<g clip-path="url(#clip0_525_18413)">
<path opacity="0.99" fill-rule="evenodd" clip-rule="evenodd" d="M26.9823 16.12C26.9823 16.3778 26.9823 16.6357 26.9823 16.8935C26.8923 17.3194 26.699 17.6944 26.4022 18.0185C24.9413 19.5029 23.4588 20.9619 21.955 22.3954C21.5502 22.6361 21.14 22.6479 20.7245 22.4306C20.4721 22.2129 20.3256 21.9375 20.285 21.6044C20.2733 21.0302 20.2616 20.4559 20.2499 19.8817C15.9315 20.1567 12.4686 22.0024 9.86121 25.4188C9.49312 25.6183 9.20016 25.5421 8.9823 25.1903C8.9823 24.8153 8.9823 24.4403 8.9823 24.0653C9.443 19.808 11.5289 16.6263 15.2401 14.5204C16.8134 13.6906 18.4891 13.2394 20.2675 13.1669C20.2616 12.5925 20.2675 12.0183 20.285 11.4442C20.4275 10.6216 20.9021 10.3111 21.7089 10.5126C21.8705 10.5924 22.0228 10.6862 22.1659 10.7938C23.6132 12.2411 25.0604 13.6884 26.5077 15.1356C26.7333 15.4344 26.8915 15.7626 26.9823 16.12Z" fill="#8D8E95"/>
</g>
<defs>
<clipPath id="clip0_525_18413">
<rect width="18" height="18" fill="white" transform="translate(9 9)"/>
</clipPath>
</defs>
</svg>
