<svg width="16" height="15" viewBox="0 0 16 15" fill="none" xmlns="http://www.w3.org/2000/svg">
<g clip-path="url(#clip0_200_7965)">
<path opacity="0.994" fill-rule="evenodd" clip-rule="evenodd" d="M7.34082 -0.0146484C7.77052 -0.0146484 8.20019 -0.0146484 8.62988 -0.0146484C11.5685 0.351038 13.6632 1.87448 14.9141 4.55566C15.2157 5.29356 15.4062 6.05528 15.4854 6.84082C15.4854 7.27052 15.4854 7.70019 15.4854 8.12988C15.1197 11.0685 13.5962 13.1632 10.915 14.4141C10.1771 14.7157 9.41542 14.9062 8.62988 14.9854C8.20019 14.9854 7.77052 14.9854 7.34082 14.9854C4.4022 14.6197 2.30746 13.0962 1.05664 10.415C0.75498 9.67714 0.56455 8.91542 0.485352 8.12988C0.485352 7.70019 0.485352 7.27052 0.485352 6.84082C0.851038 3.9022 2.37448 1.80746 5.05566 0.556641C5.79356 0.25498 6.55528 0.0645504 7.34082 -0.0146484ZM6.43262 4.70215C6.60181 4.68091 6.75805 4.71507 6.90137 4.80469C8.06545 5.54871 9.23732 6.28113 10.417 7.00195C10.7537 7.16235 10.8465 7.41138 10.6953 7.74902C9.38937 8.60962 8.06612 9.44458 6.72559 10.2539C6.3793 10.3177 6.17911 10.1761 6.125 9.8291C6.10546 8.26661 6.10546 6.70409 6.125 5.1416C6.14334 4.93333 6.24588 4.78685 6.43262 4.70215Z" fill="white"/>
</g>
<defs>
<clipPath id="clip0_200_7965">
<rect width="15" height="15" fill="white" transform="translate(0.5)"/>
</clipPath>
</defs>
</svg>
