<svg width="168" height="167" viewBox="0 0 168 167" fill="none" xmlns="http://www.w3.org/2000/svg">
<path fill-rule="evenodd" clip-rule="evenodd" d="M71.4424 15.4932C59.9178 15.4932 48.3928 15.4932 36.8682 15.4932C36.8682 18.9724 36.8682 22.4515 36.8682 25.9307C50.1326 25.9307 63.3967 25.9307 76.6611 25.9307C104.06 25.8763 131.458 25.9307 158.856 26.0938C160.324 26.6917 161.357 27.7246 161.955 29.1924C162.173 51.3721 162.173 73.5518 161.955 95.7315C161.357 97.1992 160.324 98.2322 158.856 98.8301C154.726 98.9932 150.595 99.0476 146.462 98.9932C146.516 85.946 146.462 72.8991 146.299 59.8526C144.502 52.5104 139.881 48.216 132.437 46.9688C99.6018 46.7512 66.7674 46.7512 33.9326 46.9688C27.3507 48.7669 23.1648 52.9527 21.375 59.5264C21.2119 72.6815 21.1575 85.837 21.2119 98.9932C17.079 99.0476 12.9475 98.9932 8.81739 98.8301C7.34962 98.2322 6.31673 97.1992 5.71876 95.7315C5.5013 66.5935 5.5013 37.4553 5.71876 8.31739C6.31673 6.84962 7.34962 5.81673 8.81739 5.21876C27.5179 5.0013 46.2185 5.0013 64.919 5.21876C65.9177 5.56476 66.7331 6.16273 67.3652 7.0127C68.817 9.80692 70.1759 12.6337 71.4424 15.4932Z" fill="url(#paint0_linear_233_17831)" fill-opacity="0.6"/>
<path fill-rule="evenodd" clip-rule="evenodd" d="M71.4424 15.4932C73.3476 18.8687 75.0874 22.3479 76.6611 25.9307C63.3967 25.9307 50.1326 25.9307 36.8682 25.9307C36.8682 22.4515 36.8682 18.9723 36.8682 15.4932C48.3928 15.4932 59.9178 15.4932 71.4424 15.4932Z" fill="#A5A1A4"/>
<path fill-rule="evenodd" clip-rule="evenodd" d="M146.462 98.9932C142.983 98.9932 139.504 98.9932 136.024 98.9932C136.079 89.5335 136.024 80.0746 135.861 70.6162C135.645 69.8618 135.482 69.1008 135.372 68.333C133.248 62.461 129.117 58.8186 122.977 57.4063C96.3259 57.0837 69.6884 57.1926 43.0653 57.7324C37.4659 59.4178 33.8239 63.0598 32.1386 68.6592C31.6592 78.7542 31.4961 88.8655 31.6493 98.9932C28.1701 98.9932 24.691 98.9932 21.2118 98.9932C21.1574 85.837 21.2118 72.6816 21.3749 59.5264C23.1647 52.9527 27.3506 48.767 33.9325 46.9688C66.7672 46.7512 99.6016 46.7512 132.436 46.9688C139.881 48.2161 144.502 52.5104 146.299 59.8526C146.462 72.8991 146.516 85.946 146.462 98.9932Z" fill="#4C4082"/>
<path fill-rule="evenodd" clip-rule="evenodd" d="M135.372 68.333C134.398 68.1706 133.419 68.0075 132.437 67.8437C106.778 67.6262 81.1189 67.6262 55.4599 67.8437C48.2297 69.4201 43.8264 73.8234 42.25 81.0537C42.0324 106.713 42.0324 132.371 42.25 158.03C42.477 159.002 42.6401 159.98 42.7392 160.966C36.9161 159.11 33.2737 155.196 31.8125 149.224C31.6494 132.481 31.595 115.737 31.6494 98.9931C31.4962 88.8655 31.6593 78.7542 32.1386 68.6592C33.824 63.0598 37.466 59.4177 43.0654 57.7324C69.6885 57.1926 96.326 57.0837 122.978 57.4062C129.117 58.8186 133.248 62.4609 135.372 68.333Z" fill="#97979B"/>
<path fill-rule="evenodd" clip-rule="evenodd" d="M135.372 68.333C135.482 69.1008 135.645 69.8618 135.861 70.6162C136.024 80.0746 136.079 89.5335 136.024 98.9932C136.079 115.737 136.024 132.481 135.861 149.224C134.176 155.693 130.099 159.77 123.63 161.455C97.1014 161.673 70.5726 161.673 44.044 161.455C43.5359 161.387 43.1011 161.224 42.7393 160.966C42.6402 159.98 42.4771 159.002 42.2501 158.03C42.0325 132.371 42.0325 106.713 42.2501 81.0537C43.8265 73.8235 48.2298 69.4202 55.46 67.8438C81.119 67.6262 106.778 67.6262 132.437 67.8438C133.419 68.0075 134.398 68.1706 135.372 68.333Z" fill="#A4A1A4"/>
<path fill-rule="evenodd" clip-rule="evenodd" d="M93.6219 85.6201C94.2743 86.9248 94.9266 88.2295 95.579 89.5342C90.9607 89.3694 87.4273 91.2175 84.9784 95.0791C83.7438 97.9138 82.3847 100.686 80.9012 103.396C77.1685 103.867 73.472 104.52 69.8114 105.354C62.9213 108.936 61.236 114.209 64.7557 121.173C67.2565 123.674 69.7569 126.174 72.2577 128.675C71.9149 132.366 71.5346 136.062 71.1161 139.765C69.6366 139.879 68.2233 139.661 66.8758 139.112C62.7103 137.151 60.536 133.835 60.3524 129.164C60.9689 125.523 61.4581 121.881 61.8202 118.237C59.3194 115.737 56.819 113.236 54.3182 110.735C50.776 103.532 52.5699 98.1497 59.7001 94.5898C63.284 93.9652 66.8719 93.3673 70.4637 92.7959C72.0401 89.6428 73.6168 86.49 75.1932 83.3369C78.7413 79.0177 83.1446 77.8761 88.4032 79.9121C90.7748 81.2501 92.5143 83.1529 93.6219 85.6201Z" fill="#8F6626"/>
<path fill-rule="evenodd" clip-rule="evenodd" d="M93.6221 85.6201C94.9411 86.0911 96.0827 86.8524 97.0469 87.9033C98.3203 89.5805 99.2446 91.4289 99.8193 93.4482C98.8995 93.5304 98.03 93.3674 97.21 92.959C96.5309 91.8732 95.9875 90.7316 95.5791 89.5342C94.9268 88.2295 94.2744 86.9248 93.6221 85.6201Z" fill="#989697"/>
<path fill-rule="evenodd" clip-rule="evenodd" d="M95.579 89.5342C95.9874 90.7315 96.5308 91.8731 97.2099 92.959C98.0299 93.3673 98.8994 93.5304 99.8193 93.4482C102.902 93.8338 105.946 94.4316 108.952 95.2422C111.405 96.4454 113.254 98.2394 114.497 100.624C115.575 104.152 115.194 107.522 113.355 110.735C110.855 113.236 108.354 115.737 105.853 118.237C105.933 120.973 106.26 123.691 106.832 126.392C107.605 135.295 103.528 139.698 94.6005 139.602C90.9317 137.985 87.3438 136.191 83.8368 134.22C80.5595 136.185 77.1891 137.979 73.7255 139.602C72.8625 139.764 71.9926 139.818 71.1161 139.765C71.5346 136.062 71.9149 132.366 72.2577 128.675C69.757 126.174 67.2565 123.674 64.7558 121.173C61.2361 114.209 62.9214 108.936 69.8114 105.353C73.4721 104.52 77.1686 103.867 80.9013 103.396C82.3847 100.686 83.7439 97.9138 84.9784 95.0791C87.4273 91.2175 90.9607 89.3694 95.579 89.5342Z" fill="#AB8337"/>
<path fill-rule="evenodd" clip-rule="evenodd" d="M114.497 100.624C118.994 103.095 120.897 106.9 120.205 112.04C119.817 113.577 119.165 114.991 118.248 116.28C115.856 118.672 113.464 121.064 111.072 123.456C111.213 126.183 111.539 128.901 112.051 131.61C112.822 140.515 108.745 144.918 99.8193 144.82C96.1506 143.203 92.5627 141.41 89.0557 139.438C85.7783 141.403 82.408 143.197 78.9443 144.82C75.2915 145.614 72.0298 144.853 69.1592 142.537C68.1083 141.573 67.347 140.431 66.876 139.112C68.2234 139.661 69.6367 139.879 71.1162 139.765C71.9926 139.818 72.8625 139.764 73.7256 139.602C77.1892 137.979 80.5595 136.185 83.8369 134.22C87.3439 136.191 90.9318 137.985 94.6006 139.602C103.528 139.698 107.605 135.295 106.832 126.392C106.26 123.691 105.933 120.973 105.854 118.237C108.354 115.737 110.855 113.236 113.355 110.735C115.194 107.522 115.575 104.152 114.497 100.624Z" fill="#98969B"/>
<defs>
<linearGradient id="paint0_linear_233_17831" x1="83.837" y1="5.05567" x2="167.203" y2="61.5694" gradientUnits="userSpaceOnUse">
<stop stop-color="#5425B3"/>
<stop offset="1" stop-color="#3F48A2"/>
</linearGradient>
</defs>
</svg>
