<svg width="21" height="25" viewBox="0 0 21 25" fill="none" xmlns="http://www.w3.org/2000/svg">
<g clip-path="url(#clip0_1053_53018)">
<path d="M18.007 7.93042C17.0783 7.09708 16.0842 6.4004 14.9282 5.88115C14.848 6.26023 14.8085 6.62661 14.5853 6.93886C14.1959 6.69745 13.8153 6.44952 13.4215 6.22047C13.1015 6.03485 12.7666 5.87146 12.4364 5.70155C12.3178 5.6404 12.1985 5.61167 12.0518 5.63589C10.9077 5.82502 9.83954 6.17903 8.91404 6.85733C8.89118 6.87404 8.87064 6.89359 8.84796 6.91046C8.82885 6.92466 8.80813 6.93686 8.7742 6.95891L9.29482 7.38176C8.60328 7.6048 8.05784 7.99875 7.58027 8.52735C7.86603 8.56912 8.12178 8.60855 8.37843 8.64263C8.45951 8.65349 8.50166 8.67187 8.51077 8.76375C8.609 9.77285 9.63755 10.383 10.3732 10.4978C10.8599 10.5736 11.348 10.5511 11.8377 10.5338C12.613 10.5066 13.3885 10.4936 14.1332 10.753C14.1397 10.7552 14.1495 10.7494 14.1763 10.7425C13.9546 10.5176 13.7476 10.2901 13.521 10.0819C13.1995 9.78672 12.8655 9.5027 12.5298 9.22152C12.4636 9.17023 12.3822 9.1393 12.2965 9.13298C11.9156 9.10792 11.5337 9.08419 11.1521 9.08135C10.7468 9.07834 10.3662 8.99915 10.0072 8.82724C9.79686 8.727 9.59343 8.61256 9.37411 8.49795C9.82811 8.10667 10.3335 7.83903 10.9127 7.6885C11.1105 7.63704 11.2878 7.66979 11.4726 7.73444C11.9727 7.9092 12.4494 8.12605 12.8893 8.41692C13.1715 8.18152 13.481 8.00777 13.8811 7.98254C13.7953 8.11068 13.7071 8.22178 13.6423 8.34374C13.549 8.5195 13.4855 8.70595 13.5442 8.90593C13.5576 8.95201 13.5825 8.99444 13.6169 9.02973C14.0991 9.50203 14.5856 9.97066 15.0653 10.4451C15.1261 10.5051 15.1632 10.5165 15.2439 10.4807C15.5626 10.3395 15.9065 10.2811 16.2537 10.2614C16.762 10.2326 17.2718 10.2371 17.7636 10.388C17.8683 10.4199 17.9694 10.4622 18.0915 10.4854C17.9554 10.3507 17.829 10.2059 17.6807 10.0834C17.3291 9.79156 16.9663 9.51189 16.6113 9.22286C16.5479 9.17123 16.4997 9.10107 16.4529 9.03441C16.2407 8.73218 16.0314 8.42795 15.8201 8.12288C16.1691 8.23181 16.48 8.4236 16.7697 8.6438C16.9092 8.54122 17.0323 8.41943 17.1823 8.34658C17.5779 8.15479 17.5622 8.12672 17.8195 8.51365C17.891 8.62225 17.9233 8.75557 17.9651 8.8802C17.9935 8.9649 17.9651 9.03975 17.8885 9.09739C17.8118 9.15503 17.7402 9.21283 17.6563 9.27899L18.5355 10.1701C18.5693 9.9476 18.5982 9.75731 18.632 9.53645C19.6627 10.9181 20.4419 12.3766 20.7969 14.0139C21.194 15.8446 20.9889 17.6324 20.3515 19.4067L19.4228 18.4466C19.1117 21.192 17.7209 23.2882 15.2884 24.8102C15.2213 24.5698 15.1564 24.3414 15.0937 24.1125C15.0311 23.8836 14.9701 23.6519 14.9066 23.4148C14.6485 23.5652 14.4065 23.7156 14.1565 23.8492C13.1874 24.3689 12.1264 24.7214 11.024 24.8901C10.3018 25.0045 9.56657 25.0286 8.8376 24.9616C7.87404 24.8724 6.93907 24.6047 6.08718 24.1742C6.00771 24.1342 5.98842 24.0873 6.00235 24.0128C6.09343 23.5283 6.1922 23.0453 6.27203 22.5593C6.40353 21.7749 6.44246 20.9793 6.38812 20.1869C6.33847 19.4942 6.20166 18.8181 5.97734 18.1178C5.0422 19.4304 4.03062 20.6469 2.70398 21.6215C2.48252 21.2819 2.33518 20.9262 2.21534 20.5603C2.01513 19.9495 1.90047 19.324 1.82992 18.688C1.75195 18.0068 1.72808 17.3212 1.75848 16.6367C1.78456 16.0904 1.82474 15.5442 1.98173 14.9849L0 15.5571C0.25236 13.5471 1.04534 11.7834 2.34482 10.1877L1.15143 10.0039C1.99709 8.41575 3.16388 7.11061 4.68768 6.05908C4.04187 7.46713 4.8461 8.69876 5.56746 8.96056C5.48191 8.76442 5.3869 8.5733 5.31421 8.37499C5.15168 7.93092 5.09167 7.47281 5.19758 7.01104C5.39565 6.1498 6.14719 5.75986 7.0584 6.04371C7.29397 6.11705 7.51347 6.23584 7.73297 6.33057C7.7235 5.91289 7.04661 5.36725 6.25542 5.13886C6.68138 4.9718 7.10198 4.7917 7.5349 4.64234C8.3386 4.36534 9.16712 4.18557 10.0174 4.0865C10.815 3.99378 11.6127 3.98726 12.4107 4.0439C12.5276 4.05225 12.646 4.12259 12.7511 4.1834C13.2377 4.46491 13.6462 4.83179 14.0263 5.22825C14.0798 5.28421 14.1322 5.34102 14.2061 5.41971C14.1936 4.99819 14.0966 4.63064 13.9064 4.23352C14.3406 4.36717 14.7406 4.47727 15.1318 4.61109C15.8412 4.85368 16.4959 5.19066 17.0748 5.64909C17.2057 5.75267 17.335 5.84957 17.3532 6.03686C17.4068 6.58301 17.6222 7.08672 17.8509 7.58525C17.9017 7.69184 17.9486 7.7996 18.007 7.93042ZM16.4913 12.8188C16.4913 12.6184 16.4875 12.4194 16.4929 12.2197C16.4952 12.1362 16.4695 12.0956 16.3791 12.063C15.9528 11.9097 15.5618 11.6955 15.1888 11.4487C15.1268 11.4078 15.028 11.3936 14.95 11.4011C14.8317 11.4128 14.7149 11.4489 14.601 11.4846C13.6187 11.788 12.7698 12.3106 11.9606 12.8967C11.9325 12.9171 11.9224 12.9969 11.9413 13.0304C12.319 13.707 12.7009 14.3815 13.087 15.0539C13.1015 15.0752 13.1205 15.0935 13.1428 15.1077C13.1652 15.1218 13.1903 15.1316 13.2168 15.1364C13.4964 15.172 13.7648 15.108 14.0216 15.0175C14.9369 14.695 15.6945 14.14 16.4327 13.56C16.4684 13.5316 16.4863 13.4666 16.4884 13.4181C16.4948 13.2183 16.4913 13.0185 16.4913 12.8188ZM13.7682 16.2352C13.7819 16.2687 13.7882 16.2899 13.7989 16.3089C14.0268 16.7126 14.2533 17.117 14.4869 17.5178C14.5047 17.5486 14.581 17.5755 14.6188 17.5658C15.1598 17.4278 15.6603 17.2087 16.1062 16.8875C16.1725 16.8399 16.2312 16.7826 16.2929 16.7296L16.3464 16.7373C16.4074 17.2455 16.4682 17.7541 16.529 18.2629C16.5445 18.2579 16.5593 18.2511 16.5731 18.2427C16.6322 18.2033 16.6924 18.1649 16.7474 18.1209C17.3755 17.6197 17.7313 16.9682 17.9154 16.2279C17.9401 16.129 17.9294 16.0127 17.8999 15.9136C17.8043 15.5924 17.6357 15.302 17.4137 15.0419C17.3681 14.9936 17.3039 14.9641 17.2351 14.9598C16.9249 14.955 16.6143 14.9598 16.3039 14.9692C16.2474 14.9735 16.1934 14.9928 16.1482 15.0248C15.9339 15.1725 15.7303 15.3347 15.5109 15.4759C14.9803 15.8149 14.4442 16.148 13.7682 16.2352ZM18.4814 14.9695C18.8743 14.2775 18.914 13.5533 18.8182 12.8155C18.7568 12.343 18.6275 11.8844 18.4185 11.4572C18.0887 11.6702 17.777 11.8769 17.4582 12.0736C17.3819 12.1207 17.3577 12.1673 17.3586 12.2481C17.3625 12.6339 17.3641 13.0198 17.3586 13.4056C17.356 13.4546 17.3648 13.5036 17.3842 13.5492C17.4037 13.5948 17.4333 13.6359 17.4712 13.6699C17.7977 13.9873 18.1105 14.3146 18.3346 14.7057C18.3816 14.7893 18.4275 14.873 18.4814 14.9695Z" fill="white"/>
<path d="M14.6112 3.73916C11.4704 2.9805 8.47599 3.30479 5.6202 4.76864C5.27104 3.82754 4.87008 2.91552 4.19141 2.09554C4.9492 2.41882 5.60234 2.83064 6.24065 3.31832C6.09777 2.47145 5.96025 1.65765 5.81773 0.812287L8.62869 2.63334C8.94856 1.75572 9.26307 0.892313 9.58741 0.00200326L11.158 2.36669L13.4525 -0.000335693C13.5148 0.848039 13.5753 1.67035 13.6389 2.53343C14.1497 1.91728 14.6905 1.37648 15.3535 0.901C14.8988 1.81787 14.7293 2.76265 14.6112 3.73916Z" fill="white"/>
</g>
<defs>
<clipPath id="clip0_1053_53018">
<rect width="21" height="25" fill="white"/>
</clipPath>
</defs>
</svg>
