<svg width="16" height="15" viewBox="0 0 16 15" fill="none" xmlns="http://www.w3.org/2000/svg">
<g clip-path="url(#clip0_200_8597)">
<path d="M8.02165 14.2697C11.94 14.2697 15.1165 11.0932 15.1165 7.17485C15.1165 3.25645 11.94 0.0799561 8.02165 0.0799561C4.10325 0.0799561 0.926758 3.25645 0.926758 7.17485C0.926758 11.0932 4.10325 14.2697 8.02165 14.2697Z" fill="#DA1157"/>
<path d="M10.2323 8.57967C10.5882 8.57967 10.9295 8.4383 11.1811 8.18666C11.4328 7.93502 11.5741 7.59372 11.5741 7.23785C11.5741 6.88197 11.4328 6.54068 11.1811 6.28904C10.9295 6.0374 10.5882 5.89603 10.2323 5.89603C9.87643 5.89603 9.53513 6.0374 9.28349 6.28904C9.03185 6.54068 8.89048 6.88197 8.89048 7.23785C8.89048 7.59372 9.03185 7.93502 9.28349 8.18666C9.53513 8.4383 9.87643 8.57967 10.2323 8.57967ZM10.2323 4.14314C10.7433 4.14284 11.2464 4.26905 11.6967 4.51052C12.1471 4.75199 12.5306 5.10119 12.8132 5.52697C13.0957 5.95275 13.2684 6.44186 13.3159 6.95064C13.3634 7.45942 13.2842 7.97204 13.0853 8.44275C12.8865 8.91346 12.5742 9.32762 12.1763 9.64826C11.7784 9.9689 11.3074 10.186 10.8051 10.2803C10.3029 10.3746 9.78518 10.343 9.29812 10.1885C8.81105 10.034 8.36983 9.76126 8.01382 9.39469C8.57661 8.81789 8.89128 8.04372 8.89048 7.23785C8.89132 6.43196 8.57665 5.65777 8.01382 5.081C8.30181 4.78388 8.64662 4.54774 9.02775 4.38662C9.40887 4.2255 9.81852 4.1427 10.2323 4.14314ZM5.79578 8.57967C6.15165 8.57967 6.49295 8.4383 6.74459 8.18666C6.99623 7.93502 7.1376 7.59372 7.1376 7.23785C7.1376 6.88197 6.99623 6.54068 6.74459 6.28904C6.49295 6.0374 6.15165 5.89603 5.79578 5.89603C5.4399 5.89603 5.09861 6.0374 4.84697 6.28904C4.59533 6.54068 4.45396 6.88197 4.45396 7.23785C4.45396 7.59372 4.59533 7.93502 4.84697 8.18666C5.09861 8.4383 5.4399 8.57967 5.79578 8.57967ZM8.01426 5.081C7.45163 5.65787 7.13713 6.43204 7.13804 7.23785C7.13804 8.07682 7.47239 8.8373 8.01426 9.39469C7.58503 9.83647 7.03375 10.1401 6.43096 10.2668C5.82817 10.3935 5.20128 10.3375 4.63053 10.1058C4.05977 9.87423 3.5711 9.47759 3.22705 8.96667C2.883 8.45576 2.69922 7.85381 2.69922 7.23785C2.69922 6.62189 2.883 6.01994 3.22705 5.50902C3.5711 4.9981 4.05977 4.60146 4.63053 4.36985C5.20128 4.13824 5.82817 4.08219 6.43096 4.20887C7.03375 4.33556 7.58503 4.63922 8.01426 5.081ZM7.1376 7.23829C7.1376 8.07726 7.47195 8.83774 8.01426 9.39514C8.57693 8.81829 8.89144 8.04411 8.89048 7.23829C8.89144 6.43247 8.57693 5.65829 8.01426 5.08144C7.45143 5.65822 7.13675 6.43241 7.1376 7.23829Z" fill="white"/>
</g>
<defs>
<clipPath id="clip0_200_8597">
<rect width="14.1898" height="14.1898" fill="white" transform="translate(0.926758 0.0799561)"/>
</clipPath>
</defs>
</svg>
