<svg width="20" height="20" viewBox="0 0 20 20" fill="none" xmlns="http://www.w3.org/2000/svg">
<g clip-path="url(#clip0_1118_58839)">
<path opacity="0.984" fill-rule="evenodd" clip-rule="evenodd" d="M8.99455 0H9.32319C9.05596 3.98028 10.574 7.07103 13.8772 9.2723C15.7585 10.4156 17.793 10.8773 19.9805 10.6573C19.599 14.5654 17.6585 17.3901 14.1589 19.1315C13.038 19.6347 11.8643 19.9242 10.6377 20C10.9029 16.0155 9.38484 12.9247 6.08376 10.7277C4.20131 9.58408 2.16686 9.12244 -0.0195312 9.34272C0.361858 5.43465 2.30239 2.60991 5.80207 0.868545C6.82822 0.416512 7.89239 0.126995 8.99455 0ZM10.7786 0C14.6237 0.430502 17.4015 2.37104 19.1119 5.8216C19.5926 6.89911 19.8821 8.02587 19.9805 9.20188C16.3709 9.48244 13.6244 8.08967 11.741 5.02347C10.8858 3.44704 10.565 1.77257 10.7786 0ZM8.26685 15.0704C6.43587 11.9988 3.72066 10.559 0.121314 10.7511C0.0880274 10.7936 0.0410791 10.8092 -0.0195312 10.7981C0.0777035 11.9382 0.351567 13.0337 0.802065 14.0845C2.49679 17.5974 5.29023 19.5693 9.18235 20C9.39315 18.2605 9.08798 16.6173 8.26685 15.0704Z" fill="#69727D"/>
</g>
<defs>
<clipPath id="clip0_1118_58839">
<rect width="20" height="20" fill="white"/>
</clipPath>
</defs>
</svg>
